<svg xmlns="http://www.w3.org/2000/svg" width="71.94" height="75.4" viewBox="0 0 71.94 75.4">
  <title>Asset 1</title>
  <g id="Layer_2" data-name="Layer 2">
    <g id="sity">
      <g>
        <g>
          <g>
            <path d="M37.92,30.77c0-2,1.43-2.86,3.19-1.85L71.05,46.17a1.93,1.93,0,0,1,.88,1.52c0,.56-.39.78-.88.5L41.12,31c-.8-.46-1.44-.09-1.44.83v3.35c-.58,0-1.16,0-1.75,0Z" style="fill: #ff2c9c"/>
            <path d="M71.07,54.22,41.13,43.31a7.06,7.06,0,0,1-3.2-5.53V35.1c.59,0,1.17,0,1.75,0v3.66a3.19,3.19,0,0,0,1.44,2.49L71.06,52.19a1.93,1.93,0,0,1,.88,1.52C71.94,54.27,71.55,54.49,71.07,54.22Z" style="fill: #d3008d"/>
          </g>
          <polygon points="71.72 54.26 35.3 75.33 4.46 56.94 2.01 53.29 2.27 54.58 2.92 51.2 60.16 53.38 70.25 52.73 71.72 54.26" style="fill: #d3008d"/>
          <polygon points="70.51 47.9 70.52 52.38 35.32 72.74 34.37 68.47 70.51 47.9" style="fill: #e573b5"/>
          <polygon points="2.47 49.76 38.83 28.72 71.61 47.78 71.68 48.25 35.27 69.32 2.47 49.76" style="fill: #ff2c9c"/>
          <path d="M14.06,60.56,5.51,55.49A3.26,3.26,0,0,1,4.22,53.1v-.67c0-.54.22-.89.57-1L21.62,60.8l13.71,7.41v4.53Z" style="fill: #fff"/>
          <path d="M34.1,68.62l36.13-20.9.77-.44.7-.41a1.82,1.82,0,0,1,.23.82.61.61,0,0,1-.25.56h0L35.27,69.32Z" style="fill: #d3008d"/>
          <polygon points="35.75 75.07 35.3 75.33 35.21 75.19 35.49 74.96 35.75 75.07" style="fill: #fff"/>
          <polygon points="35.74 69.05 35.27 69.31 35.39 69.06 35.74 69.05" style="fill: #fff"/>
          <path d="M34.64,67.24,4.7,50c-1.76-1-3.19-.19-3.19,1.85v.67A7.08,7.08,0,0,0,4.71,58L34.65,75.28c.48.28.88.06.88-.5a2,2,0,0,0-.88-1.52L4.71,56a3.18,3.18,0,0,1-1.44-2.49v-.67c0-.92.65-1.29,1.44-.84L34.64,69.26c.48.28.88,0,.88-.5A2,2,0,0,0,34.64,67.24Z" style="fill: #ff2c9c"/>
          <g>
            <path d="M35.53,74.78a2,2,0,0,0-.88-1.52L4.71,56a3.18,3.18,0,0,1-1.44-2.49v-.67c0-.6.28-1,.69-1a1.21,1.21,0,0,0-.21.74v.67a3.16,3.16,0,0,0,1.44,2.49L35.13,73A2,2,0,0,1,36,74.5c0,.42-.23.65-.55.62A.86.86,0,0,0,35.53,74.78Z" style="fill: #fff"/>
            <path d="M35.52,68.76a2,2,0,0,0-.88-1.52L4.7,50a2.44,2.44,0,0,0-2-.34,2.12,2.12,0,0,1,2.49.06L35.12,67A1.94,1.94,0,0,1,36,68.48c0,.42-.22.65-.54.62A.86.86,0,0,0,35.52,68.76Z" style="fill: #fff"/>
          </g>
        </g>
        <g>
          <path d="M1.25,18.85,33.55.2A1.26,1.26,0,0,1,34.64.07h0l.06,0h0l1.17.45-1.05.51s0,0,0,.06l5.26,24a3,3,0,0,1-1.18,3.12L7.41,46.38l.11,1.34-1.28-.5a1.77,1.77,0,0,1-.91-1.29L.07,22A3,3,0,0,1,1.25,18.85Z" style="fill: #173d7a"/>
          <path d="M1.25,18.85,33.55.2A1.26,1.26,0,0,1,34.64.07h0l.06,0h0l1.17.45-1.05.51s0,0,0,.06l3.47,15.78L22.51,29.2.23,20.14A2.47,2.47,0,0,1,1.25,18.85Z" style="fill: #396caa"/>
          <path d="M2.46,22.53,0,21.48A3.09,3.09,0,0,1,1,19l3.89,1.64Z" style="fill: #274f89"/>
          <path d="M8.64,47.59l32.3-18.65a3,3,0,0,0,1.18-3.12L36.86,1.87C36.6.67,35.64.12,34.73.65L2.43,19.3a3,3,0,0,0-1.18,3.13l5.26,24C6.77,47.58,7.73,48.12,8.64,47.59Z" style="fill: #d4ecff"/>
          <path d="M2.12,19.19,34.42.54A1.26,1.26,0,0,1,35.69.48a1.36,1.36,0,0,0-1,.17L2.43,19.3a3,3,0,0,0-1.18,3.13l5.26,24a1.85,1.85,0,0,0,.86,1.27A1.67,1.67,0,0,1,6.2,46.26L.94,22.31A3,3,0,0,1,2.12,19.19Z" style="fill: #fff"/>
          <path d="M9.34,45.81,39.72,28.28a2.76,2.76,0,0,0,1.08-2.86L36,3.5C35.74,2.41,34.87,1.91,34,2.39L3.65,19.92a2.79,2.79,0,0,0-1.07,2.86L7.39,44.7C7.63,45.8,8.51,46.29,9.34,45.81Z" style="fill: #fff"/>
          <path d="M9.34,45.81,39.72,28.28a2.76,2.76,0,0,0,1.08-2.86L36,3.5C35.74,2.41,34.87,1.91,34,2.39L3.65,19.92a2.79,2.79,0,0,0-1.07,2.86L7.39,44.7C7.63,45.8,8.51,46.29,9.34,45.81Z" style="fill: #173d7a"/>
          <path d="M9.08,45.7,39.46,28.17a2.75,2.75,0,0,0,1.07-2.86L35.72,3.4A1.68,1.68,0,0,0,35,2.24,1.55,1.55,0,0,1,36,3.5L40.8,25.42a2.76,2.76,0,0,1-1.08,2.86L9.34,45.81a1.14,1.14,0,0,1-1.18,0A1.2,1.2,0,0,0,9.08,45.7Z" style="fill: #5793ce"/>
          <path d="M8.2,48.4l4.41-.58,28.5-16.45a4,4,0,0,1,3.57.14l20.2,11.66,2.67-.35v1.51h0a1,1,0,0,1-.61.94L34.63,63.92a4,4,0,0,1-3.57-.15l-22-12.69a1.43,1.43,0,0,1-.87-1.2h0Z" style="fill: #173d7a"/>
          <path d="M29.61,38l2-1.17H53.9l11,6.33,2.67-.35v1.51h0a1,1,0,0,1-.61.94L34.63,63.92a3.29,3.29,0,0,1-1.84.34Z" style="fill: #396caa"/>
          <path d="M66.36,43l1.19-.15v1.51h0a1,1,0,0,1-.61.94l-.57.33Z" style="fill: #5793ce"/>
          <path d="M34.3,64.07a4.11,4.11,0,0,1-3-.19V60.5h3Z" style="fill: #274f89"/>
          <path d="M34.63,62.4l32.3-18.64c.91-.53.8-1.45-.26-2.06L44.68,29a4,4,0,0,0-3.57-.15L8.81,47.5C7.9,48,8,49,9.07,49.56l22,12.7A4,4,0,0,0,34.63,62.4Z" style="fill: #d4ecff"/>
          <path d="M9.07,49l22,12.69a4,4,0,0,0,3.57.15L66.93,43.2a1.2,1.2,0,0,0,.57-.62,1,1,0,0,1-.57,1.18L34.63,62.4a4,4,0,0,1-3.57-.14l-22-12.7c-.71-.41-1-1-.83-1.43A1.76,1.76,0,0,0,9.07,49Z" style="fill: #fff"/>
          <g>
            <path d="M53.19,37.58l1.46-.84c.12-.07.11-.19,0-.27l-1.72-1a.5.5,0,0,0-.46,0L51,36.3c-.12.07-.11.19,0,.27l1.72,1A.5.5,0,0,0,53.19,37.58Z" style="fill: #5793ce"/>
            <path d="M50.93,38.88,52.4,38c.11-.07.1-.19,0-.26l-1.72-1a.5.5,0,0,0-.46,0l-1.46.84c-.12.07-.1.19,0,.27l1.73,1A.51.51,0,0,0,50.93,38.88Z" style="fill: #5793ce"/>
            <path d="M48.68,40.19l1.46-.85c.12-.06.1-.18,0-.26l-1.73-1a.53.53,0,0,0-.46,0l-1.46.85c-.12.07-.1.18,0,.26l1.73,1A.53.53,0,0,0,48.68,40.19Z" style="fill: #5793ce"/>
            <path d="M45.56,39.11,47,38.27c.11-.07.1-.19,0-.27l-1.44-.83a.5.5,0,0,0-.46,0L43.62,38c-.12.07-.11.19,0,.27l1.45.83A.5.5,0,0,0,45.56,39.11Z" style="fill: #5793ce"/>
            <path d="M43.3,40.41l1.46-.84c.12-.07.1-.19,0-.26l-1.45-.84a.5.5,0,0,0-.46,0l-1.46.84c-.12.07-.1.19,0,.27l1.45.84A.53.53,0,0,0,43.3,40.41Z" style="fill: #5793ce"/>
            <path d="M41,41.72l1.46-.85c.12-.06.11-.18,0-.26L41,39.77a.53.53,0,0,0-.46,0l-1.46.85c-.11.07-.1.18,0,.26l1.44.84A.53.53,0,0,0,41,41.72Z" style="fill: #5793ce"/>
            <path d="M38.78,43l1.47-.84c.11-.07.1-.19,0-.27l-1.44-.83a.5.5,0,0,0-.46,0l-1.46.84c-.12.07-.11.19,0,.27l1.45.83A.48.48,0,0,0,38.78,43Z" style="fill: #5793ce"/>
            <path d="M36.53,44.32,38,43.48c.12-.07.1-.19,0-.26l-1.45-.84a.5.5,0,0,0-.46,0l-1.46.84c-.12.07-.1.19,0,.27l1.45.83A.5.5,0,0,0,36.53,44.32Z" style="fill: #5793ce"/>
            <path d="M34.27,45.63l1.46-.85c.12-.06.1-.18,0-.26l-1.45-.84a.53.53,0,0,0-.46,0l-1.46.85c-.12.06-.1.18,0,.26l1.45.84A.53.53,0,0,0,34.27,45.63Z" style="fill: #5793ce"/>
            <path d="M32,46.93l1.46-.84c.12-.07.11-.19,0-.27L32,45a.48.48,0,0,0-.45,0l-1.47.84c-.11.07-.1.19,0,.26l1.45.84A.48.48,0,0,0,32,46.93Z" style="fill: #5793ce"/>
            <path d="M29.76,48.23l1.46-.84c.12-.07.1-.19,0-.27l-1.44-.83a.5.5,0,0,0-.46,0l-1.46.84c-.12.07-.11.19,0,.27l1.45.83A.5.5,0,0,0,29.76,48.23Z" style="fill: #5793ce"/>
            <path d="M27.5,49.54,29,48.69c.12-.07.1-.18,0-.26l-1.45-.84a.53.53,0,0,0-.46,0l-1.46.85c-.12.06-.1.18,0,.26l1.45.84A.53.53,0,0,0,27.5,49.54Z" style="fill: #5793ce"/>
            <path d="M25.24,50.84,26.7,50c.12-.07.11-.19,0-.27l-1.45-.84a.53.53,0,0,0-.46,0l-1.46.84c-.11.07-.1.19,0,.26l1.44.84A.5.5,0,0,0,25.24,50.84Z" style="fill: #5793ce"/>
            <path d="M42.23,38.49l1.46-.84c.12-.07.1-.19,0-.26l-1.45-.84a.5.5,0,0,0-.46,0l-1.46.84c-.12.07-.1.19,0,.27l1.45.84A.53.53,0,0,0,42.23,38.49Z" style="fill: #5793ce"/>
            <path d="M44.52,37.17,46,36.33c.12-.07.11-.19,0-.27l-1.45-.83a.5.5,0,0,0-.46,0l-1.46.84c-.12.07-.1.19,0,.27l1.45.83A.5.5,0,0,0,44.52,37.17Z" style="fill: #5793ce"/>
            <path d="M46.82,35.85,50,34c.12-.07.11-.19,0-.27l-1.45-.83a.5.5,0,0,0-.46,0l-3.14,1.82c-.12.07-.11.18,0,.26l1.45.84A.53.53,0,0,0,46.82,35.85Z" style="fill: #5793ce"/>
            <path d="M45.21,34.24l2.56-1.48c.11-.07.1-.19,0-.26l-1.44-.84a.5.5,0,0,0-.46,0l-2.56,1.48c-.11.06-.1.18,0,.26l1.44.84A.57.57,0,0,0,45.21,34.24Z" style="fill: #5793ce"/>
            <path d="M40,39.8,41.43,39c.12-.06.11-.18,0-.26L40,37.85a.51.51,0,0,0-.45,0L38,38.68c-.11.07-.1.18,0,.26l1.45.84A.51.51,0,0,0,40,39.8Z" style="fill: #5793ce"/>
            <path d="M37.72,41.1l1.46-.84c.11-.07.1-.19,0-.27l-1.44-.83a.5.5,0,0,0-.46,0L35.78,40c-.12.07-.11.19,0,.27l1.45.83A.5.5,0,0,0,37.72,41.1Z" style="fill: #5793ce"/>
            <path d="M35.46,42.4l1.46-.84c.12-.07.1-.19,0-.26l-1.45-.84a.5.5,0,0,0-.46,0l-1.46.84c-.12.07-.1.19,0,.27l1.45.83A.5.5,0,0,0,35.46,42.4Z" style="fill: #5793ce"/>
            <path d="M33.2,43.71l1.46-.85c.12-.07.11-.18,0-.26l-1.45-.84a.53.53,0,0,0-.46,0l-1.46.85c-.11.06-.1.18,0,.26l1.44.84A.53.53,0,0,0,33.2,43.71Z" style="fill: #5793ce"/>
            <path d="M30.94,45l1.47-.84c.11-.07.1-.19,0-.27l-1.44-.83a.5.5,0,0,0-.46,0L29,43.89c-.12.07-.11.19,0,.26l1.45.84A.48.48,0,0,0,30.94,45Z" style="fill: #5793ce"/>
            <path d="M28.69,46.31l1.46-.84c.12-.07.1-.19,0-.27l-1.45-.83a.5.5,0,0,0-.46,0l-1.46.84c-.12.07-.1.19,0,.27l1.45.83A.5.5,0,0,0,28.69,46.31Z" style="fill: #5793ce"/>
            <path d="M26.43,47.62l1.46-.85c.12-.07.1-.18,0-.26l-1.45-.84a.5.5,0,0,0-.46,0l-1.46.85c-.12.06-.1.18,0,.26L26,47.6A.53.53,0,0,0,26.43,47.62Z" style="fill: #5793ce"/>
            <path d="M24.17,48.92l1.47-.84c.11-.07.1-.19,0-.27L24.15,47a.51.51,0,0,0-.45,0l-1.47.84c-.11.07-.1.19,0,.26l1.45.84A.48.48,0,0,0,24.17,48.92Z" style="fill: #5793ce"/>
            <path d="M21.92,50.22l1.46-.84c.12-.07.1-.19,0-.27l-1.45-.83a.5.5,0,0,0-.46,0L20,49.1c-.12.07-.11.19,0,.27l1.45.83A.5.5,0,0,0,21.92,50.22Z" style="fill: #5793ce"/>
            <path d="M17.9,52.54l3.19-1.84c.12-.07.11-.19,0-.27l-1.45-.83a.5.5,0,0,0-.46,0L16,51.42c-.11.07-.1.19,0,.26l1.45.84A.48.48,0,0,0,17.9,52.54Z" style="fill: #5793ce"/>
            <path d="M13.51,50l2.69-1.55c.12-.07.1-.19,0-.27l-1.45-.83a.5.5,0,0,0-.46,0l-2.69,1.55c-.12.07-.1.19,0,.27l1.45.83A.5.5,0,0,0,13.51,50Z" style="fill: #5793ce"/>
            <path d="M36,39.54l1.46-.84c.12-.07.1-.19,0-.27L36,37.6a.5.5,0,0,0-.46,0l-1.46.84c-.12.07-.1.19,0,.27l1.45.83A.5.5,0,0,0,36,39.54Z" style="fill: #5793ce"/>
            <path d="M38.33,38.21l1.47-.85c.11-.06.1-.18,0-.26l-1.45-.84a.51.51,0,0,0-.45,0l-1.47.85c-.11.07-.1.18,0,.26l1.45.84A.51.51,0,0,0,38.33,38.21Z" style="fill: #5793ce"/>
            <path d="M40.65,36.87,42.11,36c.12-.07.1-.19,0-.27l-1.45-.83a.5.5,0,0,0-.46,0l-1.46.84c-.12.07-.1.19,0,.27l1.45.83A.5.5,0,0,0,40.65,36.87Z" style="fill: #5793ce"/>
            <path d="M43,35.54l1.46-.85c.12-.07.1-.18,0-.26l-1.45-.84a.5.5,0,0,0-.46,0L41,34.42c-.12.06-.1.18,0,.26l1.45.84A.57.57,0,0,0,43,35.54Z" style="fill: #5793ce"/>
            <path d="M33.76,40.85,35.22,40c.12-.07.11-.18,0-.26l-1.45-.84a.48.48,0,0,0-.45,0l-1.47.85c-.11.06-.1.18,0,.26l1.45.84A.55.55,0,0,0,33.76,40.85Z" style="fill: #5793ce"/>
            <path d="M31.51,42.15,33,41.3c.12-.06.1-.18,0-.26l-1.44-.84a.53.53,0,0,0-.46,0L29.57,41c-.12.07-.11.19,0,.26l1.45.84A.5.5,0,0,0,31.51,42.15Z" style="fill: #5793ce"/>
            <path d="M29.25,43.45l1.46-.84c.12-.07.1-.19,0-.27l-1.45-.83a.5.5,0,0,0-.46,0l-1.46.84c-.12.07-.1.19,0,.27l1.45.83A.5.5,0,0,0,29.25,43.45Z" style="fill: #5793ce"/>
            <path d="M27,44.75l1.46-.84c.12-.07.11-.19,0-.26L27,42.81a.5.5,0,0,0-.46,0l-1.46.85c-.11.06-.1.18,0,.26l1.44.84A.53.53,0,0,0,27,44.75Z" style="fill: #5793ce"/>
            <path d="M24.74,46.06l1.46-.85c.11-.06.1-.18,0-.26l-1.44-.84a.57.57,0,0,0-.46,0l-1.46.85c-.12.07-.11.18,0,.26l1.45.84A.5.5,0,0,0,24.74,46.06Z" style="fill: #5793ce"/>
            <path d="M22.48,47.36l1.46-.84c.12-.07.1-.19,0-.27l-1.45-.83a.5.5,0,0,0-.46,0l-1.46.84c-.12.07-.1.19,0,.27l1.45.83A.5.5,0,0,0,22.48,47.36Z" style="fill: #5793ce"/>
            <path d="M20.22,48.66l1.46-.84c.12-.07.11-.19,0-.26l-1.45-.84a.5.5,0,0,0-.46,0l-1.46.84c-.12.07-.1.19,0,.27l1.45.84A.53.53,0,0,0,20.22,48.66Z" style="fill: #5793ce"/>
            <path d="M18,50l1.47-.85c.11-.06.1-.18,0-.26L17.94,48a.51.51,0,0,0-.45,0L16,48.85c-.11.07-.1.18,0,.26l1.45.84A.51.51,0,0,0,18,50Z" style="fill: #5793ce"/>
            <path d="M15.71,51.27l1.46-.84c.12-.07.1-.19,0-.27l-1.45-.83a.5.5,0,0,0-.46,0l-1.46.84c-.12.07-.1.19,0,.27l1.45.83A.5.5,0,0,0,15.71,51.27Z" style="fill: #5793ce"/>
            <path d="M37.21,36.32l1.46-.84c.12-.07.1-.19,0-.27l-1.45-.84a.53.53,0,0,0-.46,0l-1.46.84c-.12.07-.1.19,0,.26l1.45.84A.5.5,0,0,0,37.21,36.32Z" style="fill: #5793ce"/>
            <path d="M39.45,35l1.47-.84c.11-.07.1-.19,0-.27l-1.44-.83a.5.5,0,0,0-.46,0l-1.46.84c-.12.07-.11.19,0,.27L39,35A.48.48,0,0,0,39.45,35Z" style="fill: #5793ce"/>
            <path d="M41.7,33.73l1.46-.85c.12-.07.1-.18,0-.26l-1.45-.84a.5.5,0,0,0-.46,0l-1.46.85c-.12.06-.1.18,0,.26l1.45.84A.57.57,0,0,0,41.7,33.73Z" style="fill: #5793ce"/>
            <path d="M44,32.43l1.46-.84c.12-.07.1-.19,0-.27l-1.45-.84a.53.53,0,0,0-.46,0L42,31.31c-.12.07-.1.19,0,.26l1.45.84A.5.5,0,0,0,44,32.43Z" style="fill: #5793ce"/>
            <path d="M41.64,31.1l1.46-.85c.12-.07.1-.18,0-.26l-.48-.28a.5.5,0,0,0-.46,0l-1.46.85c-.12.06-.1.18,0,.26l.48.28A.57.57,0,0,0,41.64,31.1Z" style="fill: #5793ce"/>
            <path d="M38.71,32.79l1.46-.85c.12-.06.1-.18,0-.26l-.47-.28a.57.57,0,0,0-.46,0l-1.46.85c-.12.07-.11.18,0,.26l.48.28A.5.5,0,0,0,38.71,32.79Z" style="fill: #5793ce"/>
            <path d="M36.47,34.08l1.46-.84c.12-.07.1-.19,0-.27l-.48-.28a.53.53,0,0,0-.46,0l-1.46.84c-.12.07-.1.19,0,.26l.48.28A.5.5,0,0,0,36.47,34.08Z" style="fill: #5793ce"/>
            <path d="M34.23,35.37l1.46-.84c.12-.07.11-.19,0-.27L35.18,34a.48.48,0,0,0-.45,0l-1.47.84c-.11.07-.1.19,0,.26l.48.28A.48.48,0,0,0,34.23,35.37Z" style="fill: #5793ce"/>
            <path d="M32,36.66l1.46-.84c.12-.07.1-.19,0-.27L33,35.28a.5.5,0,0,0-.46,0L31,36.1c-.12.07-.11.19,0,.27l.48.27A.5.5,0,0,0,32,36.66Z" style="fill: #5793ce"/>
            <path d="M19.51,43.87,21,43c.12-.07.1-.19,0-.27l-.48-.27a.5.5,0,0,0-.46,0l-1.46.84c-.12.07-.1.19,0,.27l.48.27A.5.5,0,0,0,19.51,43.87Z" style="fill: #5793ce"/>
            <path d="M17.27,45.16l1.47-.84c.11-.07.1-.19,0-.27l-.48-.27a.48.48,0,0,0-.45,0l-1.47.84c-.11.07-.1.19,0,.27l.48.27A.48.48,0,0,0,17.27,45.16Z" style="fill: #5793ce"/>
            <path d="M15,46.45l1.46-.84c.12-.07.1-.19,0-.27L16,45.07a.5.5,0,0,0-.46,0l-1.46.84c-.12.07-.1.19,0,.27l.48.27A.5.5,0,0,0,15,46.45Z" style="fill: #5793ce"/>
            <path d="M12.8,47.74l1.46-.84c.12-.07.11-.19,0-.26l-.48-.28a.5.5,0,0,0-.46,0l-1.46.84c-.12.07-.1.19,0,.27l.48.28A.53.53,0,0,0,12.8,47.74Z" style="fill: #5793ce"/>
            <path d="M35,37.62l1.46-.84c.12-.07.11-.19,0-.27l-1.45-.83a.5.5,0,0,0-.46,0L33,36.5c-.11.07-.1.19,0,.27l1.44.83A.5.5,0,0,0,35,37.62Z" style="fill: #5793ce"/>
            <path d="M32.69,38.93l1.47-.85c.11-.07.1-.18,0-.26L32.68,37a.5.5,0,0,0-.46,0l-1.46.85c-.12.06-.11.18,0,.26l1.45.84A.55.55,0,0,0,32.69,38.93Z" style="fill: #5793ce"/>
            <path d="M30.44,40.23l1.46-.85c.12-.06.1-.18,0-.26l-1.45-.84a.53.53,0,0,0-.46,0l-1.46.84c-.12.07-.1.19,0,.26l1.45.84A.5.5,0,0,0,30.44,40.23Z" style="fill: #5793ce"/>
            <path d="M28.18,41.53l1.46-.84c.12-.07.1-.19,0-.27l-1.45-.83a.5.5,0,0,0-.46,0l-1.46.84c-.12.07-.1.19,0,.27l1.45.83A.5.5,0,0,0,28.18,41.53Z" style="fill: #5793ce"/>
            <path d="M25.92,42.83,27.39,42c.11-.07.1-.19,0-.26l-1.45-.84a.48.48,0,0,0-.45,0L24,41.72c-.11.06-.1.18,0,.26l1.45.84A.51.51,0,0,0,25.92,42.83Z" style="fill: #5793ce"/>
            <path d="M23.67,44.14l1.46-.85c.12-.06.1-.18,0-.26l-1.45-.84a.57.57,0,0,0-.46,0L21.73,43c-.12.07-.11.18,0,.26l1.45.84A.5.5,0,0,0,23.67,44.14Z" style="fill: #5793ce"/>
            <path d="M21.41,45.44l1.46-.84c.12-.07.1-.19,0-.27l-1.45-.83a.5.5,0,0,0-.46,0l-1.46.84c-.12.07-.1.19,0,.27l1.45.83A.5.5,0,0,0,21.41,45.44Z" style="fill: #5793ce"/>
            <path d="M19.15,46.74l1.46-.84c.12-.07.11-.19,0-.26l-1.45-.84a.5.5,0,0,0-.46,0l-1.46.84c-.11.07-.1.19,0,.27l1.44.84A.53.53,0,0,0,19.15,46.74Z" style="fill: #5793ce"/>
            <path d="M16.9,48.05l1.46-.85c.11-.06.1-.18,0-.26l-1.44-.84a.53.53,0,0,0-.46,0L15,46.93c-.12.07-.11.18,0,.26l1.45.84A.53.53,0,0,0,16.9,48.05Z" style="fill: #5793ce"/>
            <path d="M47.86,37.78l4.3-2.48c.12-.07.1-.19,0-.27l-1.45-.83a.5.5,0,0,0-.46,0l-4.3,2.48c-.12.07-.11.19,0,.27l1.45.83A.5.5,0,0,0,47.86,37.78Z" style="fill: #5793ce"/>
            <path d="M20.13,53.79l4.3-2.48c.12-.07.1-.19,0-.27L23,50.21a.5.5,0,0,0-.46,0l-4.3,2.48c-.12.07-.1.19,0,.27l1.45.83A.5.5,0,0,0,20.13,53.79Z" style="fill: #5793ce"/>
            <path d="M29.15,51.46l1.47-.84c.11-.07.1-.19,0-.27l-1.72-1a.5.5,0,0,0-.46,0l-1.46.84c-.12.07-.1.19,0,.26l1.73,1A.48.48,0,0,0,29.15,51.46Z" style="fill: #5793ce"/>
            <path d="M45.54,42l2.34-1.35c.12-.07.1-.19,0-.27l-1.73-1a.48.48,0,0,0-.45,0l-2.34,1.35c-.12.06-.1.18,0,.26l1.73,1A.51.51,0,0,0,45.54,42Z" style="fill: #5793ce"/>
            <path d="M31.33,50.2l2.34-1.35c.11-.06.1-.18,0-.26l-1.72-1a.57.57,0,0,0-.46,0l-2.34,1.35c-.11.07-.1.19,0,.27l1.72,1A.5.5,0,0,0,31.33,50.2Z" style="fill: #5793ce"/>
            <path d="M42.29,43.88l2.34-1.35c.11-.07.1-.19,0-.27l-1.72-1a.5.5,0,0,0-.46,0L40.07,42.6c-.12.06-.1.18,0,.26l1.72,1A.53.53,0,0,0,42.29,43.88Z" style="fill: #5793ce"/>
            <path d="M42.39,41.26,32.23,47.12a.15.15,0,0,0,0,.27l1.76,1a.47.47,0,0,0,.46,0l10.16-5.86Z" style="fill: #5793ce"/>
            <path d="M22.85,53.82l-1.63.94c-.1.06-.09.15,0,.22l.71.41a.42.42,0,0,0,.38,0L24,54.46c.1-.05.09-.15,0-.21l-.71-.41A.41.41,0,0,0,22.85,53.82Z" style="fill: #5793ce"/>
            <path d="M25.12,52.51l-1.63.94c-.09,0-.08.15,0,.21l.71.41a.41.41,0,0,0,.37,0l1.63-.94c.1-.06.08-.15,0-.22l-.7-.41A.42.42,0,0,0,25.12,52.51Z" style="fill: #5793ce"/>
            <path d="M27.38,51.2l-1.63.94c-.1.06-.08.16,0,.22l.7.41a.42.42,0,0,0,.38,0l1.63-.94c.09-.05.08-.15,0-.21l-.71-.41A.44.44,0,0,0,27.38,51.2Z" style="fill: #5793ce"/>
            <path d="M23.87,51.79l-1.62.94c-.1.05-.09.15,0,.22l.71.4a.41.41,0,0,0,.37,0L25,52.43c.1-.06.09-.15,0-.22l-.71-.41A.42.42,0,0,0,23.87,51.79Z" style="fill: #5793ce"/>
          </g>
          <g>
            <polygon points="14.96 26.36 27.12 19.34 26.96 18.55 14.8 25.57 14.96 26.36" style="fill: #d4ecff"/>
            <polygon points="19.31 27.7 27.8 22.8 27.64 22 19.16 26.9 19.31 27.7" style="fill: #d4ecff"/>
            <polygon points="20.12 25.31 27.46 21.07 27.3 20.28 19.96 24.52 20.12 25.31" style="fill: #fff"/>
            <polygon points="15.3 28.09 18.97 25.97 18.82 25.18 15.14 27.3 15.3 28.09" style="fill: #ff2c9c"/>
            <polygon points="28.41 12.45 32.08 10.33 31.93 9.54 28.25 11.66 28.41 12.45" style="fill: #d4ecff"/>
            <polygon points="28.81 14.28 32.48 12.16 32.32 11.37 28.65 13.49 28.81 14.28" style="fill: #fff"/>
            <polygon points="10.79 39.76 14.46 37.64 14.31 36.85 10.64 38.97 10.79 39.76" style="fill: #d4ecff"/>
            <polygon points="29.61 17.96 33.28 15.84 33.12 15.05 29.45 17.17 29.61 17.96" style="fill: #d4ecff"/>
          </g>
          <g>
            <path d="M21.67,18.53a.47.47,0,0,0,.66.2.57.57,0,0,0,.24-.72.46.46,0,0,0-.66-.21A.59.59,0,0,0,21.67,18.53Z" style="fill: #ff2c9c"/>
            <path d="M20.09,19.44a.47.47,0,0,0,.66.2.57.57,0,0,0,.24-.72.46.46,0,0,0-.66-.2A.58.58,0,0,0,20.09,19.44Z" style="fill: #fff"/>
            <path d="M18.51,20.35a.45.45,0,0,0,.66.2.57.57,0,0,0,.24-.72.46.46,0,0,0-.66-.2A.58.58,0,0,0,18.51,20.35Z" style="fill: #d4ecff"/>
            <path d="M16.93,21.26a.46.46,0,0,0,.66.21.58.58,0,0,0,.24-.72.46.46,0,0,0-.66-.21A.57.57,0,0,0,16.93,21.26Z" style="fill: #ff2c9c"/>
          </g>
        </g>
        <g>
          <g>
            <g>
              <path d="M50.76,64a1.27,1.27,0,0,1,1.5.23,7.18,7.18,0,0,1,1.41,3.45c0,1.12-.88,1-1.42.78a10,10,0,0,1-2.2-3,1.54,1.54,0,0,1,.26-1.17C50.46,64.2,50.76,64,50.76,64Z" style="fill: #ff2c9c"/>
              <path d="M50.56,63.8l-.05,1a.57.57,0,0,0,.28.5,1.07,1.07,0,0,0,.71.11c.7-.11.76-.31.81-1.27S50.56,63.8,50.56,63.8Z" style="fill: #d4ecff"/>
              <g>
                <path d="M54.16,62.17a1.27,1.27,0,0,1,1.5.23,7.18,7.18,0,0,1,1.41,3.45c0,1.12-.88,1-1.42.78a10,10,0,0,1-2.21-3,1.58,1.58,0,0,1,.27-1.17C53.86,62.35,54.16,62.17,54.16,62.17Z" style="fill: #ff2c9c"/>
                <path d="M54,62l-.05,1a.56.56,0,0,0,.27.5,1.11,1.11,0,0,0,.72.11c.7-.11.76-.31.81-1.27S54,62,54,62Z" style="fill: #d4ecff"/>
                <path d="M45.67,44.29c.28-4.47,4.84.66,4.84.66L53.64,48l2.81,3.09a2.77,2.77,0,0,1,.7,2.23L56,62a.84.84,0,0,1-.85.74,2.27,2.27,0,0,1-.42,0,1,1,0,0,1-.94-1.12L54,53.47,48.1,49.91S45.4,48.76,45.67,44.29Z" style="fill: #173d7a"/>
              </g>
              <path d="M42.27,46c.28-4.47,4.85.66,4.85.66l3.12,3.06,2.82,3.1a2.79,2.79,0,0,1,.7,2.23L52.62,63.7a.87.87,0,0,1-.86.75l-.42,0a1.06,1.06,0,0,1-.94-1.13l.2-7.87-5.9-3.8S42,50.46,42.27,46Z" style="fill: #173d7a"/>
              <path d="M45,31.64c-3.47,1.44-3.4,3.48-3.4,3.48A116.32,116.32,0,0,1,42,47.64c-.1,2.09,11.13,2.25,9.46-3.34-2-6.58-1.24-11.92-2.16-12.72S45.87,31.27,45,31.64Z" style="fill: #ff2c9c"/>
              <path d="M43.86,33.46a1.6,1.6,0,0,0,2.06.82c.95-.24,1.58-1,1.4-1.71a1.6,1.6,0,0,0-2.06-.83C44.31,32,43.68,32.75,43.86,33.46Z" style="fill: #ffc2b0"/>
              <path d="M45.25,34.3l.64.69a.4.4,0,0,1,.1.33l-.43,3.79a.37.37,0,0,0,.08.3L47,41.2a.12.12,0,0,0,.21,0L48,38.82a.39.39,0,0,0,0-.28L46.65,35.1a.44.44,0,0,1,0-.23l.19-.91Z" style="fill: #fff"/>
              <path d="M44.54,34.38a1.33,1.33,0,0,1-.84-.88,2,2,0,0,1,3.78-1,1.31,1.31,0,0,1-.31,1.17,2.28,2.28,0,0,1-1.21.75,2.72,2.72,0,0,1-.63.08A2.06,2.06,0,0,1,44.54,34.38Zm.77-2.48c-.87.22-1.45.9-1.29,1.52h0a1,1,0,0,0,.64.65,2.11,2.11,0,0,0,2.26-.58,1,1,0,0,0,.24-.88,1.25,1.25,0,0,0-1.3-.78A2.08,2.08,0,0,0,45.31,31.9Z" style="fill: #fff"/>
              <path d="M46.36,31.49a8.44,8.44,0,0,0,0,1.23c0,.35-1.18.67-1.5.36s-.18-.64-.26-1.81S46.36,31.49,46.36,31.49Z" style="fill: #ffc2b0"/>
              <path d="M44.63,31.27a2.42,2.42,0,0,0,1.76,1.5l0-1Z" style="fill: #ea9c92"/>
              <circle cx="46.28" cy="29.17" r="2.67" style="fill: #ffc2b0"/>
              <path d="M45.67,29.27a8.43,8.43,0,0,0,2.48.63c1,0,.8-.84.8-.84l-3-.44Z" style="fill: #ea9c92"/>
              <path d="M48.46,29.43a4.75,4.75,0,0,0-2.4-.31,1.14,1.14,0,0,0-.68.4.43.43,0,0,1-.21.15c-.19,0-.52-.78-.91-.8s-.64.25-.32.76.21,1.08.06,1.16-2-1.18-.59-3.88,5.09-1.18,5.63-.63c0,0,.57.5,1,.06C50.07,26.34,50.59,30.21,48.46,29.43Z" style="fill: #d4ecff"/>
              <path d="M43.53,40.61v2a.78.78,0,0,0,.27.61L48,47l-.47.72L41.75,44a1.12,1.12,0,0,1-.46-.79l-.39-3.76Z" style="fill: #ffc2b0"/>
              <path d="M41.88,34.11S40.61,36,40.14,41a7.2,7.2,0,0,0,3.39.3C44.75,40.92,41.88,34.11,41.88,34.11Z" style="fill: #ff2c9c"/>
              <path d="M43.76,36.51a36,36,0,0,1,.52,3.9.78.78,0,0,1-.52.76h0Z" style="fill: #d3008d"/>
            </g>
            <g>
              <path d="M44.84,49.68l.92-.12,5.94-3.43a.81.81,0,0,1,.74,0l4.21,2.43.56-.08v.56h0a.22.22,0,0,1-.13.19l-6.73,3.89a.83.83,0,0,1-.75,0L45,50.47c-.13-.07-.19-.16-.18-.25h0Z" style="fill: #5793ce"/>
              <path d="M49.3,47.51l.42-.24h4.65l2.28,1.32.56-.08v.56h0a.22.22,0,0,1-.13.19l-6.73,3.89a.68.68,0,0,1-.39.07Z" style="fill: #396caa"/>
              <path d="M57,48.55l.25,0v.56h0a.22.22,0,0,1-.13.19l-.12.07Z" style="fill: #5793ce"/>
              <path d="M50.28,53.18a.82.82,0,0,1-.63,0V52.2h.63Z" style="fill: #5793ce"/>
              <path d="M50.35,52.6l6.73-3.89c.19-.11.17-.3,0-.43l-4.59-2.65a.84.84,0,0,0-.74,0L45,49.49c-.2.11-.17.3.05.43l4.58,2.65A.86.86,0,0,0,50.35,52.6Z" style="fill: #fff"/>
              <path d="M50.46,52l5.6-3.24c.16-.09.14-.25,0-.35L53.56,47a.68.68,0,0,0-.62,0l-5.6,3.23c-.16.09-.14.25,0,.36L49.84,52A.68.68,0,0,0,50.46,52Z" style="fill: #d4ecff"/>
            </g>
            <path d="M52.18,45.5l.07.47a3.4,3.4,0,0,1,0,1.19l-.08.41a.58.58,0,0,1-.46.45h0a.32.32,0,0,1-.38-.27l-.11-1s-.25.34-.37.34.13-1,.41-1.56S52.18,45.5,52.18,45.5Z" style="fill: #ffc2b0"/>
            <path d="M49.9,38.12l.72,1.43a3,3,0,0,1,.3,1.09l.31,4.89,1,0L52.61,40a1.75,1.75,0,0,0,0-.51l-.49-2.78Z" style="fill: #ffc2b0"/>
            <g>
              <path d="M50.58,53l.56-.74,5.94-3.44a.81.81,0,0,0,.34-.65V43.27l.34-.44-.32-.19h0a.21.21,0,0,0-.24,0l-6.72,3.89a.81.81,0,0,0-.35.66v5.3a.31.31,0,0,0,.12.28h0Z" style="fill: #173d7a"/>
              <path d="M54.68,50.18l.42-.24,2.32-4V43.27l.34-.44-.32-.19h0a.21.21,0,0,0-.24,0l-6.72,3.89a.64.64,0,0,0-.26.3Z" style="fill: #396caa"/>
              <path d="M57.61,43l.15-.2-.32-.19h0a.21.21,0,0,0-.24,0l-.11.06Z" style="fill: #5793ce"/>
              <path d="M50.41,46.6a.86.86,0,0,0-.28.56l.66.38.32-.55Z" style="fill: #274f89"/>
              <path d="M50.8,46.74l6.72-3.9c.2-.11.35,0,.35.26v5.3a.84.84,0,0,1-.35.66L50.8,53c-.19.11-.34,0-.34-.26V47.4A.82.82,0,0,1,50.8,46.74Z" style="fill: #5793ce"/>
            </g>
            <path d="M47.49,47.76l.1.23a1.48,1.48,0,0,0,.57.62l.67.41a.66.66,0,0,0,.68,0h0a.41.41,0,0,0,.06-.62l-.7-.72s.39.3.5.18-.38-.52-.73-.54A1.35,1.35,0,0,1,48,47Z" style="fill: #ffc2b0"/>
            <path d="M49.26,31.57a21.81,21.81,0,0,1,3.59,5.34,5.17,5.17,0,0,1-3,2.19C47.69,39.72,49.26,31.57,49.26,31.57Z" style="fill: #ff2c9c"/>
            <path d="M50.31,38.94l-.41-4,1,3.76C50.7,38.78,50.51,38.86,50.31,38.94Z" style="fill: #d3008d"/>
            <path d="M47.34,31l.69-.19a1.66,1.66,0,0,1-.81.65c-.48.13-.55-.27-.55-.27Z" style="fill: #fff"/>
          </g>
          <circle cx="44.05" cy="29.9" r="0.38" style="fill: #fff"/>
        </g>
      </g>
    </g>
  </g>
</svg>
