<svg xmlns="http://www.w3.org/2000/svg" xmlns:xlink="http://www.w3.org/1999/xlink" viewBox="0 0 178.72 171.23">
  <defs>
    <style>
      .cls-1 {
        isolation: isolate;
      }

      .cls-2 {
        fill: #cfcfe3;
      }

      .cls-3 {
        fill: #e6e6f0;
      }

      .cls-4 {
        fill: #b0cc38;
      }

      .cls-5 {
        fill: #727171;
      }

      .cls-6 {
        fill: #424242;
      }

      .cls-7 {
        fill: #474747;
      }

      .cls-8 {
        fill: #727a71;
      }

      .cls-9 {
        fill: #7f877d;
      }

      .cls-10, .cls-11, .cls-15, .cls-23, .cls-26 {
        mix-blend-mode: multiply;
      }

      .cls-10 {
        fill: url(#linear-gradient);
      }

      .cls-11 {
        opacity: 0.6;
      }

      .cls-12 {
        fill: url(#linear-gradient-2);
      }

      .cls-13 {
        fill: url(#linear-gradient-3);
      }

      .cls-14 {
        fill: url(#linear-gradient-4);
      }

      .cls-15 {
        fill: url(#linear-gradient-5);
      }

      .cls-16 {
        fill: url(#linear-gradient-6);
      }

      .cls-17 {
        fill: url(#linear-gradient-7);
      }

      .cls-18 {
        fill: url(#linear-gradient-8);
      }

      .cls-19 {
        fill: #d2d2db;
      }

      .cls-20 {
        fill: #b6b6d1;
      }

      .cls-21 {
        fill: #f1f1f2;
      }

      .cls-22 {
        fill: #a2a2ba;
      }

      .cls-23 {
        fill: url(#linear-gradient-9);
      }

      .cls-24 {
        fill: #e3e3ed;
      }

      .cls-25 {
        fill: #f6f6f7;
      }

      .cls-26 {
        fill: url(#linear-gradient-10);
      }

      .cls-27 {
        fill: #83badd;
      }

      .cls-28 {
        fill: #578687;
      }

      .cls-29 {
        fill: #9b9b9c;
      }

      .cls-30 {
        fill: #dfdfe0;
      }

      .cls-31 {
        fill: #c3c3c4;
      }

      .cls-32 {
        fill: #e4e4e6;
      }

      .cls-33 {
        fill: #ededf7;
      }
    </style>
    <linearGradient id="linear-gradient" x1="43.17" y1="75.46" x2="36.28" y2="63.52" gradientUnits="userSpaceOnUse">
      <stop offset="0" stop-color="#fff" stop-opacity="0"/>
      <stop offset="0.1" stop-color="#f5f5f5" stop-opacity="0.15"/>
      <stop offset="0.33" stop-color="#e0e1e2" stop-opacity="0.45"/>
      <stop offset="0.55" stop-color="#d0d2d3" stop-opacity="0.69"/>
      <stop offset="0.74" stop-color="#c5c6c8" stop-opacity="0.86"/>
      <stop offset="0.89" stop-color="#bebfc1" stop-opacity="0.96"/>
      <stop offset="1" stop-color="#bbbdbf"/>
    </linearGradient>
    <linearGradient id="linear-gradient-2" x1="41.5" y1="81.58" x2="44.67" y2="81.58" gradientUnits="userSpaceOnUse">
      <stop offset="0" stop-color="#f7f7f7"/>
      <stop offset="0" stop-color="#f6f6f6" stop-opacity="0.99"/>
      <stop offset="0.04" stop-color="#eaeaef" stop-opacity="0.8"/>
      <stop offset="0.09" stop-color="#dfdfe9" stop-opacity="0.63"/>
      <stop offset="0.14" stop-color="#d5d5e3" stop-opacity="0.48"/>
      <stop offset="0.19" stop-color="#cdcdde" stop-opacity="0.35"/>
      <stop offset="0.25" stop-color="#c6c6da" stop-opacity="0.24"/>
      <stop offset="0.32" stop-color="#c0c0d7" stop-opacity="0.15"/>
      <stop offset="0.39" stop-color="#bbbbd4" stop-opacity="0.08"/>
      <stop offset="0.49" stop-color="#b8b8d2" stop-opacity="0.04"/>
      <stop offset="0.62" stop-color="#b6b6d1" stop-opacity="0.01"/>
      <stop offset="1" stop-color="#b6b6d1" stop-opacity="0"/>
    </linearGradient>
    <linearGradient id="linear-gradient-3" x1="41.5" y1="109.31" x2="44.67" y2="109.31" xlink:href="#linear-gradient-2"/>
    <linearGradient id="linear-gradient-4" x1="41.5" y1="118.99" x2="44.67" y2="118.99" xlink:href="#linear-gradient-2"/>
    <linearGradient id="linear-gradient-5" x1="75.5" y1="21.12" x2="74.38" y2="19.18" xlink:href="#linear-gradient"/>
    <linearGradient id="linear-gradient-6" x1="130.56" y1="72.92" x2="133.73" y2="72.92" xlink:href="#linear-gradient-2"/>
    <linearGradient id="linear-gradient-7" x1="130.56" y1="118.27" x2="133.73" y2="118.27" xlink:href="#linear-gradient-2"/>
    <linearGradient id="linear-gradient-8" x1="130.56" y1="141.11" x2="133.73" y2="141.11" xlink:href="#linear-gradient-2"/>
    <linearGradient id="linear-gradient-9" x1="94.52" y1="22.95" x2="92.85" y2="20.07" gradientUnits="userSpaceOnUse">
      <stop offset="0" stop-color="#fff" stop-opacity="0"/>
      <stop offset="0.27" stop-color="#e8e8e9" stop-opacity="0.34"/>
      <stop offset="0.51" stop-color="#d4d6d7" stop-opacity="0.63"/>
      <stop offset="0.73" stop-color="#c7c8ca" stop-opacity="0.83"/>
      <stop offset="0.9" stop-color="#bec0c2" stop-opacity="0.95"/>
      <stop offset="1" stop-color="#bbbdbf"/>
    </linearGradient>
    <linearGradient id="linear-gradient-10" x1="151.32" y1="56.13" x2="150.31" y2="54.38" gradientUnits="userSpaceOnUse">
      <stop offset="0" stop-color="#fff" stop-opacity="0"/>
      <stop offset="0.07" stop-color="#f4f4f4" stop-opacity="0.13"/>
      <stop offset="0.23" stop-color="#dcddde" stop-opacity="0.39"/>
      <stop offset="0.39" stop-color="#c9cacc" stop-opacity="0.61"/>
      <stop offset="0.54" stop-color="#b9bbbd" stop-opacity="0.78"/>
      <stop offset="0.7" stop-color="#afb0b3" stop-opacity="0.9"/>
      <stop offset="0.85" stop-color="#a8aaad" stop-opacity="0.98"/>
      <stop offset="1" stop-color="#a6a8ab"/>
    </linearGradient>
  </defs>
  <title>Map</title>
  <g class="cls-1">
    <g id="sity">
      <g>
        <g>
          <g>
            <g class="cls-1">
              <polygon class="cls-2" points="88.43 71.25 88.43 117.14 41.51 128.61 41.51 82.72 88.43 71.25"/>
            </g>
            <g class="cls-1">
              <polygon class="cls-3" points="14.3 121.96 14.3 76.07 41.51 82.72 41.51 128.61 14.3 121.96"/>
            </g>
            <polygon class="cls-4" points="14.3 76.07 61.24 64.6 88.43 71.25 41.51 82.72 14.3 76.07"/>
          </g>
          <g>
            <polygon class="cls-5" points="59.75 64.05 85.83 70.43 85.83 69.44 59.75 63.07 59.75 64.05"/>
            <polygon class="cls-6" points="59.75 63.07 59.75 64.05 13.45 75.37 13.45 74.39 59.75 63.07"/>
            <g class="cls-1">
              <polygon class="cls-6" points="89.75 69.4 89.75 70.92 41.51 82.72 41.51 81.2 89.75 69.4"/>
            </g>
            <g class="cls-1">
              <polygon class="cls-5" points="11.48 73.86 11.48 75.38 41.51 82.72 41.51 81.2 11.48 73.86"/>
            </g>
            <path class="cls-7" d="M59.74,62.06,11.48,73.86l30,7.34L89.75,69.4ZM15.45,73.9l44.3-10.83,26.08,6.38L41.53,80.28Z"/>
            <polygon class="cls-8" points="59.75 64.05 17.46 74.39 41.53 80.28 83.83 69.94 59.75 64.05"/>
          </g>
          <polygon class="cls-9" points="59.76 65.04 21.5 74.39 41.52 79.29 79.78 69.93 59.76 65.04"/>
          <polygon class="cls-10" points="17.46 74.39 59.75 64.05 61.99 64.6 19.71 74.94 17.46 74.39"/>
          <g class="cls-11">
            <g class="cls-1">
              <polygon class="cls-12" points="44.67 80.44 44.67 81.96 41.51 82.72 41.51 81.2 44.67 80.44"/>
            </g>
          </g>
          <g class="cls-11">
            <g class="cls-1">
              <polygon class="cls-13" points="44.67 108.51 44.67 109.35 41.5 110.11 41.5 109.27 44.67 108.51"/>
            </g>
          </g>
          <g class="cls-11">
            <g class="cls-1">
              <polygon class="cls-14" points="44.67 118.19 44.67 119.03 41.5 119.79 41.5 118.95 44.67 118.19"/>
            </g>
          </g>
          <polygon class="cls-6" points="41.51 128.61 88.43 117.14 88.43 109.15 41.51 120.62 41.51 128.61"/>
          <polygon class="cls-7" points="41.51 120.62 14.3 113.97 14.3 121.96 41.51 128.61 41.51 120.62"/>
        </g>
        <g>
          <g>
            <g class="cls-1">
              <polygon class="cls-2" points="165.61 55.38 165.61 143.6 130.56 163.84 130.56 75.61 165.61 55.38"/>
            </g>
            <g class="cls-1">
              <polygon class="cls-3" points="55.45 120.47 55.45 32.25 130.56 75.61 130.56 163.84 55.45 120.47"/>
            </g>
            <polygon class="cls-4" points="55.45 32.25 90.51 12.02 165.61 55.38 130.56 75.61 55.45 32.25"/>
          </g>
          <g>
            <polygon class="cls-5" points="89.02 10.72 163.01 53.44 163.01 51.12 89.02 8.41 89.02 10.72"/>
            <polygon class="cls-6" points="89.02 8.41 89.02 10.72 54.6 30.6 54.6 28.29 89.02 8.41"/>
            <g class="cls-1">
              <polygon class="cls-6" points="166.93 51.02 166.93 54.61 130.56 75.61 130.56 72.02 166.93 51.02"/>
            </g>
            <g class="cls-1">
              <polygon class="cls-5" points="52.63 27.02 52.63 30.61 130.56 75.61 130.56 72.02 52.63 27.02"/>
            </g>
            <path class="cls-7" d="M89,6,52.63,27l77.93,45,36.37-21ZM56.6,27.13,89,8.41l74,42.71L130.58,69.84Z"/>
            <polygon class="cls-8" points="89.02 10.72 58.61 28.29 130.59 69.84 161 52.28 89.02 10.72"/>
          </g>
          <polygon class="cls-9" points="89.03 13.06 62.65 28.29 130.58 67.51 156.96 52.28 89.03 13.06"/>
          <polygon class="cls-15" points="58.61 28.29 89.02 10.72 91.27 12.02 60.86 29.57 58.61 28.29"/>
          <g class="cls-11">
            <g class="cls-1">
              <polygon class="cls-16" points="133.73 70.22 133.73 73.81 130.56 75.61 130.56 72.02 133.73 70.22"/>
            </g>
          </g>
          <g class="cls-11">
            <g class="cls-1">
              <polygon class="cls-17" points="133.73 116.37 133.73 118.36 130.56 120.16 130.56 118.17 133.73 116.37"/>
            </g>
          </g>
          <g class="cls-11">
            <g class="cls-1">
              <polygon class="cls-18" points="133.73 139.22 133.73 141.2 130.56 143.01 130.56 141.01 133.73 139.22"/>
            </g>
          </g>
          <polygon class="cls-7" points="55.45 120.47 55.45 101.69 130.58 145.06 130.56 163.84 55.45 120.47"/>
          <polygon class="cls-6" points="130.58 145.06 165.59 124.85 165.61 143.6 130.56 163.84 130.58 145.06"/>
        </g>
        <g>
          <g>
            <polygon class="cls-19" points="89.43 16.67 92.54 18.47 92.54 17.27 89.43 15.47 89.43 16.67"/>
            <polygon class="cls-20" points="89.43 15.47 89.43 16.67 85.29 19.07 85.29 17.87 89.43 15.47"/>
            <g class="cls-1">
              <polygon class="cls-20" points="94.57 17.22 94.57 19.07 89.42 22.05 89.42 20.19 94.57 17.22"/>
            </g>
            <g class="cls-1">
              <polygon class="cls-19" points="84.27 17.22 84.27 19.07 89.42 22.05 89.42 20.19 84.27 17.22"/>
            </g>
            <path class="cls-21" d="M89.42,14.24l-5.15,3,5.15,3,5.15-3Zm-3.1,3,3.11-1.8,3.11,1.8-3.11,1.8Z"/>
            <polygon class="cls-22" points="89.43 16.67 87.36 17.87 89.43 19.07 91.51 17.87 89.43 16.67"/>
          </g>
          <polygon class="cls-23" points="94.57 19.07 89.42 22.05 93.62 23.47 97.95 20.96 94.57 19.07"/>
        </g>
        <g>
          <g>
            <g class="cls-1">
              <polygon class="cls-2" points="153.61 45.85 153.61 52.48 147.76 56 147.76 49.37 153.61 45.85"/>
            </g>
            <g class="cls-1">
              <polygon class="cls-24" points="141.86 45.97 141.86 52.59 147.76 56 147.76 49.37 141.86 45.97"/>
            </g>
            <polygon class="cls-25" points="141.86 45.97 147.71 42.45 153.61 45.85 147.76 49.37 141.86 45.97"/>
          </g>
          <g>
            <g class="cls-1">
              <polygon class="cls-2" points="147.76 54.13 147.76 56.02 146.1 57.02 146.1 55.13 147.76 54.13"/>
            </g>
            <g class="cls-1">
              <polygon class="cls-24" points="144.41 54.16 144.41 56.05 146.1 57.02 146.1 55.13 144.41 54.16"/>
            </g>
            <polygon class="cls-25" points="144.41 54.16 146.08 53.16 147.76 54.13 146.1 55.13 144.41 54.16"/>
          </g>
          <polygon class="cls-26" points="148.66 57.56 146.1 57.02 153.61 52.48 155.63 53.64 148.66 57.56"/>
        </g>
        <g>
          <g>
            <g>
              <g class="cls-1">
                <polygon class="cls-27" points="139.33 78.29 139.33 89.88 133.84 93.05 133.84 81.46 139.33 78.29"/>
              </g>
              <g class="cls-1">
                <polygon class="cls-28" points="138.69 78.66 138.69 89.51 139.33 89.88 139.33 78.29 138.69 78.66"/>
              </g>
            </g>
            <polygon class="cls-21" points="139.33 89.88 138.69 89.51 133.84 92.31 133.84 93.05 139.33 89.88"/>
          </g>
          <g>
            <g>
              <g class="cls-1">
                <polygon class="cls-27" points="147.03 73.84 147.03 85.43 141.54 88.61 141.54 77.02 147.03 73.84"/>
              </g>
              <g class="cls-1">
                <polygon class="cls-28" points="146.39 74.21 146.39 85.06 147.03 85.43 147.03 73.84 146.39 74.21"/>
              </g>
            </g>
            <polygon class="cls-21" points="147.03 85.43 146.39 85.06 141.54 87.87 141.54 88.61 147.03 85.43"/>
          </g>
          <g>
            <g>
              <g class="cls-1">
                <polygon class="cls-27" points="154.73 69.4 154.73 80.99 149.24 84.16 149.24 72.57 154.73 69.4"/>
              </g>
              <g class="cls-1">
                <polygon class="cls-28" points="154.09 69.77 154.1 80.62 154.73 80.99 154.73 69.4 154.09 69.77"/>
              </g>
            </g>
            <polygon class="cls-21" points="154.73 80.99 154.1 80.62 149.24 83.42 149.24 84.16 154.73 80.99"/>
          </g>
          <g>
            <g>
              <g class="cls-1">
                <polygon class="cls-27" points="162.79 64.74 162.79 76.33 157.3 79.51 157.3 67.92 162.79 64.74"/>
              </g>
              <g class="cls-1">
                <polygon class="cls-28" points="162.15 65.11 162.15 75.97 162.79 76.33 162.79 64.74 162.15 65.11"/>
              </g>
            </g>
            <polygon class="cls-21" points="162.79 76.33 162.15 75.97 157.3 78.77 157.3 79.51 162.79 76.33"/>
          </g>
        </g>
        <g>
          <g>
            <g>
              <g class="cls-1">
                <polygon class="cls-27" points="139.33 99.36 139.33 110.95 133.84 114.13 133.84 102.53 139.33 99.36"/>
              </g>
              <g class="cls-1">
                <polygon class="cls-28" points="138.69 99.73 138.69 110.58 139.33 110.95 139.33 99.36 138.69 99.73"/>
              </g>
            </g>
            <polygon class="cls-21" points="139.33 110.95 138.69 110.58 133.84 113.39 133.84 114.13 139.33 110.95"/>
          </g>
          <g>
            <g>
              <g class="cls-1">
                <polygon class="cls-27" points="147.03 94.92 147.03 106.51 141.54 109.68 141.54 98.09 147.03 94.92"/>
              </g>
              <g class="cls-1">
                <polygon class="cls-28" points="146.39 95.28 146.39 106.14 147.03 106.51 147.03 94.92 146.39 95.28"/>
              </g>
            </g>
            <polygon class="cls-21" points="147.03 106.51 146.39 106.14 141.54 108.94 141.54 109.68 147.03 106.51"/>
          </g>
          <g>
            <g>
              <g class="cls-1">
                <polygon class="cls-27" points="154.73 90.47 154.73 102.06 149.24 105.23 149.24 93.64 154.73 90.47"/>
              </g>
              <g class="cls-1">
                <polygon class="cls-28" points="154.09 90.84 154.1 101.69 154.73 102.06 154.73 90.47 154.09 90.84"/>
              </g>
            </g>
            <polygon class="cls-21" points="154.73 102.06 154.1 101.69 149.24 104.5 149.24 105.23 154.73 102.06"/>
          </g>
          <g>
            <g>
              <g class="cls-1">
                <polygon class="cls-27" points="162.79 85.82 162.79 97.41 157.3 100.58 157.3 88.99 162.79 85.82"/>
              </g>
              <g class="cls-1">
                <polygon class="cls-28" points="162.15 86.19 162.15 97.04 162.79 97.41 162.79 85.82 162.15 86.19"/>
              </g>
            </g>
            <polygon class="cls-21" points="162.79 97.41 162.15 97.04 157.3 99.84 157.3 100.58 162.79 97.41"/>
          </g>
        </g>
        <g>
          <g>
            <g>
              <g class="cls-1">
                <polygon class="cls-27" points="139.33 120.44 139.33 132.03 133.84 135.2 133.84 123.61 139.33 120.44"/>
              </g>
              <g class="cls-1">
                <polygon class="cls-28" points="138.69 120.81 138.69 131.66 139.33 132.03 139.33 120.44 138.69 120.81"/>
              </g>
            </g>
            <polygon class="cls-21" points="139.33 132.03 138.69 131.66 133.84 134.46 133.84 135.2 139.33 132.03"/>
          </g>
          <g>
            <g>
              <g class="cls-1">
                <polygon class="cls-27" points="147.03 115.99 147.03 127.58 141.54 130.75 141.54 119.16 147.03 115.99"/>
              </g>
              <g class="cls-1">
                <polygon class="cls-28" points="146.39 116.36 146.39 127.21 147.03 127.58 147.03 115.99 146.39 116.36"/>
              </g>
            </g>
            <polygon class="cls-21" points="147.03 127.58 146.39 127.21 141.54 130.02 141.54 130.75 147.03 127.58"/>
          </g>
          <g>
            <g>
              <g class="cls-1">
                <polygon class="cls-27" points="154.73 111.55 154.73 123.14 149.24 126.31 149.24 114.72 154.73 111.55"/>
              </g>
              <g class="cls-1">
                <polygon class="cls-28" points="154.09 111.91 154.1 122.77 154.73 123.14 154.73 111.55 154.09 111.91"/>
              </g>
            </g>
            <polygon class="cls-21" points="154.73 123.14 154.1 122.77 149.24 125.57 149.24 126.31 154.73 123.14"/>
          </g>
          <g>
            <g>
              <g class="cls-1">
                <polygon class="cls-27" points="162.79 106.89 162.79 118.48 157.3 121.66 157.3 110.06 162.79 106.89"/>
              </g>
              <g class="cls-1">
                <polygon class="cls-28" points="162.15 107.26 162.15 118.11 162.79 118.48 162.79 106.89 162.15 107.26"/>
              </g>
            </g>
            <polygon class="cls-21" points="162.79 118.48 162.15 118.11 157.3 120.92 157.3 121.66 162.79 118.48"/>
          </g>
        </g>
        <g>
          <g>
            <g class="cls-1">
              <polygon class="cls-27" points="163.18 127.74 163.18 139.34 141.59 151.8 141.59 140.21 163.18 127.74"/>
            </g>
            <g class="cls-1">
              <polygon class="cls-28" points="162.54 128.11 162.54 138.97 163.18 139.34 163.18 127.74 162.54 128.11"/>
            </g>
          </g>
          <polygon class="cls-21" points="163.18 139.34 162.54 138.97 141.59 151.06 141.59 151.8 163.18 139.34"/>
        </g>
        <g>
          <g>
            <g class="cls-1">
              <polygon class="cls-27" points="139.33 141.63 139.33 153.22 133.84 156.4 133.84 144.81 139.33 141.63"/>
            </g>
            <g class="cls-1">
              <polygon class="cls-28" points="138.69 142 138.69 152.85 139.33 153.22 139.33 141.63 138.69 142"/>
            </g>
          </g>
          <polygon class="cls-21" points="139.33 153.22 138.69 152.85 133.84 155.66 133.84 156.4 139.33 153.22"/>
        </g>
        <g>
          <g>
            <g class="cls-1">
              <polygon class="cls-27" points="19.58 81.94 19.58 111 32.89 114.8 32.89 85.73 19.58 81.94"/>
            </g>
            <g class="cls-1">
              <polygon class="cls-28" points="20.52 82.2 20.51 110.73 19.58 111 19.58 81.94 20.52 82.2"/>
            </g>
          </g>
          <polygon class="cls-21" points="19.58 111 20.51 110.73 32.89 114.26 32.89 114.8 19.58 111"/>
        </g>
        <g>
          <g>
            <g>
              <g class="cls-1">
                <polygon class="cls-27" points="121.83 78.29 121.83 89.88 127.33 93.05 127.33 81.46 121.83 78.29"/>
              </g>
              <g class="cls-1">
                <polygon class="cls-28" points="122.47 78.66 122.47 89.51 121.83 89.88 121.83 78.29 122.47 78.66"/>
              </g>
            </g>
            <polygon class="cls-21" points="121.83 89.88 122.47 89.51 127.33 92.31 127.33 93.05 121.83 89.88"/>
          </g>
          <g>
            <g>
              <g class="cls-1">
                <polygon class="cls-27" points="114.13 73.84 114.13 85.43 119.63 88.61 119.63 77.02 114.13 73.84"/>
              </g>
              <g class="cls-1">
                <polygon class="cls-28" points="114.77 74.21 114.77 85.06 114.13 85.43 114.13 73.84 114.77 74.21"/>
              </g>
            </g>
            <polygon class="cls-21" points="114.13 85.43 114.77 85.06 119.63 87.87 119.63 88.61 114.13 85.43"/>
          </g>
          <g>
            <g>
              <g class="cls-1">
                <polygon class="cls-27" points="106.43 69.4 106.43 80.99 111.93 84.16 111.93 72.57 106.43 69.4"/>
              </g>
              <g class="cls-1">
                <polygon class="cls-28" points="107.07 69.77 107.07 80.62 106.43 80.99 106.43 69.4 107.07 69.77"/>
              </g>
            </g>
            <polygon class="cls-21" points="106.43 80.99 107.07 80.62 111.93 83.42 111.93 84.16 106.43 80.99"/>
          </g>
          <g>
            <g>
              <g class="cls-1">
                <polygon class="cls-27" points="98.37 64.74 98.37 76.33 103.87 79.51 103.87 67.92 98.37 64.74"/>
              </g>
              <g class="cls-1">
                <polygon class="cls-28" points="99.01 65.11 99.01 75.97 98.37 76.33 98.37 64.74 99.01 65.11"/>
              </g>
            </g>
            <polygon class="cls-21" points="98.37 76.33 99.01 75.97 103.87 78.77 103.87 79.51 98.37 76.33"/>
          </g>
        </g>
        <g>
          <g>
            <g>
              <g class="cls-1">
                <polygon class="cls-27" points="121.83 99.36 121.83 110.95 127.33 114.13 127.33 102.53 121.83 99.36"/>
              </g>
              <g class="cls-1">
                <polygon class="cls-28" points="122.47 99.73 122.47 110.58 121.83 110.95 121.83 99.36 122.47 99.73"/>
              </g>
            </g>
            <polygon class="cls-21" points="121.83 110.95 122.47 110.58 127.33 113.39 127.33 114.13 121.83 110.95"/>
          </g>
          <g>
            <g>
              <g class="cls-1">
                <polygon class="cls-27" points="114.13 94.92 114.13 106.51 119.63 109.68 119.63 98.09 114.13 94.92"/>
              </g>
              <g class="cls-1">
                <polygon class="cls-28" points="114.77 95.28 114.77 106.14 114.13 106.51 114.13 94.92 114.77 95.28"/>
              </g>
            </g>
            <polygon class="cls-21" points="114.13 106.51 114.77 106.14 119.63 108.94 119.63 109.68 114.13 106.51"/>
          </g>
          <g>
            <g>
              <g class="cls-1">
                <polygon class="cls-27" points="106.43 90.47 106.43 102.06 111.93 105.23 111.93 93.64 106.43 90.47"/>
              </g>
              <g class="cls-1">
                <polygon class="cls-28" points="107.07 90.84 107.07 101.69 106.43 102.06 106.43 90.47 107.07 90.84"/>
              </g>
            </g>
            <polygon class="cls-21" points="106.43 102.06 107.07 101.69 111.93 104.5 111.93 105.23 106.43 102.06"/>
          </g>
          <g>
            <g>
              <g class="cls-1">
                <polygon class="cls-27" points="98.37 85.82 98.37 97.41 103.87 100.58 103.87 88.99 98.37 85.82"/>
              </g>
              <g class="cls-1">
                <polygon class="cls-28" points="99.01 86.19 99.01 97.04 98.37 97.41 98.37 85.82 99.01 86.19"/>
              </g>
            </g>
            <polygon class="cls-21" points="98.37 97.41 99.01 97.04 103.87 99.84 103.87 100.58 98.37 97.41"/>
          </g>
        </g>
        <g>
          <g>
            <g>
              <g class="cls-1">
                <polygon class="cls-27" points="90.33 60.1 90.33 71.69 95.83 74.87 95.83 63.27 90.33 60.1"/>
              </g>
              <g class="cls-1">
                <polygon class="cls-28" points="90.97 60.47 90.97 71.32 90.33 71.69 90.33 60.1 90.97 60.47"/>
              </g>
            </g>
            <polygon class="cls-21" points="90.33 71.69 90.97 71.32 95.83 74.13 95.83 74.87 90.33 71.69"/>
          </g>
          <g>
            <g>
              <g class="cls-1">
                <polygon class="cls-27" points="82.63 55.66 82.63 67.25 88.13 70.42 88.13 58.83 82.63 55.66"/>
              </g>
              <g class="cls-1">
                <polygon class="cls-28" points="83.27 56.02 83.27 66.88 82.63 67.25 82.63 55.66 83.27 56.02"/>
              </g>
            </g>
            <polygon class="cls-21" points="82.63 67.25 83.27 66.88 88.13 69.68 88.13 70.42 82.63 67.25"/>
          </g>
          <g>
            <g>
              <g class="cls-1">
                <polygon class="cls-27" points="74.57 51 74.57 62.59 80.07 65.77 80.07 54.18 74.57 51"/>
              </g>
              <g class="cls-1">
                <polygon class="cls-28" points="75.21 51.37 75.21 62.22 74.57 62.59 74.57 51 75.21 51.37"/>
              </g>
            </g>
            <polygon class="cls-21" points="74.57 62.59 75.21 62.22 80.07 65.03 80.07 65.77 74.57 62.59"/>
          </g>
        </g>
        <g>
          <g>
            <g>
              <g class="cls-1">
                <polygon class="cls-27" points="90.33 81.18 90.33 92.77 95.83 95.94 95.83 84.35 90.33 81.18"/>
              </g>
              <g class="cls-1">
                <polygon class="cls-28" points="90.97 81.55 90.97 92.4 90.33 92.77 90.33 81.18 90.97 81.55"/>
              </g>
            </g>
            <polygon class="cls-21" points="90.33 92.77 90.97 92.4 95.83 95.2 95.83 95.94 90.33 92.77"/>
          </g>
          <g>
            <g>
              <g class="cls-1">
                <polygon class="cls-27" points="82.63 76.73 82.63 88.32 88.13 91.49 88.13 79.9 82.63 76.73"/>
              </g>
              <g class="cls-1">
                <polygon class="cls-28" points="83.27 77.1 83.27 87.95 82.63 88.32 82.63 76.73 83.27 77.1"/>
              </g>
            </g>
            <polygon class="cls-21" points="82.63 88.32 83.27 87.95 88.13 90.75 88.13 91.49 82.63 88.32"/>
          </g>
          <g>
            <g>
              <g class="cls-1">
                <polygon class="cls-27" points="74.57 72.08 74.57 83.67 80.07 86.84 80.07 75.25 74.57 72.08"/>
              </g>
              <g class="cls-1">
                <polygon class="cls-28" points="75.21 72.45 75.21 83.3 74.57 83.67 74.57 72.08 75.21 72.45"/>
              </g>
            </g>
            <polygon class="cls-21" points="74.57 83.67 75.21 83.3 80.07 86.1 80.07 86.84 74.57 83.67"/>
          </g>
        </g>
        <g>
          <g>
            <g>
              <g class="cls-1">
                <polygon class="cls-27" points="66.53 46.36 66.53 57.95 72.03 61.13 72.03 49.53 66.53 46.36"/>
              </g>
              <g class="cls-1">
                <polygon class="cls-28" points="67.17 46.73 67.17 57.58 66.53 57.95 66.53 46.36 67.17 46.73"/>
              </g>
            </g>
            <polygon class="cls-21" points="66.53 57.95 67.17 57.58 72.03 60.39 72.03 61.13 66.53 57.95"/>
          </g>
          <g>
            <g>
              <g class="cls-1">
                <polygon class="cls-27" points="58.83 41.92 58.83 53.51 64.33 56.68 64.33 45.09 58.83 41.92"/>
              </g>
              <g class="cls-1">
                <polygon class="cls-28" points="59.47 42.28 59.47 53.14 58.83 53.51 58.83 41.92 59.47 42.28"/>
              </g>
            </g>
            <polygon class="cls-21" points="58.83 53.51 59.47 53.14 64.33 55.94 64.33 56.68 58.83 53.51"/>
          </g>
        </g>
        <g>
          <g>
            <g>
              <g class="cls-1">
                <polygon class="cls-27" points="66.53 67.44 66.53 79.03 72.03 82.2 72.03 70.61 66.53 67.44"/>
              </g>
              <g class="cls-1">
                <polygon class="cls-28" points="67.17 67.8 67.17 78.66 66.53 79.03 66.53 67.44 67.17 67.8"/>
              </g>
            </g>
            <polygon class="cls-21" points="66.53 79.03 67.17 78.66 72.03 81.46 72.03 82.2 66.53 79.03"/>
          </g>
          <g>
            <g>
              <g class="cls-1">
                <polygon class="cls-27" points="58.83 62.99 58.83 74.58 64.33 77.75 64.33 66.16 58.83 62.99"/>
              </g>
              <g class="cls-1">
                <polygon class="cls-28" points="59.47 63.36 59.47 74.21 58.83 74.58 58.83 62.99 59.47 63.36"/>
              </g>
            </g>
            <polygon class="cls-21" points="58.83 74.58 59.47 74.21 64.33 77.02 64.33 77.75 58.83 74.58"/>
          </g>
        </g>
        <g>
          <g>
            <g class="cls-1">
              <polygon class="cls-27" points="58.84 79.35 58.84 90.94 80.42 103.4 80.42 91.81 58.84 79.35"/>
            </g>
            <g class="cls-1">
              <polygon class="cls-28" points="59.47 79.72 59.47 90.57 58.83 90.94 58.84 79.35 59.47 79.72"/>
            </g>
          </g>
          <polygon class="cls-21" points="58.83 90.94 59.47 90.57 80.42 102.66 80.42 103.4 58.83 90.94"/>
        </g>
        <g>
          <g>
            <g class="cls-1">
              <polygon class="cls-27" points="105.74 106.43 105.74 118.02 127.33 130.49 127.33 118.89 105.74 106.43"/>
            </g>
            <g class="cls-1">
              <polygon class="cls-28" points="106.38 106.8 106.38 117.65 105.74 118.02 105.74 106.43 106.38 106.8"/>
            </g>
          </g>
          <polygon class="cls-21" points="105.74 118.02 106.38 117.65 127.33 129.75 127.33 130.49 105.74 118.02"/>
        </g>
        <g>
          <g>
            <g class="cls-1">
              <polygon class="cls-27" points="82.34 92.92 82.34 104.51 103.92 116.97 103.92 105.38 82.34 92.92"/>
            </g>
            <g class="cls-1">
              <polygon class="cls-28" points="82.97 93.28 82.97 104.14 82.34 104.51 82.34 92.92 82.97 93.28"/>
            </g>
          </g>
          <polygon class="cls-21" points="82.34 104.51 82.97 104.14 103.92 116.23 103.92 116.97 82.34 104.51"/>
        </g>
        <g>
          <g>
            <g class="cls-1">
              <polygon class="cls-27" points="113.35 137.01 113.35 148.6 127.33 156.67 127.33 145.08 113.35 137.01"/>
            </g>
            <g class="cls-1">
              <polygon class="cls-28" points="113.99 137.38 113.99 148.23 113.35 148.6 113.35 137.01 113.99 137.38"/>
            </g>
          </g>
          <polygon class="cls-21" points="113.35 148.6 113.99 148.23 127.33 155.93 127.33 156.67 113.35 148.6"/>
        </g>
        <g>
          <g>
            <g class="cls-1">
              <polygon class="cls-27" points="57.94 105.02 57.94 116.61 71.92 124.68 71.92 113.09 57.94 105.02"/>
            </g>
            <g class="cls-1">
              <polygon class="cls-28" points="58.58 105.39 58.58 116.24 57.94 116.61 57.94 105.02 58.58 105.39"/>
            </g>
          </g>
          <polygon class="cls-21" points="57.94 116.61 58.58 116.24 71.92 123.94 71.92 124.68 57.94 116.61"/>
        </g>
        <g>
          <g>
            <g>
              <g class="cls-1">
                <polygon class="cls-29" points="115.1 150.34 115.1 152.62 94.02 164.78 94.02 162.49 115.1 150.34"/>
              </g>
              <g class="cls-1">
                <polygon class="cls-30" points="61.16 143.51 61.16 145.8 94.02 164.78 94.02 162.49 61.16 143.51"/>
              </g>
              <polygon class="cls-31" points="61.16 143.51 82.22 131.35 115.1 150.34 94.02 162.49 61.16 143.51"/>
            </g>
            <polygon class="cls-32" points="65.16 143.28 81.81 133.66 111.1 150.57 94.43 160.18 65.16 143.28"/>
          </g>
          <g>
            <g>
              <g class="cls-1">
                <polygon class="cls-29" points="113.56 148.22 113.56 149.46 94.46 160.48 94.46 159.24 113.56 148.22"/>
              </g>
              <g class="cls-1">
                <polygon class="cls-30" points="64.8 142.12 64.8 143.35 94.46 160.48 94.46 159.24 64.8 142.12"/>
              </g>
              <polygon class="cls-31" points="64.8 142.12 83.9 131.09 113.56 148.22 94.46 159.24 64.8 142.12"/>
            </g>
            <polygon class="cls-32" points="72.2 141.67 84.56 134.53 106.17 147.01 93.8 154.15 72.2 141.67"/>
          </g>
          <g>
            <g class="cls-1">
              <polygon class="cls-33" points="94.77 132.72 94.77 155.47 96.81 156.69 96.81 133.95 94.77 132.72"/>
            </g>
            <g class="cls-1">
              <polygon class="cls-2" points="98.86 132.76 98.86 155.51 96.81 156.69 96.81 133.95 98.86 132.76"/>
            </g>
            <polygon class="cls-25" points="98.86 132.76 96.83 131.54 94.77 132.72 96.81 133.95 98.86 132.76"/>
          </g>
          <g>
            <g class="cls-1">
              <polygon class="cls-33" points="68.38 117.49 68.38 140.23 70.42 141.46 70.42 118.71 68.38 117.49"/>
            </g>
            <g class="cls-1">
              <polygon class="cls-2" points="72.47 117.53 72.47 140.27 70.42 141.46 70.42 118.71 72.47 117.53"/>
            </g>
            <polygon class="cls-25" points="72.47 117.53 70.44 116.3 68.38 117.49 70.42 118.71 72.47 117.53"/>
          </g>
          <g>
            <g>
              <g class="cls-1">
                <polygon class="cls-5" points="111.58 126.2 111.58 128.27 94.46 138.14 94.46 136.08 111.58 126.2"/>
              </g>
              <g class="cls-1">
                <polygon class="cls-6" points="64.8 118.95 64.8 121.01 94.46 138.14 94.46 136.08 64.8 118.95"/>
              </g>
              <polygon class="cls-25" points="64.8 118.95 81.91 109.07 111.58 126.2 94.46 136.08 64.8 118.95"/>
            </g>
            <polygon class="cls-32" points="68.41 118.74 81.54 111.15 107.97 126.42 94.83 133.99 68.41 118.74"/>
          </g>
          <g>
            <g>
              <g class="cls-1">
                <polygon class="cls-5" points="111.58 123.25 111.58 125.31 94.46 135.19 94.46 133.12 111.58 123.25"/>
              </g>
              <g class="cls-1">
                <polygon class="cls-6" points="64.8 116 64.8 118.06 94.46 135.19 94.46 133.12 64.8 116"/>
              </g>
              <polygon class="cls-25" points="64.8 116 81.91 106.11 111.58 123.25 94.46 133.12 64.8 116"/>
            </g>
            <polygon class="cls-32" points="68.41 115.78 81.54 108.2 107.97 123.46 94.83 131.04 68.41 115.78"/>
          </g>
        </g>
      </g>
    </g>
  </g>
</svg>
