<svg xmlns="http://www.w3.org/2000/svg" viewBox="0 0 183.51 124.4">
  <defs>
    <style>
      .cls-1 {
        isolation: isolate;
      }

      .cls-2 {
        fill: #35664d;
      }

      .cls-3 {
        fill: #5e9949;
      }

      .cls-4 {
        fill: #b0cc38;
      }

      .cls-5 {
        mix-blend-mode: multiply;
      }

      .cls-6 {
        fill: #aab3c2;
      }

      .cls-7 {
        fill: #272911;
      }

      .cls-8 {
        fill: #383b18;
      }

      .cls-9 {
        fill: #54562c;
      }

      .cls-10 {
        fill: #616236;
      }

      .cls-11 {
        fill: #4f772b;
      }

      .cls-12 {
        fill: #629d1b;
      }

      .cls-13 {
        fill: #82c62b;
      }

      .cls-14 {
        fill: #ece190;
      }

      .cls-15 {
        fill: #8299ce;
      }

      .cls-16 {
        fill: #abc8e9;
      }
    </style>
  </defs>
  <title>Map</title>
  <g class="cls-1">
    <g id="sity">
      <g>
        <g>
          <g class="cls-1">
            <polygon class="cls-2" points="177.52 61.46 177.52 64.92 90.7 115.06 90.7 111.58 177.52 61.46"/>
          </g>
          <g class="cls-1">
            <polygon class="cls-3" points="3.76 61.39 3.76 64.85 90.7 115.06 90.7 111.58 3.76 61.39"/>
          </g>
          <polygon class="cls-4" points="3.76 61.39 90.59 11.27 177.52 61.46 90.7 111.58 3.76 61.39"/>
        </g>
        <g>
          <g class="cls-5">
            <path class="cls-6" d="M166.67,61.4c1.52.88,1.53,2.31,0,3.19a6.06,6.06,0,0,1-5.5,0c-1.53-.88-1.54-2.31,0-3.19A6.08,6.08,0,0,1,166.67,61.4Z"/>
          </g>
          <g>
            <polygon class="cls-3" points="163.91 61.92 165.63 62.92 165.63 62.25 163.91 61.26 163.91 61.92"/>
            <polygon class="cls-2" points="163.91 61.26 163.91 61.92 161.61 63.25 161.61 62.59 163.91 61.26"/>
            <g class="cls-1">
              <polygon class="cls-2" points="166.75 62.22 166.75 63.25 163.9 64.9 163.9 63.87 166.75 62.22"/>
            </g>
            <g class="cls-1">
              <polygon class="cls-3" points="161.04 62.22 161.04 63.25 163.9 64.9 163.9 63.87 161.04 62.22"/>
            </g>
            <path class="cls-4" d="M163.9,60.58,161,62.22l2.86,1.65,2.85-1.65Zm-1.72,1.67,1.72-1,1.73,1-1.73,1Z"/>
            <polygon class="cls-7" points="163.91 61.92 162.76 62.58 163.91 63.25 165.05 62.58 163.91 61.92"/>
          </g>
          <g>
            <g>
              <g class="cls-1">
                <polygon class="cls-8" points="164.59 51.7 164.59 62.66 163.92 63.05 163.92 52.09 164.59 51.7"/>
              </g>
              <g class="cls-1">
                <polygon class="cls-9" points="163.24 51.7 163.24 62.66 163.92 63.05 163.92 52.09 163.24 51.7"/>
              </g>
              <polygon class="cls-10" points="163.24 51.7 163.92 51.3 164.59 51.7 163.92 52.09 163.24 51.7"/>
            </g>
            <g>
              <g>
                <g class="cls-1">
                  <polygon class="cls-8" points="166.25 56.31 166.25 57.08 165.57 57.47 165.57 56.7 166.25 56.31"/>
                </g>
                <g class="cls-1">
                  <polygon class="cls-9" points="163.92 55.74 163.92 56.51 165.57 57.47 165.57 56.7 163.92 55.74"/>
                </g>
                <polygon class="cls-10" points="163.92 55.74 164.6 55.35 166.25 56.31 165.57 56.7 163.92 55.74"/>
              </g>
              <g>
                <g class="cls-1">
                  <polygon class="cls-8" points="166.25 54.34 166.25 56.35 165.57 56.74 165.57 54.73 166.25 54.34"/>
                </g>
                <g class="cls-1">
                  <polygon class="cls-9" points="164.9 54.34 164.9 56.35 165.57 56.74 165.57 54.73 164.9 54.34"/>
                </g>
                <polygon class="cls-10" points="164.9 54.34 165.57 53.95 166.25 54.34 165.57 54.73 164.9 54.34"/>
              </g>
            </g>
            <g>
              <g>
                <g class="cls-1">
                  <polygon class="cls-9" points="161.59 55.05 161.59 55.82 162.27 56.21 162.27 55.44 161.59 55.05"/>
                </g>
                <g class="cls-1">
                  <polygon class="cls-8" points="163.92 54.48 163.92 55.25 162.27 56.21 162.27 55.44 163.92 54.48"/>
                </g>
                <polygon class="cls-10" points="163.92 54.48 163.24 54.09 161.59 55.05 162.27 55.44 163.92 54.48"/>
              </g>
              <g>
                <g class="cls-1">
                  <polygon class="cls-9" points="161.59 53.62 161.59 55.09 162.27 55.48 162.27 54.01 161.59 53.62"/>
                </g>
                <g class="cls-1">
                  <polygon class="cls-8" points="162.94 53.62 162.94 55.09 162.27 55.48 162.27 54.01 162.94 53.62"/>
                </g>
                <polygon class="cls-10" points="162.94 53.62 162.27 53.23 161.59 53.62 162.27 54.01 162.94 53.62"/>
              </g>
            </g>
          </g>
          <g>
            <path class="cls-11" d="M170.52,48.55a6.3,6.3,0,0,1-12.6,0,5.92,5.92,0,0,1,.18-1.47,6.3,6.3,0,0,1,6.12-4.83,6.21,6.21,0,0,1,1.38.15A6.29,6.29,0,0,1,170.52,48.55Z"/>
            <path class="cls-12" d="M169.09,47.52a5.51,5.51,0,1,1-11,0,3.17,3.17,0,0,1,0-.44,6.3,6.3,0,0,1,6.12-4.83,6.21,6.21,0,0,1,1.38.15A5.49,5.49,0,0,1,169.09,47.52Z"/>
            <circle class="cls-13" cx="161.2" cy="46.55" r="1.43"/>
          </g>
          <g>
            <path class="cls-11" d="M164.61,51.94a3.12,3.12,0,0,1-6.24,0,2.92,2.92,0,0,1,.09-.73,3.12,3.12,0,0,1,3-2.39,3.08,3.08,0,0,1,.68.08A3.12,3.12,0,0,1,164.61,51.94Z"/>
            <path class="cls-12" d="M163.9,51.43a2.73,2.73,0,0,1-5.45,0,1.62,1.62,0,0,1,0-.22,3.12,3.12,0,0,1,3-2.39,3.08,3.08,0,0,1,.68.08A2.72,2.72,0,0,1,163.9,51.43Z"/>
            <path class="cls-13" d="M160.7,51a.7.7,0,0,1-.7.71.71.71,0,1,1,0-1.42A.7.7,0,0,1,160.7,51Z"/>
          </g>
          <g>
            <path class="cls-11" d="M167.87,53.77a2.09,2.09,0,1,1-4.17,0,1.91,1.91,0,0,1,.06-.48,2.08,2.08,0,0,1,2-1.6,1.73,1.73,0,0,1,.45.05A2.08,2.08,0,0,1,167.87,53.77Z"/>
            <path class="cls-12" d="M167.4,53.43a1.83,1.83,0,1,1-3.65,0,.61.61,0,0,1,0-.14,2.08,2.08,0,0,1,2-1.6,1.73,1.73,0,0,1,.45.05A1.81,1.81,0,0,1,167.4,53.43Z"/>
            <path class="cls-13" d="M165.26,53.11a.48.48,0,1,1-.95,0,.48.48,0,0,1,.95,0Z"/>
          </g>
        </g>
        <g>
          <g class="cls-5">
            <path class="cls-6" d="M86.62,19.08a1.07,1.07,0,0,1,0,2,3.87,3.87,0,0,1-3.52,0,1.07,1.07,0,0,1,0-2A3.88,3.88,0,0,1,86.62,19.08Z"/>
          </g>
          <g>
            <polygon class="cls-3" points="84.86 19.41 85.96 20.05 85.96 19.63 84.86 18.99 84.86 19.41"/>
            <polygon class="cls-2" points="84.86 18.99 84.86 19.41 83.4 20.26 83.4 19.84 84.86 18.99"/>
            <g class="cls-1">
              <polygon class="cls-2" points="86.68 19.61 86.68 20.26 84.86 21.32 84.86 20.66 86.68 19.61"/>
            </g>
            <g class="cls-1">
              <polygon class="cls-3" points="83.04 19.61 83.04 20.26 84.86 21.32 84.86 20.66 83.04 19.61"/>
            </g>
            <path class="cls-4" d="M84.86,18.56,83,19.61l1.82,1.05,1.82-1.05Zm-1.09,1.07L84.86,19l1.1.64-1.1.63Z"/>
            <polygon class="cls-7" points="84.86 19.41 84.13 19.84 84.86 20.26 85.6 19.84 84.86 19.41"/>
          </g>
          <g>
            <g>
              <g class="cls-1">
                <polygon class="cls-8" points="85.31 12.89 85.31 19.89 84.87 20.14 84.87 13.14 85.31 12.89"/>
              </g>
              <g class="cls-1">
                <polygon class="cls-9" points="84.44 12.89 84.44 19.89 84.87 20.14 84.87 13.14 84.44 12.89"/>
              </g>
              <polygon class="cls-10" points="84.44 12.89 84.87 12.65 85.31 12.89 84.87 13.14 84.44 12.89"/>
            </g>
            <g>
              <g>
                <g class="cls-1">
                  <polygon class="cls-8" points="86.36 15.84 86.36 16.33 85.93 16.58 85.93 16.09 86.36 15.84"/>
                </g>
                <g class="cls-1">
                  <polygon class="cls-9" points="84.87 15.48 84.87 15.97 85.93 16.58 85.93 16.09 84.87 15.48"/>
                </g>
                <polygon class="cls-10" points="84.87 15.48 85.31 15.23 86.36 15.84 85.93 16.09 84.87 15.48"/>
              </g>
              <g>
                <g class="cls-1">
                  <polygon class="cls-8" points="86.36 14.58 86.36 15.86 85.93 16.11 85.93 14.83 86.36 14.58"/>
                </g>
                <g class="cls-1">
                  <polygon class="cls-9" points="85.5 14.58 85.5 15.86 85.93 16.11 85.93 14.83 85.5 14.58"/>
                </g>
                <polygon class="cls-10" points="85.5 14.58 85.93 14.33 86.36 14.58 85.93 14.83 85.5 14.58"/>
              </g>
            </g>
            <g>
              <g>
                <g class="cls-1">
                  <polygon class="cls-9" points="83.39 15.03 83.39 15.52 83.82 15.77 83.82 15.28 83.39 15.03"/>
                </g>
                <g class="cls-1">
                  <polygon class="cls-8" points="84.87 14.67 84.87 15.16 83.82 15.77 83.82 15.28 84.87 14.67"/>
                </g>
                <polygon class="cls-10" points="84.87 14.67 84.44 14.42 83.39 15.03 83.82 15.28 84.87 14.67"/>
              </g>
              <g>
                <g class="cls-1">
                  <polygon class="cls-9" points="83.39 14.12 83.39 15.06 83.82 15.31 83.82 14.37 83.39 14.12"/>
                </g>
                <g class="cls-1">
                  <polygon class="cls-8" points="84.25 14.12 84.25 15.06 83.82 15.31 83.82 14.37 84.25 14.12"/>
                </g>
                <polygon class="cls-10" points="84.25 14.12 83.82 13.88 83.39 14.12 83.82 14.37 84.25 14.12"/>
              </g>
            </g>
          </g>
          <g>
            <path class="cls-11" d="M89.08,10.89a4,4,0,1,1-8,0,4.17,4.17,0,0,1,.11-.94,4,4,0,0,1,3.91-3.08,3.57,3.57,0,0,1,.87.1A4,4,0,0,1,89.08,10.89Z"/>
            <path class="cls-12" d="M88.17,10.24a3.51,3.51,0,0,1-7,0,2.71,2.71,0,0,1,0-.29,4,4,0,0,1,3.91-3.08,3.57,3.57,0,0,1,.87.1A3.5,3.5,0,0,1,88.17,10.24Z"/>
            <path class="cls-13" d="M84.05,9.62a.91.91,0,1,1-.91-.92A.91.91,0,0,1,84.05,9.62Z"/>
          </g>
          <g>
            <path class="cls-11" d="M85.31,13.05a2,2,0,1,1-4,0,2.24,2.24,0,0,1,0-.46,2,2,0,0,1,1.94-1.53,2.1,2.1,0,0,1,.43,0A2,2,0,0,1,85.31,13.05Z"/>
            <path class="cls-12" d="M84.86,12.73a1.74,1.74,0,0,1-3.47,0v-.14a2,2,0,0,1,1.94-1.53,2.1,2.1,0,0,1,.43,0A1.74,1.74,0,0,1,84.86,12.73Z"/>
            <path class="cls-13" d="M82.82,12.42a.45.45,0,1,1-.45-.45A.45.45,0,0,1,82.82,12.42Z"/>
          </g>
          <g>
            <path class="cls-11" d="M87.39,14.22a1.33,1.33,0,1,1-2.66,0,1.55,1.55,0,0,1,0-.31,1.33,1.33,0,0,1,1.29-1,1.36,1.36,0,0,1,.29,0A1.32,1.32,0,0,1,87.39,14.22Z"/>
            <path class="cls-12" d="M87.09,14a1.16,1.16,0,1,1-2.32,0v-.09a1.33,1.33,0,0,1,1.29-1,1.36,1.36,0,0,1,.29,0A1.15,1.15,0,0,1,87.09,14Z"/>
            <path class="cls-13" d="M85.73,13.8a.31.31,0,0,1-.61,0,.31.31,0,0,1,.61,0Z"/>
          </g>
        </g>
        <g>
          <g class="cls-5">
            <path class="cls-6" d="M16.92,62.14a1.19,1.19,0,0,1,0,2.24,4.28,4.28,0,0,1-3.85,0,1.18,1.18,0,0,1,0-2.24A4.28,4.28,0,0,1,16.92,62.14Z"/>
          </g>
          <g>
            <polygon class="cls-3" points="14.99 62.51 16.19 63.21 16.19 62.74 14.99 62.05 14.99 62.51"/>
            <polygon class="cls-2" points="14.99 62.05 14.99 62.51 13.38 63.44 13.38 62.97 14.99 62.05"/>
            <g class="cls-1">
              <polygon class="cls-2" points="16.98 62.72 16.98 63.44 14.98 64.59 14.98 63.87 16.98 62.72"/>
            </g>
            <g class="cls-1">
              <polygon class="cls-3" points="12.99 62.72 12.99 63.44 14.98 64.59 14.98 63.87 12.99 62.72"/>
            </g>
            <path class="cls-4" d="M15,61.57l-2,1.15,2,1.15,2-1.15Zm-1.21,1.17L15,62.05l1.2.69-1.2.7Z"/>
            <polygon class="cls-7" points="14.99 62.51 14.19 62.97 14.99 63.44 15.79 62.97 14.99 62.51"/>
          </g>
          <g>
            <g>
              <g class="cls-1">
                <polygon class="cls-8" points="15.47 55.36 15.47 63.03 15 63.3 15 55.63 15.47 55.36"/>
              </g>
              <g class="cls-1">
                <polygon class="cls-9" points="14.53 55.36 14.53 63.03 15 63.3 15 55.63 14.53 55.36"/>
              </g>
              <polygon class="cls-10" points="14.53 55.36 15 55.09 15.47 55.36 15 55.63 14.53 55.36"/>
            </g>
            <g>
              <g>
                <g class="cls-1">
                  <polygon class="cls-8" points="16.63 58.59 16.63 59.12 16.15 59.4 16.15 58.86 16.63 58.59"/>
                </g>
                <g class="cls-1">
                  <polygon class="cls-9" points="15 58.19 15 58.73 16.15 59.4 16.15 58.86 15 58.19"/>
                </g>
                <polygon class="cls-10" points="15 58.19 15.47 57.92 16.63 58.59 16.15 58.86 15 58.19"/>
              </g>
              <g>
                <g class="cls-1">
                  <polygon class="cls-8" points="16.63 57.2 16.63 58.61 16.15 58.89 16.15 57.48 16.63 57.2"/>
                </g>
                <g class="cls-1">
                  <polygon class="cls-9" points="15.68 57.2 15.68 58.61 16.15 58.89 16.15 57.48 15.68 57.2"/>
                </g>
                <polygon class="cls-10" points="15.68 57.2 16.15 56.93 16.63 57.2 16.15 57.48 15.68 57.2"/>
              </g>
            </g>
            <g>
              <g>
                <g class="cls-1">
                  <polygon class="cls-9" points="13.37 57.7 13.37 58.24 13.84 58.51 13.84 57.98 13.37 57.7"/>
                </g>
                <g class="cls-1">
                  <polygon class="cls-8" points="15 57.31 15 57.85 13.84 58.51 13.84 57.98 15 57.31"/>
                </g>
                <polygon class="cls-10" points="15 57.31 14.53 57.04 13.37 57.7 13.84 57.98 15 57.31"/>
              </g>
              <g>
                <g class="cls-1">
                  <polygon class="cls-9" points="13.37 56.7 13.37 57.73 13.84 58 13.84 56.98 13.37 56.7"/>
                </g>
                <g class="cls-1">
                  <polygon class="cls-8" points="14.32 56.7 14.32 57.73 13.84 58 13.84 56.98 14.32 56.7"/>
                </g>
                <polygon class="cls-10" points="14.32 56.7 13.84 56.43 13.37 56.7 13.84 56.98 14.32 56.7"/>
              </g>
            </g>
          </g>
          <g>
            <path class="cls-11" d="M19.62,53.16a4.41,4.41,0,0,1-8.82,0,4.34,4.34,0,0,1,.13-1,4.4,4.4,0,0,1,4.28-3.38,4.35,4.35,0,0,1,1,.11A4.4,4.4,0,0,1,19.62,53.16Z"/>
            <path class="cls-12" d="M18.62,52.44a3.86,3.86,0,0,1-7.71,0c0-.1,0-.21,0-.31a4.4,4.4,0,0,1,4.28-3.38,4.35,4.35,0,0,1,1,.11A3.85,3.85,0,0,1,18.62,52.44Z"/>
            <circle class="cls-13" cx="13.1" cy="51.76" r="1"/>
          </g>
          <g>
            <path class="cls-11" d="M15.48,55.53a2.18,2.18,0,1,1-4.36,0,2.1,2.1,0,0,1,.06-.51,2.18,2.18,0,0,1,2.12-1.67,2.42,2.42,0,0,1,.47,0A2.19,2.19,0,0,1,15.48,55.53Z"/>
            <path class="cls-12" d="M15,55.17a1.91,1.91,0,1,1-3.81,0c0-.05,0-.1,0-.15a2.18,2.18,0,0,1,2.12-1.67,2.42,2.42,0,0,1,.47,0A1.91,1.91,0,0,1,15,55.17Z"/>
            <path class="cls-13" d="M12.75,54.84a.5.5,0,1,1-.49-.5A.49.49,0,0,1,12.75,54.84Z"/>
          </g>
          <g>
            <path class="cls-11" d="M17.76,56.81a1.46,1.46,0,1,1-2.92,0,1.86,1.86,0,0,1,0-.34,1.48,1.48,0,0,1,1.42-1.12,1.12,1.12,0,0,1,.32,0A1.45,1.45,0,0,1,17.76,56.81Z"/>
            <path class="cls-12" d="M17.43,56.57a1.28,1.28,0,1,1-2.55,0v-.1a1.48,1.48,0,0,1,1.42-1.12,1.12,1.12,0,0,1,.32,0A1.25,1.25,0,0,1,17.43,56.57Z"/>
            <path class="cls-13" d="M15.94,56.35A.34.34,0,1,1,15.6,56,.34.34,0,0,1,15.94,56.35Z"/>
          </g>
        </g>
        <g>
          <path class="cls-14" d="M126,38.12c21.36,12.33,21.47,32.31.25,44.64s-55.71,12.33-77.06,0-21.47-32.31-.25-44.63S104.64,25.8,126,38.12Z"/>
          <path class="cls-15" d="M136.28,62.57c-.78,6.5-5.48,12.89-14.06,17.87-19,11-49.91,11-69,0C44.48,75.4,39.71,69,38.91,62.38c-1-7.86,3.68-15.91,14-21.94,19-11,49.92-11,69.05,0C132.49,46.51,137.26,54.64,136.28,62.57Z"/>
          <path class="cls-16" d="M136.28,62.57c-.78,6.5-5.48,12.89-14.06,17.87-19,11-49.91,11-69,0C44.48,75.4,39.71,69,38.91,62.38c.77-6.51,5.46-12.89,14-17.87,19-11.06,49.92-11.06,69.05,0C130.71,49.53,135.48,56,136.28,62.57Z"/>
        </g>
        <g>
          <g class="cls-5">
            <path class="cls-6" d="M90.84,99.91a1.21,1.21,0,0,1,0,2.29,4.35,4.35,0,0,1-4,0,1.21,1.21,0,0,1,0-2.29A4.35,4.35,0,0,1,90.84,99.91Z"/>
          </g>
          <g>
            <polygon class="cls-3" points="88.86 100.28 90.09 101 90.09 100.52 88.86 99.81 88.86 100.28"/>
            <polygon class="cls-2" points="88.86 99.81 88.86 100.28 87.2 101.24 87.2 100.76 88.86 99.81"/>
            <g class="cls-1">
              <polygon class="cls-2" points="90.9 100.5 90.9 101.24 88.85 102.43 88.85 101.69 90.9 100.5"/>
            </g>
            <g class="cls-1">
              <polygon class="cls-3" points="86.8 100.5 86.8 101.24 88.85 102.43 88.85 101.69 86.8 100.5"/>
            </g>
            <path class="cls-4" d="M88.85,99.32l-2,1.18,2,1.19,2.05-1.19Zm-1.23,1.2,1.24-.71,1.23.71-1.23.72Z"/>
            <polygon class="cls-7" points="88.86 100.28 88.03 100.76 88.86 101.24 89.68 100.76 88.86 100.28"/>
          </g>
          <g>
            <g>
              <g class="cls-1">
                <polygon class="cls-8" points="89.35 92.93 89.35 100.82 88.86 101.1 88.86 93.21 89.35 92.93"/>
              </g>
              <g class="cls-1">
                <polygon class="cls-9" points="88.38 92.93 88.38 100.82 88.86 101.1 88.86 93.21 88.38 92.93"/>
              </g>
              <polygon class="cls-10" points="88.38 92.93 88.87 92.65 89.35 92.93 88.86 93.21 88.38 92.93"/>
            </g>
            <g>
              <g>
                <g class="cls-1">
                  <polygon class="cls-8" points="90.54 96.25 90.54 96.8 90.05 97.08 90.05 96.53 90.54 96.25"/>
                </g>
                <g class="cls-1">
                  <polygon class="cls-9" points="88.86 95.84 88.86 96.4 90.05 97.08 90.05 96.53 88.86 95.84"/>
                </g>
                <polygon class="cls-10" points="88.86 95.84 89.35 95.56 90.54 96.25 90.05 96.53 88.86 95.84"/>
              </g>
              <g>
                <g class="cls-1">
                  <polygon class="cls-8" points="90.54 94.83 90.54 96.28 90.05 96.56 90.05 95.11 90.54 94.83"/>
                </g>
                <g class="cls-1">
                  <polygon class="cls-9" points="89.57 94.83 89.57 96.28 90.05 96.56 90.05 95.11 89.57 94.83"/>
                </g>
                <polygon class="cls-10" points="89.57 94.83 90.05 94.55 90.54 94.83 90.05 95.11 89.57 94.83"/>
              </g>
            </g>
            <g>
              <g>
                <g class="cls-1">
                  <polygon class="cls-9" points="87.19 95.34 87.19 95.89 87.68 96.18 87.68 95.62 87.19 95.34"/>
                </g>
                <g class="cls-1">
                  <polygon class="cls-8" points="88.86 94.94 88.86 95.49 87.68 96.18 87.68 95.62 88.86 94.94"/>
                </g>
                <polygon class="cls-10" points="88.86 94.94 88.38 94.66 87.19 95.34 87.68 95.62 88.86 94.94"/>
              </g>
              <g>
                <g class="cls-1">
                  <polygon class="cls-9" points="87.19 94.32 87.19 95.37 87.68 95.65 87.68 94.6 87.19 94.32"/>
                </g>
                <g class="cls-1">
                  <polygon class="cls-8" points="88.16 94.32 88.16 95.37 87.68 95.65 87.68 94.6 88.16 94.32"/>
                </g>
                <polygon class="cls-10" points="88.16 94.32 87.68 94.04 87.19 94.32 87.68 94.6 88.16 94.32"/>
              </g>
            </g>
          </g>
          <g>
            <path class="cls-11" d="M93.61,90.67a4.53,4.53,0,1,1-9.06,0,4.59,4.59,0,0,1,.13-1.06,4.53,4.53,0,0,1,4.41-3.47,4.6,4.6,0,0,1,1,.11A4.53,4.53,0,0,1,93.61,90.67Z"/>
            <path class="cls-12" d="M92.59,89.93a4,4,0,0,1-7.92,0c0-.11,0-.21,0-.32a4.53,4.53,0,0,1,4.41-3.47,4.6,4.6,0,0,1,1,.11A4,4,0,0,1,92.59,89.93Z"/>
            <circle class="cls-13" cx="86.91" cy="89.23" r="1.03"/>
          </g>
          <g>
            <path class="cls-11" d="M89.36,93.11a2.24,2.24,0,1,1-4.48,0,2.33,2.33,0,0,1,.06-.53,2.24,2.24,0,0,1,2.18-1.71,2,2,0,0,1,.49,0A2.24,2.24,0,0,1,89.36,93.11Z"/>
            <path class="cls-12" d="M88.85,92.74a2,2,0,0,1-3.92,0s0-.11,0-.16a2.24,2.24,0,0,1,2.18-1.71,2,2,0,0,1,.49,0A1.94,1.94,0,0,1,88.85,92.74Z"/>
            <path class="cls-13" d="M86.55,92.4a.5.5,0,0,1-.5.5.51.51,0,1,1,0-1A.5.5,0,0,1,86.55,92.4Z"/>
          </g>
          <g>
            <path class="cls-11" d="M91.71,94.43a1.5,1.5,0,0,1-3,0,1.34,1.34,0,0,1,0-.35,1.5,1.5,0,0,1,1.46-1.15,1.66,1.66,0,0,1,.32,0A1.5,1.5,0,0,1,91.71,94.43Z"/>
            <path class="cls-12" d="M91.37,94.18a1.32,1.32,0,0,1-2.63,0s0-.07,0-.1a1.5,1.5,0,0,1,1.46-1.15,1.66,1.66,0,0,1,.32,0A1.32,1.32,0,0,1,91.37,94.18Z"/>
            <path class="cls-13" d="M89.83,94a.34.34,0,1,1-.34-.34A.34.34,0,0,1,89.83,94Z"/>
          </g>
        </g>
        <g>
          <g class="cls-5">
            <path class="cls-6" d="M99,100.48a1.22,1.22,0,0,1,0,2.3,4.38,4.38,0,0,1-4,0,1.22,1.22,0,0,1,0-2.3A4.38,4.38,0,0,1,99,100.48Z"/>
          </g>
          <g>
            <polygon class="cls-3" points="97.01 100.86 98.25 101.58 98.25 101.1 97.01 100.38 97.01 100.86"/>
            <polygon class="cls-2" points="97.01 100.38 97.01 100.86 95.36 101.81 95.36 101.34 97.01 100.38"/>
            <g class="cls-1">
              <polygon class="cls-2" points="99.06 101.08 99.06 101.82 97.01 103 97.01 102.26 99.06 101.08"/>
            </g>
            <g class="cls-1">
              <polygon class="cls-3" points="94.95 101.08 94.95 101.82 97.01 103 97.01 102.26 94.95 101.08"/>
            </g>
            <path class="cls-4" d="M97,99.89,95,101.08,97,102.26l2-1.18Zm-1.24,1.21,1.24-.72,1.24.72-1.24.71Z"/>
            <polygon class="cls-7" points="97.01 100.86 96.19 101.34 97.01 101.81 97.84 101.34 97.01 100.86"/>
          </g>
          <g>
            <g>
              <g class="cls-1">
                <polygon class="cls-8" points="97.51 93.51 97.51 101.39 97.02 101.68 97.02 93.79 97.51 93.51"/>
              </g>
              <g class="cls-1">
                <polygon class="cls-9" points="96.54 93.51 96.54 101.39 97.02 101.68 97.02 93.79 96.54 93.51"/>
              </g>
              <polygon class="cls-10" points="96.54 93.51 97.02 93.23 97.51 93.51 97.02 93.79 96.54 93.51"/>
            </g>
            <g>
              <g>
                <g class="cls-1">
                  <polygon class="cls-8" points="98.7 96.83 98.7 97.38 98.21 97.66 98.21 97.11 98.7 96.83"/>
                </g>
                <g class="cls-1">
                  <polygon class="cls-9" points="97.02 96.42 97.02 96.97 98.21 97.66 98.21 97.11 97.02 96.42"/>
                </g>
                <polygon class="cls-10" points="97.02 96.42 97.51 96.14 98.7 96.83 98.21 97.11 97.02 96.42"/>
              </g>
              <g>
                <g class="cls-1">
                  <polygon class="cls-8" points="98.7 95.41 98.7 96.85 98.21 97.14 98.21 95.69 98.7 95.41"/>
                </g>
                <g class="cls-1">
                  <polygon class="cls-9" points="97.72 95.41 97.72 96.85 98.21 97.14 98.21 95.69 97.72 95.41"/>
                </g>
                <polygon class="cls-10" points="97.72 95.41 98.21 95.13 98.7 95.41 98.21 95.69 97.72 95.41"/>
              </g>
            </g>
            <g>
              <g>
                <g class="cls-1">
                  <polygon class="cls-9" points="95.35 95.92 95.35 96.47 95.83 96.75 95.83 96.2 95.35 95.92"/>
                </g>
                <g class="cls-1">
                  <polygon class="cls-8" points="97.02 95.51 97.02 96.07 95.83 96.75 95.83 96.2 97.02 95.51"/>
                </g>
                <polygon class="cls-10" points="97.02 95.51 96.54 95.23 95.35 95.92 95.83 96.2 97.02 95.51"/>
              </g>
              <g>
                <g class="cls-1">
                  <polygon class="cls-9" points="95.35 94.89 95.35 95.95 95.83 96.23 95.83 95.17 95.35 94.89"/>
                </g>
                <g class="cls-1">
                  <polygon class="cls-8" points="96.32 94.89 96.32 95.95 95.83 96.23 95.83 95.17 96.32 94.89"/>
                </g>
                <polygon class="cls-10" points="96.32 94.89 95.83 94.61 95.35 94.89 95.83 95.17 96.32 94.89"/>
              </g>
            </g>
          </g>
          <g>
            <path class="cls-11" d="M101.77,91.25a4.53,4.53,0,0,1-9.06,0,4.11,4.11,0,0,1,.13-1.06,4.52,4.52,0,0,1,4.4-3.47,4.62,4.62,0,0,1,1,.1A4.53,4.53,0,0,1,101.77,91.25Z"/>
            <path class="cls-12" d="M100.74,90.51a4,4,0,1,1-7.92,0c0-.11,0-.22,0-.32a4.52,4.52,0,0,1,4.4-3.47,4.62,4.62,0,0,1,1,.1A4,4,0,0,1,100.74,90.51Z"/>
            <circle class="cls-13" cx="95.07" cy="89.81" r="1.03"/>
          </g>
          <g>
            <path class="cls-11" d="M97.52,93.68a2.24,2.24,0,1,1-2.24-2.24,1.91,1.91,0,0,1,.48.06A2.23,2.23,0,0,1,97.52,93.68Z"/>
            <path class="cls-12" d="M97,93.32a2,2,0,0,1-3.92,0,.81.81,0,0,1,0-.16,2.23,2.23,0,0,1,2.18-1.72,1.91,1.91,0,0,1,.48.06A2,2,0,0,1,97,93.32Z"/>
            <path class="cls-13" d="M94.71,93a.51.51,0,1,1-.51-.51A.51.51,0,0,1,94.71,93Z"/>
          </g>
          <g>
            <path class="cls-11" d="M99.86,95a1.5,1.5,0,0,1-3,0,1.41,1.41,0,0,1,0-.35,1.49,1.49,0,0,1,1.45-1.15,1.15,1.15,0,0,1,.33,0A1.5,1.5,0,0,1,99.86,95Z"/>
            <path class="cls-12" d="M99.52,94.76a1.31,1.31,0,0,1-2.62,0,.41.41,0,0,1,0-.11,1.49,1.49,0,0,1,1.45-1.15,1.15,1.15,0,0,1,.33,0A1.3,1.3,0,0,1,99.52,94.76Z"/>
            <path class="cls-13" d="M98,94.53a.34.34,0,0,1-.34.34.34.34,0,0,1,0-.68A.34.34,0,0,1,98,94.53Z"/>
          </g>
        </g>
        <g>
          <g class="cls-5">
            <path class="cls-6" d="M83.68,101.15a1.22,1.22,0,0,1,0,2.3,4.38,4.38,0,0,1-4,0,1.22,1.22,0,0,1,0-2.3A4.38,4.38,0,0,1,83.68,101.15Z"/>
          </g>
          <g>
            <polygon class="cls-3" points="81.69 101.53 82.93 102.24 82.93 101.77 81.69 101.05 81.69 101.53"/>
            <polygon class="cls-2" points="81.69 101.05 81.69 101.53 80.04 102.48 80.04 102 81.69 101.05"/>
            <g class="cls-1">
              <polygon class="cls-2" points="83.74 101.75 83.74 102.48 81.69 103.67 81.69 102.93 83.74 101.75"/>
            </g>
            <g class="cls-1">
              <polygon class="cls-3" points="79.64 101.75 79.64 102.48 81.69 103.67 81.69 102.93 79.64 101.75"/>
            </g>
            <path class="cls-4" d="M81.69,100.56l-2,1.19,2,1.18,2-1.18Zm-1.24,1.21,1.24-.72,1.24.72-1.24.71Z"/>
            <polygon class="cls-7" points="81.69 101.53 80.87 102 81.69 102.48 82.52 102 81.69 101.53"/>
          </g>
          <g>
            <g>
              <g class="cls-1">
                <polygon class="cls-8" points="82.19 94.18 82.19 102.06 81.7 102.34 81.7 94.46 82.19 94.18"/>
              </g>
              <g class="cls-1">
                <polygon class="cls-9" points="81.22 94.18 81.22 102.06 81.7 102.34 81.7 94.46 81.22 94.18"/>
              </g>
              <polygon class="cls-10" points="81.22 94.18 81.7 93.9 82.19 94.18 81.7 94.46 81.22 94.18"/>
            </g>
            <g>
              <g>
                <g class="cls-1">
                  <polygon class="cls-8" points="83.38 97.49 83.38 98.05 82.89 98.33 82.89 97.77 83.38 97.49"/>
                </g>
                <g class="cls-1">
                  <polygon class="cls-9" points="81.7 97.09 81.7 97.64 82.89 98.33 82.89 97.77 81.7 97.09"/>
                </g>
                <polygon class="cls-10" points="81.7 97.09 82.19 96.81 83.38 97.49 82.89 97.77 81.7 97.09"/>
              </g>
              <g>
                <g class="cls-1">
                  <polygon class="cls-8" points="83.38 96.08 83.38 97.52 82.89 97.8 82.89 96.36 83.38 96.08"/>
                </g>
                <g class="cls-1">
                  <polygon class="cls-9" points="82.41 96.08 82.41 97.52 82.89 97.8 82.89 96.36 82.41 96.08"/>
                </g>
                <polygon class="cls-10" points="82.41 96.08 82.89 95.8 83.38 96.08 82.89 96.36 82.41 96.08"/>
              </g>
            </g>
            <g>
              <g>
                <g class="cls-1">
                  <polygon class="cls-9" points="80.03 96.59 80.03 97.14 80.52 97.42 80.52 96.87 80.03 96.59"/>
                </g>
                <g class="cls-1">
                  <polygon class="cls-8" points="81.7 96.18 81.7 96.73 80.52 97.42 80.52 96.87 81.7 96.18"/>
                </g>
                <polygon class="cls-10" points="81.7 96.18 81.22 95.9 80.03 96.59 80.52 96.87 81.7 96.18"/>
              </g>
              <g>
                <g class="cls-1">
                  <polygon class="cls-9" points="80.03 95.56 80.03 96.61 80.52 96.9 80.52 95.84 80.03 95.56"/>
                </g>
                <g class="cls-1">
                  <polygon class="cls-8" points="81 95.56 81 96.61 80.52 96.9 80.52 95.84 81 95.56"/>
                </g>
                <polygon class="cls-10" points="81 95.56 80.52 95.28 80.03 95.56 80.52 95.84 81 95.56"/>
              </g>
            </g>
          </g>
          <g>
            <path class="cls-11" d="M86.45,91.91a4.53,4.53,0,0,1-9.06,0,4.57,4.57,0,0,1,.13-1,4.52,4.52,0,0,1,4.4-3.48,4.62,4.62,0,0,1,1,.11A4.53,4.53,0,0,1,86.45,91.91Z"/>
            <path class="cls-12" d="M85.42,91.18a4,4,0,0,1-7.92,0c0-.11,0-.22,0-.32a4.52,4.52,0,0,1,4.4-3.48,4.62,4.62,0,0,1,1,.11A4,4,0,0,1,85.42,91.18Z"/>
            <circle class="cls-13" cx="79.75" cy="90.48" r="1.03"/>
          </g>
          <g>
            <path class="cls-11" d="M82.2,94.35A2.24,2.24,0,1,1,80,92.11a2.63,2.63,0,0,1,.49,0A2.25,2.25,0,0,1,82.2,94.35Z"/>
            <path class="cls-12" d="M81.69,94a2,2,0,0,1-3.92,0,.81.81,0,0,1,0-.16A2.23,2.23,0,0,1,80,92.11a2.63,2.63,0,0,1,.49,0A2,2,0,0,1,81.69,94Z"/>
            <path class="cls-13" d="M79.39,93.64a.51.51,0,0,1-.51.51.51.51,0,0,1,0-1A.51.51,0,0,1,79.39,93.64Z"/>
          </g>
          <g>
            <path class="cls-11" d="M84.55,95.67a1.5,1.5,0,0,1-3,0,1.34,1.34,0,0,1,0-.35,1.49,1.49,0,0,1,1.46-1.15,1.12,1.12,0,0,1,.32,0A1.49,1.49,0,0,1,84.55,95.67Z"/>
            <path class="cls-12" d="M84.21,95.43a1.32,1.32,0,0,1-2.63,0,.37.37,0,0,1,0-.11,1.49,1.49,0,0,1,1.46-1.15,1.12,1.12,0,0,1,.32,0A1.31,1.31,0,0,1,84.21,95.43Z"/>
            <path class="cls-13" d="M82.67,95.19a.35.35,0,0,1-.34.35.35.35,0,0,1,0-.69A.35.35,0,0,1,82.67,95.19Z"/>
          </g>
        </g>
        <g>
          <g class="cls-5">
            <path class="cls-6" d="M92.59,105.44a1.21,1.21,0,0,1,0,2.29,4.35,4.35,0,0,1-4,0,1.21,1.21,0,0,1,0-2.29A4.35,4.35,0,0,1,92.59,105.44Z"/>
          </g>
          <g>
            <polygon class="cls-3" points="90.6 105.81 91.84 106.53 91.84 106.05 90.6 105.34 90.6 105.81"/>
            <polygon class="cls-2" points="90.6 105.34 90.6 105.81 88.95 106.77 88.95 106.29 90.6 105.34"/>
            <g class="cls-1">
              <polygon class="cls-2" points="92.65 106.03 92.65 106.77 90.6 107.96 90.6 107.22 92.65 106.03"/>
            </g>
            <g class="cls-1">
              <polygon class="cls-3" points="88.54 106.03 88.54 106.77 90.6 107.96 90.6 107.22 88.54 106.03"/>
            </g>
            <path class="cls-4" d="M90.6,104.85,88.54,106l2.06,1.19L92.65,106Zm-1.24,1.2,1.24-.71,1.24.71-1.24.72Z"/>
            <polygon class="cls-7" points="90.6 105.81 89.78 106.29 90.6 106.77 91.43 106.29 90.6 105.81"/>
          </g>
          <g>
            <g>
              <g class="cls-1">
                <polygon class="cls-8" points="91.1 98.46 91.1 106.35 90.61 106.63 90.61 98.74 91.1 98.46"/>
              </g>
              <g class="cls-1">
                <polygon class="cls-9" points="90.13 98.46 90.13 106.35 90.61 106.63 90.61 98.74 90.13 98.46"/>
              </g>
              <polygon class="cls-10" points="90.13 98.46 90.61 98.18 91.1 98.46 90.61 98.74 90.13 98.46"/>
            </g>
            <g>
              <g>
                <g class="cls-1">
                  <polygon class="cls-8" points="92.29 101.78 92.29 102.33 91.8 102.61 91.8 102.06 92.29 101.78"/>
                </g>
                <g class="cls-1">
                  <polygon class="cls-9" points="90.61 101.37 90.61 101.93 91.8 102.61 91.8 102.06 90.61 101.37"/>
                </g>
                <polygon class="cls-10" points="90.61 101.37 91.1 101.09 92.29 101.78 91.8 102.06 90.61 101.37"/>
              </g>
              <g>
                <g class="cls-1">
                  <polygon class="cls-8" points="92.29 100.36 92.29 101.81 91.8 102.09 91.8 100.64 92.29 100.36"/>
                </g>
                <g class="cls-1">
                  <polygon class="cls-9" points="91.31 100.36 91.31 101.81 91.8 102.09 91.8 100.64 91.31 100.36"/>
                </g>
                <polygon class="cls-10" points="91.31 100.36 91.8 100.08 92.29 100.36 91.8 100.64 91.31 100.36"/>
              </g>
            </g>
            <g>
              <g>
                <g class="cls-1">
                  <polygon class="cls-9" points="88.94 100.87 88.94 101.43 89.42 101.71 89.42 101.15 88.94 100.87"/>
                </g>
                <g class="cls-1">
                  <polygon class="cls-8" points="90.61 100.47 90.61 101.02 89.42 101.71 89.42 101.15 90.61 100.47"/>
                </g>
                <polygon class="cls-10" points="90.61 100.47 90.13 100.19 88.94 100.87 89.42 101.15 90.61 100.47"/>
              </g>
              <g>
                <g class="cls-1">
                  <polygon class="cls-9" points="88.94 99.85 88.94 100.9 89.42 101.18 89.42 100.13 88.94 99.85"/>
                </g>
                <g class="cls-1">
                  <polygon class="cls-8" points="89.91 99.85 89.91 100.9 89.42 101.18 89.42 100.13 89.91 99.85"/>
                </g>
                <polygon class="cls-10" points="89.91 99.85 89.42 99.57 88.94 99.85 89.42 100.13 89.91 99.85"/>
              </g>
            </g>
          </g>
          <g>
            <path class="cls-11" d="M95.36,96.2a4.53,4.53,0,0,1-9.06,0,4.16,4.16,0,0,1,.13-1.06,4.52,4.52,0,0,1,4.4-3.47,4.62,4.62,0,0,1,1,.11A4.54,4.54,0,0,1,95.36,96.2Z"/>
            <path class="cls-12" d="M94.33,95.46a4,4,0,1,1-7.92,0c0-.1,0-.21,0-.32a4.52,4.52,0,0,1,4.4-3.47,4.62,4.62,0,0,1,1,.11A4,4,0,0,1,94.33,95.46Z"/>
            <circle class="cls-13" cx="88.66" cy="94.76" r="1.03"/>
          </g>
          <g>
            <path class="cls-11" d="M91.1,98.64a2.24,2.24,0,1,1-4.47,0,2.33,2.33,0,0,1,.06-.53,2.23,2.23,0,0,1,2.18-1.71,1.91,1.91,0,0,1,.48,0A2.23,2.23,0,0,1,91.1,98.64Z"/>
            <path class="cls-12" d="M90.6,98.27a2,2,0,0,1-3.92,0,.92.92,0,0,1,0-.16,2.23,2.23,0,0,1,2.18-1.71,1.91,1.91,0,0,1,.48,0A2,2,0,0,1,90.6,98.27Z"/>
            <path class="cls-13" d="M88.3,97.93a.51.51,0,0,1-1,0,.51.51,0,0,1,1,0Z"/>
          </g>
          <g>
            <path class="cls-11" d="M93.45,100a1.5,1.5,0,0,1-3,0,2,2,0,0,1,0-.35A1.51,1.51,0,0,1,92,98.46a1.69,1.69,0,0,1,.33,0A1.5,1.5,0,0,1,93.45,100Z"/>
            <path class="cls-12" d="M93.11,99.71a1.31,1.31,0,0,1-2.62,0v-.1A1.51,1.51,0,0,1,92,98.46a1.69,1.69,0,0,1,.33,0A1.31,1.31,0,0,1,93.11,99.71Z"/>
            <path class="cls-13" d="M91.57,99.48a.34.34,0,0,1-.34.34.34.34,0,0,1,0-.68A.34.34,0,0,1,91.57,99.48Z"/>
          </g>
        </g>
        <g>
          <g class="cls-5">
            <path class="cls-6" d="M150.66,63.76a1.21,1.21,0,0,1,0,2.29,4.38,4.38,0,0,1-4,0,1.21,1.21,0,0,1,0-2.29A4.32,4.32,0,0,1,150.66,63.76Z"/>
          </g>
          <g>
            <polygon class="cls-3" points="148.68 64.13 149.92 64.85 149.92 64.37 148.68 63.66 148.68 64.13"/>
            <polygon class="cls-2" points="148.68 63.66 148.68 64.13 147.03 65.09 147.03 64.61 148.68 63.66"/>
            <g class="cls-1">
              <polygon class="cls-2" points="150.73 64.35 150.73 65.09 148.67 66.28 148.67 65.53 150.73 64.35"/>
            </g>
            <g class="cls-1">
              <polygon class="cls-3" points="146.62 64.35 146.62 65.09 148.67 66.28 148.67 65.53 146.62 64.35"/>
            </g>
            <path class="cls-4" d="M148.67,63.17l-2,1.18,2,1.18,2.06-1.18Zm-1.23,1.2,1.24-.71,1.24.71-1.24.72Z"/>
            <polygon class="cls-7" points="148.68 64.13 147.85 64.61 148.68 65.09 149.5 64.61 148.68 64.13"/>
          </g>
          <g>
            <g>
              <g class="cls-1">
                <polygon class="cls-8" points="149.18 56.78 149.18 64.67 148.69 64.95 148.69 57.06 149.18 56.78"/>
              </g>
              <g class="cls-1">
                <polygon class="cls-9" points="148.2 56.78 148.2 64.67 148.69 64.95 148.69 57.06 148.2 56.78"/>
              </g>
              <polygon class="cls-10" points="148.2 56.78 148.69 56.5 149.18 56.78 148.69 57.06 148.2 56.78"/>
            </g>
            <g>
              <g>
                <g class="cls-1">
                  <polygon class="cls-8" points="150.36 60.1 150.36 60.65 149.88 60.93 149.88 60.38 150.36 60.1"/>
                </g>
                <g class="cls-1">
                  <polygon class="cls-9" points="148.69 59.69 148.69 60.24 149.88 60.93 149.88 60.38 148.69 59.69"/>
                </g>
                <polygon class="cls-10" points="148.69 59.69 149.18 59.41 150.36 60.1 149.88 60.38 148.69 59.69"/>
              </g>
              <g>
                <g class="cls-1">
                  <polygon class="cls-8" points="150.36 58.68 150.36 60.13 149.88 60.41 149.88 58.96 150.36 58.68"/>
                </g>
                <g class="cls-1">
                  <polygon class="cls-9" points="149.39 58.68 149.39 60.13 149.88 60.41 149.88 58.96 149.39 58.68"/>
                </g>
                <polygon class="cls-10" points="149.39 58.68 149.88 58.4 150.36 58.68 149.88 58.96 149.39 58.68"/>
              </g>
            </g>
            <g>
              <g>
                <g class="cls-1">
                  <polygon class="cls-9" points="147.01 59.19 147.01 59.74 147.5 60.02 147.5 59.47 147.01 59.19"/>
                </g>
                <g class="cls-1">
                  <polygon class="cls-8" points="148.69 58.78 148.69 59.34 147.5 60.02 147.5 59.47 148.69 58.78"/>
                </g>
                <polygon class="cls-10" points="148.69 58.78 148.2 58.51 147.01 59.19 147.5 59.47 148.69 58.78"/>
              </g>
              <g>
                <g class="cls-1">
                  <polygon class="cls-9" points="147.01 58.16 147.01 59.22 147.5 59.5 147.5 58.45 147.01 58.16"/>
                </g>
                <g class="cls-1">
                  <polygon class="cls-8" points="147.99 58.16 147.99 59.22 147.5 59.5 147.5 58.45 147.99 58.16"/>
                </g>
                <polygon class="cls-10" points="147.99 58.16 147.5 57.88 147.01 58.16 147.5 58.45 147.99 58.16"/>
              </g>
            </g>
          </g>
          <g>
            <path class="cls-11" d="M153.44,54.52a4.53,4.53,0,0,1-9.06,0,4.59,4.59,0,0,1,.12-1.06A4.54,4.54,0,0,1,148.91,50a3.93,3.93,0,0,1,1,.11A4.53,4.53,0,0,1,153.44,54.52Z"/>
            <path class="cls-12" d="M152.41,53.78a4,4,0,0,1-7.92,0c0-.11,0-.21,0-.32A4.54,4.54,0,0,1,148.91,50a3.41,3.41,0,0,1,3.5,3.79Z"/>
            <circle class="cls-13" cx="146.74" cy="53.08" r="1.03"/>
          </g>
          <g>
            <path class="cls-11" d="M149.18,57a2.24,2.24,0,1,1-4.42-.52,2.26,2.26,0,0,1,2.18-1.72,2,2,0,0,1,.49.06A2.23,2.23,0,0,1,149.18,57Z"/>
            <path class="cls-12" d="M148.67,56.59a2,2,0,1,1-3.91,0v-.16a2.26,2.26,0,0,1,2.18-1.72,2,2,0,0,1,.49.06A1.94,1.94,0,0,1,148.67,56.59Z"/>
            <path class="cls-13" d="M146.38,56.24a.51.51,0,0,1-1,0,.51.51,0,0,1,1,0Z"/>
          </g>
          <g>
            <path class="cls-11" d="M151.53,58.27a1.5,1.5,0,1,1-3,0,1.39,1.39,0,0,1,0-.35A1.5,1.5,0,0,1,150,56.77a1.86,1.86,0,0,1,.33,0A1.5,1.5,0,0,1,151.53,58.27Z"/>
            <path class="cls-12" d="M151.19,58a1.31,1.31,0,0,1-2.62,0v-.11A1.5,1.5,0,0,1,150,56.77a1.86,1.86,0,0,1,.33,0A1.31,1.31,0,0,1,151.19,58Z"/>
            <path class="cls-13" d="M149.65,57.8a.34.34,0,1,1-.34-.34A.34.34,0,0,1,149.65,57.8Z"/>
          </g>
        </g>
        <g>
          <g class="cls-5">
            <path class="cls-6" d="M156.33,58.85c1.38.8,1.39,2.09,0,2.89a5.53,5.53,0,0,1-5,0c-1.38-.8-1.39-2.09,0-2.89A5.53,5.53,0,0,1,156.33,58.85Z"/>
          </g>
          <g>
            <polygon class="cls-3" points="153.84 59.33 155.4 60.23 155.4 59.63 153.84 58.73 153.84 59.33"/>
            <polygon class="cls-2" points="153.84 58.73 153.84 59.33 151.76 60.52 151.76 59.92 153.84 58.73"/>
            <g class="cls-1">
              <polygon class="cls-2" points="156.41 59.6 156.41 60.53 153.83 62.02 153.83 61.09 156.41 59.6"/>
            </g>
            <g class="cls-1">
              <polygon class="cls-3" points="151.25 59.6 151.25 60.53 153.83 62.02 153.83 61.09 151.25 59.6"/>
            </g>
            <path class="cls-4" d="M153.83,58.11l-2.58,1.49,2.58,1.49,2.58-1.49Zm-1.55,1.52,1.56-.9,1.56.9-1.56.89Z"/>
            <polygon class="cls-7" points="153.84 59.33 152.8 59.92 153.84 60.52 154.88 59.92 153.84 59.33"/>
          </g>
          <g>
            <g>
              <g class="cls-1">
                <polygon class="cls-8" points="154.46 50.08 154.46 60 153.85 60.35 153.85 50.44 154.46 50.08"/>
              </g>
              <g class="cls-1">
                <polygon class="cls-9" points="153.24 50.08 153.24 60 153.85 60.35 153.85 50.44 153.24 50.08"/>
              </g>
              <polygon class="cls-10" points="153.24 50.08 153.85 49.73 154.46 50.08 153.85 50.44 153.24 50.08"/>
            </g>
            <g>
              <g>
                <g class="cls-1">
                  <polygon class="cls-8" points="155.96 54.25 155.96 54.95 155.34 55.3 155.34 54.6 155.96 54.25"/>
                </g>
                <g class="cls-1">
                  <polygon class="cls-9" points="153.85 53.74 153.85 54.44 155.34 55.3 155.34 54.6 153.85 53.74"/>
                </g>
                <polygon class="cls-10" points="153.85 53.74 154.46 53.39 155.96 54.25 155.34 54.6 153.85 53.74"/>
              </g>
              <g>
                <g class="cls-1">
                  <polygon class="cls-8" points="155.96 52.47 155.96 54.29 155.34 54.64 155.34 52.82 155.96 52.47"/>
                </g>
                <g class="cls-1">
                  <polygon class="cls-9" points="154.73 52.47 154.73 54.29 155.34 54.64 155.34 52.82 154.73 52.47"/>
                </g>
                <polygon class="cls-10" points="154.73 52.47 155.34 52.12 155.96 52.47 155.34 52.82 154.73 52.47"/>
              </g>
            </g>
            <g>
              <g>
                <g class="cls-1">
                  <polygon class="cls-9" points="151.75 53.11 151.75 53.81 152.36 54.16 152.36 53.47 151.75 53.11"/>
                </g>
                <g class="cls-1">
                  <polygon class="cls-8" points="153.85 52.6 153.85 53.3 152.36 54.16 152.36 53.47 153.85 52.6"/>
                </g>
                <polygon class="cls-10" points="153.85 52.6 153.24 52.25 151.75 53.11 152.36 53.47 153.85 52.6"/>
              </g>
              <g>
                <g class="cls-1">
                  <polygon class="cls-9" points="151.75 51.82 151.75 53.15 152.36 53.5 152.36 52.18 151.75 51.82"/>
                </g>
                <g class="cls-1">
                  <polygon class="cls-8" points="152.97 51.82 152.97 53.15 152.36 53.5 152.36 52.18 152.97 51.82"/>
                </g>
                <polygon class="cls-10" points="152.97 51.82 152.36 51.47 151.75 51.82 152.36 52.18 152.97 51.82"/>
              </g>
            </g>
          </g>
          <g>
            <path class="cls-11" d="M159.82,47.24a5.7,5.7,0,0,1-11.39,0,5.27,5.27,0,0,1,.16-1.33,5.69,5.69,0,0,1,11.23,1.33Z"/>
            <path class="cls-12" d="M158.53,46.31a5,5,0,1,1-10,0c0-.14,0-.27,0-.4a5.68,5.68,0,0,1,6.78-4.23A5,5,0,0,1,158.53,46.31Z"/>
            <circle class="cls-13" cx="151.4" cy="45.43" r="1.29"/>
          </g>
          <g>
            <path class="cls-11" d="M154.47,50.3a2.82,2.82,0,1,1-5.63,0,2.39,2.39,0,0,1,.08-.66,2.81,2.81,0,0,1,2.73-2.16,3.1,3.1,0,0,1,.62.07A2.81,2.81,0,0,1,154.47,50.3Z"/>
            <path class="cls-12" d="M153.83,49.84a2.46,2.46,0,0,1-4.92,0,1.34,1.34,0,0,1,0-.2,2.81,2.81,0,0,1,2.73-2.16,3.1,3.1,0,0,1,.62.07A2.47,2.47,0,0,1,153.83,49.84Z"/>
            <path class="cls-13" d="M150.94,49.41a.64.64,0,1,1-.63-.64A.64.64,0,0,1,150.94,49.41Z"/>
          </g>
          <g>
            <path class="cls-11" d="M157.42,52a1.89,1.89,0,1,1-3.77,0,2.12,2.12,0,0,1,0-.44,1.9,1.9,0,0,1,1.84-1.45,1.84,1.84,0,0,1,.41,0A1.89,1.89,0,0,1,157.42,52Z"/>
            <path class="cls-12" d="M157,51.65a1.65,1.65,0,0,1-3.3,0v-.13a1.9,1.9,0,0,1,1.84-1.45,1.84,1.84,0,0,1,.41,0A1.66,1.66,0,0,1,157,51.65Z"/>
            <path class="cls-13" d="M155.06,51.36a.43.43,0,1,1-.85,0,.43.43,0,1,1,.85,0Z"/>
          </g>
        </g>
        <g>
          <g class="cls-5">
            <path class="cls-6" d="M158.75,64.49a1.22,1.22,0,0,1,0,2.3,4.36,4.36,0,0,1-3.95,0c-1.1-.64-1.11-1.66,0-2.3A4.38,4.38,0,0,1,158.75,64.49Z"/>
          </g>
          <g>
            <polygon class="cls-3" points="156.77 64.87 158.01 65.58 158.01 65.11 156.77 64.39 156.77 64.87"/>
            <polygon class="cls-2" points="156.77 64.39 156.77 64.87 155.11 65.82 155.11 65.35 156.77 64.39"/>
            <g class="cls-1">
              <polygon class="cls-2" points="158.81 65.09 158.81 65.83 156.76 67.01 156.76 66.27 158.81 65.09"/>
            </g>
            <g class="cls-1">
              <polygon class="cls-3" points="154.71 65.09 154.71 65.83 156.76 67.01 156.76 66.27 154.71 65.09"/>
            </g>
            <path class="cls-4" d="M156.76,63.9l-2,1.19,2,1.18,2.05-1.18Zm-1.23,1.21,1.24-.72,1.24.72-1.24.71Z"/>
            <polygon class="cls-7" points="156.77 64.87 155.94 65.35 156.77 65.82 157.59 65.35 156.77 64.87"/>
          </g>
          <g>
            <g>
              <g class="cls-1">
                <polygon class="cls-8" points="157.26 57.52 157.26 65.4 156.78 65.68 156.78 57.8 157.26 57.52"/>
              </g>
              <g class="cls-1">
                <polygon class="cls-9" points="156.29 57.52 156.29 65.4 156.78 65.68 156.78 57.8 156.29 57.52"/>
              </g>
              <polygon class="cls-10" points="156.29 57.52 156.78 57.24 157.26 57.52 156.78 57.8 156.29 57.52"/>
            </g>
            <g>
              <g>
                <g class="cls-1">
                  <polygon class="cls-8" points="158.45 60.83 158.45 61.39 157.97 61.67 157.97 61.12 158.45 60.83"/>
                </g>
                <g class="cls-1">
                  <polygon class="cls-9" points="156.78 60.43 156.78 60.98 157.97 61.67 157.97 61.12 156.78 60.43"/>
                </g>
                <polygon class="cls-10" points="156.78 60.43 157.26 60.15 158.45 60.83 157.97 61.12 156.78 60.43"/>
              </g>
              <g>
                <g class="cls-1">
                  <polygon class="cls-8" points="158.45 59.42 158.45 60.86 157.97 61.14 157.97 59.7 158.45 59.42"/>
                </g>
                <g class="cls-1">
                  <polygon class="cls-9" points="157.48 59.42 157.48 60.86 157.97 61.14 157.97 59.7 157.48 59.42"/>
                </g>
                <polygon class="cls-10" points="157.48 59.42 157.97 59.14 158.45 59.42 157.97 59.7 157.48 59.42"/>
              </g>
            </g>
            <g>
              <g>
                <g class="cls-1">
                  <polygon class="cls-9" points="155.1 59.93 155.1 60.48 155.59 60.76 155.59 60.21 155.1 59.93"/>
                </g>
                <g class="cls-1">
                  <polygon class="cls-8" points="156.78 59.52 156.78 60.08 155.59 60.76 155.59 60.21 156.78 59.52"/>
                </g>
                <polygon class="cls-10" points="156.78 59.52 156.29 59.24 155.1 59.93 155.59 60.21 156.78 59.52"/>
              </g>
              <g>
                <g class="cls-1">
                  <polygon class="cls-9" points="155.1 58.9 155.1 59.96 155.59 60.24 155.59 59.18 155.1 58.9"/>
                </g>
                <g class="cls-1">
                  <polygon class="cls-8" points="156.07 58.9 156.07 59.96 155.59 60.24 155.59 59.18 156.07 58.9"/>
                </g>
                <polygon class="cls-10" points="156.07 58.9 155.59 58.62 155.1 58.9 155.59 59.18 156.07 58.9"/>
              </g>
            </g>
          </g>
          <g>
            <path class="cls-11" d="M161.53,55.26a4.53,4.53,0,0,1-9.06,0,4.59,4.59,0,0,1,.12-1.06A4.54,4.54,0,0,1,157,50.72a4.46,4.46,0,0,1,1,.11A4.54,4.54,0,0,1,161.53,55.26Z"/>
            <path class="cls-12" d="M160.5,54.52a4,4,0,0,1-7.92,0c0-.11,0-.22,0-.32A4.54,4.54,0,0,1,157,50.72a4.46,4.46,0,0,1,1,.11A4,4,0,0,1,160.5,54.52Z"/>
            <circle class="cls-13" cx="154.83" cy="53.82" r="1.03"/>
          </g>
          <g>
            <path class="cls-11" d="M157.27,57.69A2.24,2.24,0,1,1,155,55.45a2.63,2.63,0,0,1,.49,0A2.25,2.25,0,0,1,157.27,57.69Z"/>
            <path class="cls-12" d="M156.76,57.33a2,2,0,1,1-3.91,0v-.16A2.24,2.24,0,0,1,155,55.45a2.63,2.63,0,0,1,.49,0A2,2,0,0,1,156.76,57.33Z"/>
            <path class="cls-13" d="M154.47,57a.51.51,0,1,1-.51-.51A.51.51,0,0,1,154.47,57Z"/>
          </g>
          <g>
            <path class="cls-11" d="M159.62,59a1.5,1.5,0,0,1-3,0,1.34,1.34,0,0,1,0-.35,1.5,1.5,0,0,1,1.46-1.15,1.24,1.24,0,0,1,.33,0A1.5,1.5,0,0,1,159.62,59Z"/>
            <path class="cls-12" d="M159.28,58.77a1.31,1.31,0,0,1-2.62,0v-.11a1.5,1.5,0,0,1,1.46-1.15,1.24,1.24,0,0,1,.33,0A1.31,1.31,0,0,1,159.28,58.77Z"/>
            <path class="cls-13" d="M157.74,58.54a.34.34,0,1,1-.68,0,.34.34,0,1,1,.68,0Z"/>
          </g>
        </g>
        <g>
          <g class="cls-5">
            <path class="cls-6" d="M93.05,18.24a1.22,1.22,0,0,1,0,2.3,4.38,4.38,0,0,1-4,0,1.22,1.22,0,0,1,0-2.3A4.38,4.38,0,0,1,93.05,18.24Z"/>
          </g>
          <g>
            <polygon class="cls-3" points="91.06 18.62 92.31 19.34 92.31 18.86 91.06 18.14 91.06 18.62"/>
            <polygon class="cls-2" points="91.06 18.14 91.06 18.62 89.41 19.57 89.41 19.1 91.06 18.14"/>
            <g class="cls-1">
              <polygon class="cls-2" points="93.11 18.84 93.11 19.58 91.06 20.76 91.06 20.02 93.11 18.84"/>
            </g>
            <g class="cls-1">
              <polygon class="cls-3" points="89.01 18.84 89.01 19.58 91.06 20.76 91.06 20.02 89.01 18.84"/>
            </g>
            <path class="cls-4" d="M91.06,17.65l-2,1.19,2,1.18,2-1.18Zm-1.23,1.21,1.24-.72,1.23.72-1.23.71Z"/>
            <polygon class="cls-7" points="91.06 18.62 90.24 19.1 91.06 19.57 91.89 19.1 91.06 18.62"/>
          </g>
          <g>
            <g>
              <g class="cls-1">
                <polygon class="cls-8" points="91.56 11.27 91.56 19.15 91.08 19.43 91.08 11.55 91.56 11.27"/>
              </g>
              <g class="cls-1">
                <polygon class="cls-9" points="90.59 11.27 90.59 19.15 91.08 19.43 91.08 11.55 90.59 11.27"/>
              </g>
              <polygon class="cls-10" points="90.59 11.27 91.08 10.99 91.56 11.27 91.08 11.55 90.59 11.27"/>
            </g>
            <g>
              <g>
                <g class="cls-1">
                  <polygon class="cls-8" points="92.75 14.59 92.75 15.14 92.26 15.42 92.26 14.87 92.75 14.59"/>
                </g>
                <g class="cls-1">
                  <polygon class="cls-9" points="91.08 14.18 91.08 14.73 92.26 15.42 92.26 14.87 91.08 14.18"/>
                </g>
                <polygon class="cls-10" points="91.08 14.18 91.56 13.9 92.75 14.59 92.26 14.87 91.08 14.18"/>
              </g>
              <g>
                <g class="cls-1">
                  <polygon class="cls-8" points="92.75 13.17 92.75 14.61 92.26 14.89 92.26 13.45 92.75 13.17"/>
                </g>
                <g class="cls-1">
                  <polygon class="cls-9" points="91.78 13.17 91.78 14.61 92.26 14.89 92.26 13.45 91.78 13.17"/>
                </g>
                <polygon class="cls-10" points="91.78 13.17 92.26 12.89 92.75 13.17 92.26 13.45 91.78 13.17"/>
              </g>
            </g>
            <g>
              <g>
                <g class="cls-1">
                  <polygon class="cls-9" points="89.4 13.68 89.4 14.23 89.89 14.51 89.89 13.96 89.4 13.68"/>
                </g>
                <g class="cls-1">
                  <polygon class="cls-8" points="91.08 13.27 91.08 13.83 89.89 14.51 89.89 13.96 91.08 13.27"/>
                </g>
                <polygon class="cls-10" points="91.08 13.27 90.59 12.99 89.4 13.68 89.89 13.96 91.08 13.27"/>
              </g>
              <g>
                <g class="cls-1">
                  <polygon class="cls-9" points="89.4 12.65 89.4 13.71 89.89 13.99 89.89 12.93 89.4 12.65"/>
                </g>
                <g class="cls-1">
                  <polygon class="cls-8" points="90.37 12.65 90.37 13.71 89.89 13.99 89.89 12.93 90.37 12.65"/>
                </g>
                <polygon class="cls-10" points="90.37 12.65 89.89 12.37 89.4 12.65 89.89 12.93 90.37 12.65"/>
              </g>
            </g>
          </g>
          <g>
            <path class="cls-11" d="M95.82,9a4.53,4.53,0,1,1-9.06,0A4.59,4.59,0,0,1,86.89,8,4.53,4.53,0,0,1,91.3,4.48a4.59,4.59,0,0,1,1,.1A4.53,4.53,0,0,1,95.82,9Z"/>
            <path class="cls-12" d="M94.8,8.27a4,4,0,1,1-7.92,0c0-.11,0-.22,0-.32A4.53,4.53,0,0,1,91.3,4.48a4.59,4.59,0,0,1,1,.1A4,4,0,0,1,94.8,8.27Z"/>
            <circle class="cls-13" cx="89.12" cy="7.57" r="1.03"/>
          </g>
          <g>
            <path class="cls-11" d="M91.57,11.44A2.24,2.24,0,1,1,89.33,9.2a2,2,0,0,1,.49.06A2.23,2.23,0,0,1,91.57,11.44Z"/>
            <path class="cls-12" d="M91.06,11.08a2,2,0,0,1-3.92,0c0-.06,0-.11,0-.16A2.24,2.24,0,0,1,89.33,9.2a2,2,0,0,1,.49.06A1.94,1.94,0,0,1,91.06,11.08Z"/>
            <path class="cls-13" d="M88.76,10.73a.5.5,0,0,1-.5.51.51.51,0,1,1,0-1A.5.5,0,0,1,88.76,10.73Z"/>
          </g>
          <g>
            <path class="cls-11" d="M93.92,12.76a1.5,1.5,0,1,1-3,0,1.34,1.34,0,0,1,0-.35,1.5,1.5,0,0,1,1.46-1.15,1.12,1.12,0,0,1,.32,0A1.5,1.5,0,0,1,93.92,12.76Z"/>
            <path class="cls-12" d="M93.58,12.52a1.32,1.32,0,0,1-2.63,0s0-.07,0-.11a1.5,1.5,0,0,1,1.46-1.15,1.12,1.12,0,0,1,.32,0A1.31,1.31,0,0,1,93.58,12.52Z"/>
            <path class="cls-13" d="M92,12.29a.34.34,0,1,1-.68,0,.34.34,0,0,1,.68,0Z"/>
          </g>
        </g>
        <g>
          <g class="cls-5">
            <path class="cls-6" d="M21.37,59a1.22,1.22,0,0,1,0,2.3,4.38,4.38,0,0,1-4,0c-1.1-.64-1.11-1.66,0-2.3A4.38,4.38,0,0,1,21.37,59Z"/>
          </g>
          <g>
            <polygon class="cls-3" points="19.39 59.35 20.63 60.06 20.63 59.59 19.39 58.87 19.39 59.35"/>
            <polygon class="cls-2" points="19.39 58.87 19.39 59.35 17.74 60.3 17.74 59.83 19.39 58.87"/>
            <g class="cls-1">
              <polygon class="cls-2" points="21.44 59.57 21.44 60.31 19.38 61.49 19.38 60.75 21.44 59.57"/>
            </g>
            <g class="cls-1">
              <polygon class="cls-3" points="17.33 59.57 17.33 60.31 19.38 61.49 19.38 60.75 17.33 59.57"/>
            </g>
            <path class="cls-4" d="M19.39,58.38l-2.06,1.19,2.05,1.18,2.06-1.18Zm-1.24,1.21,1.24-.72,1.24.72-1.24.71Z"/>
            <polygon class="cls-7" points="19.39 59.35 18.56 59.83 19.39 60.3 20.21 59.83 19.39 59.35"/>
          </g>
          <g>
            <g>
              <g class="cls-1">
                <polygon class="cls-8" points="19.89 52 19.89 59.88 19.4 60.16 19.4 52.28 19.89 52"/>
              </g>
              <g class="cls-1">
                <polygon class="cls-9" points="18.91 52 18.91 59.88 19.4 60.16 19.4 52.28 18.91 52"/>
              </g>
              <polygon class="cls-10" points="18.91 52 19.4 51.72 19.89 52 19.4 52.28 18.91 52"/>
            </g>
            <g>
              <g>
                <g class="cls-1">
                  <polygon class="cls-8" points="21.07 55.31 21.07 55.87 20.59 56.15 20.59 55.59 21.07 55.31"/>
                </g>
                <g class="cls-1">
                  <polygon class="cls-9" points="19.4 54.91 19.4 55.46 20.59 56.15 20.59 55.59 19.4 54.91"/>
                </g>
                <polygon class="cls-10" points="19.4 54.91 19.89 54.63 21.07 55.31 20.59 55.59 19.4 54.91"/>
              </g>
              <g>
                <g class="cls-1">
                  <polygon class="cls-8" points="21.07 53.9 21.07 55.34 20.59 55.62 20.59 54.18 21.07 53.9"/>
                </g>
                <g class="cls-1">
                  <polygon class="cls-9" points="20.1 53.9 20.1 55.34 20.59 55.62 20.59 54.18 20.1 53.9"/>
                </g>
                <polygon class="cls-10" points="20.1 53.9 20.59 53.62 21.07 53.9 20.59 54.18 20.1 53.9"/>
              </g>
            </g>
            <g>
              <g>
                <g class="cls-1">
                  <polygon class="cls-9" points="17.72 54.41 17.72 54.96 18.21 55.24 18.21 54.69 17.72 54.41"/>
                </g>
                <g class="cls-1">
                  <polygon class="cls-8" points="19.4 54 19.4 54.55 18.21 55.24 18.21 54.69 19.4 54"/>
                </g>
                <polygon class="cls-10" points="19.4 54 18.91 53.72 17.72 54.41 18.21 54.69 19.4 54"/>
              </g>
              <g>
                <g class="cls-1">
                  <polygon class="cls-9" points="17.72 53.38 17.72 54.44 18.21 54.72 18.21 53.66 17.72 53.38"/>
                </g>
                <g class="cls-1">
                  <polygon class="cls-8" points="18.7 53.38 18.7 54.44 18.21 54.72 18.21 53.66 18.7 53.38"/>
                </g>
                <polygon class="cls-10" points="18.7 53.38 18.21 53.1 17.72 53.38 18.21 53.66 18.7 53.38"/>
              </g>
            </g>
          </g>
          <g>
            <path class="cls-11" d="M24.15,49.73a4.53,4.53,0,1,1-4.53-4.53,4.46,4.46,0,0,1,1,.11A4.53,4.53,0,0,1,24.15,49.73Z"/>
            <path class="cls-12" d="M23.12,49a4,4,0,0,1-7.92,0c0-.11,0-.22,0-.32a4.54,4.54,0,0,1,4.41-3.48,4.46,4.46,0,0,1,1,.11A4,4,0,0,1,23.12,49Z"/>
            <circle class="cls-13" cx="17.45" cy="48.3" r="1.03"/>
          </g>
          <g>
            <path class="cls-11" d="M19.89,52.17a2.24,2.24,0,1,1-2.24-2.24,2.63,2.63,0,0,1,.49,0A2.25,2.25,0,0,1,19.89,52.17Z"/>
            <path class="cls-12" d="M19.38,51.81a2,2,0,0,1-3.91,0v-.16a2.25,2.25,0,0,1,2.18-1.72,2.63,2.63,0,0,1,.49,0A2,2,0,0,1,19.38,51.81Z"/>
            <path class="cls-13" d="M17.09,51.46a.51.51,0,1,1-.51-.51A.51.51,0,0,1,17.09,51.46Z"/>
          </g>
          <g>
            <path class="cls-11" d="M22.24,53.49a1.5,1.5,0,0,1-3,0,1.34,1.34,0,0,1,0-.35A1.5,1.5,0,0,1,20.74,52a1.24,1.24,0,0,1,.33,0A1.49,1.49,0,0,1,22.24,53.49Z"/>
            <path class="cls-12" d="M21.9,53.25a1.31,1.31,0,0,1-2.62,0v-.11A1.5,1.5,0,0,1,20.74,52a1.24,1.24,0,0,1,.33,0A1.3,1.3,0,0,1,21.9,53.25Z"/>
            <path class="cls-13" d="M20.36,53a.34.34,0,1,1-.34-.35A.34.34,0,0,1,20.36,53Z"/>
          </g>
        </g>
        <g>
          <g class="cls-5">
            <path class="cls-6" d="M24.83,63.26c1.33.76,1.33,2,0,2.78a5.34,5.34,0,0,1-4.8,0c-1.32-.77-1.33-2,0-2.78A5.25,5.25,0,0,1,24.83,63.26Z"/>
          </g>
          <g>
            <polygon class="cls-3" points="22.43 63.71 23.93 64.58 23.93 64 22.43 63.14 22.43 63.71"/>
            <polygon class="cls-2" points="22.43 63.14 22.43 63.71 20.43 64.87 20.43 64.29 22.43 63.14"/>
            <g class="cls-1">
              <polygon class="cls-2" points="24.91 63.98 24.91 64.87 22.42 66.31 22.42 65.41 24.91 63.98"/>
            </g>
            <g class="cls-1">
              <polygon class="cls-3" points="19.94 63.98 19.94 64.87 22.42 66.31 22.42 65.41 19.94 63.98"/>
            </g>
            <path class="cls-4" d="M22.43,62.54,19.94,64l2.48,1.43L24.91,64ZM20.93,64l1.5-.86,1.5.86-1.5.87Z"/>
            <polygon class="cls-7" points="22.43 63.71 21.43 64.29 22.43 64.87 23.43 64.29 22.43 63.71"/>
          </g>
          <g>
            <g>
              <g class="cls-1">
                <polygon class="cls-8" points="23.03 54.81 23.03 64.36 22.44 64.7 22.44 55.16 23.03 54.81"/>
              </g>
              <g class="cls-1">
                <polygon class="cls-9" points="21.85 54.81 21.85 64.36 22.44 64.7 22.44 55.16 21.85 54.81"/>
              </g>
              <polygon class="cls-10" points="21.85 54.81 22.44 54.48 23.03 54.81 22.44 55.16 21.85 54.81"/>
            </g>
            <g>
              <g>
                <g class="cls-1">
                  <polygon class="cls-8" points="24.47 58.83 24.47 59.5 23.88 59.84 23.88 59.17 24.47 58.83"/>
                </g>
                <g class="cls-1">
                  <polygon class="cls-9" points="22.44 58.34 22.44 59.01 23.88 59.84 23.88 59.17 22.44 58.34"/>
                </g>
                <polygon class="cls-10" points="22.44 58.34 23.03 58 24.47 58.83 23.88 59.17 22.44 58.34"/>
              </g>
              <g>
                <g class="cls-1">
                  <polygon class="cls-8" points="24.47 57.11 24.47 58.87 23.88 59.2 23.88 57.45 24.47 57.11"/>
                </g>
                <g class="cls-1">
                  <polygon class="cls-9" points="23.29 57.11 23.29 58.87 23.88 59.2 23.88 57.45 23.29 57.11"/>
                </g>
                <polygon class="cls-10" points="23.29 57.11 23.88 56.77 24.47 57.11 23.88 57.45 23.29 57.11"/>
              </g>
            </g>
            <g>
              <g>
                <g class="cls-1">
                  <polygon class="cls-9" points="20.41 57.73 20.41 58.4 21 58.74 21 58.07 20.41 57.73"/>
                </g>
                <g class="cls-1">
                  <polygon class="cls-8" points="22.44 57.24 22.44 57.91 21 58.74 21 58.07 22.44 57.24"/>
                </g>
                <polygon class="cls-10" points="22.44 57.24 21.85 56.9 20.41 57.73 21 58.07 22.44 57.24"/>
              </g>
              <g>
                <g class="cls-1">
                  <polygon class="cls-9" points="20.41 56.49 20.41 57.77 21 58.11 21 56.83 20.41 56.49"/>
                </g>
                <g class="cls-1">
                  <polygon class="cls-8" points="21.59 56.49 21.59 57.77 21 58.11 21 56.83 21.59 56.49"/>
                </g>
                <polygon class="cls-10" points="21.59 56.49 21 56.15 20.41 56.49 21 56.83 21.59 56.49"/>
              </g>
            </g>
          </g>
          <g>
            <path class="cls-11" d="M28.19,52.08a5.49,5.49,0,0,1-11,0,4.93,4.93,0,0,1,.16-1.28,5.47,5.47,0,0,1,5.33-4.21,5.78,5.78,0,0,1,1.19.13A5.49,5.49,0,0,1,28.19,52.08Z"/>
            <path class="cls-12" d="M26.94,51.18a4.79,4.79,0,1,1-9.58,0,2.36,2.36,0,0,1,0-.38,5.47,5.47,0,0,1,5.33-4.21,5.78,5.78,0,0,1,1.19.13A4.8,4.8,0,0,1,26.94,51.18Z"/>
            <circle class="cls-13" cx="20.08" cy="50.34" r="1.24"/>
          </g>
          <g>
            <path class="cls-11" d="M23,55a2.71,2.71,0,1,1-2.71-2.72,2.88,2.88,0,0,1,.59.07A2.71,2.71,0,0,1,23,55Z"/>
            <path class="cls-12" d="M22.42,54.58a2.37,2.37,0,0,1-4.74,0c0-.06,0-.12,0-.19a2.72,2.72,0,0,1,2.64-2.08,2.88,2.88,0,0,1,.59.07A2.36,2.36,0,0,1,22.42,54.58Z"/>
            <path class="cls-13" d="M19.64,54.17a.61.61,0,0,1-.61.61.61.61,0,0,1-.62-.61.62.62,0,0,1,.62-.62A.61.61,0,0,1,19.64,54.17Z"/>
          </g>
          <g>
            <path class="cls-11" d="M25.88,56.62a1.82,1.82,0,1,1-3.63,0,2,2,0,0,1,.05-.42,1.81,1.81,0,0,1,1.77-1.39,1.72,1.72,0,0,1,.39,0A1.82,1.82,0,0,1,25.88,56.62Z"/>
            <path class="cls-12" d="M25.47,56.33a1.59,1.59,0,1,1-3.18,0s0-.09,0-.13a1.81,1.81,0,0,1,1.77-1.39,1.72,1.72,0,0,1,.39,0A1.59,1.59,0,0,1,25.47,56.33Z"/>
            <path class="cls-13" d="M23.61,56.05a.42.42,0,1,1-.41-.41A.41.41,0,0,1,23.61,56.05Z"/>
          </g>
        </g>
      </g>
    </g>
  </g>
</svg>
