<svg xmlns="http://www.w3.org/2000/svg" viewBox="0 0 85.03 61.91">
  <defs>
    <style>
      .cls-1 {
        isolation: isolate;
      }

      .cls-2 {
        fill: #604f3a;
      }

      .cls-3 {
        fill: #84684e;
      }

      .cls-4 {
        fill: #6d553f;
      }

      .cls-5 {
        fill: #959fb5;
      }

      .cls-6 {
        fill: #d7b7a0;
      }

      .cls-7 {
        fill: #f7f3d6;
      }

      .cls-8 {
        fill: #f06272;
      }

      .cls-9 {
        fill: #9d3d4b;
      }

      .cls-10 {
        fill: #f5fafd;
      }

      .cls-11 {
        fill: #fdffff;
      }

      .cls-12 {
        fill: #536d84;
      }

      .cls-13 {
        fill: none;
        stroke: #32364f;
        stroke-linecap: round;
        stroke-linejoin: round;
        stroke-width: 0.5px;
      }

      .cls-14 {
        fill: #61466d;
      }

      .cls-15 {
        fill: #513d59;
      }

      .cls-16 {
        fill: #856a93;
      }

      .cls-17 {
        fill: #402e49;
      }

      .cls-18 {
        fill: #2b1c33;
      }

      .cls-19 {
        fill: #203850;
      }

      .cls-20 {
        fill: #173246;
      }

      .cls-21 {
        fill: #1f3950;
      }

      .cls-22 {
        fill: #304b62;
      }

      .cls-23 {
        fill: #628da8;
      }

      .cls-24 {
        fill: #406784;
      }

      .cls-25 {
        fill: #f77c96;
      }

      .cls-26 {
        fill: #91b3d8;
      }

      .cls-27 {
        fill: #ce3225;
      }

      .cls-28 {
        fill: #ff99b1;
      }

      .cls-29 {
        fill: #b2d7f9;
      }

      .cls-30 {
        fill: #ad1e17;
      }

      .cls-31 {
        fill: #e8612d;
      }

      .cls-32 {
        fill: #e5b52e;
      }

      .cls-33 {
        fill: #6c757c;
      }

      .cls-34 {
        fill: #8cba9e;
      }

      .cls-35 {
        fill: #cf5362;
      }

      .cls-36 {
        fill: #2d313f;
        opacity: 0.3;
        mix-blend-mode: multiply;
      }

      .cls-37 {
        fill: #fefff3;
      }
    </style>
  </defs>
  <title>Map</title>
  <g class="cls-1">
    <g id="sity">
      <g>
        <g>
          <polygon class="cls-2" points="53.62 46.6 54.23 49.49 55.69 50.34 55.69 50.61 53.7 49.98 53.42 46.5 53.62 46.6"/>
          <polygon class="cls-3" points="47.74 54.93 55.69 50.34 54.14 49.44 46.19 54.03 47.74 54.93"/>
          <polygon class="cls-4" points="47.74 54.93 55.69 50.34 55.69 50.61 47.74 55.2 47.74 54.93"/>
          <polygon class="cls-4" points="45.67 51.19 53.62 46.6 54.14 49.09 46.19 53.68 45.67 51.19"/>
          <polygon class="cls-3" points="45.67 51.19 53.62 46.6 53.42 46.5 45.47 51.09 45.67 51.19"/>
          <polygon class="cls-2" points="45.67 51.19 46.28 54.08 47.74 54.93 47.74 55.2 45.75 54.56 45.47 51.09 45.67 51.19"/>
          <polygon class="cls-2" points="46.24 56.27 45.67 55.95 45.67 53.63 46.24 54.07 46.24 56.27"/>
          <polygon class="cls-4" points="46.24 56.27 46.8 55.95 46.8 54.9 46.24 54.72 46.24 56.27"/>
          <polygon class="cls-4" points="47.74 57.13 48.3 56.82 48.3 54.63 47.74 54.94 47.74 57.13"/>
          <polygon class="cls-2" points="47.74 57.13 47.18 56.82 47.18 54.63 47.74 54.94 47.74 57.13"/>
          <polygon class="cls-2" points="53.62 52.23 53.24 52.02 53.62 51.8 53.62 52.23"/>
          <polygon class="cls-4" points="53.62 52.23 54.18 51.92 54.18 51.48 53.62 51.8 53.62 52.23"/>
          <polygon class="cls-4" points="55.13 53.1 55.69 52.78 55.69 50.59 55.13 50.91 55.13 53.1"/>
          <polygon class="cls-2" points="55.13 53.1 54.57 52.78 54.57 51.26 55.13 50.91 55.13 53.1"/>
        </g>
        <g>
          <polygon class="cls-2" points="78.72 32.17 79.33 35.07 80.79 35.91 80.79 36.18 78.8 35.55 78.52 32.08 78.72 32.17"/>
          <polygon class="cls-3" points="72.84 40.5 80.79 35.91 79.24 35.02 71.29 39.61 72.84 40.5"/>
          <polygon class="cls-4" points="72.84 40.5 80.79 35.91 80.79 36.18 72.84 40.77 72.84 40.5"/>
          <polygon class="cls-4" points="70.78 36.76 78.72 32.17 79.24 34.66 71.29 39.25 70.78 36.76"/>
          <polygon class="cls-3" points="70.78 36.76 78.72 32.17 78.52 32.08 70.57 36.67 70.78 36.76"/>
          <polygon class="cls-2" points="70.78 36.76 71.38 39.66 72.84 40.5 72.84 40.77 70.85 40.14 70.57 36.67 70.78 36.76"/>
          <polygon class="cls-2" points="71.34 41.84 70.78 41.52 70.78 39.2 71.34 39.65 71.34 41.84"/>
          <polygon class="cls-4" points="71.34 41.84 71.9 41.52 71.9 40.47 71.34 40.29 71.34 41.84"/>
          <polygon class="cls-4" points="72.84 42.71 73.41 42.39 73.41 40.2 72.84 40.52 72.84 42.71"/>
          <polygon class="cls-2" points="72.84 42.71 72.28 42.39 72.28 40.2 72.84 40.52 72.84 42.71"/>
          <polygon class="cls-2" points="78.72 37.81 78.35 37.59 78.72 37.38 78.72 37.81"/>
          <polygon class="cls-4" points="78.72 37.81 79.28 37.49 79.28 37.05 78.72 37.38 78.72 37.81"/>
          <polygon class="cls-4" points="80.23 38.67 80.79 38.36 80.79 36.17 80.23 36.48 80.23 38.67"/>
          <polygon class="cls-2" points="80.23 38.67 79.67 38.36 79.67 36.83 80.23 36.48 80.23 38.67"/>
        </g>
        <g>
          <polygon class="cls-2" points="66.55 39.07 67.15 41.96 68.62 42.81 68.62 43.08 66.62 42.44 66.34 38.97 66.55 39.07"/>
          <polygon class="cls-3" points="60.67 47.4 68.62 42.81 67.06 41.91 59.12 46.5 60.67 47.4"/>
          <polygon class="cls-4" points="60.67 47.4 68.62 42.81 68.62 43.08 60.67 47.66 60.67 47.4"/>
          <polygon class="cls-4" points="58.6 43.66 66.55 39.07 67.06 41.56 59.12 46.15 58.6 43.66"/>
          <polygon class="cls-3" points="58.6 43.66 66.55 39.07 66.34 38.97 58.4 43.56 58.6 43.66"/>
          <polygon class="cls-2" points="58.6 43.66 59.2 46.55 60.67 47.4 60.67 47.66 58.67 47.03 58.4 43.56 58.6 43.66"/>
          <polygon class="cls-2" points="59.16 48.73 58.6 48.42 58.6 46.1 59.16 46.54 59.16 48.73"/>
          <polygon class="cls-4" points="59.16 48.73 59.72 48.42 59.72 47.37 59.16 47.19 59.16 48.73"/>
          <polygon class="cls-4" points="60.67 49.6 61.23 49.28 61.23 47.09 60.67 47.41 60.67 49.6"/>
          <polygon class="cls-2" points="60.67 49.6 60.11 49.28 60.11 47.09 60.67 47.41 60.67 49.6"/>
          <polygon class="cls-2" points="66.55 44.7 66.17 44.49 66.55 44.27 66.55 44.7"/>
          <polygon class="cls-4" points="66.55 44.7 67.11 44.39 67.11 43.95 66.55 44.27 66.55 44.7"/>
          <polygon class="cls-4" points="68.06 45.57 68.62 45.25 68.62 43.06 68.06 43.38 68.06 45.57"/>
          <polygon class="cls-2" points="68.06 45.57 67.49 45.25 67.49 43.73 68.06 43.38 68.06 45.57"/>
        </g>
      </g>
      <g>
        <polygon class="cls-5" points="34.25 49.31 40.85 45.5 39.53 44.74 32.94 48.55 34.25 49.31"/>
        <polygon class="cls-5" points="43.49 47.02 19.75 33.32 32.94 25.71 56.67 39.41 43.49 47.02"/>
        <polygon class="cls-5" points="17.11 39.38 23.7 35.58 22.39 34.82 15.79 38.62 17.11 39.38"/>
        <polygon class="cls-5" points="27.74 39.3 25.02 40.94 26.34 41.7 29.11 40.09 27.74 39.3"/>
        <g>
          <polygon class="cls-6" points="15.79 24.94 15.79 40.17 17.11 39.41 17.11 24.18 15.79 24.94"/>
          <polygon class="cls-7" points="15.79 24.94 15.79 40.17 14.47 39.41 14.47 24.18 15.79 24.94"/>
        </g>
        <g>
          <polygon class="cls-8" points="22.39 42.46 23.7 43.22 23.7 38.65 22.39 37.89 22.39 42.46"/>
          <polygon class="cls-9" points="23.7 43.22 26.4 41.66 26.4 37.16 23.7 38.65 23.7 43.22"/>
          <polygon class="cls-10" points="22.39 37.89 23.7 38.65 23.7 35.6 22.39 34.84 22.39 37.89"/>
          <polygon class="cls-11" points="25.02 33.32 22.39 34.84 23.7 35.6 26.4 34.12 25.02 33.32"/>
          <polygon class="cls-5" points="26.4 34.12 23.7 35.6 23.7 38.65 26.4 37.16 26.4 34.12"/>
          <polygon class="cls-12" points="24.03 35.8 26.07 34.67 26.07 36.97 24.03 38.1 24.03 35.8"/>
          <polyline class="cls-13" points="23.04 37.77 23.04 41.15 22.39 41.57 22.39 36.84"/>
          <g>
            <polygon class="cls-14" points="21.9 37.72 22.34 37.97 22.34 36.51 21.9 36.24 21.9 37.72"/>
            <polygon class="cls-15" points="22.34 37.97 22.77 37.73 22.77 36.89 23.32 36.36 23.32 35.97 22.34 36.51 22.34 37.97"/>
            <polygon class="cls-16" points="23.32 35.97 22.34 36.51 21.9 36.24 22.89 35.72 23.32 35.97"/>
          </g>
        </g>
        <path class="cls-5" d="M31.51,41.46,35.91,44a.69.69,0,0,1,0,1.3l-10.37,6c-3.11,1.8-9.15-2.45-6.66-3.84l10.38-6A2.51,2.51,0,0,1,31.51,41.46Z"/>
        <g>
          <path class="cls-15" d="M22,43.08v0a.51.51,0,0,1,0,.14c-.09.16-.29.37-.36.35s-.1-.1-.12-.22h0a.86.86,0,0,1,0-.16c0-.18.07-.59.31-.7a.12.12,0,0,1,.15,0,.29.29,0,0,1,.07.12A1.09,1.09,0,0,1,22,43.08Z"/>
          <path class="cls-17" d="M21.92,43.24c-.09.16-.29.37-.36.35s-.1-.1-.12-.22h0a.86.86,0,0,1,0-.16c0-.18.07-.59.31-.7a.12.12,0,0,1,.15,0l0,.08c-.18.07-.22.34-.21.54S21.82,43.34,21.92,43.24Z"/>
          <path class="cls-18" d="M22,42.66c-.06-.07-.21-.07-.34.11a1.22,1.22,0,0,0-.18.6.86.86,0,0,1,0-.16c0-.18.07-.59.31-.7S21.93,42.57,22,42.66Z"/>
          <polygon class="cls-19" points="35.08 44.22 33.37 43.23 34.32 42.69 35.46 43.34 35.08 44.22"/>
          <g>
            <path class="cls-20" d="M34.36,44l.25-.49L34,43.16h0a.72.72,0,0,0-.7.06,2.44,2.44,0,0,0-1,1.92.84.84,0,0,0,.34.77h0l.59.35.26-.52A2.48,2.48,0,0,0,34.36,44Z"/>
            <path class="cls-21" d="M35,44.29A2.53,2.53,0,0,1,34.16,46h0a1.63,1.63,0,0,1-.22.17c-.58.33-1,0-1-.72a2.55,2.55,0,0,1,.65-1.59h0a1.71,1.71,0,0,1,.4-.32C34.5,43.24,35,43.56,35,44.29Z"/>
            <path class="cls-22" d="M33.93,44c.36-.21.66,0,.66.5a1.6,1.6,0,0,1-.66,1.26c-.37.21-.67,0-.67-.5A1.6,1.6,0,0,1,33.93,44Z"/>
            <path class="cls-23" d="M34.21,44.73a.77.77,0,0,1-.28.6.16.16,0,0,1-.19,0,.32.32,0,0,1-.1-.27.75.75,0,0,1,.29-.61l.11,0h0C34.14,44.44,34.21,44.55,34.21,44.73Z"/>
            <path class="cls-24" d="M34.15,44.7a.74.74,0,0,1-.29.6.14.14,0,0,1-.12,0,.32.32,0,0,1-.1-.27.75.75,0,0,1,.29-.61l.11,0h0A.33.33,0,0,1,34.15,44.7Z"/>
            <path class="cls-22" d="M35,44.29A2.53,2.53,0,0,1,34.16,46a3,3,0,0,0,.66-1.28c.09-.42,0-1-.31-1.17s-.83.16-1,.31a1.71,1.71,0,0,1,.4-.32C34.5,43.24,35,43.56,35,44.29Z"/>
          </g>
          <polygon class="cls-19" points="27.48 48.61 25.78 47.62 26.73 47.07 28.43 48.06 27.48 48.61"/>
          <g>
            <path class="cls-20" d="M26.78,48.36l.25-.49-.59-.33h0a.67.67,0,0,0-.7.06,2.41,2.41,0,0,0-1,1.92.84.84,0,0,0,.34.77h0l.6.35.25-.51A2.52,2.52,0,0,0,26.78,48.36Z"/>
            <path class="cls-21" d="M27.39,48.66a2.55,2.55,0,0,1-.81,1.76h0l-.23.16c-.58.33-1.05,0-1.05-.71A2.51,2.51,0,0,1,26,48.28h0a1.53,1.53,0,0,1,.4-.33C26.92,47.62,27.39,47.94,27.39,48.66Z"/>
            <path class="cls-22" d="M26.35,48.39c.36-.21.66,0,.66.49a1.58,1.58,0,0,1-.66,1.26c-.37.21-.67,0-.67-.49A1.57,1.57,0,0,1,26.35,48.39Z"/>
            <path class="cls-23" d="M26.63,49.1a.77.77,0,0,1-.28.6.19.19,0,0,1-.19,0,.35.35,0,0,1-.1-.28.74.74,0,0,1,.29-.6.14.14,0,0,1,.12,0h0C26.56,48.81,26.63,48.92,26.63,49.1Z"/>
            <path class="cls-24" d="M26.57,49.08a.74.74,0,0,1-.29.6.27.27,0,0,1-.12,0,.35.35,0,0,1-.1-.28.74.74,0,0,1,.29-.6.14.14,0,0,1,.12,0h0A.33.33,0,0,1,26.57,49.08Z"/>
            <path class="cls-22" d="M27.39,48.66a2.55,2.55,0,0,1-.81,1.76,3.1,3.1,0,0,0,.66-1.29c.09-.42.05-1-.31-1.17s-.83.17-1,.32a1.53,1.53,0,0,1,.4-.33C26.92,47.62,27.39,47.94,27.39,48.66Z"/>
          </g>
          <path class="cls-25" d="M36.13,42.66v.14A1.42,1.42,0,0,1,35.41,44l-.33.19c0-.85-.55-1.21-1.23-.82a2.86,2.86,0,0,0-1.23,2.05c0,.06,0,.13,0,.2l-5.12,3c0-.06,0-.11,0-.17-.07-.73-.59-1-1.23-.65l-.12.07a2.61,2.61,0,0,0-.75.88,2.92,2.92,0,0,0-.29.74,1.88,1.88,0,0,0-.06.31.47.47,0,0,1-.27.38A4.37,4.37,0,0,1,20.65,50l-.74-.42a2.54,2.54,0,0,1-1.26-2.18v-.35a2.43,2.43,0,0,1,0-.38,1.85,1.85,0,0,1,0-.23h0a2.81,2.81,0,0,1,.38-.93,1,1,0,0,1,.11-.17,2.86,2.86,0,0,1,.65-.65l1.83-1.32,1.9-2a23.6,23.6,0,0,1,3.33-2.22,6.21,6.21,0,0,1,2.87-.78h0a4.15,4.15,0,0,1,.87.06l.1,0a2.6,2.6,0,0,1,.81.36L35.31,41a.76.76,0,0,1,.14.1.67.67,0,0,1,.15.13,2.22,2.22,0,0,1,.34.52A2.25,2.25,0,0,1,36.13,42.66Z"/>
          <path class="cls-8" d="M18.65,47.08a2.43,2.43,0,0,1,0-.38,1.85,1.85,0,0,1,0-.23h0a2.81,2.81,0,0,1,.38-.93,1,1,0,0,1,.11-.17,2.92,2.92,0,0,1,.41-.45c-.47.53-.48,1.36.87,2.28a3.64,3.64,0,0,0,3,.62l-.34,2.78A4.29,4.29,0,0,1,20.65,50l-.74-.42a2.54,2.54,0,0,1-1.26-2.18Z"/>
          <path class="cls-9" d="M22.45,50.57a2.8,2.8,0,0,1,1-2.8,6.66,6.66,0,0,0,2.64-1.21l.57-.31,1.11-2.43-.44-.11s0-.21.35-.44,3.49-2.13,4-2.35.84-.46,1.32-.28a8.59,8.59,0,0,1,2.61.6h0a2.45,2.45,0,0,1,.34.52,2.25,2.25,0,0,1,.19.88v.14A1.42,1.42,0,0,1,35.41,44l-.33.19c0-.84-.55-1.21-1.23-.82a2.86,2.86,0,0,0-1.23,2c0,.06,0,.13,0,.2l-5.12,3c0-.06,0-.11,0-.17-.07-.73-.59-1-1.23-.65l-.12.07a2.61,2.61,0,0,0-.75.88,3,3,0,0,0-.29.75,1.59,1.59,0,0,0-.06.3.47.47,0,0,1-.27.38A4.33,4.33,0,0,1,22.45,50.57Z"/>
          <path class="cls-25" d="M20.74,44.47a11.37,11.37,0,0,1,1-.81l3.83,2.43A15.17,15.17,0,0,1,23.4,45a9,9,0,0,1-1.64-1.21C21.63,43.77,20.74,44.47,20.74,44.47Z"/>
          <path class="cls-9" d="M27.8,46.05a1.52,1.52,0,0,1-.36.2c-.17,0-.14-.16.12-1s.39-1.37.78-1.65,3.26-1.9,3.61-2.13a1.34,1.34,0,0,1,1.23-.17c.41.17.68.32.67.66s.1.55-.57.93Z"/>
          <path class="cls-15" d="M24.54,48.88a1.78,1.78,0,0,1-1.87.63,5.89,5.89,0,0,1-2.62-1,2.86,2.86,0,0,1-1-.94,2.59,2.59,0,0,1-.35-.87,1.85,1.85,0,0,1,0-.23h0a2.81,2.81,0,0,1,.38-.93,1,1,0,0,1,.11-.17,2.91,2.91,0,0,0,0,.53c0,.3.09.77.06,1.08s.19.69,1,1.19c1,.59,1.39.5,1.77.38a3.61,3.61,0,0,1,.67-.11c.28,0,.54,0,.73-.08.42-.1.63-.39.95-.36S24.75,48.61,24.54,48.88Z"/>
          <path class="cls-17" d="M22.71,48.44a4.75,4.75,0,0,0-.87.24c-.18.07-.35.12-.91-.07a5.22,5.22,0,0,1-1.47-.91.66.66,0,0,1-.22-.72c0,.32.19.69,1,1.19,1,.59,1.39.5,1.77.38a3.61,3.61,0,0,1,.67-.11Z"/>
          <path class="cls-26" d="M27.77,43.84l-1.11,2.43c-.22.38-2.56-.8-3.95-1.79-.67-.47-1.12-.9-1-1.08a13.56,13.56,0,0,1,1.9-2l.23.21a5.35,5.35,0,0,0,.57.48A13.51,13.51,0,0,0,27.77,43.84Z"/>
          <path class="cls-12" d="M33.37,42.8l-1.62.93h0l-.31.19h0l-1.29.74h0l-.31.18h0l-1.69,1c-.38.22-.64.37-.57.11L28,44.5a1.64,1.64,0,0,1,.5-.81h0l.11-.09.16-.1,1.3-.75,0,0,.32-.19.73-.42.24-.14.76-.43a1.19,1.19,0,0,1,.31-.14,1.18,1.18,0,0,1,1,.25C33.71,41.79,33.66,42.64,33.37,42.8Z"/>
          <path class="cls-17" d="M29.84,44.84l-1.69,1c-.38.22-.64.37-.57.11L28,44.5a1.64,1.64,0,0,1,.5-.81,2.8,2.8,0,0,0-.51,1.2c-.22.82-.37,1.13.53.65S29.78,44.86,29.84,44.84Z"/>
          <path class="cls-17" d="M24.35,48.11c-.32,0-.51.39-1.14.44s-1,.06-1.16.22-.11.37.21.5A2.4,2.4,0,0,0,24,49.21C24.54,48.89,24.89,48.09,24.35,48.11Z"/>
          <path class="cls-17" d="M23.59,50.16c0,.07-.14.1-.27.11l-.34,0c-.28,0-.55,0-.62-.13s-.24-.36-.1-.38h.13a4.69,4.69,0,0,0,.53,0c.13,0,.25,0,.54,0S23.66,50.06,23.59,50.16Z"/>
          <path class="cls-19" d="M18.94,47.07a1.09,1.09,0,0,1-.22-.6h0a2.81,2.81,0,0,1,.38-.93,3.66,3.66,0,0,0,0,1C19.16,46.84,19,47.11,18.94,47.07Z"/>
          <path class="cls-15" d="M21.22,49.54c-.11.1-.2.21-.36.21a3.1,3.1,0,0,1-.95-.44,3.23,3.23,0,0,1-.51-.39.71.71,0,0,1-.13-.21,1.07,1.07,0,0,1,0-.44c0-.08.08,0,.11,0a2.61,2.61,0,0,1,.27.21h0c.1.08.24.18.44.31a6.42,6.42,0,0,0,1,.56C21.25,49.41,21.3,49.45,21.22,49.54Z"/>
          <path class="cls-15" d="M28.17,46.08c-.08.37-.5.45-.81.44a1,1,0,0,1-.34-.05c-.12-.07-.07-.22,0-.3a1.7,1.7,0,0,1,.9-.44C28.1,45.73,28.22,45.81,28.17,46.08Z"/>
          <path class="cls-17" d="M28.17,46.08c-.08.37-.5.45-.81.44a1,1,0,0,1-.34-.05c-.12-.07-.07-.22,0-.3-.06.11.26.18.54.08s.5-.32.36-.52C28.1,45.73,28.22,45.81,28.17,46.08Z"/>
          <path class="cls-18" d="M28.17,46.08c-.08.37-.5.45-.81.44a.71.71,0,0,0,.65-.38c.09-.19,0-.38-.09-.41C28.1,45.73,28.22,45.81,28.17,46.08Z"/>
          <path class="cls-12" d="M34,40.88a2.26,2.26,0,0,1-1-.36L30.2,38.88c-.52-.3-.56-.35-.3-.36h0l.49,0a2.08,2.08,0,0,1,.81.26l2.5,1.44C35.13,41.07,34.63,41,34,40.88Z"/>
          <path class="cls-27" d="M36.12,42.61c-.15.13-.26-.21-.28-.47s0-.31.1-.36.19.22.23.36a.79.79,0,0,1,0,.2A.34.34,0,0,1,36.12,42.61Z"/>
          <path class="cls-12" d="M24.48,48.5a1.5,1.5,0,0,1-.32.44.89.89,0,0,1-.95.27c-.18-.1-.21-.26-.12-.38l0,0a.83.83,0,0,1,.38-.17,3.24,3.24,0,0,0,.52-.24h0a1.33,1.33,0,0,1,.28-.13C24.48,48.21,24.53,48.33,24.48,48.5Z"/>
          <path class="cls-12" d="M22.69,49.19c-.16,0-.44,0-.52-.14s0-.14.08-.2h0a.52.52,0,0,1,.24-.08.54.54,0,0,1,.29.06.23.23,0,0,1,.09.08C23,49.05,22.86,49.16,22.69,49.19Z"/>
          <path class="cls-12" d="M19.05,46.51l0,.14c0,.09-.09.12-.19,0s0-.61.1-.58a.08.08,0,0,1,0,0h0A.83.83,0,0,1,19.05,46.51Z"/>
          <path class="cls-15" d="M21.64,48.45s-.1,0-.25,0a5.66,5.66,0,0,1-1.12-.5l-.16-.1h0a2.81,2.81,0,0,1-.62-.54c-.06-.1,0-.12.07-.15a.35.35,0,0,1,.34,0l.46.25h0a10.57,10.57,0,0,1,1.1.67C21.58,48.22,21.67,48.41,21.64,48.45Z"/>
          <path class="cls-9" d="M30.9,44.33s.15.06.14.46-.14,1.41-.14,1.41.24-1.09.29-1.43a.75.75,0,0,0-.14-.55Z"/>
          <path class="cls-25" d="M26,47.63a2.19,2.19,0,0,0-1.08,1.57A1.56,1.56,0,0,1,26,47.63Z"/>
          <path class="cls-25" d="M33.34,43.44a2.19,2.19,0,0,0-.91,1.67A1.55,1.55,0,0,1,33.34,43.44Z"/>
          <path class="cls-25" d="M28.72,45.7l2.18-1.26a.32.32,0,0,1,.06.17Z"/>
          <path class="cls-25" d="M31.17,44.29l2-1.16-1.91,1.31A.23.23,0,0,0,31.17,44.29Z"/>
          <path class="cls-25" d="M32,39.23l2.38,1.37c.22.14.6.42.51.44a7.61,7.61,0,0,1-.83,0l.81.11a1.41,1.41,0,0,1,.8.32s-.05-.16-.41-.39S32,39.23,32,39.23Z"/>
          <path class="cls-25" d="M24.19,41.7a8.42,8.42,0,0,0,3.58,1.74,8.79,8.79,0,0,0,2.37-1,13.91,13.91,0,0,1-2.23,1.23C27.24,43.78,24.61,42.28,24.19,41.7Z"/>
          <path class="cls-25" d="M23.59,50.16c0,.07-.14.1-.27.11h0c.21,0,.28-.18.27-.29s-.06-.1-.38-.11a4,4,0,0,1-.82-.09,4.69,4.69,0,0,0,.53,0c.13,0,.25,0,.54,0S23.66,50.06,23.59,50.16Z"/>
          <path class="cls-28" d="M20.49,47.2A4.09,4.09,0,0,0,23,48a7.66,7.66,0,0,0,3.07-1.37,8.21,8.21,0,0,1-3,1.24A4.5,4.5,0,0,1,20.49,47.2Z"/>
          <path class="cls-26" d="M24.26,48.44a.85.85,0,0,1-.57.59c-.46.17-.63-.08-.6-.2h0l0,0a.42.42,0,0,1,.17-.11h0l.21-.06a2.38,2.38,0,0,0,.42-.19l.1,0h0C24.16,48.32,24.24,48.34,24.26,48.44Z"/>
          <path class="cls-10" d="M24,48.59a.75.75,0,0,1-.59.35c-.27,0-.22-.19-.11-.25h0l.21-.06a2.38,2.38,0,0,0,.42-.19C24,48.4,24.08,48.45,24,48.59Z"/>
          <path class="cls-26" d="M22.43,49.09c-.22,0-.26-.15-.18-.24h0l.07,0h0l.17,0h.14a.44.44,0,0,1,.15,0C23,49,22.65,49.11,22.43,49.09Z"/>
          <path class="cls-10" d="M22.7,48.86a.65.65,0,0,1-.34.08c-.14,0-.11-.09,0-.13h0l.17,0h.14C22.69,48.79,22.72,48.83,22.7,48.86Z"/>
          <path class="cls-26" d="M19.05,46.51l0,.14c-.07,0-.13-.06-.17-.2s.07-.38.12-.36h0a.38.38,0,0,1,.05.14h0A1.47,1.47,0,0,1,19.05,46.51Z"/>
          <path class="cls-10" d="M19.05,46.51c-.07.15-.16-.07-.15-.17s.08-.19.13-.11h0A1.47,1.47,0,0,1,19.05,46.51Z"/>
          <path class="cls-17" d="M21.64,48.45s-.1,0-.25,0a5.66,5.66,0,0,1-1.12-.5l-.16-.1h0a7,7,0,0,0,1.21.52c.23,0,.25,0,.18-.12a1.15,1.15,0,0,0-.3-.28c-.12-.08-.58-.39-.81-.53a10.57,10.57,0,0,1,1.1.67C21.58,48.22,21.67,48.41,21.64,48.45Z"/>
          <path class="cls-17" d="M21.22,49.54c-.11.1-.2.21-.36.21a3.1,3.1,0,0,1-.95-.44,3.23,3.23,0,0,1-.51-.39,5,5,0,0,0,1.34.75c.21,0,.27,0,.38-.13s0-.1-.38-.29a6.7,6.7,0,0,1-1.11-.78c.1.08.24.18.44.31a6.42,6.42,0,0,0,1,.56C21.25,49.41,21.3,49.45,21.22,49.54Z"/>
          <path class="cls-17" d="M27.77,43.84l-1.11,2.43c-.22.38-2.56-.8-3.95-1.79a24.36,24.36,0,0,0,3,1.5c.57.2.82.28,1,0S27.56,44.07,27.77,43.84Z"/>
          <path class="cls-29" d="M22.12,43.29a5.12,5.12,0,0,1,.59-.71,4.39,4.39,0,0,1,1.07-.94h0a5.34,5.34,0,0,0,.5.43S22.11,43.35,22.12,43.29Z"/>
          <path class="cls-17" d="M31.49,43.89l-1.34.77h0c.05,0,.47-.32.56-.55a3.75,3.75,0,0,0,0-1.31c0-.31-.13-.34-.3-.27l.73-.42a.55.55,0,0,0-.18.56c0,.25,0,.77.09,1.09s.27.19.39.16h0Z"/>
          <path class="cls-17" d="M33.37,42.8l-1.62.93c.48-.29,1.45-.9,1.59-1s.2-.5.19-.75-.16-.31-.4-.43a1.18,1.18,0,0,0-.68-.14h0a1.18,1.18,0,0,1,1,.25C33.71,41.79,33.66,42.64,33.37,42.8Z"/>
          <path class="cls-9" d="M27.68,43.29s3.07-2,4.07-2.47S33,40.66,33,40.66c-.62-.13-1.67.5-2.71,1.12Z"/>
          <path class="cls-8" d="M24.26,41.42s1.56-.89,2.6-1.51a5.72,5.72,0,0,1,2.93-1.08s-.41-.27-1.61.24C27.18,39.5,24.26,41.42,24.26,41.42Z"/>
          <path class="cls-30" d="M36.12,42.61c-.15.13-.26-.21-.28-.47s0-.31.1-.36a1.3,1.3,0,0,0,.06.66c.09.13.2,0,.21-.1A.34.34,0,0,1,36.12,42.61Z"/>
          <path class="cls-31" d="M36,42.1a.05.05,0,0,1,0,0s0,0,0,0a.12.12,0,0,1,0-.1.17.17,0,0,1,0-.12s.05,0,.05,0A.44.44,0,0,1,36,42.1Z"/>
          <path class="cls-32" d="M36.12,42.11h0s0,0,0,0,0,.1,0,.12h0s0,0,0,0A.26.26,0,0,0,36.12,42.11Z"/>
        </g>
        <g>
          <polygon class="cls-6" points="32.94 34.84 32.94 50.07 34.25 49.31 34.25 34.08 32.94 34.84"/>
          <polygon class="cls-7" points="32.94 34.84 32.94 50.07 31.62 49.31 31.62 34.08 32.94 34.84"/>
        </g>
        <g>
          <polygon class="cls-6" points="43.48 28.75 43.48 43.98 44.8 43.22 44.8 27.99 43.48 28.75"/>
          <polygon class="cls-7" points="43.48 28.75 43.48 43.98 42.17 43.22 42.17 27.99 43.48 28.75"/>
        </g>
        <polygon class="cls-7" points="56.67 39.41 32.94 25.71 32.93 12 56.67 25.71 56.67 39.41"/>
        <g>
          <polygon class="cls-33" points="55.35 26.47 55.35 37.13 50.32 34.23 50.32 23.58 55.35 26.47"/>
          <polygon class="cls-33" points="39.27 17.19 39.27 27.85 34.24 24.95 34.24 14.29 39.27 17.19"/>
          <polygon class="cls-33" points="49.09 22.85 49.09 33.51 45.13 31.23 45.13 20.57 49.09 22.85"/>
          <polygon class="cls-33" points="44.47 20.19 44.47 30.85 40.52 28.56 40.52 17.9 44.47 20.19"/>
        </g>
        <g>
          <polygon class="cls-34" points="45.78 30.91 49.09 32.82 49.09 22.85 45.78 20.95 45.78 30.91"/>
          <polygon class="cls-34" points="50.97 33.92 55.35 36.44 55.35 26.47 50.97 23.95 50.97 33.92"/>
          <polygon class="cls-34" points="41.17 28.25 44.47 30.16 44.47 20.19 41.17 18.28 41.17 28.25"/>
          <polygon class="cls-34" points="34.89 24.64 39.27 27.16 39.27 17.19 34.89 14.67 34.89 24.64"/>
        </g>
        <polygon class="cls-15" points="50.32 23.58 50.97 23.95 50.97 33.92 50.32 34.23 50.32 23.58"/>
        <polygon class="cls-15" points="45.13 20.57 45.78 20.95 45.78 30.91 45.13 31.23 45.13 20.57"/>
        <polygon class="cls-15" points="40.52 17.9 41.17 18.28 41.17 28.25 40.52 28.56 40.52 17.9"/>
        <polygon class="cls-15" points="34.24 14.29 34.89 14.67 34.89 24.64 34.24 24.95 34.24 14.29"/>
        <polygon class="cls-25" points="11.84 22.66 35.57 36.37 67.22 18.09 43.48 4.39 11.84 22.66"/>
        <polygon class="cls-35" points="14.47 22.66 35.57 34.84 64.58 18.09 43.48 5.91 14.47 22.66"/>
        <polygon class="cls-8" points="43.48 7.43 43.48 5.91 64.58 18.09 63.27 18.85 43.48 7.43"/>
        <polygon class="cls-9" points="15.79 23.42 43.48 7.43 43.48 5.91 14.47 22.66 15.79 23.42"/>
        <polygon class="cls-36" points="43.48 5.91 45.03 8.33 17.44 24.37 14.47 22.66 43.48 5.91"/>
        <polygon class="cls-8" points="11.84 22.66 11.84 24.18 35.57 37.89 35.57 36.37 11.84 22.66"/>
        <polygon class="cls-9" points="35.57 37.89 67.22 19.62 67.22 18.09 35.57 36.37 35.57 37.89"/>
        <polygon class="cls-6" points="67.22 19.62 67.22 33.32 56.67 39.41 56.67 25.71 67.22 19.62"/>
        <g>
          <polygon class="cls-7" points="34.25 34.08 34.26 29.52 35.57 30.28 35.57 34.84 34.25 34.08"/>
          <polygon class="cls-37" points="64.58 13.52 35.57 30.28 34.26 29.52 63.26 12.76 64.58 13.52"/>
          <polygon class="cls-6" points="64.58 18.09 64.58 13.52 35.57 30.28 35.57 34.84 64.58 18.09"/>
        </g>
        <g>
          <g>
            <path class="cls-11" d="M52,23.73l.36-.2v.14c0,.33.07.46.29.33a.48.48,0,0,0,.27-.43.38.38,0,0,0-.21-.39l-.48-.29a.59.59,0,0,1-.26-.53,1.29,1.29,0,0,1,.69-1.08c.53-.31.69-.07.69.24a1.89,1.89,0,0,1,0,.39l-.35.2V22c0-.32-.09-.45-.29-.33a.46.46,0,0,0-.26.41.31.31,0,0,0,.14.3l.53.33a.63.63,0,0,1,.31.56,1.35,1.35,0,0,1-.72,1.11c-.55.31-.71.09-.71-.23A1.81,1.81,0,0,1,52,23.73Z"/>
            <path class="cls-11" d="M54.05,20.87l-.49.28v-.36L55,20v.36l-.48.28v2.65l-.46.26Z"/>
            <path class="cls-11" d="M55.63,19.6l.53-.31L56.72,22l-.47.27-.08-.49-.55.32-.08.58-.46.27Zm.49,1.84-.21-1.37h0l-.22,1.62Z"/>
            <path class="cls-11" d="M57.29,19l-.49.28v-.36l1.43-.82v.36l-.49.28v2.65l-.45.26Z"/>
            <path class="cls-11" d="M58.54,17.92l.46-.27v3l-.46.26Z"/>
            <path class="cls-11" d="M59.43,19.44V18.37a1.51,1.51,0,0,1,.75-1.43c.27-.15.74-.36.74.57v1.06A1.55,1.55,0,0,1,60.18,20C59.89,20.18,59.43,20.34,59.43,19.44Zm1-.41V17.65c0-.38-.09-.45-.27-.35s-.27.28-.27.67v1.37c0,.37.08.43.27.32S60.45,19.4,60.45,19Z"/>
            <path class="cls-11" d="M61.36,16.29l.37-.21.73,1.59h0a6.75,6.75,0,0,1,0-.89V15.68l.41-.24v3l-.37.22-.73-1.55h0c0,.21,0,.44,0,1.05v.89l-.4.23Z"/>
          </g>
          <g>
            <path class="cls-11" d="M37.32,32.21V31.14a1.45,1.45,0,0,1,.74-1.42c.48-.28.63-.08.63.27a1.84,1.84,0,0,1,0,.39l-.37.21v-.15c0-.33-.08-.46-.22-.38s-.26.27-.26.66v1.39c0,.37.07.45.26.34a.54.54,0,0,0,.22-.48v-.3l.42-.24v.28a1.18,1.18,0,0,1-.64,1.09C37.77,33,37.32,33.12,37.32,32.21Z"/>
            <path class="cls-11" d="M39.07,29.16l.46-.27v1.27l.54-.31V28.58l.46-.27v3l-.46.26v-1.4l-.54.31v1.4l-.46.27Z"/>
            <path class="cls-11" d="M41.39,27.82l.53-.31.56,2.71-.46.27-.09-.5-.55.32-.08.59-.47.27Zm.49,1.86-.21-1.39h0l-.22,1.64Z"/>
            <path class="cls-11" d="M42.78,27l.5-.28c.34-.2.92-.49.92.33v.08a1.53,1.53,0,0,1-.4,1.1l.49.94-.49.28-.4-.91-.17.1v1.14l-.45.26Zm.52,1.27a.77.77,0,0,0,.44-.79v-.24c0-.31-.11-.39-.44-.2l-.07,0v1.23Z"/>
            <path class="cls-11" d="M44.58,28V27a1.52,1.52,0,0,1,.77-1.45c.5-.28.67-.09.67.26a2.87,2.87,0,0,1,0,.39l-.37.21v-.14c0-.34-.09-.45-.27-.35s-.28.29-.28.67v1.38c0,.38.08.44.28.33a.78.78,0,0,0,.29-.69v-.39l-.24.13V27l.69-.39v1.53l-.31.18-.05-.26a1.09,1.09,0,0,1-.46.59C45,28.77,44.58,28.93,44.58,28Z"/>
            <path class="cls-11" d="M46.5,24.86,47,24.6v3l-.46.27Z"/>
            <path class="cls-11" d="M47.48,24.3l.38-.22.73,1.61h0c0-.18-.05-.42-.05-.89V23.68l.42-.24v3l-.38.21-.73-1.55h0a8.55,8.55,0,0,1,0,1.05v.9l-.41.23Z"/>
            <path class="cls-11" d="M49.42,25.23V24.15a1.54,1.54,0,0,1,.78-1.45c.49-.28.66-.09.66.26a1.84,1.84,0,0,1,0,.39l-.36.21v-.14c0-.33-.1-.45-.27-.35s-.29.29-.29.68v1.37c0,.38.09.44.28.33a.75.75,0,0,0,.3-.68v-.4l-.24.14v-.3l.68-.4v1.54l-.3.17,0-.26a1.07,1.07,0,0,1-.47.59C49.89,26,49.42,26.14,49.42,25.23Z"/>
          </g>
        </g>
      </g>
    </g>
  </g>
</svg>
