<svg xmlns="http://www.w3.org/2000/svg" viewBox="0 0 153.4 88.15">
  <defs>
    <style>
      .cls-1 {
        fill: #b5974b;
      }

      .cls-2 {
        fill: #fff;
      }
    </style>
  </defs>
  <title>Map</title>
  <g id="sity">
    <g>
      <g>
        <polygon class="cls-1" points="2.93 34.56 60.52 0.85 150.41 53.4 92.81 87.12 2.93 34.56"/>
        <path class="cls-2" d="M2.86,34.58,92.73,87.12,150.41,53.4,60.53.86ZM50,7.86l13.39,7.81c.22.13.2.2,0,.33L28.75,36.26a.47.47,0,0,1-.58,0L14.85,28.46a2.2,2.2,0,0,1-.25-.17L49.78,7.72A2.8,2.8,0,0,1,50,7.86Zm2.8,14.9c.88,4.39-5.77,7.87-12.49,7.31ZM61.26,1.85a1.79,1.79,0,0,1-1.45,0l.74-.44ZM148.74,53l.7.41-.67.39C148.43,53.51,148.42,53.23,148.74,53ZM103.5,80.26,89.63,72.15,124.8,51.59l13.88,8.11Zm-3.07-15c-.27-2.55,1.24-4.57,4.63-6.09,2.1-.93,6.41-1.57,7.82-1.19C108.76,60.37,104.63,62.78,100.43,65.23ZM92,86.12a1.71,1.71,0,0,1,1.53,0l-.8.47-.57-.33ZM48.52,60.73l19.84-11.6c4.49,2.5,11.9,2.59,16.6-.06a6.81,6.81,0,0,0,3.51-3.82c.68-2.32-.41-4.34-3-6.09l19.85-11.6.42.24,42.12,24.63.21.12c.17.08.15.15.08.27a1.23,1.23,0,0,0-.23.68c0,.21.22.41.34.62l-9,5.28-.41-.24-13.48-7.88c-.55-.32-.42-.31-1,0l-10.46,6.11a.88.88,0,0,1-.59.15c-4.19-.26-7.75.49-10.56,2.33-2.38,1.56-3.3,3.41-2.92,5.48,0,.19,0,.3-.27.43L89,71.92c-.39.23-.39.23,0,.46l13.58,8c.13.07.24.15.37.23l-9,5.23a3.07,3.07,0,0,0-2.25-.09.65.65,0,0,1-.64,0L48.81,60.9ZM84.6,39.62l.28-.16c1.83,1,3.81,3.2,2.9,5.77s-3.67,4.41-8.1,5.15a17.22,17.22,0,0,1-10.83-1.53l.19-.13,7.17-4.19a.89.89,0,0,1,.38-.08c.48,0,.83-.18.81-.45s.08-.22.23-.31Q81.13,41.67,84.6,39.62Zm-.34-.37-7.2,4.21a1.07,1.07,0,0,1-.38.08c-.48,0-.83.18-.81.45s-.08.22-.24.31l-7,4.07-.28.16c-2-1.12-4-3.46-2.78-6.1s4.29-4.43,9-5a16.77,16.77,0,0,1,9.78,1.67ZM5.09,33.85l9-5.27.39.23,13.59,8c.39.22.39.22.77,0L39.38,30.6a1,1,0,0,1,.61-.14c4.45.28,8.16-.56,11-2.6,2.12-1.52,2.9-3.3,2.52-5.24,0-.18,0-.29.25-.42l10.48-6.12c.42-.24.42-.24,0-.48L50.66,7.66l-.36-.24,9-5.25a3.06,3.06,0,0,0,2.17.08.62.62,0,0,1,.61,0l42.4,24.79.26.17Q94.8,33.08,84.9,38.85c-4.84-2.59-12.11-2.5-16.68.11-2,1.14-3.2,2.54-3.52,4.17-.44,2.17.67,4.06,3.15,5.69L48,60.43l-.35-.21L5.37,35.51a2.11,2.11,0,0,1-.22-.14s-.06-.12,0-.15C5.66,34.76,5.58,34.3,5.09,33.85ZM4.52,35l-.69-.41.73-.43C4.92,34.44,4.9,34.76,4.52,35Z"/>
      </g>
      <path class="cls-2" d="M101.18,71.39l22.36-13.11,9.22,5.39L110.4,76.78Zm22.36-12.57L102.09,71.39l8.31,4.86,21.45-12.57Z"/>
      <path class="cls-2" d="M20.64,24.2l22.25-13L43,11.1l9.22,5.39L30,29.53l-.11.06ZM43,11.63,21.56,24.2l8.31,4.86L51.32,16.49Z"/>
    </g>
  </g>
</svg>
