<svg xmlns="http://www.w3.org/2000/svg" xmlns:xlink="http://www.w3.org/1999/xlink" viewBox="0 0 115.27 94.59">
  <defs>
    <style>
      .cls-1 {
        fill: none;
      }

      .cls-2 {
        fill: #54868f;
      }

      .cls-3 {
        fill: #28606b;
      }

      .cls-4 {
        fill: #fff;
      }

      .cls-5 {
        fill: #f1f2f2;
      }

      .cls-6 {
        clip-path: url(#clip-path);
      }
    </style>
    <clipPath id="clip-path">
      <polygon class="cls-1" points="-53.94 166.05 -81.5 182.01 -81.5 182.01 -118.84 160.45 -91.29 144.49 -53.94 166.05"/>
    </clipPath>
  </defs>
  <title>Map</title>
  <g id="sity">
    <g>
      <g>
        <polygon class="cls-2" points="45.27 82.7 45.27 82.86 45.13 82.78 44.99 82.7 2.81 58.34 30.71 22.17 42.36 7.07 44.98 3.66 44.99 3.66 45.01 9.29 45.08 30.18 45.27 82.7"/>
        <polygon class="cls-3" points="87.45 58.34 45.27 82.7 45.13 82.78 44.99 82.86 44.99 3.66 47.58 6.99 55.81 17.59 87.45 58.34"/>
      </g>
      <g>
        <polygon class="cls-4" points="44.98 3.66 44.98 30.44 39.63 20.52 36.68 22.68 35.31 19.04 30.71 22.17 42.36 7.07 44.98 3.66"/>
        <polygon class="cls-5" points="55.81 17.59 54.22 17.46 54.22 23.82 48.75 20.77 45.09 30.16 45.08 30.18 44.99 30.42 44.98 30.44 44.98 3.66 44.99 3.66 47.58 6.99 55.81 17.59"/>
      </g>
    </g>
    <g>
      <g>
        <polygon class="cls-2" points="83.91 92.83 83.91 92.91 83.82 92.87 83.72 92.83 54.66 79.78 73.89 60.41 81.91 52.33 83.72 50.5 83.72 50.5 83.73 53.52 83.78 64.71 83.91 92.83"/>
        <polygon class="cls-3" points="112.97 79.78 83.91 92.83 83.82 92.87 83.72 92.91 83.72 50.5 85.5 52.28 91.18 57.96 112.97 79.78"/>
      </g>
      <g>
        <polygon class="cls-4" points="83.72 50.5 83.72 64.84 80.03 59.53 78 60.69 77.06 58.74 73.89 60.41 81.91 52.33 83.72 50.5"/>
        <polygon class="cls-5" points="91.18 57.96 90.08 57.89 90.08 61.3 86.31 59.66 83.79 64.69 83.78 64.71 83.72 64.83 83.72 64.84 83.72 50.5 83.72 50.5 85.5 52.28 91.18 57.96"/>
      </g>
    </g>
  </g>
</svg>
