<svg xmlns="http://www.w3.org/2000/svg" viewBox="0 0 201.93 177.44">
  <defs>
    <style>
      .cls-1 {
        isolation: isolate;
      }

      .cls-2 {
        fill: #f7f3d6;
      }

      .cls-3 {
        fill: #6d86a2;
      }

      .cls-4 {
        fill: #91b3d8;
      }

      .cls-5 {
        fill: #536d84;
      }

      .cls-6 {
        fill: #fefff3;
      }

      .cls-7 {
        fill: #eee2c7;
      }

      .cls-8 {
        fill: #f9f6de;
      }

      .cls-9 {
        fill: #d7b7a0;
      }

      .cls-10 {
        fill: #2d313f;
        opacity: 0.3;
        mix-blend-mode: multiply;
      }

      .cls-11 {
        fill: #959fb5;
      }

      .cls-12 {
        fill: #f06272;
      }

      .cls-13 {
        fill: #543f4e;
      }

      .cls-14 {
        fill: #9d3d4b;
      }

      .cls-15 {
        fill: #61262c;
      }

      .cls-16 {
        fill: #3e596d;
      }

      .cls-17 {
        fill: #507287;
      }

      .cls-18 {
        fill: #f77c96;
      }

      .cls-19 {
        fill: #cf5362;
      }

      .cls-20 {
        fill: #fff;
      }
    </style>
  </defs>
  <title>Map</title>
  <g class="cls-1">
    <g id="sity">
      <g>
        <g>
          <g>
            <polygon class="cls-2" points="110.51 96.57 146.89 75.57 146.89 21.56 110.53 42.57 110.51 96.57"/>
            <g>
              <polygon class="cls-3" points="141.69 72.56 141.69 66.56 136.5 69.56 136.5 75.56 141.69 72.56"/>
              <polygon class="cls-3" points="131.3 78.56 131.3 72.56 126.1 75.56 126.1 81.56 131.3 78.56"/>
              <polygon class="cls-3" points="141.69 60.56 141.69 54.56 136.5 57.56 136.5 63.56 141.69 60.56"/>
              <polygon class="cls-3" points="131.3 66.56 131.3 60.56 126.1 63.56 126.1 69.56 131.3 66.56"/>
              <polygon class="cls-3" points="141.69 48.57 141.69 42.57 136.5 45.57 136.5 51.57 141.69 48.57"/>
              <polygon class="cls-3" points="131.3 54.57 131.3 48.57 126.1 51.57 126.1 57.57 131.3 54.57"/>
              <polygon class="cls-3" points="141.69 36.58 141.69 30.58 136.5 33.58 136.5 39.58 141.69 36.58"/>
              <polygon class="cls-3" points="131.3 42.58 131.3 36.58 126.1 39.58 126.1 45.58 131.3 42.58"/>
              <polygon class="cls-3" points="120.91 84.55 120.91 78.55 115.71 81.55 115.71 87.55 120.91 84.55"/>
              <polygon class="cls-3" points="120.91 72.56 120.91 66.56 115.71 69.56 115.71 75.56 120.91 72.56"/>
              <polygon class="cls-3" points="120.91 60.57 120.91 54.57 115.71 57.57 115.71 63.57 120.91 60.57"/>
              <polygon class="cls-3" points="120.91 48.57 120.91 42.58 115.71 45.58 115.71 51.57 120.91 48.57"/>
            </g>
            <g>
              <polygon class="cls-4" points="119.63 71.62 115.71 73.88 115.71 69.56 119.63 67.3 119.63 71.62"/>
              <polygon class="cls-4" points="130.02 53.63 126.1 55.89 126.1 51.57 130.02 49.31 130.02 53.63"/>
              <polygon class="cls-4" points="130.02 41.64 126.1 43.9 126.1 39.58 130.02 37.32 130.02 41.64"/>
              <polygon class="cls-4" points="119.63 83.61 115.71 85.87 115.71 81.55 119.63 79.29 119.63 83.61"/>
              <polygon class="cls-4" points="119.63 47.63 115.71 49.89 115.71 45.58 119.63 43.31 119.63 47.63"/>
              <polygon class="cls-4" points="119.63 59.62 115.71 61.89 115.71 57.57 119.63 55.31 119.63 59.62"/>
              <polygon class="cls-4" points="140.41 47.63 136.5 49.89 136.5 45.57 140.41 43.31 140.41 47.63"/>
              <polygon class="cls-4" points="140.41 59.62 136.5 61.88 136.5 57.56 140.41 55.3 140.41 59.62"/>
              <polygon class="cls-4" points="130.02 65.62 126.1 67.88 126.1 63.56 130.02 61.3 130.02 65.62"/>
              <polygon class="cls-4" points="140.41 71.61 136.5 73.88 136.5 69.56 140.41 67.29 140.41 71.61"/>
              <polygon class="cls-4" points="140.41 35.64 136.5 37.9 136.5 33.58 140.41 31.32 140.41 35.64"/>
              <polygon class="cls-4" points="130.02 77.61 126.1 79.87 126.1 75.56 130.02 73.29 130.02 77.61"/>
            </g>
            <g>
              <polygon class="cls-5" points="141.69 30.58 140.41 31.32 140.41 35.64 141.69 36.58 141.69 30.58"/>
              <polygon class="cls-5" points="131.3 36.56 130.02 37.3 130.02 41.61 131.3 42.56 131.3 36.56"/>
              <polygon class="cls-5" points="120.91 42.53 119.63 43.27 119.63 47.59 120.91 48.53 120.91 42.53"/>
              <polygon class="cls-5" points="141.69 42.59 140.41 43.33 140.41 47.65 141.69 48.59 141.69 42.59"/>
              <polygon class="cls-5" points="131.3 48.57 130.02 49.31 130.02 53.63 131.3 54.57 131.3 48.57"/>
              <polygon class="cls-5" points="120.91 54.55 119.63 55.29 119.63 59.61 120.91 60.55 120.91 54.55"/>
              <polygon class="cls-5" points="141.69 54.61 140.41 55.35 140.41 59.67 141.69 60.61 141.69 54.61"/>
              <polygon class="cls-5" points="131.3 60.59 130.02 61.32 130.02 65.64 131.3 66.58 131.3 60.59"/>
              <polygon class="cls-5" points="120.91 66.56 119.63 67.3 119.63 71.62 120.91 72.56 120.91 66.56"/>
              <polygon class="cls-5" points="141.69 66.62 140.41 67.36 140.41 71.68 141.69 72.62 141.69 66.62"/>
              <polygon class="cls-5" points="131.3 72.6 130.02 73.34 130.02 77.66 131.3 78.6 131.3 72.6"/>
              <polygon class="cls-5" points="120.91 78.58 119.63 79.32 119.63 83.63 120.91 84.58 120.91 78.58"/>
            </g>
          </g>
          <polygon class="cls-6" points="79.35 24.58 115.72 3.58 146.89 21.57 110.53 42.58 79.35 24.58"/>
          <polygon class="cls-7" points="115.72 6.59 141.7 21.59 110.51 39.57 84.54 24.57 115.72 6.59"/>
          <polygon class="cls-8" points="115.72 6.59 115.72 9.58 87.12 26.09 84.54 24.57 115.72 6.59"/>
          <polygon class="cls-9" points="141.7 21.59 115.72 6.59 115.72 9.58 139.11 23.08 141.7 21.59"/>
        </g>
        <g>
          <polygon class="cls-2" points="37.77 138.57 74.15 117.57 74.15 63.56 37.79 84.57 37.77 138.57"/>
          <g>
            <polygon class="cls-3" points="68.96 114.56 68.96 108.56 63.76 111.56 63.76 117.56 68.96 114.56"/>
            <polygon class="cls-3" points="58.57 120.56 58.57 114.56 53.37 117.56 53.37 123.56 58.57 120.56"/>
            <polygon class="cls-3" points="68.96 102.56 68.96 96.57 63.76 99.57 63.76 105.56 68.96 102.56"/>
            <polygon class="cls-3" points="58.57 108.56 58.57 102.56 53.37 105.56 53.37 111.56 58.57 108.56"/>
            <polygon class="cls-3" points="68.96 90.57 68.96 84.57 63.76 87.57 63.76 93.57 68.96 90.57"/>
            <polygon class="cls-3" points="58.57 96.57 58.57 90.57 53.37 93.57 53.37 99.57 58.57 96.57"/>
            <polygon class="cls-3" points="68.96 78.58 68.96 72.58 63.76 75.58 63.76 81.58 68.96 78.58"/>
            <polygon class="cls-3" points="58.57 84.58 58.57 78.58 53.37 81.58 53.37 87.58 58.57 84.58"/>
            <polygon class="cls-3" points="48.17 126.55 48.17 120.55 42.98 123.55 42.98 129.55 48.17 126.55"/>
            <polygon class="cls-3" points="48.17 114.56 48.17 108.56 42.98 111.56 42.98 117.56 48.17 114.56"/>
            <polygon class="cls-3" points="48.17 102.57 48.17 96.57 42.98 99.57 42.98 105.57 48.17 102.57"/>
            <polygon class="cls-3" points="48.17 90.58 48.17 84.58 42.98 87.58 42.98 93.58 48.17 90.58"/>
          </g>
          <g>
            <polygon class="cls-4" points="46.89 113.62 42.98 115.88 42.98 111.56 46.89 109.3 46.89 113.62"/>
            <polygon class="cls-4" points="57.29 95.63 53.37 97.89 53.37 93.57 57.29 91.31 57.29 95.63"/>
            <polygon class="cls-4" points="57.29 83.64 53.37 85.9 53.37 81.58 57.29 79.32 57.29 83.64"/>
            <polygon class="cls-4" points="46.89 125.61 42.98 127.87 42.98 123.55 46.89 121.29 46.89 125.61"/>
            <polygon class="cls-4" points="46.89 89.63 42.98 91.89 42.98 87.58 46.89 85.31 46.89 89.63"/>
            <polygon class="cls-4" points="46.89 101.63 42.98 103.89 42.98 99.57 46.89 97.31 46.89 101.63"/>
            <polygon class="cls-4" points="67.68 89.63 63.76 91.89 63.76 87.57 67.68 85.31 67.68 89.63"/>
            <polygon class="cls-4" points="67.68 101.62 63.76 103.89 63.76 99.57 67.68 97.3 67.68 101.62"/>
            <polygon class="cls-4" points="57.29 107.62 53.37 109.88 53.37 105.56 57.29 103.3 57.29 107.62"/>
            <polygon class="cls-4" points="67.68 113.62 63.76 115.88 63.76 111.56 67.68 109.3 67.68 113.62"/>
            <polygon class="cls-4" points="67.68 77.64 63.76 79.9 63.76 75.58 67.68 73.32 67.68 77.64"/>
            <polygon class="cls-4" points="57.29 119.61 53.37 121.88 53.37 117.56 57.29 115.3 57.29 119.61"/>
          </g>
          <g>
            <polygon class="cls-5" points="68.96 72.58 67.68 73.32 67.68 77.64 68.96 78.58 68.96 72.58"/>
            <polygon class="cls-5" points="58.57 78.56 57.29 79.3 57.29 83.62 58.57 84.56 58.57 78.56"/>
            <polygon class="cls-5" points="48.17 84.54 46.9 85.27 46.9 89.59 48.17 90.54 48.17 84.54"/>
            <polygon class="cls-5" points="68.96 84.6 67.68 85.33 67.68 89.65 68.96 90.59 68.96 84.6"/>
            <polygon class="cls-5" points="58.57 90.57 57.29 91.31 57.29 95.63 58.57 96.57 58.57 90.57"/>
            <polygon class="cls-5" points="48.17 96.55 46.9 97.29 46.9 101.61 48.17 102.55 48.17 96.55"/>
            <polygon class="cls-5" points="68.96 96.61 67.68 97.35 67.68 101.67 68.96 102.61 68.96 96.61"/>
            <polygon class="cls-5" points="58.57 102.59 57.29 103.33 57.29 107.64 58.57 108.59 58.57 102.59"/>
            <polygon class="cls-5" points="48.17 108.56 46.9 109.3 46.9 113.62 48.17 114.56 48.17 108.56"/>
            <polygon class="cls-5" points="68.96 108.63 67.68 109.36 67.68 113.68 68.96 114.62 68.96 108.63"/>
            <polygon class="cls-5" points="58.57 114.6 57.29 115.34 57.29 119.66 58.57 120.6 58.57 114.6"/>
            <polygon class="cls-5" points="48.17 120.58 46.9 121.32 46.9 125.64 48.17 126.58 48.17 120.58"/>
          </g>
        </g>
        <g>
          <path class="cls-6" d="M108.27,56.56a2.62,2.62,0,0,1-1.6,2.18c-1,.58-1.63.41-1.63-.43a3.85,3.85,0,0,1,.68-1.83l1.21-2a1.81,1.81,0,0,0,.33-.93c0-.32-.2-.41-.59-.19a1.44,1.44,0,0,0-.66,1.37v.28l-.81.46a2.2,2.2,0,0,1-.11-.64,2.66,2.66,0,0,1,1.57-2.17c1-.58,1.58-.35,1.58.43a3.46,3.46,0,0,1-.6,1.69l-1.09,1.74a2.36,2.36,0,0,0-.48,1.29c0,.36.22.43.61.2a1.4,1.4,0,0,0,.68-1.38v-.29l.8-.46A1.79,1.79,0,0,1,108.27,56.56Z"/>
          <path class="cls-6" d="M102.68,61c-.94.54-1.46.4-1.46-.56v-.55l1-.55V60c0,.48.24.55.51.4s.58-.56.58-1.3V56.35c0-.76-.2-.88-.59-.66a1.39,1.39,0,0,0-.49,1.26v.3l-.84.49a2.29,2.29,0,0,1-.09-.66A2.4,2.4,0,0,1,102.69,55c.62-.36,1.66-.8,1.66,1v2.1A3.18,3.18,0,0,1,102.68,61Z"/>
          <path class="cls-6" d="M100.4,62.3l-1,.6V60.16l-1.24.72v2.74l-1,.6V58.29l1-.61v2.49l1.24-.71V57l1-.6Z"/>
          <path class="cls-6" d="M94.38,65.83c-.6.35-1.69.75-1.69-1v-2.1a3.13,3.13,0,0,1,1.69-2.93c.65-.37,1.71-.82,1.71,1v2.1A3.22,3.22,0,0,1,94.38,65.83Zm0-.68c.43-.24.62-.57.62-1.31v-2.7c0-.76-.19-.88-.62-.64s-.6.59-.6,1.35v2.7C93.78,65.28,94,65.39,94.38,65.15Z"/>
          <path class="cls-6" d="M90.19,68.25c-.6.35-1.69.76-1.69-1V65.14a3.15,3.15,0,0,1,1.69-2.93c.64-.37,1.71-.82,1.71,1v2.1A3.2,3.2,0,0,1,90.19,68.25Zm0-.68c.42-.24.62-.57.62-1.31v-2.7c0-.76-.2-.88-.62-.64s-.61.59-.61,1.35V67C89.58,67.71,89.78,67.81,90.19,67.57Z"/>
          <path class="cls-6" d="M87.51,69.74l-2.46,1.43v-.71l1.42-.82V64.41l1-.6Z"/>
        </g>
        <polygon class="cls-9" points="37.77 138.57 6.61 120.56 6.61 66.56 37.79 84.57 37.77 138.57"/>
        <polygon class="cls-6" points="6.61 66.56 42.98 45.56 74.15 63.56 37.79 84.57 6.61 66.56"/>
        <polygon class="cls-7" points="42.98 48.58 68.96 63.57 37.77 81.56 11.8 66.56 42.98 48.58"/>
        <polygon class="cls-8" points="42.98 48.58 42.98 51.56 14.38 68.07 11.8 66.56 42.98 48.58"/>
        <polygon class="cls-9" points="68.96 63.57 42.98 48.58 42.98 51.56 66.37 65.07 68.96 63.57"/>
        <polygon class="cls-10" points="42.98 48.57 40.73 52.86 63.92 66.46 68.96 63.56 42.98 48.57"/>
        <polygon class="cls-10" points="115.72 6.65 113.47 10.94 136.66 24.54 141.7 21.64 115.72 6.65"/>
        <g>
          <g>
            <polygon class="cls-2" points="73.29 117.57 109.67 96.57 109.67 42.56 73.31 63.58 73.29 117.57"/>
            <g>
              <polygon class="cls-3" points="104.47 93.56 104.47 87.56 99.27 90.56 99.27 96.56 104.47 93.56"/>
              <polygon class="cls-3" points="94.08 99.56 94.08 93.56 88.88 96.56 88.88 102.56 94.08 99.56"/>
              <polygon class="cls-3" points="104.47 81.57 104.47 75.57 99.27 78.57 99.27 84.57 104.47 81.57"/>
              <polygon class="cls-3" points="94.08 87.57 94.08 81.57 88.88 84.57 88.88 90.57 94.08 87.57"/>
              <polygon class="cls-3" points="104.47 69.58 104.47 63.58 99.27 66.58 99.27 72.58 104.47 69.58"/>
              <polygon class="cls-3" points="94.08 75.57 94.08 69.58 88.88 72.58 88.88 78.57 94.08 75.57"/>
              <polygon class="cls-3" points="104.47 57.58 104.47 51.58 99.27 54.58 99.27 60.58 104.47 57.58"/>
              <polygon class="cls-3" points="94.08 63.58 94.08 57.58 88.88 60.58 88.88 66.58 94.08 63.58"/>
              <polygon class="cls-3" points="83.68 105.56 83.68 99.56 78.49 102.56 78.49 108.56 83.68 105.56"/>
              <polygon class="cls-3" points="83.68 93.56 83.68 87.56 78.49 90.56 78.49 96.56 83.68 93.56"/>
              <polygon class="cls-3" points="83.68 81.57 83.68 75.57 78.49 78.57 78.49 84.57 83.68 81.57"/>
              <polygon class="cls-3" points="83.68 69.58 83.68 63.58 78.49 66.58 78.49 72.58 83.68 69.58"/>
            </g>
            <g>
              <polygon class="cls-4" points="82.41 92.62 78.49 94.88 78.49 90.56 82.41 88.3 82.41 92.62"/>
              <polygon class="cls-4" points="92.8 74.63 88.88 76.89 88.88 72.58 92.8 70.31 92.8 74.63"/>
              <polygon class="cls-4" points="92.8 62.64 88.88 64.9 88.88 60.58 92.8 58.32 92.8 62.64"/>
              <polygon class="cls-4" points="82.41 104.61 78.49 106.87 78.49 102.56 82.41 100.29 82.41 104.61"/>
              <polygon class="cls-4" points="82.41 68.64 78.49 70.9 78.49 66.58 82.41 64.32 82.41 68.64"/>
              <polygon class="cls-4" points="82.41 80.63 78.49 82.89 78.49 78.57 82.41 76.31 82.41 80.63"/>
              <polygon class="cls-4" points="103.19 68.63 99.27 70.89 99.27 66.58 103.19 64.31 103.19 68.63"/>
              <polygon class="cls-4" points="103.19 80.63 99.27 82.89 99.27 78.57 103.19 76.31 103.19 80.63"/>
              <polygon class="cls-4" points="92.8 86.62 88.88 88.89 88.88 84.57 92.8 82.31 92.8 86.62"/>
              <polygon class="cls-4" points="103.19 92.62 99.27 94.88 99.27 90.56 103.19 88.3 103.19 92.62"/>
              <polygon class="cls-4" points="103.19 56.64 99.27 58.9 99.27 54.58 103.19 52.32 103.19 56.64"/>
              <polygon class="cls-4" points="92.8 98.62 88.88 100.88 88.88 96.56 92.8 94.3 92.8 98.62"/>
            </g>
            <g>
              <polygon class="cls-5" points="104.47 51.58 103.19 52.32 103.19 56.64 104.47 57.58 104.47 51.58"/>
              <polygon class="cls-5" points="94.08 57.56 92.8 58.3 92.8 62.62 94.08 63.56 94.08 57.56"/>
              <polygon class="cls-5" points="83.69 63.54 82.41 64.28 82.41 68.59 83.69 69.54 83.69 63.54"/>
              <polygon class="cls-5" points="104.47 63.6 103.19 64.34 103.19 68.66 104.47 69.6 104.47 63.6"/>
              <polygon class="cls-5" points="94.08 69.58 92.8 70.31 92.8 74.63 94.08 75.57 94.08 69.58"/>
              <polygon class="cls-5" points="83.69 75.55 82.41 76.29 82.41 80.61 83.69 81.55 83.69 75.55"/>
              <polygon class="cls-5" points="104.47 75.61 103.19 76.35 103.19 80.67 104.47 81.61 104.47 75.61"/>
              <polygon class="cls-5" points="94.08 81.59 92.8 82.33 92.8 86.65 94.08 87.59 94.08 81.59"/>
              <polygon class="cls-5" points="83.69 87.57 82.41 88.31 82.41 92.62 83.69 93.57 83.69 87.57"/>
              <polygon class="cls-5" points="104.47 87.63 103.19 88.36 103.19 92.68 104.47 93.63 104.47 87.63"/>
              <polygon class="cls-5" points="94.08 93.6 92.8 94.34 92.8 98.66 94.08 99.6 94.08 93.6"/>
              <polygon class="cls-5" points="83.69 99.58 82.41 100.32 82.41 104.64 83.69 105.58 83.69 99.58"/>
            </g>
          </g>
          <polygon class="cls-6" points="42.12 45.58 78.49 24.58 109.67 42.58 73.31 63.59 42.12 45.58"/>
          <polygon class="cls-7" points="78.49 27.59 104.47 42.59 73.29 60.58 47.32 45.58 78.49 27.59"/>
          <polygon class="cls-8" points="78.49 27.59 78.49 30.58 49.9 47.09 47.32 45.58 78.49 27.59"/>
          <polygon class="cls-9" points="104.47 42.59 78.49 27.59 78.49 30.58 101.88 44.09 104.47 42.59"/>
        </g>
      </g>
      <g>
        <polygon class="cls-11" points="139.98 152.47 134.78 149.47 160.76 134.47 165.96 137.47 139.98 152.47"/>
        <polygon class="cls-11" points="145.17 155.47 145.96 155.01 135.54 149.01 134.78 149.47 145.17 155.47"/>
        <polygon class="cls-11" points="170.37 140.93 171.15 140.47 160.73 134.47 159.97 134.93 170.37 140.93"/>
        <g>
          <g>
            <polygon class="cls-2" points="160.75 128.47 197.13 107.47 197.13 53.46 160.77 74.47 160.75 128.47"/>
            <g>
              <polygon class="cls-3" points="191.93 104.45 191.93 98.45 186.74 101.45 186.74 107.45 191.93 104.45"/>
              <polygon class="cls-3" points="181.54 110.45 181.54 104.45 176.34 107.45 176.34 113.45 181.54 110.45"/>
              <polygon class="cls-3" points="191.93 92.46 191.93 86.46 186.74 89.46 186.74 95.46 191.93 92.46"/>
              <polygon class="cls-3" points="181.54 98.46 181.54 92.46 176.34 95.46 176.34 101.46 181.54 98.46"/>
              <polygon class="cls-3" points="191.93 80.47 191.93 74.47 186.74 77.47 186.74 83.47 191.93 80.47"/>
              <polygon class="cls-3" points="181.54 86.47 181.54 80.47 176.34 83.47 176.34 89.47 181.54 86.47"/>
              <polygon class="cls-3" points="191.93 68.48 191.93 62.48 186.74 65.48 186.74 71.48 191.93 68.48"/>
              <polygon class="cls-3" points="181.54 74.47 181.54 68.48 176.34 71.48 176.34 77.47 181.54 74.47"/>
              <polygon class="cls-3" points="171.15 116.45 171.15 110.45 165.95 113.45 165.95 119.45 171.15 116.45"/>
              <polygon class="cls-3" points="171.15 104.46 171.15 98.46 165.95 101.46 165.95 107.46 171.15 104.46"/>
              <polygon class="cls-3" points="171.15 92.46 171.15 86.47 165.95 89.46 165.95 95.46 171.15 92.46"/>
              <polygon class="cls-3" points="171.15 80.47 171.15 74.47 165.95 77.47 165.95 83.47 171.15 80.47"/>
            </g>
            <g>
              <polygon class="cls-4" points="169.87 103.51 165.95 105.78 165.95 101.46 169.87 99.19 169.87 103.51"/>
              <polygon class="cls-4" points="180.26 85.53 176.34 87.79 176.34 83.47 180.26 81.21 180.26 85.53"/>
              <polygon class="cls-4" points="180.26 73.53 176.34 75.79 176.34 71.48 180.26 69.22 180.26 73.53"/>
              <polygon class="cls-4" points="169.87 115.51 165.95 117.77 165.95 113.45 169.87 111.19 169.87 115.51"/>
              <polygon class="cls-4" points="169.87 79.53 165.95 81.79 165.95 77.47 169.87 75.21 169.87 79.53"/>
              <polygon class="cls-4" points="169.87 91.52 165.95 93.78 165.95 89.46 169.87 87.2 169.87 91.52"/>
              <polygon class="cls-4" points="190.65 79.53 186.74 81.79 186.74 77.47 190.65 75.21 190.65 79.53"/>
              <polygon class="cls-4" points="190.65 91.52 186.74 93.78 186.74 89.46 190.65 87.2 190.65 91.52"/>
              <polygon class="cls-4" points="180.26 97.52 176.34 99.78 176.34 95.46 180.26 93.2 180.26 97.52"/>
              <polygon class="cls-4" points="190.65 103.51 186.74 105.77 186.74 101.45 190.65 99.19 190.65 103.51"/>
              <polygon class="cls-4" points="190.65 67.53 186.74 69.8 186.74 65.48 190.65 63.22 190.65 67.53"/>
              <polygon class="cls-4" points="180.26 109.51 176.34 111.77 176.34 107.45 180.26 105.19 180.26 109.51"/>
            </g>
            <g>
              <polygon class="cls-5" points="191.93 62.48 190.65 63.22 190.65 67.53 191.93 68.48 191.93 62.48"/>
              <polygon class="cls-5" points="181.54 68.45 180.26 69.19 180.26 73.51 181.54 74.45 181.54 68.45"/>
              <polygon class="cls-5" points="171.15 74.43 169.87 75.17 169.87 79.49 171.15 80.43 171.15 74.43"/>
              <polygon class="cls-5" points="191.93 74.49 190.65 75.23 190.65 79.55 191.93 80.49 191.93 74.49"/>
              <polygon class="cls-5" points="181.54 80.47 180.26 81.21 180.26 85.53 181.54 86.47 181.54 80.47"/>
              <polygon class="cls-5" points="171.15 86.44 169.87 87.18 169.87 91.5 171.15 92.44 171.15 86.44"/>
              <polygon class="cls-5" points="191.93 86.5 190.65 87.24 190.65 91.56 191.93 92.5 191.93 86.5"/>
              <polygon class="cls-5" points="181.54 92.48 180.26 93.22 180.26 97.54 181.54 98.48 181.54 92.48"/>
              <polygon class="cls-5" points="171.15 98.46 169.87 99.2 169.87 103.52 171.15 104.46 171.15 98.46"/>
              <polygon class="cls-5" points="191.93 98.52 190.65 99.26 190.65 103.58 191.93 104.52 191.93 98.52"/>
              <polygon class="cls-5" points="181.54 104.5 180.26 105.23 180.26 109.55 181.54 110.5 181.54 104.5"/>
              <polygon class="cls-5" points="171.15 110.47 169.87 111.21 169.87 115.53 171.15 116.47 171.15 110.47"/>
            </g>
          </g>
          <polygon class="cls-6" points="129.59 56.47 165.96 35.48 197.13 53.47 160.77 74.48 129.59 56.47"/>
          <polygon class="cls-7" points="165.96 38.49 191.94 53.48 160.75 71.47 134.78 56.47 165.96 38.49"/>
          <polygon class="cls-8" points="165.96 38.49 165.96 41.48 137.36 57.98 134.78 56.47 165.96 38.49"/>
          <polygon class="cls-9" points="191.94 53.48 165.96 38.49 165.96 41.48 189.35 54.98 191.94 53.48"/>
        </g>
        <polygon class="cls-12" points="165.96 131.47 129.59 152.47 129.59 92.44 165.97 71.47 165.96 131.47"/>
        <path class="cls-13" d="M160.76,134.47s0-15,0-15l-26,15v15Z"/>
        <g>
          <polygon class="cls-14" points="160.76 110.46 155.57 113.46 155.57 101.46 160.76 98.46 160.76 110.46"/>
          <polygon class="cls-15" points="160.76 98.46 159.48 99.2 159.48 109.56 160.76 110.46 160.76 98.46"/>
          <polygon class="cls-14" points="150.38 116.47 145.18 119.47 145.18 107.47 150.38 104.47 150.38 116.47"/>
          <polygon class="cls-15" points="150.38 104.47 149.1 105.21 149.1 115.57 150.38 116.47 150.38 104.47"/>
          <polygon class="cls-14" points="139.99 122.48 134.8 125.48 134.8 113.48 139.99 110.48 139.99 122.48"/>
          <polygon class="cls-15" points="139.99 110.48 138.71 111.22 138.71 121.58 139.99 122.48 139.99 110.48"/>
        </g>
        <g>
          <polygon class="cls-4" points="138.71 121.58 134.8 123.84 134.8 113.48 138.71 111.22 138.71 121.58"/>
          <polygon class="cls-4" points="149.1 115.57 145.18 117.83 145.18 107.47 149.1 105.21 149.1 115.57"/>
          <polygon class="cls-4" points="159.48 109.56 155.57 111.82 155.57 101.46 159.48 99.2 159.48 109.56"/>
        </g>
        <g>
          <polygon class="cls-16" points="145.17 140.69 145.17 155.47 144.38 155.01 144.38 140.2 145.17 140.69"/>
          <polygon class="cls-17" points="145.17 140.69 145.17 155.47 145.96 155.01 145.96 140.2 145.17 140.69"/>
        </g>
        <g>
          <polygon class="cls-16" points="170.37 126.15 170.37 140.93 169.57 140.47 169.57 125.66 170.37 126.15"/>
          <polygon class="cls-17" points="170.37 126.15 170.37 140.93 171.15 140.47 171.15 125.66 170.37 126.15"/>
        </g>
        <g>
          <polygon class="cls-2" points="88.01 170.47 124.39 149.47 124.39 95.46 88.03 116.47 88.01 170.47"/>
          <g>
            <polygon class="cls-3" points="119.2 146.46 119.2 140.46 114 143.46 114 149.45 119.2 146.46"/>
            <polygon class="cls-3" points="108.81 152.45 108.81 146.46 103.61 149.45 103.61 155.45 108.81 152.45"/>
            <polygon class="cls-3" points="119.2 134.46 119.2 128.46 114 131.46 114 137.46 119.2 134.46"/>
            <polygon class="cls-3" points="108.81 140.46 108.81 134.46 103.61 137.46 103.61 143.46 108.81 140.46"/>
            <polygon class="cls-3" points="119.2 122.47 119.2 116.47 114 119.47 114 125.47 119.2 122.47"/>
            <polygon class="cls-3" points="108.81 128.47 108.81 122.47 103.61 125.47 103.61 131.47 108.81 128.47"/>
            <polygon class="cls-3" points="119.2 110.48 119.2 104.48 114 107.48 114 113.48 119.2 110.48"/>
            <polygon class="cls-3" points="108.81 116.48 108.81 110.48 103.61 113.48 103.61 119.48 108.81 116.48"/>
            <polygon class="cls-3" points="98.41 158.45 98.41 152.45 93.22 155.45 93.22 161.45 98.41 158.45"/>
            <polygon class="cls-3" points="98.41 146.46 98.41 140.46 93.22 143.46 93.22 149.46 98.41 146.46"/>
            <polygon class="cls-3" points="98.41 134.47 98.41 128.47 93.22 131.47 93.22 137.47 98.41 134.47"/>
            <polygon class="cls-3" points="98.41 122.47 98.41 116.47 93.22 119.47 93.22 125.47 98.41 122.47"/>
          </g>
          <g>
            <polygon class="cls-4" points="97.13 145.52 93.22 147.78 93.22 143.46 97.13 141.2 97.13 145.52"/>
            <polygon class="cls-4" points="107.53 127.53 103.61 129.79 103.61 125.47 107.53 123.21 107.53 127.53"/>
            <polygon class="cls-4" points="107.53 115.53 103.61 117.8 103.61 113.48 107.53 111.22 107.53 115.53"/>
            <polygon class="cls-4" points="97.13 157.51 93.22 159.77 93.22 155.45 97.13 153.19 97.13 157.51"/>
            <polygon class="cls-4" points="97.13 121.53 93.22 123.79 93.22 119.47 97.13 117.21 97.13 121.53"/>
            <polygon class="cls-4" points="97.13 133.52 93.22 135.78 93.22 131.47 97.13 129.21 97.13 133.52"/>
            <polygon class="cls-4" points="117.92 121.53 114 123.79 114 119.47 117.92 117.21 117.92 121.53"/>
            <polygon class="cls-4" points="117.92 133.52 114 135.78 114 131.46 117.92 129.2 117.92 133.52"/>
            <polygon class="cls-4" points="107.53 139.52 103.61 141.78 103.61 137.46 107.53 135.2 107.53 139.52"/>
            <polygon class="cls-4" points="117.92 145.51 114 147.77 114 143.46 117.92 141.19 117.92 145.51"/>
            <polygon class="cls-4" points="117.92 109.54 114 111.8 114 107.48 117.92 105.22 117.92 109.54"/>
            <polygon class="cls-4" points="107.53 151.51 103.61 153.77 103.61 149.45 107.53 147.19 107.53 151.51"/>
          </g>
          <g>
            <polygon class="cls-5" points="119.2 104.48 117.92 105.22 117.92 109.54 119.2 110.48 119.2 104.48"/>
            <polygon class="cls-5" points="108.81 110.46 107.53 111.19 107.53 115.51 108.81 116.45 108.81 110.46"/>
            <polygon class="cls-5" points="98.41 116.43 97.14 117.17 97.14 121.49 98.41 122.43 98.41 116.43"/>
            <polygon class="cls-5" points="119.2 116.49 117.92 117.23 117.92 121.55 119.2 122.49 119.2 116.49"/>
            <polygon class="cls-5" points="108.81 122.47 107.53 123.21 107.53 127.53 108.81 128.47 108.81 122.47"/>
            <polygon class="cls-5" points="98.41 128.45 97.14 129.19 97.14 133.5 98.41 134.45 98.41 128.45"/>
            <polygon class="cls-5" points="119.2 128.51 117.92 129.25 117.92 133.56 119.2 134.51 119.2 128.51"/>
            <polygon class="cls-5" points="108.81 134.49 107.53 135.22 107.53 139.54 108.81 140.48 108.81 134.49"/>
            <polygon class="cls-5" points="98.41 140.46 97.14 141.2 97.14 145.52 98.41 146.46 98.41 140.46"/>
            <polygon class="cls-5" points="119.2 140.52 117.92 141.26 117.92 145.58 119.2 146.52 119.2 140.52"/>
            <polygon class="cls-5" points="108.81 146.5 107.53 147.24 107.53 151.56 108.81 152.5 108.81 146.5"/>
            <polygon class="cls-5" points="98.41 152.48 97.14 153.22 97.14 157.53 98.41 158.48 98.41 152.48"/>
          </g>
        </g>
        <polygon class="cls-9" points="88.01 170.47 56.85 152.45 56.85 98.46 88.03 116.47 88.01 170.47"/>
        <polygon class="cls-6" points="56.85 98.46 93.22 77.46 124.39 95.46 88.03 116.47 56.85 98.46"/>
        <polygon class="cls-7" points="93.22 80.47 119.2 95.47 88.01 113.46 62.05 98.46 93.22 80.47"/>
        <polygon class="cls-8" points="93.22 80.47 93.22 83.46 64.62 99.97 62.05 98.46 93.22 80.47"/>
        <polygon class="cls-9" points="119.2 95.47 93.22 80.47 93.22 83.46 116.61 96.96 119.2 95.47"/>
        <polygon class="cls-10" points="93.22 80.47 90.97 84.76 114.16 98.36 119.2 95.46 93.22 80.47"/>
        <polygon class="cls-14" points="129.59 92.44 93.22 71.46 93.22 77.46 124.39 95.46 124.39 149.47 129.59 152.47 129.59 92.44"/>
        <polygon class="cls-18" points="165.97 71.47 129.59 50.47 93.22 71.46 129.59 92.44 165.97 71.47"/>
        <polygon class="cls-19" points="129.59 89.46 98.41 71.45 129.59 53.46 160.75 71.47 129.59 89.46"/>
        <polygon class="cls-12" points="129.59 56.47 100.98 72.98 98.41 71.45 129.59 53.46 129.59 56.47"/>
        <polygon class="cls-14" points="160.75 71.47 129.59 53.46 129.59 56.47 158.14 72.98 160.75 71.47"/>
        <polygon class="cls-10" points="129.59 53.46 127.35 57.75 155.73 74.32 160.76 71.42 129.59 53.46"/>
        <polygon class="cls-2" points="171.15 125.47 171.15 128.47 145.2 143.46 145.18 140.46 171.15 125.47"/>
        <polygon class="cls-6" points="134.78 134.46 145.18 140.46 171.15 125.47 160.73 119.53 134.78 134.46"/>
        <polygon class="cls-9" points="145.18 140.46 134.78 134.46 134.78 137.46 145.2 143.46 145.18 140.46"/>
        <polygon class="cls-10" points="165.96 38.55 163.71 42.83 186.9 56.43 191.94 53.53 165.96 38.55"/>
      </g>
      <g>
        <path class="cls-20" d="M140.61,100.55l-.17-6.67,1.56-.83c.37.76,1.51,3.51,1.61,3.81h0c-.08-.79-.11-1.72-.14-2.82l0-1.73,1.24-.66.18,6.67-1.5.8c-.3-.66-1.57-3.7-1.66-3.93h0c.08.78.1,1.68.13,2.88l.05,1.83Z"/>
        <path class="cls-20" d="M145.86,91l1.8-1c1.52-.8,2.11-.56,2.14.41v.25A2.05,2.05,0,0,1,149,92.5c.39-.09,1-.15,1,.82v.51c0,1.13-.57,2-2.09,2.85l-1.92,1Zm1.72,1.85c.75-.4,1-.7,1-1.36v-.26c0-.55-.28-.63-.92-.29l-.42.22.05,1.87Zm-.26,3.29.45-.23c.78-.41,1-.78.95-1.43v-.44c0-.65-.24-.82-1.1-.36l-.35.18Z"/>
        <path class="cls-20" d="M150.79,88.42l1.35-.71.07,2.63,1.45-.76-.07-2.64,1.35-.71.18,6.67-1.35.72-.08-3.1-1.45.77.08,3.09-1.35.71Z"/>
      </g>
    </g>
  </g>
</svg>
