<svg xmlns="http://www.w3.org/2000/svg" viewBox="0 0 119.92 120.49">
  <defs>
    <style>
      .cls-1 {
        fill: #a3a3a2;
      }

      .cls-2 {
        fill: #cecece;
      }

      .cls-3 {
        fill: #e0e0e0;
      }

      .cls-4 {
        fill: #606060;
      }

      .cls-5 {
        fill: #595959;
      }

      .cls-6 {
        fill: #e0e0de;
      }

      .cls-7 {
        fill: #d6d8d7;
      }

      .cls-8 {
        fill: #545454;
      }

      .cls-9 {
        fill: #b2b2b1;
      }

      .cls-10 {
        fill: #757a43;
      }

      .cls-11 {
        fill: #636363;
      }

      .cls-12 {
        fill: #4c4c4c;
      }

      .cls-13 {
        fill: #ccc;
      }

      .cls-14 {
        fill: gray;
      }

      .cls-15 {
        fill: #999;
      }

      .cls-16 {
        fill: #2e2e2e;
      }

      .cls-17 {
        fill: #5c5c5c;
      }

      .cls-18 {
        fill: #696969;
      }

      .cls-19 {
        fill: #424242;
      }

      .cls-20, .cls-23 {
        fill: #fff;
      }

      .cls-21 {
        fill: #c9c9c9;
      }

      .cls-22 {
        fill: #0c778f;
      }

      .cls-23 {
        opacity: 0.2;
      }

      .cls-24 {
        fill: #dbdbd9;
      }

      .cls-25 {
        fill: #8a8a8a;
      }

      .cls-26 {
        fill: #666;
      }

      .cls-27 {
        fill: #d6d6d6;
      }

      .cls-28 {
        fill: #868c4d;
      }

      .cls-29 {
        fill: #d8d8d6;
      }

      .cls-30 {
        fill: #9c9c9c;
      }

      .cls-31 {
        fill: #1ac;
      }
    </style>
  </defs>
  <title>Map</title>
  <g id="sity">
    <g>
      <polygon class="cls-1" points="78.91 69.85 7.5 28.62 7.5 23.02 78.91 64.25 78.91 69.85"/>
      <polygon class="cls-2" points="78.91 69.85 78.91 64.25 113.91 44.05 113.91 49.64 78.91 69.85"/>
      <polygon class="cls-3" points="78.91 118.42 7.5 77.19 7.5 28.62 78.91 69.85 78.91 118.42"/>
      <polygon class="cls-4" points="78.91 118.42 7.5 77.19 7.5 73.28 78.91 114.51 78.91 118.42"/>
      <polygon class="cls-5" points="78.91 118.42 78.91 114.51 113.91 94.31 113.91 98.22 78.91 118.42"/>
      <polygon class="cls-6" points="78.91 64.25 7.5 23.02 42.49 2.82 113.91 44.05 78.91 64.25"/>
      <polygon class="cls-7" points="109.35 43.67 106.44 45.35 42.65 8.39 42.65 5.02 109.35 43.67"/>
      <polygon class="cls-8" points="42.65 8.39 14.91 24.41 12 22.72 42.65 5.02 42.65 8.39"/>
      <polygon class="cls-9" points="102.77 49.06 75.03 65.08 11.24 28.12 38.98 12.11 102.77 49.06"/>
      <g>
        <polygon class="cls-10" points="77.73 37.81 70.39 33.57 70.39 28.02 77.73 37.81"/>
        <polygon class="cls-11" points="82.87 34.84 77.73 37.81 70.39 28.02 75.53 25.06 82.87 34.84"/>
      </g>
      <g>
        <polygon class="cls-12" points="92.41 39.02 87.57 41.82 83.19 39.29 88.03 36.49 92.41 39.02"/>
        <g>
          <g>
            <polygon class="cls-13" points="89.35 36.36 85.79 38.41 84.19 37.5 87.75 35.44 89.35 36.36"/>
            <polygon class="cls-14" points="89.35 38.19 85.79 40.25 85.79 38.41 89.35 36.36 89.35 38.19"/>
            <polygon class="cls-15" points="85.79 40.25 84.19 39.33 84.19 37.5 85.79 38.41 85.79 40.25"/>
          </g>
          <g>
            <path class="cls-16" d="M87.11,36a1.4,1.4,0,0,1,1.26,0c.35.21.35.53,0,.73a1.34,1.34,0,0,1-1.26,0C86.76,36.51,86.76,36.19,87.11,36Z"/>
            <g>
              <path class="cls-17" d="M88.37,36c.22.13-.58.34-.58.34S88.15,35.86,88.37,36Z"/>
              <path class="cls-17" d="M87.75,35.83c.31,0,0,.48,0,.48S87.44,35.83,87.75,35.83Z"/>
              <path class="cls-17" d="M87.12,36c.22-.12.58.34.58.34S86.9,36.11,87.12,36Z"/>
              <path class="cls-17" d="M87.68,36.34s-.82.18-.82,0S87.68,36.34,87.68,36.34Z"/>
              <path class="cls-17" d="M87.7,36.37s-.36.46-.58.34S87.7,36.37,87.7,36.37Z"/>
              <path class="cls-17" d="M87.74,36.86c-.31,0,0-.48,0-.48S88.05,36.86,87.74,36.86Z"/>
              <path class="cls-17" d="M88.37,36.71c-.22.12-.58-.34-.58-.34S88.59,36.58,88.37,36.71Z"/>
              <path class="cls-17" d="M88.63,36.35c0,.18-.82,0-.82,0S88.63,36.17,88.63,36.35Z"/>
            </g>
            <g>
              <path class="cls-18" d="M87.58,36.26a.36.36,0,0,1,.32,0c.09.05.09.13,0,.18a.36.36,0,0,1-.32,0C87.49,36.39,87.49,36.31,87.58,36.26Z"/>
              <path class="cls-19" d="M87.63,36.29a.22.22,0,0,1,.22,0,.06.06,0,0,1,0,.12.28.28,0,0,1-.22,0A.07.07,0,0,1,87.63,36.29Z"/>
              <path class="cls-20" d="M87.78,36.27s0,0,0,0a0,0,0,0,1,0,0s0,0,0,0Z"/>
            </g>
          </g>
          <g>
            <ellipse class="cls-16" cx="85.88" cy="37.38" rx="0.89" ry="0.52"/>
            <g>
              <path class="cls-17" d="M86.51,37c.22.12-.58.33-.58.33S86.29,36.89,86.51,37Z"/>
              <path class="cls-17" d="M85.88,36.87c.31,0,0,.47,0,.47S85.57,36.87,85.88,36.87Z"/>
              <path class="cls-17" d="M85.26,37c.22-.12.58.34.58.34S85,37.14,85.26,37Z"/>
              <path class="cls-17" d="M85.81,37.38s-.81.17-.81,0S85.81,37.38,85.81,37.38Z"/>
              <path class="cls-17" d="M85.83,37.4s-.36.46-.58.34S85.83,37.4,85.83,37.4Z"/>
              <path class="cls-17" d="M85.88,37.89c-.31,0,0-.48,0-.48S86.19,37.89,85.88,37.89Z"/>
              <path class="cls-17" d="M86.51,37.74c-.22.13-.58-.34-.58-.34S86.73,37.61,86.51,37.74Z"/>
              <path class="cls-17" d="M86.77,37.38c0,.18-.82,0-.82,0S86.77,37.2,86.77,37.38Z"/>
            </g>
            <g>
              <path class="cls-18" d="M85.72,37.29a.36.36,0,0,1,.32,0c.09.05.09.13,0,.18a.36.36,0,0,1-.32,0C85.63,37.42,85.63,37.34,85.72,37.29Z"/>
              <ellipse class="cls-19" cx="85.88" cy="37.38" rx="0.15" ry="0.09"/>
              <path class="cls-20" d="M85.92,37.31s0,0,0,0a0,0,0,0,1,0,0s0,0,0,0A0,0,0,0,1,85.92,37.31Z"/>
            </g>
          </g>
        </g>
        <g>
          <g>
            <polygon class="cls-13" points="91.14 37.35 87.57 39.4 85.98 38.49 89.54 36.43 91.14 37.35"/>
            <polygon class="cls-14" points="91.14 39.18 87.57 41.24 87.57 39.4 91.14 37.35 91.14 39.18"/>
            <polygon class="cls-15" points="87.57 41.24 85.98 40.32 85.98 38.49 87.57 39.4 87.57 41.24"/>
          </g>
          <g>
            <ellipse class="cls-16" cx="89.53" cy="37.34" rx="0.89" ry="0.52"/>
            <g>
              <path class="cls-17" d="M90.16,37c.22.13-.58.34-.58.34S89.94,36.85,90.16,37Z"/>
              <path class="cls-17" d="M89.53,36.82c.31,0,0,.48,0,.48S89.22,36.82,89.53,36.82Z"/>
              <path class="cls-17" d="M88.91,37c.22-.13.57.34.57.34S88.69,37.1,88.91,37Z"/>
              <path class="cls-17" d="M89.46,37.33s-.82.18-.82,0S89.46,37.33,89.46,37.33Z"/>
              <path class="cls-17" d="M89.48,37.36s-.36.46-.58.33S89.48,37.36,89.48,37.36Z"/>
              <path class="cls-17" d="M89.53,37.84c-.31,0,0-.47,0-.47S89.84,37.84,89.53,37.84Z"/>
              <path class="cls-17" d="M90.16,37.7c-.22.12-.58-.34-.58-.34S90.37,37.57,90.16,37.7Z"/>
              <path class="cls-17" d="M90.42,37.33c0,.18-.82,0-.82,0S90.42,37.16,90.42,37.33Z"/>
            </g>
            <g>
              <ellipse class="cls-18" cx="89.53" cy="37.34" rx="0.23" ry="0.13"/>
              <ellipse class="cls-19" cx="89.53" cy="37.34" rx="0.15" ry="0.09"/>
              <path class="cls-20" d="M89.57,37.26a0,0,0,0,1,0,0h0a0,0,0,0,1,0,0Z"/>
            </g>
          </g>
          <g>
            <path class="cls-16" d="M87,38a1.42,1.42,0,0,1,1.27,0,.39.39,0,0,1,0,.73,1.42,1.42,0,0,1-1.27,0C86.68,38.53,86.68,38.21,87,38Z"/>
            <g>
              <path class="cls-17" d="M88.3,38c.22.13-.58.34-.58.34S88.08,37.88,88.3,38Z"/>
              <path class="cls-17" d="M87.67,37.85c.31,0,0,.48,0,.48S87.36,37.85,87.67,37.85Z"/>
              <path class="cls-17" d="M87,38c.22-.12.58.34.58.34S86.82,38.13,87,38Z"/>
              <path class="cls-17" d="M87.6,38.36s-.82.18-.82,0S87.6,38.36,87.6,38.36Z"/>
              <path class="cls-17" d="M87.62,38.39s-.36.46-.58.34S87.62,38.39,87.62,38.39Z"/>
              <path class="cls-17" d="M87.66,38.88c-.31,0,0-.48,0-.48S88,38.88,87.66,38.88Z"/>
              <path class="cls-17" d="M88.29,38.73c-.22.12-.58-.34-.58-.34S88.51,38.6,88.29,38.73Z"/>
              <path class="cls-17" d="M88.55,38.37c0,.18-.82,0-.82,0S88.55,38.19,88.55,38.37Z"/>
            </g>
            <g>
              <path class="cls-18" d="M87.5,38.28a.31.31,0,0,1,.32,0c.09,0,.09.13,0,.18a.36.36,0,0,1-.32,0C87.41,38.41,87.41,38.33,87.5,38.28Z"/>
              <path class="cls-19" d="M87.56,38.31a.2.2,0,0,1,.21,0,.06.06,0,0,1,0,.12.26.26,0,0,1-.21,0A.06.06,0,0,1,87.56,38.31Z"/>
              <path class="cls-20" d="M87.71,38.29a0,0,0,0,1,0,0h0a0,0,0,0,1,0,0Z"/>
            </g>
          </g>
        </g>
      </g>
      <g>
        <polygon class="cls-12" points="98.53 42.52 93.69 45.31 89.31 42.78 94.15 39.99 98.53 42.52"/>
        <g>
          <g>
            <polygon class="cls-13" points="95.47 39.85 91.91 41.91 90.31 40.99 93.88 38.93 95.47 39.85"/>
            <polygon class="cls-14" points="95.47 41.68 91.91 43.74 91.91 41.91 95.47 39.85 95.47 41.68"/>
            <polygon class="cls-15" points="91.91 43.74 90.31 42.82 90.31 40.99 91.91 41.91 91.91 43.74"/>
          </g>
          <g>
            <ellipse class="cls-16" cx="93.86" cy="39.84" rx="0.89" ry="0.52"/>
            <g>
              <path class="cls-17" d="M94.5,39.48c.21.12-.58.33-.58.33S94.28,39.35,94.5,39.48Z"/>
              <path class="cls-17" d="M93.87,39.32c.31,0,0,.48,0,.48S93.56,39.32,93.87,39.32Z"/>
              <path class="cls-17" d="M93.24,39.47c.22-.12.58.34.58.34S93,39.6,93.24,39.47Z"/>
              <path class="cls-17" d="M93.8,39.83s-.82.18-.82,0S93.8,39.83,93.8,39.83Z"/>
              <path class="cls-17" d="M93.82,39.86s-.36.46-.58.34S93.82,39.86,93.82,39.86Z"/>
              <path class="cls-17" d="M93.86,40.35c-.31,0,0-.48,0-.48S94.18,40.35,93.86,40.35Z"/>
              <path class="cls-17" d="M94.49,40.2c-.22.13-.58-.34-.58-.34S94.71,40.07,94.49,40.2Z"/>
              <path class="cls-17" d="M94.75,39.84c0,.18-.82,0-.82,0S94.75,39.66,94.75,39.84Z"/>
            </g>
            <g>
              <ellipse class="cls-18" cx="93.86" cy="39.84" rx="0.23" ry="0.13"/>
              <path class="cls-19" d="M93.76,39.78a.2.2,0,0,1,.21,0,.06.06,0,0,1,0,.12.2.2,0,0,1-.21,0A.06.06,0,0,1,93.76,39.78Z"/>
              <path class="cls-20" d="M93.91,39.77s0,0,0,0h0s0,0,0,0A0,0,0,0,1,93.91,39.77Z"/>
            </g>
          </g>
          <g>
            <path class="cls-16" d="M91.37,40.51a1.4,1.4,0,0,1,1.26,0c.35.2.35.52,0,.73a1.4,1.4,0,0,1-1.26,0C91,41,91,40.71,91.37,40.51Z"/>
            <g>
              <path class="cls-17" d="M92.63,40.51c.22.12-.58.33-.58.33S92.41,40.38,92.63,40.51Z"/>
              <path class="cls-17" d="M92,40.36c.31,0,0,.47,0,.47S91.7,40.36,92,40.36Z"/>
              <path class="cls-17" d="M91.38,40.5c.22-.12.58.34.58.34S91.16,40.63,91.38,40.5Z"/>
              <path class="cls-17" d="M91.94,40.87s-.82.18-.82,0S91.94,40.87,91.94,40.87Z"/>
              <path class="cls-17" d="M92,40.89s-.36.46-.58.34S92,40.89,92,40.89Z"/>
              <path class="cls-17" d="M92,41.38c-.31,0,0-.47,0-.47S92.31,41.38,92,41.38Z"/>
              <path class="cls-17" d="M92.63,41.23c-.22.13-.58-.33-.58-.33S92.85,41.1,92.63,41.23Z"/>
              <path class="cls-17" d="M92.89,40.87c0,.18-.82,0-.82,0S92.89,40.69,92.89,40.87Z"/>
            </g>
            <g>
              <path class="cls-18" d="M91.84,40.78a.36.36,0,0,1,.32,0c.09,0,.09.13,0,.18a.31.31,0,0,1-.32,0C91.75,40.91,91.75,40.83,91.84,40.78Z"/>
              <path class="cls-19" d="M91.89,40.81a.28.28,0,0,1,.22,0,.06.06,0,0,1,0,.12.22.22,0,0,1-.22,0A.07.07,0,0,1,91.89,40.81Z"/>
              <path class="cls-20" d="M92,40.8s0,0,0,0h0s0,0,0,0Z"/>
            </g>
          </g>
        </g>
        <g>
          <g>
            <polygon class="cls-13" points="97.26 40.84 93.69 42.89 92.1 41.98 95.66 39.92 97.26 40.84"/>
            <polygon class="cls-14" points="97.26 42.67 93.69 44.73 93.69 42.89 97.26 40.84 97.26 42.67"/>
            <polygon class="cls-15" points="93.69 44.73 92.1 43.81 92.1 41.98 93.69 42.89 93.69 44.73"/>
          </g>
          <g>
            <ellipse class="cls-16" cx="95.65" cy="40.83" rx="0.89" ry="0.52"/>
            <g>
              <path class="cls-17" d="M96.28,40.46c.22.13-.58.34-.58.34S96.06,40.34,96.28,40.46Z"/>
              <path class="cls-17" d="M95.66,40.31c.31,0,0,.48,0,.48S95.34,40.31,95.66,40.31Z"/>
              <path class="cls-17" d="M95,40.46c.22-.13.58.34.58.34S94.81,40.59,95,40.46Z"/>
              <path class="cls-17" d="M95.59,40.82s-.82.18-.82,0S95.59,40.82,95.59,40.82Z"/>
              <path class="cls-17" d="M95.6,40.85s-.36.46-.57.34S95.6,40.85,95.6,40.85Z"/>
              <path class="cls-17" d="M95.65,41.34c-.31,0,0-.48,0-.48S96,41.34,95.65,41.34Z"/>
              <path class="cls-17" d="M96.28,41.19c-.22.12-.58-.34-.58-.34S96.5,41.06,96.28,41.19Z"/>
              <path class="cls-17" d="M96.54,40.83c0,.18-.82,0-.82,0S96.54,40.65,96.54,40.83Z"/>
            </g>
            <g>
              <path class="cls-18" d="M95.49,40.74a.31.31,0,0,1,.32,0c.09,0,.09.13,0,.18a.36.36,0,0,1-.32,0C95.4,40.87,95.4,40.79,95.49,40.74Z"/>
              <path class="cls-19" d="M95.54,40.77a.22.22,0,0,1,.22,0,.07.07,0,0,1,0,.12.28.28,0,0,1-.22,0A.06.06,0,0,1,95.54,40.77Z"/>
              <path class="cls-20" d="M95.69,40.75s0,0,0,0h0s0,0,0,0Z"/>
            </g>
          </g>
          <g>
            <path class="cls-16" d="M93.16,41.5a1.34,1.34,0,0,1,1.26,0c.35.2.35.52,0,.72a1.34,1.34,0,0,1-1.26,0C92.81,42,92.81,41.7,93.16,41.5Z"/>
            <g>
              <path class="cls-17" d="M94.42,41.5c.22.12-.58.33-.58.33S94.2,41.37,94.42,41.5Z"/>
              <path class="cls-17" d="M93.79,41.34c.31,0,0,.48,0,.48S93.48,41.34,93.79,41.34Z"/>
              <path class="cls-17" d="M93.17,41.49c.22-.12.57.34.57.34S93,41.62,93.17,41.49Z"/>
              <path class="cls-17" d="M93.72,41.85s-.82.18-.82,0S93.72,41.85,93.72,41.85Z"/>
              <path class="cls-17" d="M93.74,41.88s-.36.46-.58.34S93.74,41.88,93.74,41.88Z"/>
              <path class="cls-17" d="M93.79,42.37c-.31,0,0-.48,0-.48S94.1,42.37,93.79,42.37Z"/>
              <path class="cls-17" d="M94.41,42.22c-.22.13-.57-.34-.57-.34S94.63,42.09,94.41,42.22Z"/>
              <path class="cls-17" d="M94.68,41.86c0,.18-.82,0-.82,0S94.68,41.68,94.68,41.86Z"/>
            </g>
            <g>
              <ellipse class="cls-18" cx="93.79" cy="41.86" rx="0.23" ry="0.13"/>
              <path class="cls-19" d="M93.68,41.8a.2.2,0,0,1,.21,0,.06.06,0,0,1,0,.12.26.26,0,0,1-.21,0A.06.06,0,0,1,93.68,41.8Z"/>
              <path class="cls-20" d="M93.83,41.78a0,0,0,0,1,0,0h0a0,0,0,0,1,0,0Z"/>
            </g>
          </g>
        </g>
      </g>
      <g>
        <polygon class="cls-12" points="31.93 27.09 27.09 29.89 22.71 27.36 27.55 24.56 31.93 27.09"/>
        <g>
          <g>
            <polygon class="cls-13" points="28.88 24.43 25.31 26.48 23.72 25.57 27.28 23.51 28.88 24.43"/>
            <polygon class="cls-14" points="28.88 26.26 25.31 28.32 25.31 26.48 28.88 24.43 28.88 26.26"/>
            <polygon class="cls-15" points="25.31 28.32 23.72 27.4 23.72 25.57 25.31 26.48 25.31 28.32"/>
          </g>
          <g>
            <path class="cls-16" d="M26.64,24.05a1.4,1.4,0,0,1,1.26,0,.39.39,0,0,1,0,.73,1.4,1.4,0,0,1-1.26,0A.39.39,0,0,1,26.64,24.05Z"/>
            <g>
              <path class="cls-17" d="M27.9,24.05c.22.13-.58.34-.58.34S27.68,23.92,27.9,24.05Z"/>
              <path class="cls-17" d="M27.27,23.9c.31,0,0,.47,0,.47S27,23.9,27.27,23.9Z"/>
              <path class="cls-17" d="M26.65,24.05c.22-.13.58.33.58.33S26.43,24.18,26.65,24.05Z"/>
              <path class="cls-17" d="M27.2,24.41s-.82.18-.82,0S27.2,24.41,27.2,24.41Z"/>
              <path class="cls-17" d="M27.22,24.44s-.36.46-.58.33S27.22,24.44,27.22,24.44Z"/>
              <path class="cls-17" d="M27.27,24.92c-.31,0,0-.47,0-.47S27.58,24.92,27.27,24.92Z"/>
              <path class="cls-17" d="M27.9,24.77c-.22.13-.58-.33-.58-.33S28.12,24.65,27.9,24.77Z"/>
              <path class="cls-17" d="M28.16,24.41c0,.18-.82,0-.82,0S28.16,24.23,28.16,24.41Z"/>
            </g>
            <g>
              <path class="cls-18" d="M27.11,24.32a.36.36,0,0,1,.32,0,.1.1,0,0,1,0,.19.36.36,0,0,1-.32,0A.1.1,0,0,1,27.11,24.32Z"/>
              <path class="cls-19" d="M27.16,24.35a.26.26,0,0,1,.21,0c.06,0,.06.09,0,.13a.26.26,0,0,1-.21,0C27.1,24.44,27.1,24.39,27.16,24.35Z"/>
              <path class="cls-20" d="M27.31,24.34a0,0,0,0,1,0,0h0a0,0,0,0,1,0,0A0,0,0,0,1,27.31,24.34Z"/>
            </g>
          </g>
          <g>
            <path class="cls-16" d="M24.77,25.08a1.42,1.42,0,0,1,1.27,0,.39.39,0,0,1,0,.73,1.42,1.42,0,0,1-1.27,0A.39.39,0,0,1,24.77,25.08Z"/>
            <g>
              <path class="cls-17" d="M26,25.08c.22.13-.58.34-.58.34S25.82,25,26,25.08Z"/>
              <path class="cls-17" d="M25.41,24.93c.31,0,0,.48,0,.48S25.1,24.93,25.41,24.93Z"/>
              <path class="cls-17" d="M24.78,25.08c.22-.13.58.34.58.34S24.56,25.21,24.78,25.08Z"/>
              <path class="cls-17" d="M25.34,25.44s-.82.18-.82,0S25.34,25.44,25.34,25.44Z"/>
              <path class="cls-17" d="M25.36,25.47s-.36.46-.58.33S25.36,25.47,25.36,25.47Z"/>
              <path class="cls-17" d="M25.41,26c-.32,0,0-.47,0-.47S25.72,26,25.41,26Z"/>
              <path class="cls-17" d="M26,25.81c-.22.12-.58-.34-.58-.34S26.25,25.68,26,25.81Z"/>
              <path class="cls-17" d="M26.29,25.44c0,.18-.82,0-.82,0S26.29,25.27,26.29,25.44Z"/>
            </g>
            <g>
              <path class="cls-18" d="M25.24,25.35a.36.36,0,0,1,.32,0c.09.06.09.14,0,.19a.36.36,0,0,1-.32,0C25.15,25.49,25.15,25.41,25.24,25.35Z"/>
              <ellipse class="cls-19" cx="25.4" cy="25.45" rx="0.15" ry="0.09"/>
              <path class="cls-20" d="M25.45,25.37a0,0,0,0,1,0,0,0,0,0,0,1-.05,0,0,0,0,0,1,0,0Z"/>
            </g>
          </g>
        </g>
        <g>
          <g>
            <polygon class="cls-13" points="30.66 25.41 27.1 27.47 25.5 26.55 29.07 24.5 30.66 25.41"/>
            <polygon class="cls-14" points="30.66 27.25 27.1 29.3 27.1 27.47 30.66 25.41 30.66 27.25"/>
            <polygon class="cls-15" points="27.1 29.3 25.5 28.39 25.5 26.55 27.1 27.47 27.1 29.3"/>
          </g>
          <g>
            <ellipse class="cls-16" cx="29.05" cy="25.4" rx="0.89" ry="0.52"/>
            <g>
              <path class="cls-17" d="M29.68,25c.22.13-.57.33-.57.33S29.47,24.91,29.68,25Z"/>
              <path class="cls-17" d="M29.06,24.89c.31,0,0,.47,0,.47S28.75,24.89,29.06,24.89Z"/>
              <path class="cls-17" d="M28.43,25c.22-.13.58.33.58.33S28.21,25.16,28.43,25Z"/>
              <path class="cls-17" d="M29,25.4s-.82.18-.82,0S29,25.4,29,25.4Z"/>
              <path class="cls-17" d="M29,25.43s-.36.46-.58.33S29,25.43,29,25.43Z"/>
              <path class="cls-17" d="M29.05,25.91c-.31,0,0-.47,0-.47S29.37,25.91,29.05,25.91Z"/>
              <path class="cls-17" d="M29.68,25.76c-.22.13-.58-.33-.58-.33S29.9,25.64,29.68,25.76Z"/>
              <path class="cls-17" d="M29.94,25.4c0,.18-.82,0-.82,0S29.94,25.22,29.94,25.4Z"/>
            </g>
            <g>
              <ellipse class="cls-18" cx="29.05" cy="25.4" rx="0.23" ry="0.13"/>
              <path class="cls-19" d="M29,25.34a.26.26,0,0,1,.21,0c.06,0,.06.09,0,.13a.26.26,0,0,1-.21,0C28.89,25.43,28.89,25.38,29,25.34Z"/>
              <path class="cls-20" d="M29.1,25.33a0,0,0,0,1,0,0h-.05a0,0,0,0,1,0,0Z"/>
            </g>
          </g>
          <g>
            <path class="cls-16" d="M26.56,26.07a1.4,1.4,0,0,1,1.26,0,.39.39,0,0,1,0,.73,1.4,1.4,0,0,1-1.26,0A.39.39,0,0,1,26.56,26.07Z"/>
            <g>
              <path class="cls-17" d="M27.82,26.07c.22.13-.58.34-.58.34S27.6,25.94,27.82,26.07Z"/>
              <path class="cls-17" d="M27.2,25.92c.31,0,0,.47,0,.47S26.89,25.92,27.2,25.92Z"/>
              <path class="cls-17" d="M26.57,26.07c.22-.13.58.33.58.33S26.35,26.2,26.57,26.07Z"/>
              <path class="cls-17" d="M27.13,26.43s-.82.18-.82,0S27.13,26.43,27.13,26.43Z"/>
              <path class="cls-17" d="M27.15,26.46s-.36.46-.58.33S27.15,26.46,27.15,26.46Z"/>
              <path class="cls-17" d="M27.19,26.94c-.31,0,0-.47,0-.47S27.5,26.94,27.19,26.94Z"/>
              <path class="cls-17" d="M27.82,26.79c-.22.13-.58-.33-.58-.33S28,26.67,27.82,26.79Z"/>
              <path class="cls-17" d="M28.08,26.43c0,.18-.82,0-.82,0S28.08,26.25,28.08,26.43Z"/>
            </g>
            <g>
              <path class="cls-18" d="M27,26.34a.36.36,0,0,1,.32,0,.1.1,0,0,1,0,.19.36.36,0,0,1-.32,0A.1.1,0,0,1,27,26.34Z"/>
              <ellipse class="cls-19" cx="27.19" cy="26.44" rx="0.15" ry="0.09"/>
              <path class="cls-20" d="M27.23,26.36s0,0,0,0h0s0,0,0,0Z"/>
            </g>
          </g>
        </g>
      </g>
      <g>
        <polygon class="cls-12" points="38.77 31.05 33.93 33.85 29.55 31.32 34.38 28.52 38.77 31.05"/>
        <g>
          <g>
            <polygon class="cls-13" points="35.71 28.39 32.15 30.45 30.55 29.53 34.12 27.47 35.71 28.39"/>
            <polygon class="cls-14" points="35.71 30.22 32.15 32.28 32.15 30.45 35.71 28.39 35.71 30.22"/>
            <polygon class="cls-15" points="32.15 32.28 30.55 31.36 30.55 29.53 32.15 30.45 32.15 32.28"/>
          </g>
          <g>
            <path class="cls-16" d="M33.47,28a1.4,1.4,0,0,1,1.26,0c.35.21.35.53,0,.73a1.34,1.34,0,0,1-1.26,0C33.12,28.54,33.12,28.22,33.47,28Z"/>
            <g>
              <path class="cls-17" d="M34.73,28c.22.13-.58.34-.58.34S34.51,27.89,34.73,28Z"/>
              <path class="cls-17" d="M34.11,27.86c.31,0,0,.48,0,.48S33.8,27.86,34.11,27.86Z"/>
              <path class="cls-17" d="M33.48,28c.22-.12.58.34.58.34S33.26,28.14,33.48,28Z"/>
              <path class="cls-17" d="M34,28.37s-.82.18-.82,0S34,28.37,34,28.37Z"/>
              <path class="cls-17" d="M34.06,28.4s-.36.46-.58.34S34.06,28.4,34.06,28.4Z"/>
              <path class="cls-17" d="M34.1,28.89c-.31,0,0-.48,0-.48S34.41,28.89,34.1,28.89Z"/>
              <path class="cls-17" d="M34.73,28.74c-.22.12-.58-.34-.58-.34S35,28.61,34.73,28.74Z"/>
              <path class="cls-17" d="M35,28.38c0,.18-.82,0-.82,0S35,28.2,35,28.38Z"/>
            </g>
            <g>
              <path class="cls-18" d="M33.94,28.29a.36.36,0,0,1,.32,0c.09.05.09.13,0,.18a.36.36,0,0,1-.32,0C33.85,28.42,33.85,28.34,33.94,28.29Z"/>
              <ellipse class="cls-19" cx="34.1" cy="28.38" rx="0.15" ry="0.09"/>
              <path class="cls-20" d="M34.14,28.3s0,0,0,0a0,0,0,0,1,0,0s0,0,0,0Z"/>
            </g>
          </g>
          <g>
            <path class="cls-16" d="M31.61,29.05a1.34,1.34,0,0,1,1.26,0c.35.2.35.52,0,.72a1.34,1.34,0,0,1-1.26,0C31.26,29.57,31.26,29.25,31.61,29.05Z"/>
            <g>
              <path class="cls-17" d="M32.87,29.05c.22.12-.58.33-.58.33S32.65,28.92,32.87,29.05Z"/>
              <path class="cls-17" d="M32.24,28.89c.31,0,0,.48,0,.48S31.93,28.89,32.24,28.89Z"/>
              <path class="cls-17" d="M31.62,29c.22-.12.58.34.58.34S31.4,29.17,31.62,29Z"/>
              <path class="cls-17" d="M32.17,29.4s-.81.18-.81,0S32.17,29.4,32.17,29.4Z"/>
              <path class="cls-17" d="M32.19,29.43s-.36.46-.58.34S32.19,29.43,32.19,29.43Z"/>
              <path class="cls-17" d="M32.24,29.92c-.31,0,0-.48,0-.48S32.55,29.92,32.24,29.92Z"/>
              <path class="cls-17" d="M32.87,29.77c-.22.13-.58-.34-.58-.34S33.09,29.64,32.87,29.77Z"/>
              <path class="cls-17" d="M33.13,29.41c0,.18-.82,0-.82,0S33.13,29.23,33.13,29.41Z"/>
            </g>
            <g>
              <path class="cls-18" d="M32.08,29.32a.36.36,0,0,1,.32,0c.09.05.09.13,0,.18a.36.36,0,0,1-.32,0C32,29.45,32,29.37,32.08,29.32Z"/>
              <path class="cls-19" d="M32.13,29.35a.2.2,0,0,1,.21,0,.06.06,0,0,1,0,.12.2.2,0,0,1-.21,0A.06.06,0,0,1,32.13,29.35Z"/>
              <path class="cls-20" d="M32.28,29.34s0,0,0,0a0,0,0,0,1-.05,0s0,0,0,0A0,0,0,0,1,32.28,29.34Z"/>
            </g>
          </g>
        </g>
        <g>
          <g>
            <polygon class="cls-13" points="37.49 29.38 33.93 31.43 32.34 30.52 35.9 28.46 37.49 29.38"/>
            <polygon class="cls-14" points="37.49 31.21 33.93 33.27 33.93 31.43 37.49 29.38 37.49 31.21"/>
            <polygon class="cls-15" points="33.93 33.27 32.34 32.35 32.34 30.52 33.93 31.43 33.93 33.27"/>
          </g>
          <g>
            <path class="cls-16" d="M35.26,29a1.4,1.4,0,0,1,1.26,0,.39.39,0,0,1,0,.73,1.4,1.4,0,0,1-1.26,0A.39.39,0,0,1,35.26,29Z"/>
            <g>
              <path class="cls-17" d="M36.52,29c.22.13-.58.34-.58.34S36.3,28.88,36.52,29Z"/>
              <path class="cls-17" d="M35.89,28.85c.31,0,0,.47,0,.47S35.58,28.85,35.89,28.85Z"/>
              <path class="cls-17" d="M35.27,29c.22-.13.57.34.57.34S35.05,29.13,35.27,29Z"/>
              <path class="cls-17" d="M35.82,29.36s-.82.18-.82,0S35.82,29.36,35.82,29.36Z"/>
              <path class="cls-17" d="M35.84,29.39s-.36.46-.58.33S35.84,29.39,35.84,29.39Z"/>
              <path class="cls-17" d="M35.89,29.87c-.31,0,0-.47,0-.47S36.2,29.87,35.89,29.87Z"/>
              <path class="cls-17" d="M36.51,29.73c-.22.12-.57-.34-.57-.34S36.73,29.6,36.51,29.73Z"/>
              <path class="cls-17" d="M36.78,29.36c0,.18-.82,0-.82,0S36.78,29.19,36.78,29.36Z"/>
            </g>
            <g>
              <path class="cls-18" d="M35.73,29.27a.36.36,0,0,1,.32,0c.09.06.09.14,0,.19a.36.36,0,0,1-.32,0C35.64,29.41,35.64,29.33,35.73,29.27Z"/>
              <ellipse class="cls-19" cx="35.89" cy="29.37" rx="0.15" ry="0.09"/>
              <path class="cls-20" d="M35.93,29.29a0,0,0,0,1,0,0h0a0,0,0,0,1,0,0Z"/>
            </g>
          </g>
          <g>
            <path class="cls-16" d="M33.39,30a1.4,1.4,0,0,1,1.26,0c.35.21.35.53,0,.73a1.4,1.4,0,0,1-1.26,0C33,30.56,33,30.24,33.39,30Z"/>
            <g>
              <path class="cls-17" d="M34.65,30c.22.13-.57.34-.57.34S34.44,29.91,34.65,30Z"/>
              <path class="cls-17" d="M34,29.88c.31,0,0,.48,0,.48S33.72,29.88,34,29.88Z"/>
              <path class="cls-17" d="M33.4,30c.22-.13.58.34.58.34S33.18,30.16,33.4,30Z"/>
              <path class="cls-17" d="M34,30.39s-.82.18-.82,0S34,30.39,34,30.39Z"/>
              <path class="cls-17" d="M34,30.42s-.36.46-.58.34S34,30.42,34,30.42Z"/>
              <path class="cls-17" d="M34,30.91c-.31,0,0-.48,0-.48S34.34,30.91,34,30.91Z"/>
              <path class="cls-17" d="M34.65,30.76c-.22.12-.58-.34-.58-.34S34.87,30.63,34.65,30.76Z"/>
              <path class="cls-17" d="M34.91,30.4c0,.18-.82,0-.82,0S34.91,30.22,34.91,30.4Z"/>
            </g>
            <g>
              <path class="cls-18" d="M33.86,30.31a.31.31,0,0,1,.32,0c.09.05.09.13,0,.18a.36.36,0,0,1-.32,0C33.77,30.44,33.77,30.36,33.86,30.31Z"/>
              <path class="cls-19" d="M33.92,30.34a.2.2,0,0,1,.21,0,.06.06,0,0,1,0,.12.26.26,0,0,1-.21,0A.06.06,0,0,1,33.92,30.34Z"/>
              <path class="cls-20" d="M34.07,30.32a0,0,0,0,1,0,0h0a0,0,0,0,1,0,0Z"/>
            </g>
          </g>
        </g>
      </g>
      <g>
        <polygon class="cls-21" points="52.54 89.83 52.54 98.73 48.86 96.6 48.86 87.71 52.54 89.83"/>
        <polygon class="cls-14" points="52.24 94.09 52.24 94.35 49.12 92.57 49.12 88.46 49.34 88.59 49.34 92.44 52.24 94.09"/>
        <polygon class="cls-22" points="52.24 90.24 52.24 94.09 49.34 92.44 49.34 88.59 52.24 90.24"/>
        <polygon class="cls-23" points="51.96 90.08 51.15 89.61 49.58 92.57 50.26 92.96 51.96 90.08"/>
        <polygon class="cls-23" points="52.24 91.64 52.24 90.83 50.91 93.34 51.21 93.51 52.24 91.64"/>
        <polygon class="cls-14" points="52.24 97.72 52.24 97.98 49.12 96.2 49.12 92.99 49.34 93.12 49.34 96.07 52.24 97.72"/>
        <polygon class="cls-22" points="52.24 94.77 52.24 97.72 49.34 96.07 49.34 93.12 52.24 94.77"/>
        <polygon class="cls-23" points="51.55 94.38 50.74 93.92 49.58 96.2 50.26 96.59 51.55 94.38"/>
        <polygon class="cls-23" points="52.24 95.27 52.24 94.77 52.11 94.7 50.91 96.96 51.21 97.14 52.24 95.27"/>
        <polygon class="cls-24" points="56.22 100.85 56.22 101.26 48.51 96.81 48.51 87.5 48.86 87.71 48.86 96.6 56.22 100.85"/>
        <polygon class="cls-21" points="56.22 91.96 56.22 100.85 52.54 98.73 52.54 89.83 56.22 91.96"/>
        <polygon class="cls-25" points="52.44 89.77 52.44 98.67 52.54 98.73 52.54 89.83 52.44 89.77"/>
        <polygon class="cls-14" points="55.92 96.22 55.92 96.47 52.8 94.69 52.8 90.58 53.03 90.71 53.03 94.57 55.92 96.22"/>
        <polygon class="cls-22" points="55.92 92.36 55.92 96.22 53.03 94.57 53.03 90.71 55.92 92.36"/>
        <polygon class="cls-23" points="55.64 92.2 54.83 91.74 53.26 94.7 53.94 95.09 55.64 92.2"/>
        <polygon class="cls-23" points="55.92 93.76 55.92 92.95 54.59 95.46 54.89 95.63 55.92 93.76"/>
        <polygon class="cls-14" points="55.92 99.84 55.92 100.1 52.8 98.32 52.8 95.12 53.03 95.25 53.03 98.19 55.92 99.84"/>
        <polygon class="cls-22" points="55.92 96.89 55.92 99.84 53.03 98.19 53.03 95.25 55.92 96.89"/>
        <polygon class="cls-23" points="55.23 96.5 54.42 96.04 53.26 98.33 53.94 98.71 55.23 96.5"/>
        <polygon class="cls-23" points="55.92 97.39 55.92 96.89 55.79 96.82 54.59 99.09 54.89 99.26 55.92 97.39"/>
        <g>
          <path class="cls-26" d="M52.91,94.94a.24.24,0,1,1-.24-.24A.24.24,0,0,1,52.91,94.94Z"/>
          <path class="cls-27" d="M52.82,94.8a0,0,0,0,1,0,.07s0,0-.06,0a.05.05,0,0,1,0-.07A.05.05,0,0,1,52.82,94.8Z"/>
        </g>
        <g>
          <path class="cls-26" d="M52.39,94.66a.24.24,0,0,1-.24.24.23.23,0,0,1-.24-.24.24.24,0,0,1,.24-.24A.24.24,0,0,1,52.39,94.66Z"/>
          <path class="cls-27" d="M52.29,94.52s0,.06,0,.07-.05,0-.07,0,0,0,0-.06S52.27,94.5,52.29,94.52Z"/>
        </g>
      </g>
      <g>
        <polygon class="cls-21" points="62.49 95.55 62.49 104.45 58.81 102.32 58.81 93.43 62.49 95.55"/>
        <polygon class="cls-14" points="62.19 99.81 62.19 100.07 59.07 98.29 59.07 94.18 59.29 94.31 59.29 98.16 62.19 99.81"/>
        <polygon class="cls-22" points="62.19 95.96 62.19 99.81 59.29 98.16 59.29 94.31 62.19 95.96"/>
        <polygon class="cls-23" points="61.9 95.8 61.09 95.33 59.52 98.3 60.2 98.68 61.9 95.8"/>
        <polygon class="cls-23" points="62.19 97.36 62.19 96.55 60.86 99.06 61.16 99.23 62.19 97.36"/>
        <polygon class="cls-14" points="62.19 103.44 62.19 103.7 59.07 101.92 59.07 98.71 59.29 98.84 59.29 101.79 62.19 103.44"/>
        <polygon class="cls-22" points="62.19 100.49 62.19 103.44 59.29 101.79 59.29 98.84 62.19 100.49"/>
        <polygon class="cls-23" points="61.5 100.1 60.69 99.64 59.52 101.92 60.2 102.31 61.5 100.1"/>
        <polygon class="cls-23" points="62.19 100.99 62.19 100.49 62.06 100.42 60.86 102.69 61.16 102.86 62.19 100.99"/>
        <polygon class="cls-24" points="66.17 106.57 66.17 106.98 58.46 102.53 58.46 93.22 58.81 93.43 58.81 102.32 66.17 106.57"/>
        <polygon class="cls-21" points="66.17 97.68 66.17 106.57 62.49 104.45 62.49 95.55 66.17 97.68"/>
        <polygon class="cls-25" points="62.38 95.49 62.38 104.39 62.49 104.45 62.49 95.55 62.38 95.49"/>
        <polygon class="cls-14" points="65.87 101.94 65.87 102.2 62.75 100.42 62.75 96.3 62.97 96.43 62.97 100.29 65.87 101.94"/>
        <polygon class="cls-22" points="65.87 98.08 65.87 101.94 62.97 100.29 62.97 96.43 65.87 98.08"/>
        <polygon class="cls-23" points="65.58 97.92 64.77 97.46 63.2 100.42 63.88 100.81 65.58 97.92"/>
        <polygon class="cls-23" points="65.87 99.49 65.87 98.68 64.54 101.18 64.84 101.36 65.87 99.49"/>
        <polygon class="cls-14" points="65.87 105.57 65.87 105.82 62.75 104.05 62.75 100.84 62.97 100.97 62.97 103.92 65.87 105.57"/>
        <polygon class="cls-22" points="65.87 102.62 65.87 105.57 62.97 103.92 62.97 100.97 65.87 102.62"/>
        <polygon class="cls-23" points="65.18 102.22 64.37 101.76 63.2 104.05 63.88 104.43 65.18 102.22"/>
        <polygon class="cls-23" points="65.87 103.11 65.87 102.62 65.74 102.54 64.54 104.81 64.84 104.98 65.87 103.11"/>
        <g>
          <circle class="cls-26" cx="62.62" cy="100.66" r="0.24"/>
          <path class="cls-27" d="M62.77,100.52a0,0,0,0,1,0,.07.07.07,0,0,1-.07,0,0,0,0,0,1,0-.07A.05.05,0,0,1,62.77,100.52Z"/>
        </g>
        <g>
          <path class="cls-26" d="M62.33,100.39a.24.24,0,1,1-.24-.24A.23.23,0,0,1,62.33,100.39Z"/>
          <path class="cls-27" d="M62.24,100.24s0,.06,0,.07,0,0-.07,0,0-.06,0-.07A0,0,0,0,1,62.24,100.24Z"/>
        </g>
      </g>
      <g>
        <path class="cls-16" d="M62.71,108.89v-12h-.36v12a.1.1,0,0,0,0,.08.3.3,0,0,0,.26,0A.1.1,0,0,0,62.71,108.89Z"/>
        <path class="cls-16" d="M45.44,98.66v-12h-.36v12a.1.1,0,0,0,.05.08.3.3,0,0,0,.26,0A.1.1,0,0,0,45.44,98.66Z"/>
        <polygon class="cls-28" points="63.68 100.05 42.85 87.98 42.85 87.06 63.68 99.13 63.68 100.05"/>
        <polygon class="cls-29" points="63.68 100.05 63.68 99.13 69.99 94.53 69.99 95.45 63.68 100.05"/>
        <polygon class="cls-2" points="63.68 99.13 42.85 87.06 49.16 82.45 69.99 94.53 63.68 99.13"/>
      </g>
      <g>
        <polygon class="cls-22" points="14.68 37.28 14.68 39.43 11.48 37.58 11.48 35.43 14.68 37.28"/>
        <polygon class="cls-22" points="14.68 40.17 14.68 43.37 11.48 41.52 11.48 38.32 14.68 40.17"/>
        <polygon class="cls-23" points="14.54 40.09 13.73 39.62 11.72 41.66 12.49 42.11 14.54 40.09"/>
        <polygon class="cls-23" points="13.3 39.37 11.48 41.2 11.48 40.48 12.86 39.12 13.3 39.37"/>
        <polygon class="cls-23" points="14.09 36.94 12.68 38.28 12.11 37.95 13.5 36.6 14.09 36.94"/>
        <polygon class="cls-23" points="14.68 37.28 14.68 37.82 13.71 38.88 13.03 38.48 14.37 37.1 14.68 37.28"/>
        <path class="cls-20" d="M10.82,34.79v7.09L15,44.28V37.2Zm3.86,8.58-3.2-1.85v-3.2l3.2,1.85Zm0-3.94-3.2-1.85V35.43l3.2,1.85Z"/>
        <polygon class="cls-30" points="14.68 39.43 14.68 39.84 11.12 37.79 11.12 35.22 11.48 35.43 11.48 37.58 14.68 39.43"/>
        <polygon class="cls-30" points="14.68 43.37 14.68 43.78 11.12 41.73 11.12 38.11 11.48 38.32 11.48 41.52 14.68 43.37"/>
      </g>
      <g>
        <polygon class="cls-22" points="21.87 41.41 21.87 43.56 18.66 41.72 18.66 39.56 21.87 41.41"/>
        <polygon class="cls-22" points="21.87 44.3 21.87 47.5 18.66 45.65 18.66 42.45 21.87 44.3"/>
        <polygon class="cls-23" points="21.73 44.22 20.91 43.75 18.91 45.79 19.68 46.24 21.73 44.22"/>
        <polygon class="cls-23" points="20.48 43.5 18.66 45.34 18.66 44.62 20.04 43.25 20.48 43.5"/>
        <polygon class="cls-23" points="21.28 41.07 19.87 42.41 19.3 42.08 20.69 40.74 21.28 41.07"/>
        <polygon class="cls-23" points="21.87 41.41 21.87 41.95 20.9 43.01 20.22 42.61 21.56 41.23 21.87 41.41"/>
        <path class="cls-20" d="M18,38.93V46l4.17,2.41V41.33Zm3.87,8.57-3.21-1.85v-3.2l3.21,1.85Zm0-3.94-3.21-1.84V39.56l3.21,1.85Z"/>
        <polygon class="cls-30" points="21.87 43.56 21.87 43.98 18.31 41.92 18.31 39.36 18.66 39.56 18.66 41.72 21.87 43.56"/>
        <polygon class="cls-30" points="21.87 47.5 21.87 47.91 18.31 45.86 18.31 42.25 18.66 42.45 18.66 45.65 21.87 47.5"/>
      </g>
      <g>
        <polygon class="cls-22" points="31.67 47.09 31.67 49.24 28.47 47.39 28.47 45.24 31.67 47.09"/>
        <polygon class="cls-22" points="31.67 49.98 31.67 53.18 28.47 51.33 28.47 48.13 31.67 49.98"/>
        <polygon class="cls-23" points="31.53 49.9 30.72 49.43 28.71 51.47 29.48 51.92 31.53 49.9"/>
        <polygon class="cls-23" points="30.29 49.18 28.47 51.01 28.47 50.29 29.85 48.92 30.29 49.18"/>
        <polygon class="cls-23" points="31.08 46.75 29.67 48.09 29.11 47.76 30.49 46.41 31.08 46.75"/>
        <polygon class="cls-23" points="31.67 47.09 31.67 47.63 30.7 48.69 30.02 48.29 31.36 46.91 31.67 47.09"/>
        <path class="cls-20" d="M27.81,44.6v7.09L32,54.09V47Zm3.86,8.58-3.2-1.85v-3.2L31.67,50Zm0-3.94-3.2-1.85V45.24l3.2,1.85Z"/>
        <polygon class="cls-30" points="31.67 49.24 31.67 49.65 28.11 47.6 28.11 45.03 28.47 45.24 28.47 47.39 31.67 49.24"/>
        <polygon class="cls-30" points="31.67 53.18 31.67 53.59 28.11 51.53 28.11 47.92 28.47 48.13 28.47 51.33 31.67 53.18"/>
      </g>
      <g>
        <polygon class="cls-22" points="38.86 51.22 38.86 53.37 35.65 51.52 35.65 49.37 38.86 51.22"/>
        <polygon class="cls-22" points="38.86 54.11 38.86 57.31 35.65 55.46 35.65 52.26 38.86 54.11"/>
        <polygon class="cls-23" points="38.72 54.03 37.9 53.56 35.9 55.6 36.67 56.05 38.72 54.03"/>
        <polygon class="cls-23" points="37.48 53.31 35.65 55.15 35.65 54.42 37.03 53.06 37.48 53.31"/>
        <polygon class="cls-23" points="38.27 50.88 36.86 52.22 36.29 51.89 37.68 50.55 38.27 50.88"/>
        <polygon class="cls-23" points="38.86 51.22 38.86 51.76 37.89 52.82 37.21 52.42 38.55 51.04 38.86 51.22"/>
        <path class="cls-20" d="M35,48.74v7.08l4.17,2.41V51.14Zm3.87,8.57-3.21-1.85v-3.2l3.21,1.85Zm0-3.94-3.21-1.85V49.37l3.21,1.85Z"/>
        <polygon class="cls-30" points="38.86 53.37 38.86 53.78 35.3 51.73 35.3 49.16 35.65 49.37 35.65 51.52 38.86 53.37"/>
        <polygon class="cls-30" points="38.86 57.31 38.86 57.72 35.3 55.67 35.3 52.05 35.65 52.26 35.65 55.46 38.86 57.31"/>
      </g>
      <g>
        <polygon class="cls-22" points="48.81 56.99 48.81 59.14 45.61 57.29 45.61 55.14 48.81 56.99"/>
        <polygon class="cls-22" points="48.81 59.88 48.81 63.08 45.61 61.23 45.61 58.03 48.81 59.88"/>
        <polygon class="cls-23" points="48.67 59.8 47.86 59.33 45.86 61.37 46.63 61.81 48.67 59.8"/>
        <polygon class="cls-23" points="47.43 59.08 45.61 60.91 45.61 60.19 46.99 58.82 47.43 59.08"/>
        <polygon class="cls-23" points="48.23 56.65 46.82 57.99 46.25 57.66 47.64 56.31 48.23 56.65"/>
        <polygon class="cls-23" points="48.81 56.99 48.81 57.53 47.85 58.58 47.17 58.19 48.51 56.81 48.81 56.99"/>
        <path class="cls-20" d="M45,54.5v7.09L49.12,64V56.91Zm3.86,8.58-3.2-1.85V58l3.2,1.85Zm0-3.94-3.2-1.85V55.14L48.81,57Z"/>
        <polygon class="cls-30" points="48.81 59.14 48.81 59.55 45.26 57.5 45.26 54.93 45.61 55.14 45.61 57.29 48.81 59.14"/>
        <polygon class="cls-30" points="48.81 63.08 48.81 63.49 45.26 61.43 45.26 57.82 45.61 58.03 45.61 61.23 48.81 63.08"/>
      </g>
      <g>
        <polygon class="cls-22" points="56 61.12 56 63.27 52.8 61.42 52.8 59.27 56 61.12"/>
        <polygon class="cls-22" points="56 64.01 56 67.21 52.8 65.36 52.8 62.16 56 64.01"/>
        <polygon class="cls-23" points="55.86 63.93 55.05 63.46 53.05 65.5 53.81 65.95 55.86 63.93"/>
        <polygon class="cls-23" points="54.62 63.21 52.8 65.05 52.8 64.32 54.18 62.96 54.62 63.21"/>
        <polygon class="cls-23" points="55.41 60.78 54.01 62.12 53.44 61.79 54.83 60.45 55.41 60.78"/>
        <polygon class="cls-23" points="56 61.12 56 61.66 55.04 62.72 54.35 62.32 55.69 60.94 56 61.12"/>
        <path class="cls-20" d="M52.14,58.63v7.09l4.17,2.41V61ZM56,67.21l-3.2-1.85v-3.2L56,64Zm0-3.94-3.2-1.85V59.27L56,61.12Z"/>
        <polygon class="cls-30" points="56 63.27 56 63.68 52.44 61.63 52.44 59.06 52.8 59.27 52.8 61.42 56 63.27"/>
        <polygon class="cls-30" points="56 67.21 56 67.62 52.44 65.56 52.44 61.95 52.8 62.16 52.8 65.36 56 67.21"/>
      </g>
      <g>
        <polygon class="cls-22" points="67.41 67.74 67.41 69.9 64.21 68.05 64.21 65.89 67.41 67.74"/>
        <polygon class="cls-22" points="67.41 70.63 67.41 73.83 64.21 71.98 64.21 68.78 67.41 70.63"/>
        <polygon class="cls-23" points="67.28 70.55 66.46 70.08 64.46 72.13 65.23 72.57 67.28 70.55"/>
        <polygon class="cls-23" points="66.03 69.83 64.21 71.67 64.21 70.95 65.59 69.58 66.03 69.83"/>
        <polygon class="cls-23" points="66.83 67.4 65.42 68.74 64.85 68.41 66.24 67.07 66.83 67.4"/>
        <polygon class="cls-23" points="67.41 67.74 67.41 68.28 66.45 69.34 65.77 68.94 67.11 67.56 67.41 67.74"/>
        <path class="cls-20" d="M63.55,65.26v7.08l4.17,2.41V67.67Zm3.86,8.57L64.21,72v-3.2l3.2,1.85Zm0-3.93-3.2-1.85V65.89l3.2,1.85Z"/>
        <polygon class="cls-30" points="67.41 69.9 67.41 70.31 63.86 68.25 63.86 65.69 64.21 65.89 64.21 68.05 67.41 69.9"/>
        <polygon class="cls-30" points="67.41 73.83 67.41 74.24 63.86 72.19 63.86 68.58 64.21 68.78 64.21 71.98 67.41 73.83"/>
      </g>
      <g>
        <polygon class="cls-22" points="74.6 71.88 74.6 74.03 71.4 72.18 71.4 70.03 74.6 71.88"/>
        <polygon class="cls-22" points="74.6 74.77 74.6 77.97 71.4 76.12 71.4 72.92 74.6 74.77"/>
        <polygon class="cls-23" points="74.46 74.68 73.65 74.22 71.64 76.26 72.42 76.7 74.46 74.68"/>
        <polygon class="cls-23" points="73.22 73.97 71.4 75.8 71.4 75.08 72.78 73.71 73.22 73.97"/>
        <polygon class="cls-23" points="74.01 71.53 72.61 72.88 72.04 72.55 73.43 71.2 74.01 71.53"/>
        <polygon class="cls-23" points="74.6 71.88 74.6 72.42 73.64 73.47 72.95 73.08 74.29 71.7 74.6 71.88"/>
        <path class="cls-20" d="M70.74,69.39v7.08l4.17,2.41V71.8ZM74.6,78l-3.2-1.85v-3.2l3.2,1.84Zm0-3.94-3.2-1.85V70l3.2,1.84Z"/>
        <polygon class="cls-30" points="74.6 74.03 74.6 74.44 71.04 72.39 71.04 69.82 71.4 70.03 71.4 72.18 74.6 74.03"/>
        <polygon class="cls-30" points="74.6 77.97 74.6 78.38 71.04 76.32 71.04 72.71 71.4 72.92 71.4 76.12 74.6 77.97"/>
      </g>
      <g>
        <polygon class="cls-31" points="90.06 67.81 90.06 69.96 93.26 68.11 93.26 65.96 90.06 67.81"/>
        <polygon class="cls-31" points="90.06 70.7 90.06 73.9 93.26 72.05 93.26 68.85 90.06 70.7"/>
        <polygon class="cls-23" points="90.2 70.62 91.01 70.15 93.01 72.19 92.24 72.64 90.2 70.62"/>
        <polygon class="cls-23" points="91.44 69.9 93.26 71.73 93.26 71.01 91.88 69.65 91.44 69.9"/>
        <polygon class="cls-23" points="90.65 67.47 92.05 68.81 92.62 68.48 91.23 67.13 90.65 67.47"/>
        <polygon class="cls-23" points="90.06 67.81 90.06 68.35 91.02 69.41 91.7 69.01 90.36 67.63 90.06 67.81"/>
        <path class="cls-20" d="M89.75,67.73v7.09l4.17-2.41V65.32Zm.31,3,3.2-1.85v3.2l-3.2,1.85Zm0-2.89L93.26,66v2.15L90.06,70Z"/>
        <polygon class="cls-30" points="90.06 69.96 90.06 70.37 93.61 68.32 93.61 65.75 93.26 65.96 93.26 68.11 90.06 69.96"/>
        <polygon class="cls-30" points="90.06 73.9 90.06 74.31 93.61 72.25 93.61 68.64 93.26 68.85 93.26 72.05 90.06 73.9"/>
      </g>
      <g>
        <polygon class="cls-31" points="82.87 71.94 82.87 74.09 86.07 72.25 86.07 70.09 82.87 71.94"/>
        <polygon class="cls-31" points="82.87 74.83 82.87 78.03 86.07 76.18 86.07 72.98 82.87 74.83"/>
        <polygon class="cls-23" points="83.01 74.75 83.82 74.28 85.83 76.32 85.06 76.77 83.01 74.75"/>
        <polygon class="cls-23" points="84.25 74.03 86.07 75.87 86.07 75.15 84.69 73.78 84.25 74.03"/>
        <polygon class="cls-23" points="83.46 71.6 84.86 72.94 85.43 72.61 84.05 71.27 83.46 71.6"/>
        <polygon class="cls-23" points="82.87 71.94 82.87 72.48 83.83 73.54 84.52 73.14 83.18 71.76 82.87 71.94"/>
        <path class="cls-20" d="M82.56,71.86V79l4.17-2.41V69.46Zm.31,3L86.07,73v3.2L82.87,78Zm0-2.89,3.2-1.85v2.16l-3.2,1.84Z"/>
        <polygon class="cls-30" points="82.87 74.09 82.87 74.5 86.43 72.45 86.43 69.89 86.07 70.09 86.07 72.25 82.87 74.09"/>
        <polygon class="cls-30" points="82.87 78.03 82.87 78.44 86.43 76.39 86.43 72.78 86.07 72.98 86.07 76.18 82.87 78.03"/>
      </g>
      <g>
        <polygon class="cls-31" points="106.95 58.05 106.95 60.21 110.16 58.36 110.16 56.2 106.95 58.05"/>
        <polygon class="cls-31" points="106.95 60.94 106.95 64.14 110.16 62.29 110.16 59.09 106.95 60.94"/>
        <polygon class="cls-23" points="107.09 60.86 107.91 60.39 109.91 62.44 109.14 62.88 107.09 60.86"/>
        <polygon class="cls-23" points="108.33 60.15 110.16 61.98 110.16 61.26 108.78 59.89 108.33 60.15"/>
        <polygon class="cls-23" points="107.54 57.71 108.95 59.05 109.52 58.72 108.13 57.38 107.54 57.71"/>
        <polygon class="cls-23" points="106.95 58.05 106.95 58.59 107.92 59.65 108.6 59.26 107.26 57.88 106.95 58.05"/>
        <path class="cls-20" d="M106.65,58v7.08l4.17-2.41V55.57Zm.3,3,3.21-1.85v3.2L107,64.14Zm0-2.89,3.21-1.85v2.16L107,60.21Z"/>
        <polygon class="cls-30" points="106.95 60.21 106.95 60.62 110.51 58.56 110.51 56 110.16 56.2 110.16 58.36 106.95 60.21"/>
        <polygon class="cls-30" points="106.95 64.14 106.95 64.55 110.51 62.5 110.51 58.89 110.16 59.09 110.16 62.29 106.95 64.14"/>
      </g>
      <g>
        <polygon class="cls-31" points="99.77 62.19 99.77 64.34 102.97 62.49 102.97 60.34 99.77 62.19"/>
        <polygon class="cls-31" points="99.77 65.08 99.77 68.28 102.97 66.43 102.97 63.23 99.77 65.08"/>
        <polygon class="cls-23" points="99.91 65 100.72 64.53 102.72 66.57 101.95 67.01 99.91 65"/>
        <polygon class="cls-23" points="101.15 64.28 102.97 66.11 102.97 65.39 101.59 64.02 101.15 64.28"/>
        <polygon class="cls-23" points="100.36 61.84 101.76 63.19 102.33 62.86 100.94 61.51 100.36 61.84"/>
        <polygon class="cls-23" points="99.77 62.19 99.77 62.73 100.73 63.78 101.41 63.39 100.07 62.01 99.77 62.19"/>
        <path class="cls-20" d="M99.46,62.11v7.08l4.17-2.4V59.7Zm.31,3,3.2-1.85v3.2l-3.2,1.85Zm0-2.89,3.2-1.85v2.15l-3.2,1.85Z"/>
        <polygon class="cls-30" points="99.77 64.34 99.77 64.75 103.32 62.7 103.32 60.13 102.97 60.34 102.97 62.49 99.77 64.34"/>
        <polygon class="cls-30" points="99.77 68.28 99.77 68.69 103.32 66.63 103.32 63.02 102.97 63.23 102.97 66.43 99.77 68.28"/>
      </g>
      <g>
        <polygon class="cls-31" points="90.06 83.51 90.06 85.66 93.26 83.81 93.26 81.66 90.06 83.51"/>
        <polygon class="cls-31" points="90.06 86.4 90.06 89.6 93.26 87.75 93.26 84.55 90.06 86.4"/>
        <polygon class="cls-23" points="90.2 86.32 91.01 85.85 93.01 87.89 92.24 88.33 90.2 86.32"/>
        <polygon class="cls-23" points="91.44 85.6 93.26 87.43 93.26 86.71 91.88 85.34 91.44 85.6"/>
        <polygon class="cls-23" points="90.65 83.17 92.05 84.51 92.62 84.18 91.23 82.83 90.65 83.17"/>
        <polygon class="cls-23" points="90.06 83.51 90.06 84.05 91.02 85.1 91.7 84.71 90.36 83.33 90.06 83.51"/>
        <path class="cls-20" d="M89.75,83.43v7.08l4.17-2.4V81Zm.31,3,3.2-1.85v3.2l-3.2,1.85Zm0-2.89,3.2-1.85v2.15l-3.2,1.85Z"/>
        <polygon class="cls-30" points="90.06 85.66 90.06 86.07 93.61 84.02 93.61 81.45 93.26 81.66 93.26 83.81 90.06 85.66"/>
        <polygon class="cls-30" points="90.06 89.6 90.06 90.01 93.61 87.95 93.61 84.34 93.26 84.55 93.26 87.75 90.06 89.6"/>
      </g>
      <g>
        <polygon class="cls-31" points="82.87 87.64 82.87 89.79 86.07 87.94 86.07 85.79 82.87 87.64"/>
        <polygon class="cls-31" points="82.87 90.53 82.87 93.73 86.07 91.88 86.07 88.68 82.87 90.53"/>
        <polygon class="cls-23" points="83.01 90.45 83.82 89.98 85.83 92.02 85.06 92.47 83.01 90.45"/>
        <polygon class="cls-23" points="84.25 89.73 86.07 91.56 86.07 90.84 84.69 89.48 84.25 89.73"/>
        <polygon class="cls-23" points="83.46 87.3 84.86 88.64 85.43 88.31 84.05 86.97 83.46 87.3"/>
        <polygon class="cls-23" points="82.87 87.64 82.87 88.18 83.83 89.24 84.52 88.84 83.18 87.46 82.87 87.64"/>
        <path class="cls-20" d="M82.56,87.56v7.09l4.17-2.41V85.15Zm.31,3,3.2-1.85v3.2l-3.2,1.85Zm0-2.89,3.2-1.85v2.15l-3.2,1.85Z"/>
        <polygon class="cls-30" points="82.87 89.79 82.87 90.2 86.43 88.15 86.43 85.58 86.07 85.79 86.07 87.94 82.87 89.79"/>
        <polygon class="cls-30" points="82.87 93.73 82.87 94.14 86.43 92.08 86.43 88.47 86.07 88.68 86.07 91.88 82.87 93.73"/>
      </g>
      <g>
        <polygon class="cls-31" points="106.95 73.75 106.95 75.91 110.16 74.06 110.16 71.9 106.95 73.75"/>
        <polygon class="cls-31" points="106.95 76.64 106.95 79.84 110.16 77.99 110.16 74.79 106.95 76.64"/>
        <polygon class="cls-23" points="107.09 76.56 107.91 76.09 109.91 78.13 109.14 78.58 107.09 76.56"/>
        <polygon class="cls-23" points="108.33 75.84 110.16 77.68 110.16 76.96 108.78 75.59 108.33 75.84"/>
        <polygon class="cls-23" points="107.54 73.41 108.95 74.75 109.52 74.42 108.13 73.08 107.54 73.41"/>
        <polygon class="cls-23" points="106.95 73.75 106.95 74.29 107.92 75.35 108.6 74.95 107.26 73.57 106.95 73.75"/>
        <path class="cls-20" d="M106.65,73.67v7.09l4.17-2.41V71.27Zm.3,3,3.21-1.85V78L107,79.84Zm0-2.89,3.21-1.85v2.16L107,75.91Z"/>
        <polygon class="cls-30" points="106.95 75.91 106.95 76.32 110.51 74.26 110.51 71.7 110.16 71.9 110.16 74.06 106.95 75.91"/>
        <polygon class="cls-30" points="106.95 79.84 106.95 80.25 110.51 78.2 110.51 74.59 110.16 74.79 110.16 77.99 106.95 79.84"/>
      </g>
      <g>
        <polygon class="cls-31" points="99.77 77.88 99.77 80.04 102.97 78.19 102.97 76.03 99.77 77.88"/>
        <polygon class="cls-31" points="99.77 80.77 99.77 83.97 102.97 82.13 102.97 78.92 99.77 80.77"/>
        <polygon class="cls-23" points="99.91 80.69 100.72 80.22 102.72 82.27 101.95 82.71 99.91 80.69"/>
        <polygon class="cls-23" points="101.15 79.98 102.97 81.81 102.97 81.09 101.59 79.72 101.15 79.98"/>
        <polygon class="cls-23" points="100.36 77.54 101.76 78.88 102.33 78.56 100.94 77.21 100.36 77.54"/>
        <polygon class="cls-23" points="99.77 77.88 99.77 78.42 100.73 79.48 101.41 79.09 100.07 77.71 99.77 77.88"/>
        <path class="cls-20" d="M99.46,77.81v7.08l4.17-2.41V75.4Zm.31,3,3.2-1.85v3.2L99.77,84Zm0-2.89L103,76v2.16L99.77,80Z"/>
        <polygon class="cls-30" points="99.77 80.04 99.77 80.45 103.32 78.39 103.32 75.83 102.97 76.03 102.97 78.19 99.77 80.04"/>
        <polygon class="cls-30" points="99.77 83.97 99.77 84.38 103.32 82.33 103.32 78.72 102.97 78.92 102.97 82.13 99.77 83.97"/>
      </g>
      <g>
        <polygon class="cls-31" points="90.06 99.2 90.06 101.36 93.26 99.51 93.26 97.36 90.06 99.2"/>
        <polygon class="cls-31" points="90.06 102.09 90.06 105.3 93.26 103.45 93.26 100.25 90.06 102.09"/>
        <polygon class="cls-23" points="90.2 102.01 91.01 101.54 93.01 103.59 92.24 104.03 90.2 102.01"/>
        <polygon class="cls-23" points="91.44 101.3 93.26 103.13 93.26 102.41 91.88 101.04 91.44 101.3"/>
        <polygon class="cls-23" points="90.65 98.86 92.05 100.2 92.62 99.88 91.23 98.53 90.65 98.86"/>
        <polygon class="cls-23" points="90.06 99.2 90.06 99.75 91.02 100.8 91.7 100.41 90.36 99.03 90.06 99.2"/>
        <path class="cls-20" d="M89.75,99.13v7.08l4.17-2.41V96.72Zm.31,3,3.2-1.85v3.21l-3.2,1.84Zm0-2.89,3.2-1.84v2.15l-3.2,1.85Z"/>
        <polygon class="cls-30" points="90.06 101.36 90.06 101.77 93.61 99.72 93.61 97.15 93.26 97.36 93.26 99.51 90.06 101.36"/>
        <polygon class="cls-30" points="90.06 105.3 90.06 105.7 93.61 103.65 93.61 100.04 93.26 100.25 93.26 103.45 90.06 105.3"/>
      </g>
      <g>
        <polygon class="cls-31" points="82.87 103.34 82.87 105.49 86.07 103.64 86.07 101.49 82.87 103.34"/>
        <polygon class="cls-31" points="82.87 106.23 82.87 109.43 86.07 107.58 86.07 104.38 82.87 106.23"/>
        <polygon class="cls-23" points="83.01 106.15 83.82 105.68 85.83 107.72 85.06 108.17 83.01 106.15"/>
        <polygon class="cls-23" points="84.25 105.43 86.07 107.26 86.07 106.54 84.69 105.17 84.25 105.43"/>
        <polygon class="cls-23" points="83.46 103 84.86 104.34 85.43 104.01 84.05 102.66 83.46 103"/>
        <polygon class="cls-23" points="82.87 103.34 82.87 103.88 83.83 104.93 84.52 104.54 83.18 103.16 82.87 103.34"/>
        <path class="cls-20" d="M82.56,103.26v7.08l4.17-2.4v-7.09Zm.31,3,3.2-1.85v3.2l-3.2,1.85Zm0-2.89,3.2-1.85v2.15l-3.2,1.85Z"/>
        <polygon class="cls-30" points="82.87 105.49 82.87 105.9 86.43 103.85 86.43 101.28 86.07 101.49 86.07 103.64 82.87 105.49"/>
        <polygon class="cls-30" points="82.87 109.43 82.87 109.84 86.43 107.78 86.43 104.17 86.07 104.38 86.07 107.58 82.87 109.43"/>
      </g>
      <g>
        <polygon class="cls-31" points="106.95 89.45 106.95 91.6 110.16 89.75 110.16 87.6 106.95 89.45"/>
        <polygon class="cls-31" points="106.95 92.34 106.95 95.54 110.16 93.69 110.16 90.49 106.95 92.34"/>
        <polygon class="cls-23" points="107.09 92.26 107.91 91.79 109.91 93.83 109.14 94.28 107.09 92.26"/>
        <polygon class="cls-23" points="108.33 91.54 110.16 93.38 110.16 92.65 108.78 91.29 108.33 91.54"/>
        <polygon class="cls-23" points="107.54 89.11 108.95 90.45 109.52 90.12 108.13 88.78 107.54 89.11"/>
        <polygon class="cls-23" points="106.95 89.45 106.95 89.99 107.92 91.05 108.6 90.65 107.26 89.27 106.95 89.45"/>
        <path class="cls-20" d="M106.65,89.37v7.09l4.17-2.41V87Zm.3,3,3.21-1.85v3.2L107,95.54Zm0-2.89,3.21-1.85v2.15L107,91.6Z"/>
        <polygon class="cls-30" points="106.95 91.6 106.95 92.01 110.51 89.96 110.51 87.39 110.16 87.6 110.16 89.75 106.95 91.6"/>
        <polygon class="cls-30" points="106.95 95.54 106.95 95.95 110.51 93.9 110.51 90.28 110.16 90.49 110.16 93.69 106.95 95.54"/>
      </g>
      <g>
        <polygon class="cls-31" points="99.77 93.58 99.77 95.74 102.97 93.89 102.97 91.73 99.77 93.58"/>
        <polygon class="cls-31" points="99.77 96.47 99.77 99.67 102.97 97.82 102.97 94.62 99.77 96.47"/>
        <polygon class="cls-23" points="99.91 96.39 100.72 95.92 102.72 97.96 101.95 98.41 99.91 96.39"/>
        <polygon class="cls-23" points="101.15 95.67 102.97 97.51 102.97 96.79 101.59 95.42 101.15 95.67"/>
        <polygon class="cls-23" points="100.36 93.24 101.76 94.58 102.33 94.25 100.94 92.91 100.36 93.24"/>
        <polygon class="cls-23" points="99.77 93.58 99.77 94.12 100.73 95.18 101.41 94.78 100.07 93.4 99.77 93.58"/>
        <path class="cls-20" d="M99.46,93.5v7.09l4.17-2.41V91.1Zm.31,3,3.2-1.85v3.2l-3.2,1.85Zm0-2.89,3.2-1.85v2.16l-3.2,1.85Z"/>
        <polygon class="cls-30" points="99.77 95.74 99.77 96.15 103.32 94.09 103.32 91.53 102.97 91.73 102.97 93.89 99.77 95.74"/>
        <polygon class="cls-30" points="99.77 99.67 99.77 100.08 103.32 98.03 103.32 94.42 102.97 94.62 102.97 97.82 99.77 99.67"/>
      </g>
      <g>
        <polygon class="cls-22" points="14.68 52.98 14.68 55.13 11.48 53.28 11.48 51.13 14.68 52.98"/>
        <polygon class="cls-22" points="14.68 55.87 14.68 59.07 11.48 57.22 11.48 54.02 14.68 55.87"/>
        <polygon class="cls-23" points="14.54 55.78 13.73 55.32 11.72 57.36 12.49 57.8 14.54 55.78"/>
        <polygon class="cls-23" points="13.3 55.07 11.48 56.9 11.48 56.18 12.86 54.81 13.3 55.07"/>
        <polygon class="cls-23" points="14.09 52.64 12.68 53.98 12.11 53.65 13.5 52.3 14.09 52.64"/>
        <polygon class="cls-23" points="14.68 52.98 14.68 53.52 13.71 54.57 13.03 54.18 14.37 52.8 14.68 52.98"/>
        <path class="cls-20" d="M10.82,50.49v7.09L15,60V52.9Zm3.86,8.58-3.2-1.85V54l3.2,1.85Zm0-3.94-3.2-1.85V51.13L14.68,53Z"/>
        <polygon class="cls-30" points="14.68 55.13 14.68 55.54 11.12 53.49 11.12 50.92 11.48 51.13 11.48 53.28 14.68 55.13"/>
        <polygon class="cls-30" points="14.68 59.07 14.68 59.48 11.12 57.42 11.12 53.81 11.48 54.02 11.48 57.22 14.68 59.07"/>
      </g>
      <g>
        <polygon class="cls-22" points="21.87 57.11 21.87 59.26 18.66 57.41 18.66 55.26 21.87 57.11"/>
        <polygon class="cls-22" points="21.87 60 21.87 63.2 18.66 61.35 18.66 58.15 21.87 60"/>
        <polygon class="cls-23" points="21.73 59.92 20.91 59.45 18.91 61.49 19.68 61.94 21.73 59.92"/>
        <polygon class="cls-23" points="20.48 59.2 18.66 61.03 18.66 60.31 20.04 58.95 20.48 59.2"/>
        <polygon class="cls-23" points="21.28 56.77 19.87 58.11 19.3 57.78 20.69 56.43 21.28 56.77"/>
        <polygon class="cls-23" points="21.87 57.11 21.87 57.65 20.9 58.71 20.22 58.31 21.56 56.93 21.87 57.11"/>
        <path class="cls-20" d="M18,54.62v7.09l4.17,2.41V57Zm3.87,8.58-3.21-1.85v-3.2L21.87,60Zm0-3.94-3.21-1.85V55.26l3.21,1.85Z"/>
        <polygon class="cls-30" points="21.87 59.26 21.87 59.67 18.31 57.62 18.31 55.05 18.66 55.26 18.66 57.41 21.87 59.26"/>
        <polygon class="cls-30" points="21.87 63.2 21.87 63.61 18.31 61.55 18.31 57.94 18.66 58.15 18.66 61.35 21.87 63.2"/>
      </g>
      <g>
        <polygon class="cls-22" points="31.67 62.78 31.67 64.94 28.47 63.09 28.47 60.94 31.67 62.78"/>
        <polygon class="cls-22" points="31.67 65.67 31.67 68.88 28.47 67.03 28.47 63.83 31.67 65.67"/>
        <polygon class="cls-23" points="31.53 65.59 30.72 65.13 28.71 67.17 29.48 67.61 31.53 65.59"/>
        <polygon class="cls-23" points="30.29 64.88 28.47 66.71 28.47 65.99 29.85 64.62 30.29 64.88"/>
        <polygon class="cls-23" points="31.08 62.45 29.67 63.78 29.11 63.46 30.49 62.11 31.08 62.45"/>
        <polygon class="cls-23" points="31.67 62.78 31.67 63.33 30.7 64.38 30.02 63.99 31.36 62.61 31.67 62.78"/>
        <path class="cls-20" d="M27.81,60.3v7.09L32,69.79V62.71Zm3.86,8.58L28.47,67v-3.2l3.2,1.85Zm0-3.94-3.2-1.85V60.94l3.2,1.85Z"/>
        <polygon class="cls-30" points="31.67 64.94 31.67 65.35 28.11 63.3 28.11 60.73 28.47 60.94 28.47 63.09 31.67 64.94"/>
        <polygon class="cls-30" points="31.67 68.88 31.67 69.29 28.11 67.23 28.11 63.62 28.47 63.83 28.47 67.03 31.67 68.88"/>
      </g>
      <g>
        <polygon class="cls-22" points="38.86 66.92 38.86 69.07 35.65 67.22 35.65 65.07 38.86 66.92"/>
        <polygon class="cls-22" points="38.86 69.81 38.86 73.01 35.65 71.16 35.65 67.96 38.86 69.81"/>
        <polygon class="cls-23" points="38.72 69.73 37.9 69.26 35.9 71.3 36.67 71.75 38.72 69.73"/>
        <polygon class="cls-23" points="37.48 69.01 35.65 70.84 35.65 70.12 37.03 68.75 37.48 69.01"/>
        <polygon class="cls-23" points="38.27 66.58 36.86 67.92 36.29 67.59 37.68 66.24 38.27 66.58"/>
        <polygon class="cls-23" points="38.86 66.92 38.86 67.46 37.89 68.52 37.21 68.12 38.55 66.74 38.86 66.92"/>
        <path class="cls-20" d="M35,64.43v7.09l4.17,2.4V66.84ZM38.86,73l-3.21-1.85V68l3.21,1.85Zm0-3.94-3.21-1.85V65.07l3.21,1.85Z"/>
        <polygon class="cls-30" points="38.86 69.07 38.86 69.48 35.3 67.43 35.3 64.86 35.65 65.07 35.65 67.22 38.86 69.07"/>
        <polygon class="cls-30" points="38.86 73.01 38.86 73.42 35.3 71.36 35.3 67.75 35.65 67.96 35.65 71.16 38.86 73.01"/>
      </g>
      <g>
        <polygon class="cls-22" points="14.68 68.67 14.68 70.83 11.48 68.98 11.48 66.83 14.68 68.67"/>
        <polygon class="cls-22" points="14.68 71.56 14.68 74.76 11.48 72.92 11.48 69.72 14.68 71.56"/>
        <polygon class="cls-23" points="14.54 71.48 13.73 71.01 11.72 73.06 12.49 73.5 14.54 71.48"/>
        <polygon class="cls-23" points="13.3 70.77 11.48 72.6 11.48 71.88 12.86 70.51 13.3 70.77"/>
        <polygon class="cls-23" points="14.09 68.33 12.68 69.67 12.11 69.34 13.5 68 14.09 68.33"/>
        <polygon class="cls-23" points="14.68 68.67 14.68 69.22 13.71 70.27 13.03 69.88 14.37 68.5 14.68 68.67"/>
        <path class="cls-20" d="M10.82,66.19v7.08L15,75.68V68.6Zm3.86,8.57-3.2-1.84V69.71l3.2,1.85Zm0-3.93L11.48,69V66.82l3.2,1.85Z"/>
        <polygon class="cls-30" points="14.68 70.83 14.68 71.24 11.12 69.18 11.12 66.62 11.48 66.83 11.48 68.98 14.68 70.83"/>
        <polygon class="cls-30" points="14.68 74.76 14.68 75.17 11.12 73.12 11.12 69.51 11.48 69.72 11.48 72.92 14.68 74.76"/>
      </g>
      <g>
        <polygon class="cls-22" points="21.87 72.81 21.87 74.96 18.66 73.11 18.66 70.96 21.87 72.81"/>
        <polygon class="cls-22" points="21.87 75.7 21.87 78.9 18.66 77.05 18.66 73.85 21.87 75.7"/>
        <polygon class="cls-23" points="21.73 75.62 20.91 75.15 18.91 77.19 19.68 77.63 21.73 75.62"/>
        <polygon class="cls-23" points="20.48 74.9 18.66 76.73 18.66 76.01 20.04 74.64 20.48 74.9"/>
        <polygon class="cls-23" points="21.28 72.47 19.87 73.81 19.3 73.48 20.69 72.13 21.28 72.47"/>
        <polygon class="cls-23" points="21.87 72.81 21.87 73.35 20.9 74.4 20.22 74.01 21.56 72.63 21.87 72.81"/>
        <path class="cls-20" d="M18,70.32v7.09l4.17,2.4V72.73Zm3.87,8.58-3.21-1.85v-3.2l3.21,1.85Zm0-3.94-3.21-1.85V71l3.21,1.85Z"/>
        <polygon class="cls-30" points="21.87 74.96 21.87 75.37 18.31 73.32 18.31 70.75 18.66 70.96 18.66 73.11 21.87 74.96"/>
        <polygon class="cls-30" points="21.87 78.9 21.87 79.31 18.31 77.25 18.31 73.64 18.66 73.85 18.66 77.05 21.87 78.9"/>
      </g>
      <g>
        <polygon class="cls-22" points="31.67 78.48 31.67 80.64 28.47 78.79 28.47 76.63 31.67 78.48"/>
        <polygon class="cls-22" points="31.67 81.37 31.67 84.57 28.47 82.72 28.47 79.52 31.67 81.37"/>
        <polygon class="cls-23" points="31.53 81.29 30.72 80.82 28.71 82.87 29.48 83.31 31.53 81.29"/>
        <polygon class="cls-23" points="30.29 80.58 28.47 82.41 28.47 81.69 29.85 80.32 30.29 80.58"/>
        <polygon class="cls-23" points="31.08 78.14 29.67 79.48 29.11 79.16 30.49 77.81 31.08 78.14"/>
        <polygon class="cls-23" points="31.67 78.48 31.67 79.03 30.7 80.08 30.02 79.69 31.36 78.31 31.67 78.48"/>
        <path class="cls-20" d="M27.81,76v7.08L32,85.49V78.41Zm3.86,8.57-3.2-1.85v-3.2l3.2,1.85Zm0-3.93-3.2-1.85V76.63l3.2,1.85Z"/>
        <polygon class="cls-30" points="31.67 80.64 31.67 81.05 28.11 78.99 28.11 76.43 28.47 76.63 28.47 78.79 31.67 80.64"/>
        <polygon class="cls-30" points="31.67 84.57 31.67 84.98 28.11 82.93 28.11 79.32 28.47 79.52 28.47 82.72 31.67 84.57"/>
      </g>
      <g>
        <polygon class="cls-22" points="38.86 82.62 38.86 84.77 35.65 82.92 35.65 80.77 38.86 82.62"/>
        <polygon class="cls-22" points="38.86 85.51 38.86 88.71 35.65 86.86 35.65 83.66 38.86 85.51"/>
        <polygon class="cls-23" points="38.72 85.42 37.9 84.96 35.9 87 36.67 87.44 38.72 85.42"/>
        <polygon class="cls-23" points="37.48 84.71 35.65 86.54 35.65 85.82 37.03 84.45 37.48 84.71"/>
        <polygon class="cls-23" points="38.27 82.28 36.86 83.62 36.29 83.29 37.68 81.94 38.27 82.28"/>
        <polygon class="cls-23" points="38.86 82.62 38.86 83.16 37.89 84.21 37.21 83.82 38.55 82.44 38.86 82.62"/>
        <path class="cls-20" d="M35,80.13v7.09l4.17,2.4V82.54Zm3.87,8.58-3.21-1.85v-3.2l3.21,1.85Zm0-3.94-3.21-1.85V80.77l3.21,1.85Z"/>
        <polygon class="cls-30" points="38.86 84.77 38.86 85.18 35.3 83.13 35.3 80.56 35.65 80.77 35.65 82.92 38.86 84.77"/>
        <polygon class="cls-30" points="38.86 88.71 38.86 89.12 35.3 87.06 35.3 83.45 35.65 83.66 35.65 86.86 38.86 88.71"/>
      </g>
      <g>
        <polygon class="cls-22" points="48.81 72.68 48.81 74.84 45.61 72.99 45.61 70.83 48.81 72.68"/>
        <polygon class="cls-22" points="48.81 75.57 48.81 78.78 45.61 76.92 45.61 73.72 48.81 75.57"/>
        <polygon class="cls-23" points="48.67 75.49 47.86 75.02 45.86 77.07 46.63 77.51 48.67 75.49"/>
        <polygon class="cls-23" points="47.43 74.78 45.61 76.61 45.61 75.89 46.99 74.52 47.43 74.78"/>
        <polygon class="cls-23" points="48.23 72.34 46.82 73.68 46.25 73.36 47.64 72.01 48.23 72.34"/>
        <polygon class="cls-23" points="48.81 72.68 48.81 73.22 47.85 74.28 47.17 73.89 48.51 72.51 48.81 72.68"/>
        <path class="cls-20" d="M45,70.2v7.08l4.17,2.41V72.61Zm3.86,8.57-3.2-1.84V73.72l3.2,1.85Zm0-3.93L45.61,73V70.84l3.2,1.84Z"/>
        <polygon class="cls-30" points="48.81 74.84 48.81 75.25 45.26 73.19 45.26 70.63 45.61 70.83 45.61 72.99 48.81 74.84"/>
        <polygon class="cls-30" points="48.81 78.78 48.81 79.19 45.26 77.13 45.26 73.52 45.61 73.72 45.61 76.92 48.81 78.78"/>
      </g>
      <g>
        <polygon class="cls-22" points="56 76.82 56 78.97 52.8 77.12 52.8 74.97 56 76.82"/>
        <polygon class="cls-22" points="56 79.71 56 82.91 52.8 81.06 52.8 77.86 56 79.71"/>
        <polygon class="cls-23" points="55.86 79.63 55.05 79.16 53.05 81.2 53.81 81.64 55.86 79.63"/>
        <polygon class="cls-23" points="54.62 78.91 52.8 80.74 52.8 80.02 54.18 78.65 54.62 78.91"/>
        <polygon class="cls-23" points="55.41 76.48 54.01 77.82 53.44 77.49 54.83 76.14 55.41 76.48"/>
        <polygon class="cls-23" points="56 76.82 56 77.36 55.04 78.41 54.35 78.02 55.69 76.64 56 76.82"/>
        <path class="cls-20" d="M52.14,74.33v7.09l4.17,2.4V76.74ZM56,82.91l-3.2-1.85v-3.2L56,79.71ZM56,79l-3.2-1.85V75L56,76.82Z"/>
        <polygon class="cls-30" points="56 78.97 56 79.38 52.44 77.33 52.44 74.76 52.8 74.97 52.8 77.12 56 78.97"/>
        <polygon class="cls-30" points="56 82.91 56 83.32 52.44 81.26 52.44 77.65 52.8 77.86 52.8 81.06 56 82.91"/>
      </g>
      <g>
        <polygon class="cls-22" points="67.41 83.44 67.41 85.59 64.21 83.75 64.21 81.59 67.41 83.44"/>
        <polygon class="cls-22" points="67.41 86.33 67.41 89.53 64.21 87.68 64.21 84.48 67.41 86.33"/>
        <polygon class="cls-23" points="67.28 86.25 66.46 85.78 64.46 87.82 65.23 88.27 67.28 86.25"/>
        <polygon class="cls-23" points="66.03 85.53 64.21 87.37 64.21 86.65 65.59 85.28 66.03 85.53"/>
        <polygon class="cls-23" points="66.83 83.1 65.42 84.44 64.85 84.11 66.24 82.77 66.83 83.1"/>
        <polygon class="cls-23" points="67.41 83.44 67.41 83.98 66.45 85.04 65.77 84.64 67.11 83.26 67.41 83.44"/>
        <path class="cls-20" d="M63.55,81V88l4.17,2.41V83.36Zm3.86,8.57-3.2-1.85v-3.2l3.2,1.85Zm0-3.94-3.2-1.84V81.59l3.2,1.85Z"/>
        <polygon class="cls-30" points="67.41 85.59 67.41 86 63.86 83.95 63.86 81.39 64.21 81.59 64.21 83.75 67.41 85.59"/>
        <polygon class="cls-30" points="67.41 89.53 67.41 89.94 63.86 87.89 63.86 84.28 64.21 84.48 64.21 87.68 67.41 89.53"/>
      </g>
      <g>
        <polygon class="cls-22" points="74.6 87.57 74.6 89.73 71.4 87.88 71.4 85.72 74.6 87.57"/>
        <polygon class="cls-22" points="74.6 90.46 74.6 93.66 71.4 91.81 71.4 88.61 74.6 90.46"/>
        <polygon class="cls-23" points="74.46 90.38 73.65 89.91 71.64 91.96 72.42 92.4 74.46 90.38"/>
        <polygon class="cls-23" points="73.22 89.67 71.4 91.5 71.4 90.78 72.78 89.41 73.22 89.67"/>
        <polygon class="cls-23" points="74.01 87.23 72.61 88.57 72.04 88.24 73.43 86.9 74.01 87.23"/>
        <polygon class="cls-23" points="74.6 87.57 74.6 88.11 73.64 89.17 72.95 88.78 74.29 87.39 74.6 87.57"/>
        <path class="cls-20" d="M70.74,85.09v7.08l4.17,2.41V87.5Zm3.86,8.57-3.2-1.85v-3.2l3.2,1.85Zm0-3.93-3.2-1.85V85.72l3.2,1.85Z"/>
        <polygon class="cls-30" points="74.6 89.73 74.6 90.14 71.04 88.08 71.04 85.52 71.4 85.72 71.4 87.88 74.6 89.73"/>
        <polygon class="cls-30" points="74.6 93.66 74.6 94.07 71.04 92.02 71.04 88.41 71.4 88.61 71.4 91.81 74.6 93.66"/>
      </g>
    </g>
  </g>
</svg>
