<svg xmlns="http://www.w3.org/2000/svg" width="75.53" height="82.79" viewBox="0 0 75.53 82.79">
  <title>Asset 1</title>
  <g id="Layer_2" data-name="Layer 2">
    <g id="sity">
      <g>
        <path d="M38.41,34,8.48,51.3,38.82,68.81l.17.1L68.91,51.62Z" style="fill: #121214;opacity: 0.30000000000000004"/>
        <polygon points="68.19 17.22 68.19 51.66 67.31 52.16 37.49 0.51 38.37 0 68.19 17.22" style="fill: #8a1705"/>
        <polygon points="67.31 17.73 67.31 52.16 37.49 34.95 37.49 0.51 67.31 17.73" style="fill: #cb4154"/>
        <line x1="63.2" y1="44.43" x2="63.2" y2="48.55" style="fill: none;stroke: #d3d3d3;stroke-miterlimit: 10"/>
        <line x1="37.6" y1="24.08" x2="67.14" y2="41.04" style="fill: none;stroke: #d3d3d3;stroke-miterlimit: 10"/>
        <g>
          <polygon points="38.99 68.52 38.99 66.88 67.31 50.53 67.31 52.16 38.99 68.52" style="fill: #4d4d4d"/>
          <polygon points="38.99 68.52 9.16 51.3 9.16 49.66 38.99 66.88 38.99 68.52" style="fill: #4d4d4d"/>
          <polygon points="38.99 66.88 9.16 49.66 37.49 33.31 67.31 50.53 38.99 66.88" style="fill: #949494"/>
        </g>
        <g>
          <polygon points="50.49 53.34 43 57.67 31.16 50.83 38.65 46.51 50.49 53.34" style="opacity: 0.30000000000000004"/>
          <polygon points="50.49 53.3 43 57.63 31.16 50.79 38.65 46.47 50.49 53.3" style="fill: #e6dab0"/>
          <path d="M38.52,47.4l-5.74,3.32,10.34,6,5.75-3.31Zm-4.63,3.32,4.63-2.67,9.23,5.33-4.63,2.67Z" style="fill: #754c29"/>
        </g>
        <g>
          <path d="M32.06,54.21a4.17,4.17,0,0,0,3.77,0,1.15,1.15,0,0,0,0-2.17,4.17,4.17,0,0,0-3.77,0A1.15,1.15,0,0,0,32.06,54.21Z" style="opacity: 0.30000000000000004"/>
          <path d="M31.76,36.16c-.21,0-.38.27-.67.67s-.66.7-.67.91c.09.77.77,2.06.76,2.59a.18.18,0,0,0,.11.21l.45-.41L32.28,37l-.19-.8A1.06,1.06,0,0,0,31.76,36.16Z" style="fill: #f0c6b4"/>
          <path d="M31.46,38c-.12.08-.88-.22-.88-.22S31.28,37.72,31.46,38Z" style="fill: #c7a496"/>
          <path d="M34,46.47c.1.38.56.71.73,1.05.35.7.16,1.33.65,2.79a.64.64,0,0,1-.91.12,9.83,9.83,0,0,0-.56-1.76l-.51-1.74S33.93,46.09,34,46.47Z" style="fill: #c7a496"/>
          <polygon points="35.35 52.62 35.26 52.56 35.2 51.56 35.27 51.46 35.45 51.51 35.35 52.62" style="fill: #bdaf83"/>
          <polygon points="35.55 51.47 35.46 52.55 35.35 52.62 35.34 51.6 35.55 51.47" style="fill: #e31b25"/>
          <path d="M35.18,51.28l-.07,1.61a5.38,5.38,0,0,1-.87.43c-.19,0-.31,0-.31-.2l0-1L35,51.28Z" style="fill: #e31b25"/>
          <path d="M35.59,51s0,.46,0,.5-.26.12-.31.15a1.76,1.76,0,0,0-.1.51,1.26,1.26,0,0,1-.91.39.41.41,0,0,1-.34-.16v-.27l.45-.32.51-.72Z" style="fill: #e31b25"/>
          <path d="M34.14,51.75l-.15,0c-.13,0-.11.3-.11.3s.27.42,1-.08c.16-.11.15-.61.25-.71s.38,0,.44-.33a.9.9,0,0,0-.05-.4,6,6,0,0,0-.63.1C34.62,51.72,34.14,51.75,34.14,51.75Z" style="fill: #e31b25"/>
          <path d="M35.54,50.57a1.74,1.74,0,0,0-.13-.26,4.65,4.65,0,0,0-.91.12,7.11,7.11,0,0,0-.19,1,.38.38,0,0,1-.17.29.39.39,0,0,0,.28.14c.5,0,.4-.78.64-1A2.23,2.23,0,0,1,35.54,50.57Z" style="fill: #c7a496"/>
          <path d="M34.7,43.76c0,1.33-.13,2.79-.13,2.79a2.87,2.87,0,0,0-1.5-.74,25.86,25.86,0,0,1,.07-2.9S34.65,43.39,34.7,43.76Z" style="fill: #9c251f"/>
          <path d="M34.7,43.76c-.2,1.43-.79,2.9-.87,3.57,0,.15.24.48.22.88A9.2,9.2,0,0,0,33.51,51c-.3.45-.83,0-.91,0a8.22,8.22,0,0,0,.18-3.1,2.67,2.67,0,0,1-.18-1c0-.42-.08-3.08-.08-3.08L32.94,42l1.18,0,.46.74S34.61,43.1,34.7,43.76Z" style="fill: #f0c6b4"/>
          <path d="M33.83,42.19a3.17,3.17,0,0,1,.87,1.57,4.34,4.34,0,0,0,0-1.19,1,1,0,0,0-.5-.72A2.43,2.43,0,0,1,33.83,42.19Z" style="fill: #e31b25"/>
          <path d="M33.83,42.19a19.94,19.94,0,0,1-.75,5s-1.23-.32-1.45-1.07c0-.24-1-3.62-.38-4.75C31.24,41.14,33.79,41.81,33.83,42.19Z" style="fill: #e31b25"/>
          <path d="M34.32,36.9a1.79,1.79,0,0,0,.49.59c0,.1,0,1.36,0,1.36l-.3.44-.67-.07-1.5-1.6L32,36.83l0-.73.5-.59,1.34.11Z" style="fill: #f0c6b4"/>
          <path d="M32.51,36.59a1.17,1.17,0,0,0,.78-.18,1.11,1.11,0,0,0,.32-.49l-.29,0-.56.25Z" style="fill: #c7a496"/>
          <path d="M34,41a1.09,1.09,0,0,0,.16.67s-.74,1.71-2.87-.3c.06-.56.07-1,.07-1l.19-.16S33.87,40.83,34,41Z" style="fill: #9c251f"/>
          <path d="M32.39,36.4s1.5,2.51,2,2.57c.25,0,.51-.25.54-.12A12.57,12.57,0,0,1,34,41c-.84,1.11-2.64-.66-2.64-.66v-.84s-.53-.18-.57-.64.59-1.19.77-1.73C31.58,36.94,31.78,36.24,32.39,36.4Z" style="fill: #e31b25"/>
          <path d="M34.46,41.61a3.53,3.53,0,0,0-.89.09.28.28,0,0,0-.13.26s-.5.32-.42.57.85.23,1,.17a7.41,7.41,0,0,0,.74-.51l0-.33Z" style="fill: #f0c6b4"/>
          <path d="M34.12,37.76c.88-.88,1.56.59,1.56.59a16,16,0,0,1,1.81,2.48c0,.54-2.82,1.37-2.82,1.37s-.36-.25-.21-.59a9,9,0,0,0,1.72-1.07L34.61,39S33.58,38.3,34.12,37.76Z" style="fill: #f0c6b4"/>
          <path d="M31.76,34.27c-.1.34,0,1.18-.16,1.7a.21.21,0,0,0,.16-.12,1.82,1.82,0,0,1-.16.88.74.74,0,0,0,.5-.33l.13-1.1-.32-.72S31.9,34.31,31.76,34.27Z" style="fill: #603913"/>
          <path d="M31.76,34.9a7.23,7.23,0,0,0,.17,1.54.37.37,0,0,0,.35.18,1.52,1.52,0,0,0,1-.4l.24-.38.08-1.1-.42-.68L32.36,34l-.55.41A2.76,2.76,0,0,0,31.76,34.9Z" style="fill: #f0c6b4"/>
          <polygon points="33.45 53.23 33.36 53.17 33.3 52.18 33.38 52.07 33.55 52.12 33.45 53.23" style="fill: #bdaf83"/>
          <polygon points="33.65 52.09 33.56 53.16 33.45 53.23 33.45 52.21 33.65 52.09" style="fill: #e31b25"/>
          <path d="M33.28,51.89l-.07,1.61a5.38,5.38,0,0,1-.87.43c-.19,0-.3,0-.3-.2l-.06-1,1.07-.81Z" style="fill: #e31b25"/>
          <path d="M33.69,51.58s0,.46,0,.5-.26.12-.31.15a1.76,1.76,0,0,0-.1.51,1.26,1.26,0,0,1-.91.39A.38.38,0,0,1,32,53V52.7l.45-.32.51-.72Z" style="fill: #e31b25"/>
          <path d="M33.63,51.28a1.52,1.52,0,0,0-.12-.24,4.6,4.6,0,0,0-.91,0,5.66,5.66,0,0,0-.18,1,.51.51,0,0,1-.14.26s.08.3.35.26c.45-.07.53-.85.53-.85Z" style="fill: #f0c6b4"/>
          <path d="M32.28,52.33a.34.34,0,0,1-.19.07c-.13,0-.11.3-.11.3s.28.42,1-.08c.16-.11.15-.61.25-.71s.38,0,.44-.33a.67.67,0,0,0-.06-.3,1.6,1.6,0,0,0-.56.4c-.18.2-.07.62-.32.74A.36.36,0,0,1,32.28,52.33Z" style="fill: #e31b25"/>
          <path d="M32.44,34.47c.13,0,.57,0,.61.36.08.68.26.72.24,1.39a.64.64,0,0,0,.19-.14,1.71,1.71,0,0,1-.08,1.24,1.12,1.12,0,0,0,.91-.44l.19.34A1.81,1.81,0,0,0,34.82,36c-.2-.83-.39-2.29-1-2.41a.87.87,0,0,0-1.16-.24,2,2,0,0,0-.95.93,2.51,2.51,0,0,0,0,.63S31.74,34.05,32.44,34.47Z" style="fill: #603913"/>
          <path d="M33.68,33.66a1.49,1.49,0,0,0-1.08.63A3.37,3.37,0,0,1,33.68,33.66Z" style="fill: #3c2415"/>
          <path d="M32.78,40.32c-.05.13-1.46-.87-1.46-.87S32.83,40.19,32.78,40.32Z" style="fill: #9c251f"/>
          <path d="M31.32,40.29s.14,1.14-.18,1.36c-.14.1-.37-.37-.31-.71s.24-.32.35-.61C31.21,40.24,31.32,40.26,31.32,40.29Z" style="fill: #f0c6b4"/>
        </g>
        <line x1="50.31" y1="25.57" x2="50.31" y2="31.01" style="fill: none;stroke: #d3d3d3;stroke-miterlimit: 10"/>
        <line x1="37.38" y1="29.3" x2="66.91" y2="46.27" style="fill: none;stroke: #d3d3d3;stroke-miterlimit: 10"/>
        <line x1="65.08" y1="39.89" x2="65.08" y2="45.33" style="fill: none;stroke: #d3d3d3;stroke-miterlimit: 10"/>
        <g>
          <path d="M60.39,47,48.75,40.28a2,2,0,0,0-1.8,0l-6.75,3.9c-.5.29-.5.76,0,1l11.63,6.72a2,2,0,0,0,1.8,0L60.39,48C60.89,47.75,60.89,47.28,60.39,47Z" style="opacity: 0.30000000000000004"/>
          <g>
            <path d="M57.22,34.71l-7.28-4.2a2.5,2.5,0,0,0-2.56-.23h0l-1.61.93.43.74.2,0a3.48,3.48,0,0,0-.06.67v3.3a7.94,7.94,0,0,0,3.59,6.22L57.2,46.3a4.55,4.55,0,0,0,.49.25l.37,1,1.77-1a2.55,2.55,0,0,0,1-2.26l0-3.29A8,8,0,0,0,57.22,34.71Z" style="fill: #bdaf83"/>
            <path d="M55.55,35.67l-7.27-4.2c-2-1.14-3.6-.21-3.6,2.08v3.3a8,8,0,0,0,3.6,6.22l7.26,4.19c2,1.15,3.59.22,3.59-2.07V43.07l0-1.17A8,8,0,0,0,55.55,35.67Z" style="fill: #e6dab0"/>
          </g>
          <g>
            <path d="M58.36,41.7a.54.54,0,0,0-.57,0l-3,1.72L48.28,39.6a4.56,4.56,0,0,1-2.05-3.55v-.46a1.74,1.74,0,0,0-.77-1.34.54.54,0,0,0-.54,0h0l-5.37,3.1,1.58,6.23s8.16,5.16,8.34,5.23,3.24,1.86,3.24,1.86l5.36-3.1h0a2.55,2.55,0,0,0,1-2.31V43A1.72,1.72,0,0,0,58.36,41.7Z" style="fill: #bdaf83"/>
            <path d="M53,44.82c-.42-.24-.77,0-.77.45v.46c0,1.3-.92,1.83-2,1.18l-7.26-4.19a4.53,4.53,0,0,1-2-3.55v-.46a1.71,1.71,0,0,0-.77-1.34c-.42-.24-.77,0-.77.45V40a7.94,7.94,0,0,0,3.59,6.22l7.26,4.2c2,1.14,3.59.21,3.59-2.08V46.16A1.69,1.69,0,0,0,53,44.82Z" style="fill: #e6dab0"/>
          </g>
        </g>
        <g>
          <g>
            <path d="M63.06,50.34a4.24,4.24,0,0,0-3.83,0,1.17,1.17,0,0,0,0,2.21,4.24,4.24,0,0,0,3.83,0A1.17,1.17,0,0,0,63.06,50.34Z" style="opacity: 0.30000000000000004"/>
            <path d="M61.17,47.16a3.16,3.16,0,0,0-1.61.5,4.29,4.29,0,0,0-1,2.26,2.62,2.62,0,0,0,5.22,0,3.12,3.12,0,0,0-1.06-2.31A2.38,2.38,0,0,0,61.17,47.16Z" style="fill: #bcbec0"/>
            <path d="M62.46,47.42a2.88,2.88,0,0,0-2.59,0c-.72.42-.72,1.09,0,1.5a2.82,2.82,0,0,0,2.59,0C63.18,48.51,63.18,47.84,62.46,47.42Z" style="fill: #fff"/>
            <path d="M62.07,48a2,2,0,0,0-1.81,0,.86.86,0,0,0-.33.33.86.86,0,0,0,.33.33,2,2,0,0,0,1.81,0,.86.86,0,0,0,.33-.33A.86.86,0,0,0,62.07,48Z" style="fill: #3c2415"/>
            <path d="M62.07,47.56a2,2,0,0,0-1.81,0c-.34.2-.45.47-.33.72a.86.86,0,0,1,.33-.33,2,2,0,0,1,1.81,0,.86.86,0,0,1,.33.33C62.52,48,62.41,47.76,62.07,47.56Z" style="fill: #a7a9ac"/>
          </g>
          <g>
            <g>
              <path d="M55,41c2.72-.71,4,1.14,5.3-1S55.82,39.51,55,41Z" style="fill: #128742"/>
              <path d="M56.05,40.36q-.39.18-.81.42Q55.66,40.54,56.05,40.36Z" style="fill: #0a8074"/>
              <path d="M56.05,40.36c2.24-1,4-.18,4.12-.36S58.57,39.19,56.05,40.36Z" style="fill: #0f7338"/>
            </g>
            <g>
              <path d="M59.64,36.92c.15,1.57-.75,3,1.77,2.84S61.87,37,59.64,36.92Z" style="fill: #128742"/>
              <path d="M60.31,37.22c1.41,1,.83,2.46,1,2.45S62,38.25,60.31,37.22Z" style="fill: #0f7338"/>
              <path d="M60.31,37.22a4,4,0,0,0-.55-.29A5.64,5.64,0,0,1,60.31,37.22Z" style="fill: #0a8074"/>
            </g>
            <g>
              <path d="M62.44,40.86c-1,2.37,1.8-.67,5-1.26C66.46,39.07,63.42,38.5,62.44,40.86Z" style="fill: #128742"/>
              <path d="M62.53,41c-.1.23.91-1.37,4.71-1.44C63.65,39.43,62.62,40.81,62.53,41Z" style="fill: #0f7338"/>
            </g>
            <path d="M61.19,43.42a.33.33,0,0,0-.33.33v5a2,2,0,0,0,.65,0v-5A.32.32,0,0,0,61.19,43.42Z" style="fill: #603913"/>
            <path d="M61.17,39.72c-.74,0-1.33,1-1.33,2.3s.59,2.29,1.33,2.29,1.33-1,1.33-2.29S61.91,39.72,61.17,39.72Z" style="fill: #ff8400"/>
            <g>
              <path d="M61.4,41.8c-2-1.06-1,2.27,0,3.77C62.15,44.93,63.37,42.85,61.4,41.8Z" style="fill: #128742"/>
              <path d="M61.21,41.83c-.2-.11.29,1,.27,3.59C61.88,43.31,61.4,41.93,61.21,41.83Z" style="fill: #0f7338"/>
            </g>
            <g>
              <path d="M61.74,41.34c-2.7,0,1,1.33,2.11,3.92C64.28,44.17,64.44,41.32,61.74,41.34Z" style="fill: #128742"/>
              <path d="M61.56,41.48c-.27,0,1.62.28,2.25,3.58C63.47,41.87,61.82,41.47,61.56,41.48Z" style="fill: #0f7338"/>
            </g>
            <g>
              <path d="M58.21,44.66c1.69-1.88,3.6-1.16,3.49-3.39S58.07,43.17,58.21,44.66Z" style="fill: #128742"/>
              <path d="M58.65,43.73a7.37,7.37,0,0,0-.38.69A7.37,7.37,0,0,1,58.65,43.73Z" style="fill: #0a8074"/>
              <path d="M58.65,43.73c1.2-1.87,2.94-2.16,2.93-2.36S60,41.57,58.65,43.73Z" style="fill: #0f7338"/>
            </g>
            <g>
              <path d="M55.76,38c2.64,1,2.16,3.94,4.85,2.4S57.55,36.9,55.76,38Z" style="fill: #16a851"/>
              <path d="M57,38a6.42,6.42,0,0,0-.91-.06A8.51,8.51,0,0,1,57,38Z" style="fill: #0a8074"/>
              <path d="M57,38c2.53.38,3.24,2.46,3.47,2.33S59.88,38.34,57,38Z" style="fill: #128742"/>
            </g>
            <g>
              <path d="M61,40.93c2,1.32,2.47-2,5.61-2.72C64,36.57,58.68,39,61,40.93Z" style="fill: #16a851"/>
              <path d="M61.11,40.84c.27.16,1.47-3.14,5.36-2.68C62.83,37.47,60.85,40.69,61.11,40.84Z" style="fill: #128742"/>
            </g>
            <g>
              <path d="M61,40.56c-3.89-1.5-5.2,2.14-5.19,4C57.87,41.91,64.22,41.81,61,40.56Z" style="fill: #16a851"/>
              <path d="M56.62,42.91c1.6-2.1,4.45-2.11,4.21-2.25A4.86,4.86,0,0,0,56.62,42.91Z" style="fill: #128742"/>
              <path d="M56.62,42.91a5,5,0,0,0-.81,1.62A6.29,6.29,0,0,1,56.62,42.91Z" style="fill: #0a8074"/>
            </g>
            <g>
              <path d="M61.9,40.8c-2.92,1.68,1.87.83,4.67,3C66.37,42.31,64.81,39.12,61.9,40.8Z" style="fill: #16a851"/>
              <path d="M61.78,41.06c-.29.16,1.93-.69,4.63,2.5C64.08,40.31,62.06,40.89,61.78,41.06Z" style="fill: #128742"/>
            </g>
          </g>
        </g>
        <g>
          <g>
            <path d="M21.19,46.88a3.3,3.3,0,0,0-3,0,.91.91,0,0,0,0,1.73,3.37,3.37,0,0,0,3,0A.92.92,0,0,0,21.19,46.88Z" style="opacity: 0.30000000000000004"/>
            <path d="M18.18,47.53a.76.76,0,0,0,.45.62,2.39,2.39,0,0,0,2.15,0,.77.77,0,0,0,.44-.62l.33-1.86h-3.7Z" style="fill: #939598"/>
            <path d="M21.23,44.58a3.37,3.37,0,0,0-3.06,0,1.19,1.19,0,0,0-.6.67h0v.4a1.08,1.08,0,0,0,.63.88,3.37,3.37,0,0,0,3.06,0,1.09,1.09,0,0,0,.64-.89v-.39h0A1.19,1.19,0,0,0,21.23,44.58Z" style="fill: #bcbec0"/>
            <path d="M21.23,44.36a3.43,3.43,0,0,0-3.06,0,.93.93,0,0,0,0,1.77,3.37,3.37,0,0,0,3.06,0A.93.93,0,0,0,21.23,44.36Z" style="fill: #fff"/>
            <path d="M20.89,44.5a2.63,2.63,0,0,0-2.38,0c-.41.23-.57.56-.47.87a1,1,0,0,1,.47-.5,2.63,2.63,0,0,1,2.38,0,.91.91,0,0,1,.46.5C21.46,45.06,21.3,44.73,20.89,44.5Z" style="fill: #a7a9ac"/>
            <path d="M20.89,44.87a2.63,2.63,0,0,0-2.38,0,1,1,0,0,0-.47.5h0a1,1,0,0,0,.47.51,2.69,2.69,0,0,0,2.38,0,1,1,0,0,0,.46-.51h0A.91.91,0,0,0,20.89,44.87Z" style="fill: #121214"/>
            <path d="M20.56,45.61a.21.21,0,0,0-.19,0,.06.06,0,0,0,0,.11.21.21,0,0,0,.19,0A.06.06,0,0,0,20.56,45.61Z" style="fill: #424242"/>
            <path d="M20.24,44.88a.19.19,0,0,0-.18,0,.06.06,0,0,0,0,.11.19.19,0,0,0,.18,0C20.3,45,20.3,44.91,20.24,44.88Z" style="fill: #424242"/>
            <path d="M19.43,45.46a.19.19,0,0,0-.18,0c-.06,0-.06.07,0,.1a.19.19,0,0,0,.18,0C19.48,45.53,19.48,45.49,19.43,45.46Z" style="fill: #424242"/>
            <path d="M19,45a.19.19,0,0,0-.18,0c-.06,0-.06.08,0,.11a.19.19,0,0,0,.18,0A.06.06,0,0,0,19,45Z" style="fill: #424242"/>
            <path d="M19.72,45.83a.21.21,0,0,0-.19,0c-.05,0-.05.07,0,.1a.21.21,0,0,0,.19,0C19.77,45.9,19.77,45.86,19.72,45.83Z" style="fill: #424242"/>
            <path d="M20.86,45.16a.19.19,0,0,0-.18,0,.06.06,0,0,0,0,.11.19.19,0,0,0,.18,0C20.92,45.24,20.92,45.19,20.86,45.16Z" style="fill: #424242"/>
            <path d="M18.74,45.39a.21.21,0,0,0-.19,0,.06.06,0,0,0,0,.11.21.21,0,0,0,.19,0A.06.06,0,0,0,18.74,45.39Z" style="fill: #424242"/>
          </g>
          <g>
            <g>
              <path d="M13.21,43.56c2.86-.75,4.25,1.19,5.58-1.05S14,42,13.21,43.56Z" style="fill: #128742"/>
              <path d="M14.27,42.92a7.67,7.67,0,0,0-.85.44C13.71,43.19,14,43.05,14.27,42.92Z" style="fill: #0a8074"/>
              <path d="M14.27,42.92c2.36-1,4.23-.2,4.34-.39S16.93,41.68,14.27,42.92Z" style="fill: #0f7338"/>
            </g>
            <g>
              <path d="M18.06,39.29c.15,1.65-.8,3.21,1.87,3S20.41,39.38,18.06,39.29Z" style="fill: #128742"/>
              <path d="M18.76,39.61c1.49,1,.88,2.59,1.11,2.58S20.51,40.69,18.76,39.61Z" style="fill: #0f7338"/>
              <path d="M18.76,39.61a2.89,2.89,0,0,0-.58-.31A4.45,4.45,0,0,1,18.76,39.61Z" style="fill: #0a8074"/>
            </g>
            <g>
              <path d="M21,43.44c-1,2.49,1.9-.7,5.3-1.33C25.24,41.55,22,41,21,43.44Z" style="fill: #128742"/>
              <path d="M21.1,43.63c-.1.24,1-1.44,5-1.52C22.28,41.93,21.2,43.39,21.1,43.63Z" style="fill: #0f7338"/>
            </g>
            <g>
              <path d="M19.9,44.43c-2.09-1.12-1.09,2.4,0,4C20.7,47.74,22,45.54,19.9,44.43Z" style="fill: #128742"/>
              <path d="M19.71,44.46c-.21-.11.31,1,.28,3.79C20.41,46,19.9,44.57,19.71,44.46Z" style="fill: #0f7338"/>
            </g>
            <g>
              <path d="M20.27,44c-2.84,0,1,1.4,2.22,4.13C22.94,46.94,23.12,43.93,20.27,44Z" style="fill: #128742"/>
              <path d="M20.08,44.1c-.28,0,1.7.29,2.37,3.77C22.09,44.5,20.35,44.09,20.08,44.1Z" style="fill: #0f7338"/>
            </g>
            <g>
              <path d="M16.55,47.45c1.78-2,3.8-1.23,3.67-3.57S16.41,45.88,16.55,47.45Z" style="fill: #128742"/>
              <path d="M17,46.46c-.14.23-.27.47-.4.73C16.74,46.93,16.88,46.69,17,46.46Z" style="fill: #0a8074"/>
              <path d="M17,46.46c1.26-2,3.1-2.27,3.09-2.48S18.4,44.19,17,46.46Z" style="fill: #0f7338"/>
            </g>
            <g>
              <path d="M14,40.44c2.78,1.06,2.27,4.15,5.11,2.52S15.85,39.27,14,40.44Z" style="fill: #16a851"/>
              <path d="M15.25,40.42a4.85,4.85,0,0,0-1-.06A7.27,7.27,0,0,1,15.25,40.42Z" style="fill: #0a8074"/>
              <path d="M15.25,40.42c2.67.39,3.42,2.59,3.66,2.45S18.31,40.78,15.25,40.42Z" style="fill: #128742"/>
            </g>
            <g>
              <path d="M19.44,43.52c2.12,1.39,2.6-2.13,5.91-2.87C22.62,38.92,17,41.48,19.44,43.52Z" style="fill: #16a851"/>
              <path d="M19.6,43.42c.29.17,1.56-3.31,5.66-2.82C21.42,39.87,19.33,43.26,19.6,43.42Z" style="fill: #128742"/>
            </g>
            <g>
              <path d="M19.49,43.13C15.39,41.54,14,45.38,14,47.31,16.19,44.55,22.88,44.44,19.49,43.13Z" style="fill: #16a851"/>
              <path d="M14.87,45.61c1.69-2.22,4.69-2.23,4.44-2.38A5.15,5.15,0,0,0,14.87,45.61Z" style="fill: #128742"/>
              <path d="M14.87,45.61a5,5,0,0,0-.85,1.7A6.43,6.43,0,0,1,14.87,45.61Z" style="fill: #0a8074"/>
            </g>
            <g>
              <path d="M20.43,43.38c-3.07,1.77,2,.87,4.93,3.11C25.15,45,23.5,41.6,20.43,43.38Z" style="fill: #16a851"/>
              <path d="M20.31,43.65c-.3.18,2-.72,4.89,2.64C22.74,42.86,20.61,43.48,20.31,43.65Z" style="fill: #128742"/>
            </g>
          </g>
        </g>
        <g>
          <path d="M12.06,70.15c.83.36,3.42-.81,5.78-2.62s3.61-3.55,2.78-3.9-3.41.81-5.78,2.61S11.23,69.8,12.06,70.15Z" style="fill: #121214;opacity: 0.30000000000000004"/>
          <path d="M13,67.66a.65.65,0,0,0-.15.66c.2.89.78.6.78.6l.34-.51.15-.76s-.62-.14-.63-.13Z"/>
          <path d="M13.79,67.55a1.36,1.36,0,0,1-.61.13l-.13.48.34.56a1.82,1.82,0,0,1,.56-.31c.1,0,.06-.57.06-.57S13.84,67.51,13.79,67.55Z" style="fill: #939598"/>
          <path d="M19.09,53.93c.09,2.9-.91,2.21-.91,2.21l.14.22s1,.53,1-2.34C19.27,53.91,19.12,53.84,19.09,53.93Z"/>
          <path d="M18.24,53.38c-.15.2-1.49,1.25-1.49,1.25s-.33,1-.31,1,.5.37.65.29a5.66,5.66,0,0,0,1.84-2.19c.15-.17-.2-.47-.2-.47A2.92,2.92,0,0,0,18.24,53.38Z" style="fill: #c7a496"/>
          <path d="M14.63,55.25c-.55-.06-1.08,1.56.35,1.44,1-.08,1.07-.1,1.64-.17.7-1.09-.32-1.32-.32-1.32A7.88,7.88,0,0,1,14.63,55.25Z" style="fill: #bcbec0"/>
          <path d="M15.15,59.85c-1,1.51.79,3.15.79,3.15s-.1,1.73-.09,3.48c-1.07.15-1.72.82-2.85,1.18,1.13-.19.63,1.26.63,1.26,1-.51,2.84-1.12,3.27-1.42.84-.58,1.4-5.94,1.32-6.55,0,0-.26.27-1.39.24S15.15,59.85,15.15,59.85Z" style="fill: #303033"/>
          <path d="M15.57,55.45c-.11.32.37.52.74.55a4,4,0,0,0,.82,0,.92.92,0,0,1,.17-.78c.12-.19-.59-.25-.59-.25l-.86.06S15.67,55.4,15.57,55.45Z" style="fill: #f0c6b4"/>
          <path d="M19.94,56.75c-.25-.71-.17-1.2-.55-2.33.16-.21.64-.2.64-.2a17.34,17.34,0,0,1,1,2.18,1.89,1.89,0,0,1-.27,1.43,1.35,1.35,0,0,1-.64.15C19.85,58,19.91,57,19.94,56.75Z" style="fill: #f0c6b4"/>
          <path d="M18,53.19c-1.53,2.46-2,1.33-2,1.33v.26s.57,1,2.1-1.41C18.12,53.28,18,53.14,18,53.19Z"/>
          <g>
            <g>
              <path d="M20.43,52.42a.86.86,0,0,0-.4-.68.27.27,0,0,0-.27,0h0l-.85.48,0,.05a.32.32,0,0,0,0,.14.86.86,0,0,0,.39.68.37.37,0,0,0,.16,0l0,0,.84-.48A.29.29,0,0,0,20.43,52.42Z" style="fill: #303033"/>
              <path d="M19.6,52.89c0,.25-.18.35-.4.23a.89.89,0,0,1-.39-.68c0-.25.18-.35.39-.23A.88.88,0,0,1,19.6,52.89Z" style="fill: #121214"/>
            </g>
            <g>
              <path d="M19.52,52.86a.73.73,0,0,0-.33-.58.27.27,0,0,0-.24,0h0l-.37.23,0,0a.36.36,0,0,0,0,.11.76.76,0,0,0,.33.58.25.25,0,0,0,.14,0v0l.37-.22A.25.25,0,0,0,19.52,52.86Z" style="fill: #303033"/>
              <path d="M19.17,53.07c0,.21-.15.3-.34.19a.74.74,0,0,1-.33-.58c0-.21.15-.3.33-.19A.74.74,0,0,1,19.17,53.07Z" style="fill: #535359"/>
              <path d="M18.56,52.73a.56.56,0,0,0,.26.46c.1.06.18.05.23,0a.27.27,0,0,1-.14,0,.59.59,0,0,1-.27-.46.22.22,0,0,1,0-.13C18.61,52.56,18.56,52.62,18.56,52.73Z" style="fill: #121214"/>
              <path d="M18.64,52.68a.59.59,0,0,0,.27.46.27.27,0,0,0,.14,0,.29.29,0,0,0,0-.14.57.57,0,0,0-.27-.46.19.19,0,0,0-.14,0A.22.22,0,0,0,18.64,52.68Z" style="fill: #2b5e85"/>
            </g>
            <polygon points="19.18 54.02 19.55 53.81 19.55 52.87 19.18 53.08 19.18 54.02" style="fill: #303033"/>
            <polygon points="17.82 53.23 19.18 54.02 19.18 53.08 17.82 52.29 17.82 53.23" style="fill: #121214"/>
            <polygon points="18.15 52.61 18.15 53.28 18.91 53.72 18.91 53.69 18.18 53.26 18.18 52.63 18.15 52.61" style="fill: #303033"/>
            <polygon points="18.18 52.63 18.18 53.26 18.91 53.69 18.91 53.05 18.18 52.63" style="fill: #3576ab"/>
            <polygon points="19.18 53.08 19.55 52.87 18.18 52.08 17.82 52.29 19.18 53.08" style="fill: #535359"/>
            <g>
              <polygon points="18.69 52.71 18.88 52.6 18.88 52.41 18.69 52.52 18.69 52.71" style="fill: #303033"/>
              <polygon points="18.39 52.53 18.69 52.71 18.69 52.52 18.39 52.34 18.39 52.53" style="fill: #121214"/>
              <polygon points="18.46 52.42 18.46 52.54 18.65 52.65 18.65 52.61 18.5 52.52 18.5 52.45 18.46 52.42" style="fill: #303033"/>
              <polygon points="18.5 52.45 18.5 52.52 18.65 52.61 18.65 52.53 18.5 52.45" style="fill: #3576ab"/>
              <polygon points="18.69 52.52 18.88 52.41 18.57 52.23 18.39 52.34 18.69 52.52" style="fill: #535359"/>
            </g>
            <g>
              <path d="M19,52.86a.18.18,0,0,0,.16,0s0,0,0,0h0v-.1h0l0,0a.19.19,0,0,0-.15,0l0,0h0v.1S19,52.84,19,52.86Z" style="fill: #121214"/>
              <path d="M19,52.76c-.05,0-.05-.07,0-.09a.14.14,0,0,1,.15,0c.05,0,.05.06,0,.09A.19.19,0,0,1,19,52.76Z" style="fill: #303033"/>
            </g>
            <g>
              <path d="M19.16,52.92a.09.09,0,0,0,.1,0s0,0,0,0h0v-.06h0a.09.09,0,0,0-.1,0h0v.07Z" style="fill: #121214"/>
              <path d="M19.16,52.86s0,0,0-.06h.1s0,.05,0,.06A.09.09,0,0,1,19.16,52.86Z" style="fill: #303033"/>
            </g>
          </g>
          <path d="M19.6,53.08c0-.21.52-.63.64-.53s0,.38-.06.59a3.43,3.43,0,0,1-.48.44l-.23-.44Z" style="fill: #c7a496"/>
          <path d="M19.39,54.42c-.16-.23-.5-.4-.56-.51s0-.74.09-.74.16.45.19.47a4,4,0,0,0,.08-.74s-.32-.23-.24-.32.44.13.49.21a1,1,0,0,1,.06.29c.53.08.5.35.5.35l0,.79-.34.28Z" style="fill: #f0c6b4"/>
          <path d="M18.44,63.92c0,.19-.12.94,0,1s.51,0,1-.46c.25-.27.81-.36.75-.67s-.54-.16-.54-.16Z" style="fill: #f5f5f5"/>
          <path d="M17.07,59.21c.83,0,1.63.1,2.87,0,.24,0,.4.29.43.37.14.33-.61,3-.72,4.1a1.05,1.05,0,0,1-1.29.29c.06-1.2.31-2.91.31-2.91l-2.43,1.23A21.93,21.93,0,0,1,17.07,59.21Z" style="fill: #121214"/>
          <path d="M18.67,61.1s1.45-1,1.46-.82S18.67,61.1,18.67,61.1Z"/>
          <path d="M17.81,53.26a2.75,2.75,0,0,1-.16,1.89,1.55,1.55,0,0,1-.93,0,10.8,10.8,0,0,1,0-1.16s.63-.57.63-.57S17.79,53.21,17.81,53.26Z" style="fill: #f0c6b4"/>
          <path d="M17.13,56.05a4.17,4.17,0,0,0,1.14,1,3.5,3.5,0,0,1,.23,1.47A14,14,0,0,0,18.32,62s-.25-.53-.5-.37-1.3,1.47-2.37,1-.82-1-.86-1.88a26,26,0,0,0-.24-3.37c-.19-1.25.27-1.87.49-1.86a4.8,4.8,0,0,0,.62,0S15.55,56.32,17.13,56.05Z" style="fill: #f5f5f5"/>
          <path d="M15.46,55.51s-.61.62-.07,1c.25.19,1.6.61,2.11-.14a1,1,0,0,1,.56-.29c.15,0,.32.27.32.27a1.15,1.15,0,0,0-.68.43,2.21,2.21,0,0,1-2.44.1A.82.82,0,0,1,15,55.53a1,1,0,0,1,.66-.22C15.64,55.38,15.46,55.51,15.46,55.51Z" style="fill: #303033"/>
          <path d="M16.89,55.31c.37-.31.12-.63.4-.88.11-.06.21-.06.26.13.1-.26,0-.54.23-.74s.13-.59,0-.7c.26-1.06-2.3-.65-2.36.4a4.43,4.43,0,0,0,.36,1.59A1.26,1.26,0,0,0,16.89,55.31Z" style="fill: #603913"/>
          <path d="M17.83,57.1c-.55.08-.73,2,.63,1.5.94-.33,1.44-.3,2-.51.41-1.23-.54-1.43-.54-1.43S18.61,57,17.83,57.1Z" style="fill: #bcbec0"/>
          <path d="M16.6,53.27c0,.13,1.17-.15,1.17-.15S16.56,53.14,16.6,53.27Z" style="fill: #3c2415"/>
          <path d="M15.46,55.51s.19-.14.22-.27c.43.75,1.56.37,1.56.37a3,3,0,0,0,.1.43C16.89,56.18,15.64,56.28,15.46,55.51Z" style="fill: #bcbec0"/>
          <path d="M12.58,67.75a1,1,0,0,1,.6-.07c.41.31.21,1.06.21,1.06a1.31,1.31,0,0,0-.33.57c0,.25.13.22.19.37a.33.33,0,0,1-.07.29.6.6,0,0,1-.37,0l-.33-.19s-.16-.47-.16-.52S12.58,67.75,12.58,67.75Z" style="fill: #f5f5f5"/>
          <path d="M12.65,67.75c-.36-.06-.36.55-.36.55l0,.6s-.23.5-.14.72a1.07,1.07,0,0,0,.74.47.44.44,0,0,0,.33-.12s-.22,0-.29-.1c-.19-.29,0-1.16,0-1.16S13,67.81,12.65,67.75Z" style="fill: #d6c995"/>
        </g>
        <g>
          <path d="M22.7,77.46a1.19,1.19,0,0,1-1.07,0L16.3,74.39a.33.33,0,0,1,0-.62l1.47-.85a1.19,1.19,0,0,1,1.07,0L24.17,76a.33.33,0,0,1,0,.62Z" style="fill: #121214;opacity: 0.30000000000000004"/>
          <path d="M18.13,70.27l-1.45.84a1,1,0,0,0-.45.78v2a.32.32,0,0,0,.13.29L22,77.49l2.09-4-5.64-3.26A.31.31,0,0,0,18.13,70.27Z" style="fill: #1d374e"/>
          <polygon points="17.79 73.96 20.01 75.25 20.01 74.83 17.79 73.55 17.79 73.96" style="fill: #d63a3a"/>
          <polygon points="22.98 73.93 17.38 70.71 17.5 70.64 23.09 73.87 22.98 73.93"/>
          <polygon points="17.75 70.5 17.05 70.9 17.05 70.65 17.75 70.25 17.75 70.5" style="fill: #121214"/>
          <path d="M17.05,70.65c-.6,7.73,5.63,3.25,5.63,3.25l.7-.4s0-.09-.7.26c-2,1-6.34,2.75-4.93-3.51A2.69,2.69,0,0,0,17.05,70.65Z" style="fill: #0f2034"/>
          <polygon points="23.38 73.75 22.68 74.15 22.68 73.9 23.38 73.5 23.38 73.75" style="fill: #121214"/>
          <path d="M23.76,73.52l-1.45.84a1,1,0,0,0-.45.78v2c0,.29.2.4.45.26l1.45-.84a1,1,0,0,0,.44-.77v-2C24.2,73.5,24,73.38,23.76,73.52Z" style="fill: #0f2034"/>
          <path d="M17.48,70.64Z" style="fill: #141414"/>
          <path d="M17.21,70.8Z" style="fill: #141414"/>
        </g>
        <g>
          <g>
            <path d="M10.32,44.48c1.86-1.08,1.86-2.82,0-3.9a7.48,7.48,0,0,0-6.77,0c-1.86,1.08-1.86,2.82,0,3.9A7.48,7.48,0,0,0,10.32,44.48Z" style="fill: #121214;opacity: 0.30000000000000004"/>
            <g>
              <path d="M4.16,44.35a.45.45,0,0,1-.39,0,.14.14,0,0,1-.08-.11v-.18h0l0,0a.45.45,0,0,1,.39,0,.17.17,0,0,1,.06.06h0v.18A.14.14,0,0,1,4.16,44.35Z" style="fill: #303033"/>
              <path d="M4.16,44.18c.11-.07.11-.17,0-.23a.44.44,0,0,0-.39,0c-.11.06-.11.16,0,.23A.44.44,0,0,0,4.16,44.18Z" style="fill: #535359"/>
              <path d="M4,44.1s0-.05,0-.07a.11.11,0,0,0-.13,0s0,0,0,.07A.15.15,0,0,0,4,44.1Z"/>
              <polygon points="6.42 33.5 4.06 44.06 3.87 44.06 5.9 33.46 6.42 33.5"/>
            </g>
            <g>
              <path d="M10.1,44.35a.44.44,0,0,1-.39,0,.14.14,0,0,1-.08-.11v-.18h0l.05,0a.45.45,0,0,1,.39,0s.05,0,.06.06h0v.18A.14.14,0,0,1,10.1,44.35Z" style="fill: #303033"/>
              <path d="M10.1,44.17c.11-.06.11-.16,0-.22a.45.45,0,0,0-.39,0c-.11.06-.11.16,0,.22A.39.39,0,0,0,10.1,44.17Z" style="fill: #535359"/>
              <path d="M10,44.1s0-.05,0-.08a.15.15,0,0,0-.13,0s0,.06,0,.08A.15.15,0,0,0,10,44.1Z"/>
              <polygon points="8.02 33.35 10 44.06 9.81 44.06 7.5 33.39 8.02 33.35"/>
            </g>
            <g>
              <path d="M7.11,40.21a.44.44,0,0,1-.39,0,.14.14,0,0,1-.08-.11v-.17h0a.1.1,0,0,1,0,0,.39.39,0,0,1,.39,0,.1.1,0,0,1,.06,0h0v.18S7.16,40.18,7.11,40.21Z" style="fill: #303033"/>
              <path d="M7.11,40c.11-.06.11-.16,0-.22a.39.39,0,0,0-.39,0c-.11.06-.11.16,0,.22A.44.44,0,0,0,7.11,40Z" style="fill: #535359"/>
              <path d="M7,40s0-.06,0-.08a.15.15,0,0,0-.13,0s0,0,0,.08A.15.15,0,0,0,7,40Z"/>
              <polygon points="7.2 33.97 7.01 39.93 6.83 39.93 6.67 33.97 7.2 33.97"/>
            </g>
            <g>
              <path d="M7.92,34A2.14,2.14,0,0,1,6,34a.69.69,0,0,1-.41-.55v-.3l.14,0A1,1,0,0,1,6,32.87a2.14,2.14,0,0,1,1.94,0,.89.89,0,0,1,.3.27H8.3v.33A.73.73,0,0,1,7.92,34Z" style="fill: #535359"/>
              <path d="M7.91,33.69a.59.59,0,0,0,0-1.12,2.14,2.14,0,0,0-1.94,0,.59.59,0,0,0,0,1.12A2.14,2.14,0,0,0,7.91,33.69Z" style="fill: #303033"/>
            </g>
            <g>
              <path d="M7.16,33.3a.49.49,0,0,1-.44,0,.15.15,0,0,1-.09-.12V26.94h0a.1.1,0,0,1,.06-.05.49.49,0,0,1,.44,0,.17.17,0,0,1,.06.06h0v6.25A.19.19,0,0,1,7.16,33.3Z" style="fill: #121214"/>
              <path d="M7.15,27.06c.13-.07.13-.18,0-.25a.47.47,0,0,0-.43,0,.13.13,0,0,0,0,.25A.47.47,0,0,0,7.15,27.06Z" style="fill: #535359"/>
            </g>
            <g>
              <path d="M7.29,27.21a.78.78,0,0,1-.7,0,.23.23,0,0,1-.15-.2v-.92l0,0A.36.36,0,0,1,6.58,26a.81.81,0,0,1,.71,0,.36.36,0,0,1,.11.1h0V27C7.43,27.1,7.38,27.16,7.29,27.21Z" style="fill: #535359"/>
              <path d="M7.29,26.29c.19-.11.19-.29,0-.41a.81.81,0,0,0-.71,0c-.19.12-.19.3,0,.41A.81.81,0,0,0,7.29,26.29Z" style="fill: #303033"/>
            </g>
            <g>
              <path d="M6.48,25a1,1,0,0,0-.47.8.38.38,0,0,0,.13.31l1.06.61,0-.05a.47.47,0,0,0,.15-.06,1,1,0,0,0,.47-.81.53.53,0,0,0,0-.19l0,0-1.07-.61A.31.31,0,0,0,6.48,25Z" style="fill: #535359"/>
              <path d="M7.53,25.57c.25-.15.46,0,.46.27a1,1,0,0,1-.46.8c-.26.15-.47,0-.47-.27A1,1,0,0,1,7.53,25.57Z" style="fill: #303033"/>
            </g>
          </g>
          <g>
            <path d="M10.09,22.21,6.75,24.14l.44,1.35,4-1.76L11.77,22A2.72,2.72,0,0,0,10.09,22.21Z" style="fill: #303033"/>
            <path d="M5.73,25.21v3.05a10.54,10.54,0,0,0,2.69,4.36V24A2.28,2.28,0,0,0,5.73,25.21Z" style="fill: #121214"/>
            <polygon points="11.77 30.69 8.42 32.62 8.42 23.95 11.77 22.02 11.77 30.69"/>
            <polygon points="11.57 30.55 8.62 32.26 8.62 24.03 11.57 22.33 11.57 30.55" style="fill: #f5f5f5"/>
            <path d="M9.08,23.77v2.56a10.43,10.43,0,0,0,2.49,4.15V22.33Z" style="fill: #f5f5f5"/>
          </g>
        </g>
        <g>
          <g>
            <path d="M23.83,36.67c1.87-1.07,1.87-2.81,0-3.9a7.46,7.46,0,0,0-6.76,0c-1.86,1.07-1.86,2.81,0,3.9A7.46,7.46,0,0,0,23.83,36.67Z" style="fill: #121214;opacity: 0.30000000000000004"/>
            <g>
              <path d="M17.68,36.54a.39.39,0,0,1-.39,0,.14.14,0,0,1-.08-.11v-.17h0l.06,0a.44.44,0,0,1,.39,0s.05,0,.06,0h0v.18A.13.13,0,0,1,17.68,36.54Z" style="fill: #303033"/>
              <path d="M17.68,36.37a.12.12,0,0,0,0-.22.41.41,0,0,0-.39,0c-.11.06-.11.16,0,.22A.44.44,0,0,0,17.68,36.37Z" style="fill: #535359"/>
              <path d="M17.55,36.3a0,0,0,0,0,0-.08.15.15,0,0,0-.13,0,0,0,0,0,0,0,.08A.15.15,0,0,0,17.55,36.3Z"/>
              <polygon points="19.94 25.69 17.57 36.26 17.39 36.26 19.42 25.66 19.94 25.69"/>
            </g>
            <g>
              <path d="M23.62,36.54a.41.41,0,0,1-.39,0,.14.14,0,0,1-.08-.11v-.17h0l.06,0a.41.41,0,0,1,.39,0,.15.15,0,0,1,.06,0h0v.18A.15.15,0,0,1,23.62,36.54Z" style="fill: #303033"/>
              <path d="M23.62,36.37c.11-.06.11-.16,0-.22a.39.39,0,0,0-.39,0c-.11.06-.11.16,0,.22A.44.44,0,0,0,23.62,36.37Z" style="fill: #535359"/>
              <path d="M23.49,36.3a0,0,0,0,0,0-.08.15.15,0,0,0-.13,0,0,0,0,0,0,0,.08A.15.15,0,0,0,23.49,36.3Z"/>
              <polygon points="21.54 25.55 23.51 36.26 23.33 36.26 21.02 25.59 21.54 25.55"/>
            </g>
            <g>
              <path d="M20.63,32.41a.45.45,0,0,1-.39,0,.14.14,0,0,1-.08-.11v-.18h0l0,0a.44.44,0,0,1,.39,0,.17.17,0,0,1,.06.06h0v.18A.18.18,0,0,1,20.63,32.41Z" style="fill: #303033"/>
              <path d="M20.63,32.24c.11-.07.11-.17,0-.23a.44.44,0,0,0-.39,0c-.11.06-.11.16,0,.23A.45.45,0,0,0,20.63,32.24Z" style="fill: #535359"/>
              <path d="M20.5,32.16a0,0,0,0,0,0-.07.15.15,0,0,0-.13,0s0,0,0,.07A.15.15,0,0,0,20.5,32.16Z"/>
              <polygon points="20.71 26.17 20.52 32.12 20.34 32.12 20.19 26.17 20.71 26.17"/>
            </g>
            <g>
              <path d="M21.44,26.18a2.14,2.14,0,0,1-1.94,0,.73.73,0,0,1-.42-.55v-.3l.14,0a1.13,1.13,0,0,1,.26-.21,2.14,2.14,0,0,1,1.94,0,.93.93,0,0,1,.31.27h.09v.34A.69.69,0,0,1,21.44,26.18Z" style="fill: #535359"/>
              <path d="M21.42,25.89a.59.59,0,0,0,0-1.12,2.14,2.14,0,0,0-1.94,0,.59.59,0,0,0,0,1.12A2.14,2.14,0,0,0,21.42,25.89Z" style="fill: #303033"/>
            </g>
            <g>
              <path d="M20.67,25.5a.47.47,0,0,1-.43,0,.2.2,0,0,1-.1-.13V19.13h0l.05,0a.49.49,0,0,1,.44,0,.11.11,0,0,1,.07.06h0v6.24S20.73,25.46,20.67,25.5Z" style="fill: #121214"/>
              <path d="M20.67,19.26a.13.13,0,0,0,0-.25.49.49,0,0,0-.44,0,.13.13,0,0,0,0,.25A.49.49,0,0,0,20.67,19.26Z" style="fill: #535359"/>
            </g>
            <g>
              <path d="M20.81,19.41a.78.78,0,0,1-.7,0,.29.29,0,0,1-.16-.2v-.93H20a.24.24,0,0,1,.09-.08.81.81,0,0,1,.71,0,.36.36,0,0,1,.11.1h0v.94A.26.26,0,0,1,20.81,19.41Z" style="fill: #535359"/>
              <path d="M20.8,18.49a.22.22,0,0,0,0-.41.78.78,0,0,0-.7,0c-.19.11-.19.29,0,.41A.78.78,0,0,0,20.8,18.49Z" style="fill: #303033"/>
            </g>
            <g>
              <path d="M20,17.15a1,1,0,0,0-.47.81.34.34,0,0,0,.13.3l1.05.61.06-.05a.65.65,0,0,0,.15-.05,1,1,0,0,0,.46-.81.36.36,0,0,0,0-.19l0,0-1.06-.62A.34.34,0,0,0,20,17.15Z" style="fill: #535359"/>
              <path d="M21,17.76c.26-.14.47,0,.47.27a1,1,0,0,1-.47.81c-.25.15-.46,0-.46-.27A1,1,0,0,1,21,17.76Z" style="fill: #303033"/>
            </g>
          </g>
          <g>
            <path d="M23.61,14.41l-3.34,1.93.44,1.35,3.95-1.76.63-1.72A2.77,2.77,0,0,0,23.61,14.41Z" style="fill: #303033"/>
            <path d="M19.24,17.4v3.06a10.54,10.54,0,0,0,2.69,4.36V16.15A2.28,2.28,0,0,0,19.24,17.4Z" style="fill: #121214"/>
            <polygon points="25.29 22.89 21.93 24.82 21.93 16.15 25.29 14.21 25.29 22.89"/>
            <polygon points="25.08 22.75 22.13 24.45 22.13 16.23 25.08 14.53 25.08 22.75" style="fill: #f5f5f5"/>
            <path d="M22.59,16v2.56a10.57,10.57,0,0,0,2.49,4.16V14.53Z" style="fill: #f5f5f5"/>
          </g>
        </g>
        <g>
          <g>
            <path d="M58.44,51.93a10.57,10.57,0,0,0-2.7-4.38l-3.36,1.94,2.7,5.14Z" style="fill: #535359"/>
            <path d="M56.05,55.75l-2.28,1.12.4,1.06L57.53,56h0a2.12,2.12,0,0,0,.91-1V51.93Z"/>
            <path d="M55.08,56.93l.12-1.6-.12-1.46a10.7,10.7,0,0,0-2.7-4.38v8.7A2.3,2.3,0,0,0,55.08,56.93Z" style="fill: #303033"/>
            <polygon points="58.44 54.99 55.08 56.93 55.08 53.87 58.44 51.93 58.44 54.99" style="fill: #121214"/>
          </g>
          <g>
            <path d="M60.56,73.49c1.88-1.08,1.88-2.83,0-3.92a7.5,7.5,0,0,0-6.78,0c-1.87,1.08-1.87,2.82,0,3.91A7.5,7.5,0,0,0,60.56,73.49Z" style="fill: #121214;opacity: 0.30000000000000004"/>
            <g>
              <path d="M54.39,73.36a.45.45,0,0,1-.39,0s-.08-.07-.08-.12v-.17h0L54,73a.45.45,0,0,1,.39,0s0,0,.06,0h0v.18A.17.17,0,0,1,54.39,73.36Z" style="fill: #303033"/>
              <path d="M54.39,73.18c.11-.06.11-.16,0-.22A.41.41,0,0,0,54,73c-.11.06-.11.16,0,.22A.39.39,0,0,0,54.39,73.18Z" style="fill: #535359"/>
              <path d="M54.26,73.11s0-.06,0-.08a.15.15,0,0,0-.13,0,0,0,0,0,0,0,.08A.15.15,0,0,0,54.26,73.11Z"/>
              <polygon points="56.66 62.47 54.28 73.07 54.1 73.07 56.13 62.44 56.66 62.47"/>
            </g>
            <g>
              <path d="M60.35,73.35a.39.39,0,0,1-.39,0,.19.19,0,0,1-.09-.11v-.17h0L60,73a.41.41,0,0,1,.39,0l.06,0h0v.18A.13.13,0,0,1,60.35,73.35Z" style="fill: #303033"/>
              <path d="M60.35,73.18a.12.12,0,0,0,0-.22A.39.39,0,0,0,60,73c-.11.06-.11.16,0,.22A.44.44,0,0,0,60.35,73.18Z" style="fill: #535359"/>
              <path d="M60.22,73.11a0,0,0,0,0,0-.08.15.15,0,0,0-.13,0,0,0,0,0,0,0,.08A.15.15,0,0,0,60.22,73.11Z"/>
              <polygon points="58.26 62.33 60.24 73.07 60.06 73.07 57.74 62.37 58.26 62.33"/>
            </g>
            <g>
              <path d="M57.35,69.21a.45.45,0,0,1-.39,0,.14.14,0,0,1-.08-.11v-.18h0l.06,0a.44.44,0,0,1,.39,0,.17.17,0,0,1,.06.06h0v.18A.14.14,0,0,1,57.35,69.21Z" style="fill: #303033"/>
              <path d="M57.35,69c.11-.07.11-.17,0-.23a.45.45,0,0,0-.39,0c-.11.06-.11.16,0,.23A.45.45,0,0,0,57.35,69Z" style="fill: #535359"/>
              <path d="M57.22,69a0,0,0,0,0,0-.07.15.15,0,0,0-.13,0s0,0,0,.07A.15.15,0,0,0,57.22,69Z"/>
              <polygon points="57.44 62.95 57.24 68.92 57.06 68.92 56.91 62.95 57.44 62.95"/>
            </g>
            <g>
              <path d="M58.16,63a2.14,2.14,0,0,1-1.94,0,.71.71,0,0,1-.42-.55v-.3l.14,0a1,1,0,0,1,.26-.21,2.16,2.16,0,0,1,1.95,0,.89.89,0,0,1,.3.27h.09v.34A.73.73,0,0,1,58.16,63Z" style="fill: #535359"/>
              <path d="M58.15,62.67a.6.6,0,0,0,0-1.13,2.16,2.16,0,0,0-1.95,0,.59.59,0,0,0,0,1.12A2.16,2.16,0,0,0,58.15,62.67Z" style="fill: #303033"/>
            </g>
            <g>
              <path d="M57.4,62.28a.49.49,0,0,1-.44,0c-.06,0-.1-.08-.1-.13V55.9h0l.06,0a.49.49,0,0,1,.44,0,.14.14,0,0,1,.07.06h0v6.26A.17.17,0,0,1,57.4,62.28Z" style="fill: #121214"/>
              <path d="M57.39,56a.13.13,0,0,0,0-.25.49.49,0,0,0-.44,0A.13.13,0,0,0,57,56,.49.49,0,0,0,57.39,56Z" style="fill: #535359"/>
            </g>
            <g>
              <path d="M57.53,56.17a.8.8,0,0,1-.71,0,.29.29,0,0,1-.15-.2V55h0a.39.39,0,0,1,.1-.08.8.8,0,0,1,.71,0,.36.36,0,0,1,.11.1h0V56A.26.26,0,0,1,57.53,56.17Z" style="fill: #535359"/>
              <path d="M57.53,55.25c.19-.12.19-.3,0-.41a.8.8,0,0,0-.71,0c-.2.11-.19.29,0,.41A.8.8,0,0,0,57.53,55.25Z" style="fill: #303033"/>
            </g>
            <g>
              <path d="M56.72,53.91a1,1,0,0,0-.47.81.34.34,0,0,0,.13.3l1,.61.06-.05a.53.53,0,0,0,.15,0,1,1,0,0,0,.47-.81.54.54,0,0,0,0-.2l0,0L57,53.87A.31.31,0,0,0,56.72,53.91Z" style="fill: #535359"/>
              <path d="M57.77,54.52c.25-.15.46,0,.46.27a1,1,0,0,1-.47.81c-.25.15-.46,0-.46-.27A1,1,0,0,1,57.77,54.52Z" style="fill: #303033"/>
            </g>
          </g>
        </g>
        <g>
          <g>
            <path d="M72,44.11a10.57,10.57,0,0,0-2.7-4.37l-3.36,1.94,2.7,5.14Z" style="fill: #535359"/>
            <path d="M69.59,47.93,67.3,49.06l.41,1.06,3.36-1.94h0a2.11,2.11,0,0,0,.9-1V44.11Z"/>
            <path d="M68.61,49.12l.13-1.6-.13-1.46a10.57,10.57,0,0,0-2.7-4.38v8.7A2.3,2.3,0,0,0,68.61,49.12Z" style="fill: #303033"/>
            <polygon points="71.97 47.17 68.61 49.12 68.61 46.05 71.97 44.11 71.97 47.17" style="fill: #121214"/>
          </g>
          <g>
            <path d="M74.1,65.67c1.87-1.08,1.87-2.82,0-3.91a7.5,7.5,0,0,0-6.78,0c-1.88,1.08-1.88,2.83,0,3.91A7.49,7.49,0,0,0,74.1,65.67Z" style="fill: #121214;opacity: 0.30000000000000004"/>
            <g>
              <path d="M67.93,65.54a.47.47,0,0,1-.4,0,.14.14,0,0,1-.08-.11v-.17h0a.1.1,0,0,1,0,0,.39.39,0,0,1,.39,0,.1.1,0,0,1,.06.05h0v.18S68,65.51,67.93,65.54Z" style="fill: #303033"/>
              <path d="M67.92,65.37c.11-.06.11-.16,0-.23a.45.45,0,0,0-.39,0c-.11.07-.11.17,0,.23A.44.44,0,0,0,67.92,65.37Z" style="fill: #535359"/>
              <path d="M67.79,65.29s0-.05,0-.07a.15.15,0,0,0-.13,0,0,0,0,0,0,0,.07A.1.1,0,0,0,67.79,65.29Z"/>
              <polygon points="70.19 54.66 67.82 65.26 67.64 65.26 69.67 54.62 70.19 54.66"/>
            </g>
            <g>
              <path d="M73.88,65.54a.44.44,0,0,1-.39,0,.14.14,0,0,1-.08-.11v-.17h0l0,0a.45.45,0,0,1,.39,0,.17.17,0,0,1,.06.06h0v.18S73.93,65.51,73.88,65.54Z" style="fill: #303033"/>
              <path d="M73.88,65.37c.11-.06.11-.16,0-.23a.44.44,0,0,0-.39,0c-.11.07-.11.17,0,.23A.44.44,0,0,0,73.88,65.37Z" style="fill: #535359"/>
              <path d="M73.75,65.29a0,0,0,0,0,0-.07.15.15,0,0,0-.13,0s0,0,0,.07A.15.15,0,0,0,73.75,65.29Z"/>
              <polygon points="71.8 54.52 73.78 65.26 73.59 65.26 71.27 54.55 71.8 54.52"/>
            </g>
            <g>
              <path d="M70.88,61.39a.39.39,0,0,1-.39,0,.14.14,0,0,1-.08-.11v-.17h0l0,0a.44.44,0,0,1,.39,0,.1.1,0,0,1,.06,0h0v.18A.11.11,0,0,1,70.88,61.39Z" style="fill: #303033"/>
              <path d="M70.88,61.22c.11-.06.11-.16,0-.22a.39.39,0,0,0-.39,0c-.11.06-.11.16,0,.22A.44.44,0,0,0,70.88,61.22Z" style="fill: #535359"/>
              <path d="M70.75,61.15a0,0,0,0,0,0-.08.15.15,0,0,0-.13,0,0,0,0,0,0,0,.08A.15.15,0,0,0,70.75,61.15Z"/>
              <polygon points="70.97 55.14 70.78 61.11 70.59 61.11 70.44 55.14 70.97 55.14"/>
            </g>
            <g>
              <path d="M71.69,55.15a2.14,2.14,0,0,1-1.94,0,.75.75,0,0,1-.42-.55v-.31l.14,0a1.43,1.43,0,0,1,.26-.22,2.19,2.19,0,0,1,2,0,.85.85,0,0,1,.31.28h.09v.33A.7.7,0,0,1,71.69,55.15Z" style="fill: #535359"/>
              <path d="M71.68,54.85a.59.59,0,0,0,0-1.12,2.16,2.16,0,0,0-2,0,.59.59,0,0,0,0,1.12A2.16,2.16,0,0,0,71.68,54.85Z" style="fill: #303033"/>
            </g>
            <g>
              <path d="M70.93,54.46a.49.49,0,0,1-.44,0,.15.15,0,0,1-.09-.12V48.08h0s0,0,.06,0a.49.49,0,0,1,.44,0l.07.06h0v6.27A.19.19,0,0,1,70.93,54.46Z" style="fill: #121214"/>
              <path d="M70.93,48.21c.12-.07.12-.18,0-.26a.52.52,0,0,0-.44,0,.14.14,0,0,0,0,.26A.49.49,0,0,0,70.93,48.21Z" style="fill: #535359"/>
            </g>
            <g>
              <path d="M71.06,48.36a.78.78,0,0,1-.7,0c-.1-.06-.15-.13-.15-.2v-.93l.05,0a.35.35,0,0,1,.09-.07.75.75,0,0,1,.71,0,.25.25,0,0,1,.11.09h0v.94A.27.27,0,0,1,71.06,48.36Z" style="fill: #535359"/>
              <path d="M71.06,47.43c.19-.11.19-.29,0-.41a.77.77,0,0,0-.71,0,.21.21,0,0,0,0,.4A.75.75,0,0,0,71.06,47.43Z" style="fill: #303033"/>
            </g>
            <g>
              <path d="M70.25,46.09a1,1,0,0,0-.47.81.35.35,0,0,0,.13.31l1.06.61,0,0a.47.47,0,0,0,.15-.06,1,1,0,0,0,.47-.81.38.38,0,0,0,0-.19l0,0-1.07-.62A.37.37,0,0,0,70.25,46.09Z" style="fill: #535359"/>
              <path d="M71.3,46.71c.26-.15.46,0,.47.27a1,1,0,0,1-.47.8c-.26.15-.47,0-.47-.26A1,1,0,0,1,71.3,46.71Z" style="fill: #303033"/>
            </g>
          </g>
        </g>
        <g>
          <g>
            <path d="M12,54.94,5,51.37a8.38,8.38,0,0,0,5,3.76Z" style="fill: #2d2d33"/>
            <path d="M13.25,53.21S5,51.11,5,51.37A11.1,11.1,0,0,0,12,54.94Z" style="fill: #121214"/>
            <path d="M13.25,50.41l-8.3,1s4.24,2.82,8.3,1.84Z" style="fill: #2d2d33"/>
            <path d="M12,47.27,5,51.37s5.17.83,8.3-1Z" style="fill: #121214"/>
            <path d="M9.94,44.66a13.29,13.29,0,0,0-5,6.71A22.28,22.28,0,0,0,12,47.27Z" style="fill: #2d2d33"/>
            <path d="M4.19,45.17A11.15,11.15,0,0,0,5,51.37l.45-7.93Z" style="fill: #121214"/>
            <path d="M5.4,43.44A13.72,13.72,0,0,0,5,51.37l2.56-8.12Z" style="fill: #2d2d33"/>
            <path d="M7.51,43.25A14.6,14.6,0,0,0,5,51.37a19.2,19.2,0,0,1,5-6.71Z" style="fill: #121214"/>
          </g>
          <g>
            <path d="M1.38,67.88c-1.84-1.06-1.84-2.77,0-3.84A7.33,7.33,0,0,1,8,64c1.84,1.06,1.84,2.77,0,3.84A7.35,7.35,0,0,1,1.38,67.88Z" style="fill: #121214;opacity: 0.30000000000000004"/>
            <g>
              <path d="M7.42,67.75a.44.44,0,0,0,.39,0,.14.14,0,0,0,.08-.11v-.17h0a.1.1,0,0,0-.05,0,.42.42,0,0,0-.38,0,.1.1,0,0,0-.06,0h0v.18A.15.15,0,0,0,7.42,67.75Z" style="fill: #303033"/>
              <path d="M7.43,67.58c-.11-.06-.11-.16,0-.22a.42.42,0,0,1,.38,0c.11.06.11.16,0,.22A.42.42,0,0,1,7.43,67.58Z" style="fill: #535359"/>
              <path d="M7.56,67.5s0,0,0-.07a.13.13,0,0,1,.12,0s0,.06,0,.07A.09.09,0,0,1,7.56,67.5Z"/>
              <polygon points="5.2 57.08 7.53 67.47 7.71 67.47 5.72 57.05 5.2 57.08"/>
            </g>
            <g>
              <path d="M1.59,67.75a.42.42,0,0,0,.38,0,.14.14,0,0,0,.08-.11v-.17H2a.1.1,0,0,0-.05,0,.39.39,0,0,0-.38,0,.1.1,0,0,0-.06,0h0v.18A.14.14,0,0,0,1.59,67.75Z" style="fill: #303033"/>
              <path d="M1.59,67.58c-.11-.06-.11-.16,0-.22a.39.39,0,0,1,.38,0c.11.06.11.16,0,.22A.42.42,0,0,1,1.59,67.58Z" style="fill: #535359"/>
              <path d="M1.72,67.5s0,0,0-.07a.13.13,0,0,1,.12,0s0,0,0,.07A.13.13,0,0,1,1.72,67.5Z"/>
              <polygon points="3.63 56.94 1.69 67.47 1.87 67.47 4.15 56.98 3.63 56.94"/>
            </g>
            <g>
              <path d="M4.52,63.68a.44.44,0,0,0,.39,0A.14.14,0,0,0,5,63.57V63.4H5l0,0a.42.42,0,0,0-.38,0l-.06.06h0v.17S4.48,63.65,4.52,63.68Z" style="fill: #303033"/>
              <path d="M4.53,63.51c-.11-.06-.11-.16,0-.22a.42.42,0,0,1,.38,0c.11.06.11.16,0,.22A.42.42,0,0,1,4.53,63.51Z" style="fill: #535359"/>
              <path d="M4.66,63.44s0,0,0-.07a.13.13,0,0,1,.12,0s0,.05,0,.07A.13.13,0,0,1,4.66,63.44Z"/>
              <polygon points="4.44 57.55 4.63 63.4 4.81 63.4 4.96 57.55 4.44 57.55"/>
            </g>
            <g>
              <path d="M3.73,57.56a2.14,2.14,0,0,0,1.91,0A.73.73,0,0,0,6.05,57v-.3l-.14,0a1.13,1.13,0,0,0-.26-.21,2.14,2.14,0,0,0-1.91,0,1,1,0,0,0-.3.27H3.35v.33A.67.67,0,0,0,3.73,57.56Z" style="fill: #535359"/>
              <path d="M3.75,57.27c-.53-.3-.53-.79,0-1.1a2.12,2.12,0,0,1,1.9,0c.53.31.53.8,0,1.1A2.06,2.06,0,0,1,3.75,57.27Z" style="fill: #303033"/>
            </g>
            <g>
              <path d="M4.48,56.89a.47.47,0,0,0,.43,0A.15.15,0,0,0,5,56.77V52.69H5s0,0-.06,0a.54.54,0,0,0-.43,0l-.06.06h0v4.08A.14.14,0,0,0,4.48,56.89Z" style="fill: #121214"/>
              <path d="M4.48,52.82a.14.14,0,0,1,0-.25.47.47,0,0,1,.43,0,.13.13,0,0,1,0,.25A.54.54,0,0,1,4.48,52.82Z" style="fill: #535359"/>
            </g>
            <g>
              <path d="M4.35,53A.76.76,0,0,0,5,53a.25.25,0,0,0,.15-.19v-.91l-.05,0L5,51.76a.76.76,0,0,0-.69,0,.36.36,0,0,0-.11.1h0v.92A.24.24,0,0,0,4.35,53Z" style="fill: #535359"/>
              <path d="M4.35,52.06a.21.21,0,0,1,0-.4.76.76,0,0,1,.69,0c.2.11.2.29,0,.4A.76.76,0,0,1,4.35,52.06Z" style="fill: #303033"/>
            </g>
            <g>
              <path d="M5.15,50.74a1,1,0,0,1,.45.8.34.34,0,0,1-.12.3l-1,.59-.05,0-.15-.06a1,1,0,0,1-.46-.79.49.49,0,0,1,0-.19l0,0,1-.61A.37.37,0,0,1,5.15,50.74Z" style="fill: #535359"/>
              <path d="M4.12,51.34a.28.28,0,0,0-.46.27,1,1,0,0,0,.46.79c.25.15.46,0,.46-.26A1,1,0,0,0,4.12,51.34Z" style="fill: #303033"/>
            </g>
          </g>
        </g>
        <g>
          <path d="M63.05,80h0a1.4,1.4,0,0,1-.66-.16l-2.67-1.54a.65.65,0,0,1-.35-.54.63.63,0,0,1,.35-.53l11.47-6.62a1.46,1.46,0,0,1,1.32,0l2.67,1.54a.58.58,0,0,1,0,1.07L63.71,79.8A1.37,1.37,0,0,1,63.05,80Z" style="fill: #121214;opacity: 0.30000000000000004"/>
          <path d="M59.85,78l2.68,1.54a1.14,1.14,0,0,0,1,0L75.05,73a.32.32,0,0,0,0-.61L72.37,70.8a1.14,1.14,0,0,0-1.05,0L59.85,77.42A.32.32,0,0,0,59.85,78Z" style="fill: #121214"/>
          <polygon points="59.64 75.94 75.26 70.86 75.26 72.64 59.64 77.72 59.64 75.94" style="fill: #121214"/>
          <path d="M59.85,76.24l2.68,1.55a1.21,1.21,0,0,0,1,0l11.47-6.62a.32.32,0,0,0,0-.61L72.37,69a1.21,1.21,0,0,0-1.05,0L59.85,75.63A.32.32,0,0,0,59.85,76.24Z" style="fill: #303033"/>
          <polygon points="73.85 69.86 61.33 77.09 61.13 76.98 73.64 69.75 73.85 69.86"/>
          <polygon points="73.38 69.6 74.15 70.04 74.15 69.77 73.38 69.32 73.38 69.6"/>
          <path d="M74.15,69.77C75.09,79.69,61.63,77,61.63,77l-.78-.44s0-.24.67,0c2.2.65,13.55,1.78,11.85-7.18A3,3,0,0,1,74.15,69.77Z"/>
          <polygon points="60.85 76.82 61.63 77.27 61.63 76.99 60.85 76.55 60.85 76.82"/>
        </g>
        <g>
          <g>
            <path d="M44.91,57.55a14.42,14.42,0,0,1-4.6,7.25s4.48-1.18,6.29-4.8Z" style="fill: #121214"/>
            <path d="M38.62,66.68a24.1,24.1,0,0,0,1.69-1.88A7.56,7.56,0,0,0,42,66.68Z" style="fill: #121214"/>
            <path d="M35.7,65.27a10.44,10.44,0,0,0,4.61-.47,3.57,3.57,0,0,1-1.69,1.88Z" style="fill: #2d2d33"/>
            <path d="M34,62.82a13.42,13.42,0,0,0,6.29,2,6.44,6.44,0,0,1-4.61.47Z" style="fill: #121214"/>
            <path d="M34,60c1.87,3,6.29,4.8,6.29,4.8a9.5,9.5,0,0,1-6.29-2Z" style="fill: #2d2d33"/>
            <path d="M35.7,57.55a14.4,14.4,0,0,0,4.61,7.25S35.83,63.62,34,60Z" style="fill: #121214"/>
            <path d="M44.91,65.27a10.39,10.39,0,0,1-4.6-.47A3.58,3.58,0,0,0,42,66.68Z" style="fill: #2d2d33"/>
            <path d="M46.6,62.82a13.42,13.42,0,0,1-6.29,2,6.42,6.42,0,0,0,4.6.47Z" style="fill: #121214"/>
            <path d="M46.6,60c-1.87,3-6.29,4.8-6.29,4.8a9.51,9.51,0,0,0,6.29-2Z" style="fill: #2d2d33"/>
            <path d="M38.62,56.14a12.9,12.9,0,0,0,1.69,8.66C42.92,61.07,42,56.14,42,56.14Z" style="fill: #121214"/>
            <path d="M38.62,56.14a23.54,23.54,0,0,0,1.69,8.66,11.92,11.92,0,0,1-4.61-7.25Z" style="fill: #2d2d33"/>
            <path d="M42,56.14a23.41,23.41,0,0,1-1.68,8.66,11.88,11.88,0,0,0,4.6-7.25Z" style="fill: #2d2d33"/>
            <path d="M41,64.8a.71.71,0,1,1-.69-.58A.64.64,0,0,1,41,64.8Z" style="fill: #121214"/>
          </g>
          <g>
            <path d="M43.7,82c1.87-1.08,1.87-2.82,0-3.91a7.5,7.5,0,0,0-6.78,0c-1.87,1.08-1.87,2.83,0,3.92A7.49,7.49,0,0,0,43.7,82Z" style="fill: #121214;opacity: 0.30000000000000004"/>
            <g>
              <path d="M37.53,81.84a.39.39,0,0,1-.39,0c-.06,0-.09-.07-.09-.11v-.17h0a.1.1,0,0,1,.05,0,.44.44,0,0,1,.39,0,.18.18,0,0,1,.07,0h0v.18A.12.12,0,0,1,37.53,81.84Z" style="fill: #303033"/>
              <path d="M37.52,81.67c.11-.06.11-.16,0-.22a.39.39,0,0,0-.39,0c-.11.06-.11.16,0,.22A.44.44,0,0,0,37.52,81.67Z" style="fill: #535359"/>
              <path d="M37.39,81.6a0,0,0,0,0,0-.08.15.15,0,0,0-.13,0,0,0,0,0,0,0,.08A.15.15,0,0,0,37.39,81.6Z"/>
              <polygon points="39.79 70.96 37.42 81.56 37.24 81.56 39.27 70.92 39.79 70.96"/>
            </g>
            <g>
              <path d="M43.48,81.84a.41.41,0,0,1-.39,0,.14.14,0,0,1-.08-.11v-.17h0a.1.1,0,0,1,.05,0,.39.39,0,0,1,.39,0,.1.1,0,0,1,.06,0h0v.18S43.53,81.81,43.48,81.84Z" style="fill: #303033"/>
              <path d="M43.48,81.67c.11-.06.11-.16,0-.22a.39.39,0,0,0-.39,0c-.11.06-.11.16,0,.22A.45.45,0,0,0,43.48,81.67Z" style="fill: #535359"/>
              <path d="M43.35,81.6s0-.06,0-.08a.15.15,0,0,0-.13,0s0,0,0,.08A.15.15,0,0,0,43.35,81.6Z"/>
              <polygon points="41.4 70.82 43.38 81.56 43.19 81.56 40.87 70.85 41.4 70.82"/>
            </g>
            <g>
              <path d="M40.49,77.7a.44.44,0,0,1-.39,0,.15.15,0,0,1-.09-.11v-.18h0l.05,0a.45.45,0,0,1,.39,0s.05,0,.06,0h0v.19A.13.13,0,0,1,40.49,77.7Z" style="fill: #303033"/>
              <path d="M40.48,77.52c.11-.06.11-.16,0-.22a.45.45,0,0,0-.39,0c-.11.06-.11.16,0,.22A.39.39,0,0,0,40.48,77.52Z" style="fill: #535359"/>
              <path d="M40.35,77.45a0,0,0,0,0,0-.08.15.15,0,0,0-.13,0,0,0,0,0,0,0,.08A.15.15,0,0,0,40.35,77.45Z"/>
              <polygon points="40.57 71.44 40.38 77.41 40.2 77.41 40.05 71.44 40.57 71.44"/>
            </g>
            <g>
              <path d="M41.29,71.45a2.14,2.14,0,0,1-1.94,0,.73.73,0,0,1-.42-.55v-.31l.14,0a1,1,0,0,1,.27-.21,2.14,2.14,0,0,1,1.94,0,.93.93,0,0,1,.31.27h.09V71A.68.68,0,0,1,41.29,71.45Z" style="fill: #535359"/>
              <path d="M41.28,71.15a.59.59,0,0,0,0-1.12,2.17,2.17,0,0,0-1.94,0,.59.59,0,0,0,0,1.12A2.11,2.11,0,0,0,41.28,71.15Z" style="fill: #303033"/>
            </g>
            <g>
              <path d="M40.53,70.76a.49.49,0,0,1-.44,0,.14.14,0,0,1-.09-.12v-4.2h0s0,0,.06-.05a.49.49,0,0,1,.44,0l.07.06h0v4.21A.19.19,0,0,1,40.53,70.76Z" style="fill: #121214"/>
              <path d="M40.53,66.57a.14.14,0,0,0,0-.26.49.49,0,0,0-.44,0,.14.14,0,0,0,0,.26A.49.49,0,0,0,40.53,66.57Z" style="fill: #535359"/>
            </g>
            <g>
              <path d="M40.67,66.71a.75.75,0,0,1-.71,0,.23.23,0,0,1-.15-.19v-.93l0,0a.36.36,0,0,1,.09-.08.8.8,0,0,1,.71,0,.27.27,0,0,1,.11.1h0v.94A.27.27,0,0,1,40.67,66.71Z" style="fill: #535359"/>
              <path d="M40.66,65.79c.2-.11.2-.29,0-.41a.8.8,0,0,0-.71,0c-.19.12-.19.3,0,.41A.8.8,0,0,0,40.66,65.79Z" style="fill: #303033"/>
            </g>
            <g>
              <path d="M40.31,64.14a.63.63,0,0,0-.68.57v1H41v-1A.63.63,0,0,0,40.31,64.14Z" style="fill: #535359"/>
              <path d="M41,65.69a.69.69,0,1,1-.68-.57A.64.64,0,0,1,41,65.69Z" style="fill: #303033"/>
            </g>
          </g>
        </g>
        <g>
          <path d="M25.16,66.51a.1.1,0,0,1-.09-.07.08.08,0,0,1,.07-.1L27,66a.09.09,0,0,1,0,.17l-1.9.38Z" style="fill: #121214"/>
          <path d="M32.58,76,29.3,74.08c.49-.45.39-1.06-.29-1.45a3.16,3.16,0,0,0-2.51-.16l-3.24-1.88-.53.3L26,72.75c-.6.46-.54,1.12.18,1.54a3.26,3.26,0,0,0,2.65.1l3.26,1.88Z" style="fill: #121214;opacity: 0.30000000000000004"/>
          <g>
            <path d="M26.45,74.22a.15.15,0,0,1-.16,0l0,0V74.1h0l0,0a.2.2,0,0,1,.15,0l0,0h0v.07A.05.05,0,0,1,26.45,74.22Z" style="fill: #303033"/>
            <path d="M26.44,74.15s0-.07,0-.09a.14.14,0,0,0-.15,0c-.05,0-.05.07,0,.09A.14.14,0,0,0,26.44,74.15Z" style="fill: #535359"/>
            <path d="M26.39,74.12s0,0,0,0a0,0,0,0,0-.05,0s0,0,0,0Z" style="fill: #bcbec0"/>
            <polygon points="27.43 67.24 26.4 74.11 26.33 74.11 27.22 67.22 27.43 67.24" style="fill: #bcbec0"/>
          </g>
          <g>
            <path d="M28.87,74.22a.15.15,0,0,1-.16,0,.05.05,0,0,1,0,0V74.1h0l0,0a.22.22,0,0,1,.16,0s0,0,0,0h0v.07A.05.05,0,0,1,28.87,74.22Z" style="fill: #303033"/>
            <path d="M28.87,74.15s0-.07,0-.09a.15.15,0,0,0-.16,0c-.05,0-.05.06,0,.09A.15.15,0,0,0,28.87,74.15Z" style="fill: #535359"/>
            <path d="M28.81,74.12s0,0,0,0a0,0,0,0,0,0,0,0,0,0,0,0,0,0Z" style="fill: #bcbec0"/>
            <polygon points="28.02 67.19 28.82 74.1 28.75 74.1 27.81 67.2 28.02 67.19" style="fill: #bcbec0"/>
          </g>
          <g>
            <path d="M27.65,72.53a.15.15,0,0,1-.16,0,.05.05,0,0,1,0,0v-.07h0a.15.15,0,0,1,.16,0,0,0,0,0,1,0,0h0v.07S27.67,72.52,27.65,72.53Z" style="fill: #303033"/>
            <path d="M27.65,72.46s0-.06,0-.09a.22.22,0,0,0-.16,0s0,.07,0,.09A.15.15,0,0,0,27.65,72.46Z" style="fill: #535359"/>
            <path d="M27.59,72.43s0,0,0,0a0,0,0,0,0-.05,0,0,0,0,0,0,0,0Z" style="fill: #bcbec0"/>
            <polygon points="27.68 66.39 27.61 72.42 27.53 72.42 27.47 66.39 27.68 66.39" style="fill: #bcbec0"/>
          </g>
          <g>
            <path d="M28.16,67.52a1.29,1.29,0,0,1-1.15,0,.4.4,0,0,1-.24-.33h0V67h.08a.52.52,0,0,1,.16-.12,1.26,1.26,0,0,1,1.15,0,.53.53,0,0,1,.19.17h.05v.21A.43.43,0,0,1,28.16,67.52Z" style="fill: #939598"/>
            <path d="M28.15,67.33c.32-.18.32-.48,0-.67a1.26,1.26,0,0,0-1.15,0,.35.35,0,0,0,0,.66A1.26,1.26,0,0,0,28.15,67.33Z" style="fill: #bcbec0"/>
            <path d="M27.94,67.24c.2-.12.2-.3,0-.42a.79.79,0,0,0-.73,0c-.2.11-.2.3,0,.42A.79.79,0,0,0,27.94,67.24Z" style="fill: #121214;opacity: 0.30000000000000004"/>
          </g>
          <g>
            <path d="M27.91,67.2a.76.76,0,0,1-.66,0c-.09-.06-.14-.12-.14-.19v-.87l.05,0a.35.35,0,0,1,.09-.07.76.76,0,0,1,.66,0,.3.3,0,0,1,.1.09h0V67C28,67.09,28,67.15,27.91,67.2Z" style="fill: #535359"/>
            <path d="M27.91,66.33c.18-.11.18-.28,0-.38a.7.7,0,0,0-.66,0c-.19.1-.19.27,0,.38A.7.7,0,0,0,27.91,66.33Z" style="fill: #303033"/>
          </g>
          <g>
            <path d="M28.05,66.45a1,1,0,0,1-.93,0c-.13-.08-.2-.17-.2-.27v-.69l.07,0a.4.4,0,0,1,.12-.1,1,1,0,0,1,.93,0,.32.32,0,0,1,.15.13h0v.71A.36.36,0,0,1,28.05,66.45Z" style="fill: #6d6e71"/>
            <path d="M28,65.76a.28.28,0,0,0,0-.54,1,1,0,0,0-.93,0,.29.29,0,0,0,0,.54A1,1,0,0,0,28,65.76Z" style="fill: #a7a9ac"/>
          </g>
          <g>
            <path d="M28.16,65.86a1.29,1.29,0,0,1-1.15,0,.4.4,0,0,1-.24-.33h0v-.22h.08a.42.42,0,0,1,.16-.13,1.23,1.23,0,0,1,1.15,0,.44.44,0,0,1,.19.16h.05v.21A.41.41,0,0,1,28.16,65.86Z" style="fill: #939598"/>
            <path d="M28.15,65.67a.35.35,0,0,0,0-.66A1.23,1.23,0,0,0,27,65a.35.35,0,0,0,0,.66A1.23,1.23,0,0,0,28.15,65.67Z" style="fill: #bcbec0"/>
          </g>
          <g>
            <g>
              <polygon points="32.58 67.92 32.05 68.22 22.73 62.59 23.26 62.29 32.58 67.67 32.58 67.92" style="fill: #535359"/>
              <polygon points="32.27 67.84 22.95 62.46 23.05 62.4 32.37 67.79 32.27 67.84" style="fill: #121214"/>
              <polygon points="32.05 68.22 22.73 62.84 22.73 62.59 32.05 67.97 32.05 68.22" style="fill: #121214"/>
            </g>
            <g>
              <path d="M30.94,67.05a.49.49,0,0,1-.47,0,.18.18,0,0,1-.1-.13v-.61h0a.1.1,0,0,1,.06,0,.53.53,0,0,1,.46,0,.28.28,0,0,1,.08.06h0v.62A.15.15,0,0,1,30.94,67.05Z" style="fill: #303033"/>
              <path d="M30.93,66.45c.13-.08.13-.2,0-.27a.47.47,0,0,0-.46,0c-.13.07-.13.19,0,.27A.53.53,0,0,0,30.93,66.45Z" style="fill: #535359"/>
            </g>
            <g>
              <polygon points="30.72 66.29 30.27 66.04 30.71 65.79 31.15 66.04 30.72 66.29" style="fill: #535359"/>
              <polygon points="31.15 65.9 31.15 66.04 30.72 66.29 30.72 66.15 30.63 66.2 30.63 66.49 31.24 66.14 31.24 65.85 31.15 65.9" style="fill: #121214"/>
              <polygon points="30.63 66.49 30.18 66.24 30.18 65.95 30.63 66.2 30.63 66.49" style="fill: #303033"/>
              <polygon points="31.15 66.04 30.71 65.79 30.71 65.64 31.15 65.9 31.15 66.04" style="fill: #303033"/>
              <polygon points="30.63 66.2 30.18 65.95 30.27 65.9 30.72 66.15 30.63 66.2" style="fill: #535359"/>
              <polygon points="31.15 65.9 30.71 65.64 30.8 65.59 31.24 65.85 31.15 65.9" style="fill: #535359"/>
            </g>
          </g>
          <path d="M25.32,66.42a.16.16,0,0,1-.16.17.16.16,0,0,1-.17-.17.16.16,0,0,1,.17-.16A.16.16,0,0,1,25.32,66.42Z" style="fill: #121214"/>
        </g>
        <line x1="37.6" y1="7.03" x2="67.14" y2="24" style="fill: none;stroke: #d3d3d3;stroke-miterlimit: 10"/>
        <line x1="37.6" y1="12.94" x2="67.14" y2="29.91" style="fill: none;stroke: #d3d3d3;stroke-miterlimit: 10"/>
        <line x1="37.6" y1="18.39" x2="67.14" y2="35.36" style="fill: none;stroke: #d3d3d3;stroke-miterlimit: 10"/>
        <line x1="47.13" y1="6.2" x2="47.14" y2="12.51" style="fill: none;stroke: #d3d3d3;stroke-miterlimit: 10"/>
        <line x1="58.03" y1="12.37" x2="58.05" y2="18.78" style="fill: none;stroke: #d3d3d3;stroke-miterlimit: 10"/>
        <line x1="42.35" y1="9.89" x2="42.37" y2="15.92" style="fill: none;stroke: #d3d3d3;stroke-miterlimit: 10"/>
        <line x1="51.44" y1="14.98" x2="51.46" y2="21.02" style="fill: none;stroke: #d3d3d3;stroke-miterlimit: 10"/>
        <line x1="61.95" y1="21.03" x2="61.97" y2="27.06" style="fill: none;stroke: #d3d3d3;stroke-miterlimit: 10"/>
        <line x1="39.85" y1="14.21" x2="39.85" y2="19.65" style="fill: none;stroke: #d3d3d3;stroke-miterlimit: 10"/>
        <line x1="48.04" y1="18.98" x2="48.04" y2="24.42" style="fill: none;stroke: #d3d3d3;stroke-miterlimit: 10"/>
        <line x1="56.22" y1="23.75" x2="56.22" y2="29.19" style="fill: none;stroke: #d3d3d3;stroke-miterlimit: 10"/>
        <line x1="65.08" y1="28.75" x2="65.08" y2="34.2" style="fill: none;stroke: #d3d3d3;stroke-miterlimit: 10"/>
        <line x1="42.13" y1="21.25" x2="42.13" y2="26.69" style="fill: none;stroke: #d3d3d3;stroke-miterlimit: 10"/>
        <line x1="59.17" y1="31.03" x2="59.17" y2="36.47" style="fill: none;stroke: #d3d3d3;stroke-miterlimit: 10"/>
        <line x1="39.85" y1="25.34" x2="39.85" y2="30.79" style="fill: none;stroke: #d3d3d3;stroke-miterlimit: 10"/>
        <line x1="41.15" y1="31.47" x2="41.15" y2="35.59" style="fill: none;stroke: #d3d3d3;stroke-miterlimit: 10"/>
      </g>
    </g>
  </g>
</svg>
