<svg xmlns="http://www.w3.org/2000/svg" viewBox="0 0 173.08 139.65">
  <defs>
    <style>
      .cls-1 {
        fill: #ecfaf6;
      }

      .cls-2 {
        fill: #a2b6b0;
      }

      .cls-3 {
        fill: #bbd9d1;
      }

      .cls-4 {
        fill: #cdddd8;
      }

      .cls-5 {
        fill: #ecfbf7;
      }

      .cls-6 {
        fill: #a7ccc2;
      }

      .cls-7 {
        fill: #b6c8c3;
      }

      .cls-8 {
        fill: #deeeea;
      }

      .cls-9 {
        fill: #b5cac4;
      }

      .cls-10 {
        fill: #cfe0db;
      }
    </style>
  </defs>
  <title>Map</title>
  <g id="sity">
    <g>
      <g>
        <polygon class="cls-1" points="88 74.28 38.08 45.47 38.08 14.66 88 43.48 88 74.28"/>
        <polygon class="cls-2" points="38.53 18 38.53 43.48 87.55 71.78 87.55 46.3 44.81 21.62 42.26 20.15 41.29 19.59 39.49 18.55 38.53 18"/>
        <polygon class="cls-3" points="38.53 21.25 38.53 27.12 87.55 55.42 87.55 49.56 38.53 21.25"/>
        <polygon class="cls-3" points="38.53 31.49 38.53 37.35 87.55 65.66 87.55 59.79 38.53 31.49"/>
        <polygon class="cls-4" points="88 74.28 105.92 63.9 105.92 33.1 88 43.48 88 74.28"/>
        <polygon class="cls-5" points="38.08 14.66 88 43.48 105.92 33.09 104.26 32.13 96.25 27.51 56.01 4.27 38.08 14.66"/>
        <polygon class="cls-5" points="88.83 46.47 88.83 54.27 102.78 46.29 102.78 38.51 102.53 38.65 88.83 46.47"/>
        <polygon class="cls-5" points="88.83 56.74 88.83 64.08 102.78 56.11 102.78 48.77 102.53 48.91 88.83 56.74"/>
        <polygon class="cls-6" points="88.83 46.47 88.83 53.82 102.53 46 102.53 38.65 88.83 46.47"/>
        <polygon class="cls-6" points="88.83 56.74 88.83 63.64 102.53 55.81 102.53 48.91 88.83 56.74"/>
        <g>
          <polygon class="cls-7" points="78.81 41.23 79.33 41.53 79.33 66.48 78.81 66.82 78.81 41.23"/>
          <polygon class="cls-7" points="70.8 36.59 71.31 36.89 71.31 61.84 70.8 62.18 70.8 36.59"/>
          <polygon class="cls-7" points="62.77 31.95 63.29 32.25 63.29 57.2 62.77 57.54 62.77 31.95"/>
          <polygon class="cls-7" points="54.76 27.31 55.27 27.61 55.27 52.56 54.76 52.9 54.76 27.31"/>
          <polygon class="cls-7" points="46.74 22.67 47.25 22.97 47.25 47.92 46.74 48.27 46.74 22.67"/>
        </g>
        <g>
          <polygon class="cls-1" points="78 40.34 78.81 40.81 78.81 66.82 78 66.35 78 40.34"/>
          <polygon class="cls-1" points="69.98 35.7 70.8 36.17 70.8 62.18 69.98 61.71 69.98 35.7"/>
          <polygon class="cls-1" points="61.96 31.06 62.77 31.54 62.77 57.54 61.96 57.07 61.96 31.06"/>
          <polygon class="cls-1" points="53.94 26.42 54.76 26.9 54.76 52.9 53.94 52.43 53.94 26.42"/>
          <polygon class="cls-1" points="45.92 21.78 46.74 22.26 46.74 48.27 45.92 47.79 45.92 21.78"/>
        </g>
      </g>
      <polygon class="cls-8" points="102.4 33.01 56.12 6.29 41.6 14.74 87.89 41.46 102.4 33.01"/>
      <polygon class="cls-9" points="56.12 9.99 44.81 16.59 41.6 14.74 56.12 6.29 102.4 33.01 99.2 34.86 56.12 9.99"/>
      <polygon class="cls-10" points="56.12 9.99 44.81 16.59 41.6 14.74 56.12 6.29 56.12 9.99"/>
    </g>
    <g>
      <g>
        <polygon class="cls-1" points="150.11 113.42 100.2 84.6 100.2 53.79 150.11 82.61 150.11 113.42"/>
        <polygon class="cls-2" points="100.65 57.13 100.65 82.61 149.66 110.92 149.66 85.43 106.93 60.76 104.37 59.28 103.4 58.73 101.61 57.69 100.65 57.13"/>
        <polygon class="cls-3" points="100.65 60.38 100.65 66.25 149.66 94.55 149.66 88.69 100.65 60.38"/>
        <polygon class="cls-3" points="100.65 70.62 100.65 76.48 149.66 104.79 149.66 98.92 100.65 70.62"/>
        <polygon class="cls-4" points="150.11 113.42 168.04 103.03 168.04 72.23 150.11 82.61 150.11 113.42"/>
        <polygon class="cls-5" points="100.2 53.79 150.12 82.61 168.04 72.22 166.38 71.27 158.37 66.65 118.12 43.41 100.2 53.79"/>
        <polygon class="cls-5" points="150.94 85.61 150.94 93.4 164.9 85.42 164.9 77.64 164.65 77.79 150.94 85.61"/>
        <polygon class="cls-5" points="150.94 95.87 150.94 103.21 164.9 95.25 164.9 87.9 164.65 88.04 150.94 95.87"/>
        <polygon class="cls-6" points="150.94 85.61 150.94 92.95 164.65 85.13 164.65 77.79 150.94 85.61"/>
        <polygon class="cls-6" points="150.94 95.87 150.94 102.77 164.65 94.95 164.65 88.04 150.94 95.87"/>
        <g>
          <polygon class="cls-7" points="140.93 80.36 141.44 80.66 141.44 105.61 140.93 105.95 140.93 80.36"/>
          <polygon class="cls-7" points="132.91 75.72 133.42 76.03 133.42 100.97 132.91 101.31 132.91 75.72"/>
          <polygon class="cls-7" points="124.89 71.08 125.4 71.39 125.4 96.33 124.89 96.68 124.89 71.08"/>
          <polygon class="cls-7" points="116.87 66.44 117.38 66.75 117.38 91.69 116.87 92.04 116.87 66.44"/>
          <polygon class="cls-7" points="108.85 61.8 109.36 62.11 109.36 87.05 108.85 87.4 108.85 61.8"/>
        </g>
        <g>
          <polygon class="cls-1" points="140.11 79.47 140.93 79.95 140.93 105.95 140.11 105.48 140.11 79.47"/>
          <polygon class="cls-1" points="132.09 74.83 132.91 75.31 132.91 101.31 132.09 100.84 132.09 74.83"/>
          <polygon class="cls-1" points="124.07 70.19 124.89 70.67 124.89 96.68 124.07 96.2 124.07 70.19"/>
          <polygon class="cls-1" points="116.05 65.56 116.87 66.03 116.87 92.04 116.05 91.56 116.05 65.56"/>
          <polygon class="cls-1" points="108.03 60.91 108.85 61.39 108.85 87.4 108.03 86.92 108.03 60.91"/>
        </g>
      </g>
      <polygon class="cls-8" points="164.52 72.14 118.24 45.42 103.72 53.87 150 80.59 164.52 72.14"/>
      <polygon class="cls-9" points="118.24 49.13 106.92 55.73 103.72 53.87 118.24 45.42 164.52 72.14 161.31 74 118.24 49.13"/>
      <polygon class="cls-10" points="118.24 49.13 106.92 55.73 103.72 53.87 118.24 45.42 118.24 49.13"/>
    </g>
    <g>
      <g>
        <polygon class="cls-1" points="55.8 96.32 5.88 67.5 5.88 36.69 55.8 65.51 55.8 96.32"/>
        <polygon class="cls-2" points="6.33 40.03 6.33 65.52 55.35 93.82 55.35 68.33 12.61 43.66 10.06 42.19 9.09 41.63 7.3 40.59 6.33 40.03"/>
        <polygon class="cls-3" points="6.33 43.29 6.33 49.15 55.35 77.46 55.35 71.59 6.33 43.29"/>
        <polygon class="cls-3" points="6.33 53.52 6.33 59.39 55.35 87.69 55.35 81.83 6.33 53.52"/>
        <polygon class="cls-4" points="55.8 96.32 73.73 85.94 73.73 55.13 55.8 65.51 55.8 96.32"/>
        <polygon class="cls-5" points="5.88 36.7 55.8 65.52 73.73 55.13 72.06 54.17 64.06 49.55 23.81 26.31 5.88 36.7"/>
        <polygon class="cls-5" points="56.63 68.51 56.63 76.3 70.58 68.33 70.58 60.54 70.33 60.69 56.63 68.51"/>
        <polygon class="cls-5" points="56.63 78.77 56.63 86.11 70.58 78.15 70.58 70.8 70.33 70.95 56.63 78.77"/>
        <polygon class="cls-6" points="56.63 68.51 56.63 75.85 70.33 68.03 70.33 60.69 56.63 68.51"/>
        <polygon class="cls-6" points="56.63 78.77 56.63 85.67 70.33 77.85 70.33 70.95 56.63 78.77"/>
        <g>
          <polygon class="cls-7" points="46.62 63.26 47.13 63.57 47.13 88.51 46.62 88.86 46.62 63.26"/>
          <polygon class="cls-7" points="38.6 58.62 39.11 58.93 39.11 83.87 38.6 84.22 38.6 58.62"/>
          <polygon class="cls-7" points="30.58 53.98 31.09 54.29 31.09 79.23 30.58 79.58 30.58 53.98"/>
          <polygon class="cls-7" points="22.56 49.34 23.07 49.65 23.07 74.59 22.56 74.94 22.56 49.34"/>
          <polygon class="cls-7" points="14.54 44.7 15.05 45.01 15.05 69.95 14.54 70.3 14.54 44.7"/>
        </g>
        <g>
          <polygon class="cls-1" points="45.8 62.38 46.62 62.85 46.62 88.86 45.8 88.38 45.8 62.38"/>
          <polygon class="cls-1" points="37.78 57.73 38.6 58.21 38.6 84.22 37.78 83.74 37.78 57.73"/>
          <polygon class="cls-1" points="29.76 53.1 30.58 53.57 30.58 79.58 29.76 79.11 29.76 53.1"/>
          <polygon class="cls-1" points="21.74 48.46 22.56 48.93 22.56 74.94 21.74 74.47 21.74 48.46"/>
          <polygon class="cls-1" points="13.72 43.82 14.54 44.29 14.54 70.3 13.72 69.83 13.72 43.82"/>
        </g>
      </g>
      <polygon class="cls-8" points="70.21 55.05 23.92 28.33 9.4 36.78 55.69 63.5 70.21 55.05"/>
      <polygon class="cls-9" points="23.92 32.03 12.61 38.63 9.4 36.78 23.92 28.33 70.21 55.05 67 56.9 23.92 32.03"/>
      <polygon class="cls-10" points="23.92 32.03 12.61 38.63 9.4 36.78 23.92 28.33 23.92 32.03"/>
    </g>
    <g>
      <g>
        <polygon class="cls-1" points="119.25 134.38 69.33 105.56 69.33 74.76 119.25 103.58 119.25 134.38"/>
        <polygon class="cls-2" points="69.78 78.09 69.78 103.58 118.8 131.88 118.8 106.4 76.06 81.72 73.51 80.25 72.54 79.69 70.75 78.65 69.78 78.09"/>
        <polygon class="cls-3" points="69.78 81.35 69.78 87.21 118.8 115.52 118.8 109.65 69.78 81.35"/>
        <polygon class="cls-3" points="69.78 91.58 69.78 97.45 118.8 125.75 118.8 119.89 69.78 91.58"/>
        <polygon class="cls-4" points="119.25 134.38 137.18 124 137.18 93.19 119.25 103.58 119.25 134.38"/>
        <polygon class="cls-5" points="69.33 74.76 119.25 103.58 137.18 93.19 135.51 92.23 127.51 87.61 87.26 64.37 69.33 74.76"/>
        <polygon class="cls-5" points="120.08 106.57 120.08 114.36 134.03 106.39 134.03 98.6 133.78 98.75 120.08 106.57"/>
        <polygon class="cls-5" points="120.08 116.83 120.08 124.18 134.03 116.21 134.03 108.86 133.78 109.01 120.08 116.83"/>
        <polygon class="cls-6" points="120.08 106.57 120.08 113.91 133.78 106.09 133.78 98.75 120.08 106.57"/>
        <polygon class="cls-6" points="120.08 116.83 120.08 123.73 133.78 115.91 133.78 109.01 120.08 116.83"/>
        <g>
          <polygon class="cls-7" points="110.07 101.32 110.58 101.63 110.58 126.57 110.07 126.92 110.07 101.32"/>
          <polygon class="cls-7" points="102.05 96.68 102.56 96.99 102.56 121.93 102.05 122.28 102.05 96.68"/>
          <polygon class="cls-7" points="94.03 92.04 94.54 92.35 94.54 117.3 94.03 117.64 94.03 92.04"/>
          <polygon class="cls-7" points="86.01 87.4 86.52 87.71 86.52 112.66 86.01 113 86.01 87.4"/>
          <polygon class="cls-7" points="77.99 82.76 78.5 83.07 78.5 108.02 77.99 108.36 77.99 82.76"/>
        </g>
        <g>
          <polygon class="cls-1" points="109.25 100.44 110.07 100.91 110.07 126.92 109.25 126.45 109.25 100.44"/>
          <polygon class="cls-1" points="101.23 95.8 102.05 96.27 102.05 122.28 101.23 121.81 101.23 95.8"/>
          <polygon class="cls-1" points="93.21 91.16 94.03 91.63 94.03 117.64 93.21 117.17 93.21 91.16"/>
          <polygon class="cls-1" points="85.19 86.52 86.01 86.99 86.01 113 85.19 112.53 85.19 86.52"/>
          <polygon class="cls-1" points="77.17 81.88 77.99 82.35 77.99 108.36 77.17 107.89 77.17 81.88"/>
        </g>
      </g>
      <polygon class="cls-8" points="133.66 93.11 87.37 66.39 72.85 74.84 119.14 101.56 133.66 93.11"/>
      <polygon class="cls-9" points="87.37 70.09 76.06 76.69 72.85 74.84 87.37 66.39 133.66 93.11 130.45 94.96 87.37 70.09"/>
      <polygon class="cls-10" points="87.37 70.09 76.06 76.69 72.85 74.84 87.37 66.39 87.37 70.09"/>
    </g>
  </g>
</svg>
