<svg xmlns="http://www.w3.org/2000/svg" xmlns:xlink="http://www.w3.org/1999/xlink" viewBox="0 0 101.11 95.54">
  <defs>
    <style>
      .cls-1, .cls-5 {
        fill: none;
      }

      .cls-2, .cls-27 {
        fill: #121214;
      }

      .cls-2, .cls-8 {
        opacity: 0.3;
      }

      .cls-3 {
        fill: #8a1705;
      }

      .cls-4 {
        fill: #cb4154;
      }

      .cls-5 {
        stroke: #d3d3d3;
        stroke-miterlimit: 10;
      }

      .cls-6 {
        fill: #4d4d4d;
      }

      .cls-7 {
        fill: #949494;
      }

      .cls-9 {
        fill: #e6dab0;
      }

      .cls-10 {
        fill: #754c29;
      }

      .cls-11 {
        fill: #f0c6b4;
      }

      .cls-12 {
        fill: #c7a496;
      }

      .cls-13 {
        fill: #bdaf83;
      }

      .cls-14 {
        fill: #e31b25;
      }

      .cls-15 {
        fill: #9c251f;
      }

      .cls-16 {
        fill: #603913;
      }

      .cls-17 {
        fill: #3c2415;
      }

      .cls-18 {
        fill: #bcbec0;
      }

      .cls-19 {
        fill: #fff;
      }

      .cls-20 {
        fill: #a7a9ac;
      }

      .cls-21 {
        fill: #128742;
      }

      .cls-22 {
        fill: #0a8074;
      }

      .cls-23 {
        fill: #0f7338;
      }

      .cls-24 {
        fill: #ff8400;
      }

      .cls-25 {
        fill: #16a851;
      }

      .cls-26 {
        fill: #939598;
      }

      .cls-28 {
        fill: #424242;
      }

      .cls-29 {
        fill: #303033;
      }

      .cls-30 {
        fill: #535359;
      }

      .cls-31 {
        fill: #2b5e85;
      }

      .cls-32 {
        fill: #3576ab;
      }

      .cls-33 {
        fill: #f5f5f5;
      }

      .cls-34 {
        fill: #d6c995;
      }

      .cls-35 {
        fill: #1d374e;
      }

      .cls-36 {
        fill: #d63a3a;
      }

      .cls-37 {
        fill: #0f2034;
      }

      .cls-38 {
        fill: #141414;
      }

      .cls-39 {
        fill: #2d2d33;
      }

      .cls-40 {
        fill: #6d6e71;
      }

      .cls-41 {
        clip-path: url(#clip-path);
      }

      .cls-42 {
        fill: #fff3a3;
      }

      .cls-43 {
        fill: #e3b10e;
      }
    </style>
    <clipPath id="clip-path">
      <polygon class="cls-1" points="69.63 164.65 42.08 180.61 42.08 180.61 4.73 159.05 32.29 143.09 69.63 164.65"/>
    </clipPath>
  </defs>
  <title>Map</title>
  <g id="sity">
    <g>
      <path class="cls-2" d="M47.84,39.92,17.91,57.21,48.25,74.72l.17.1L78.34,57.53Z"/>
      <polygon class="cls-3" points="77.63 23.13 77.63 57.57 76.74 58.08 46.92 6.42 47.8 5.91 77.63 23.13"/>
      <polygon class="cls-4" points="76.74 23.64 76.74 58.08 46.92 40.86 46.92 6.42 76.74 23.64"/>
      <line class="cls-5" x1="72.63" y1="50.34" x2="72.63" y2="54.46"/>
      <line class="cls-5" x1="47.04" y1="29.99" x2="76.57" y2="46.96"/>
      <g>
        <polygon class="cls-6" points="48.42 74.43 48.42 72.79 76.74 56.44 76.74 58.08 48.42 74.43"/>
        <polygon class="cls-6" points="48.42 74.43 18.59 57.21 18.59 55.57 48.42 72.79 48.42 74.43"/>
        <polygon class="cls-7" points="48.42 72.79 18.59 55.57 46.92 39.22 76.74 56.44 48.42 72.79"/>
      </g>
      <g>
        <polygon class="cls-8" points="59.92 59.25 52.43 63.58 40.59 56.74 48.08 52.42 59.92 59.25"/>
        <polygon class="cls-9" points="59.92 59.21 52.43 63.54 40.59 56.7 48.08 52.38 59.92 59.21"/>
        <path class="cls-10" d="M48,53.31l-5.74,3.32,10.34,6,5.75-3.31Zm-4.63,3.32L48,54l9.23,5.33L52.55,62Z"/>
      </g>
      <g>
        <path class="cls-8" d="M41.5,60.12a4.15,4.15,0,0,0,3.76,0,1.14,1.14,0,0,0,0-2.17,4.15,4.15,0,0,0-3.76,0A1.14,1.14,0,0,0,41.5,60.12Z"/>
        <path class="cls-11" d="M41.19,42.07c-.21,0-.38.27-.67.67s-.66.7-.67.91c.09.78.77,2.06.76,2.59a.18.18,0,0,0,.12.21l.44-.41.54-3.17-.19-.8A1.58,1.58,0,0,0,41.19,42.07Z"/>
        <path class="cls-12" d="M40.89,43.93c-.12.08-.88-.22-.88-.22S40.71,43.63,40.89,43.93Z"/>
        <path class="cls-12" d="M43.46,52.38c.1.38.56.71.73,1,.35.7.17,1.34.65,2.79a.64.64,0,0,1-.91.12,9.83,9.83,0,0,0-.56-1.76l-.5-1.74S43.37,52,43.46,52.38Z"/>
        <polygon class="cls-13" points="44.78 58.53 44.69 58.47 44.63 57.48 44.7 57.37 44.88 57.42 44.78 58.53"/>
        <polygon class="cls-14" points="44.98 57.38 44.9 58.46 44.78 58.53 44.77 57.51 44.98 57.38"/>
        <path class="cls-14" d="M44.61,57.19l-.07,1.61a5.38,5.38,0,0,1-.87.43c-.19,0-.3,0-.3-.2l-.06-1,1.07-.81Z"/>
        <path class="cls-14" d="M45,56.88s0,.46,0,.5-.26.12-.31.15a2.17,2.17,0,0,0-.1.51,1.26,1.26,0,0,1-.91.39.38.38,0,0,1-.34-.16V58l.45-.32.51-.72Z"/>
        <path class="cls-14" d="M43.57,57.66l-.15,0c-.13,0-.11.3-.11.3s.28.42,1-.08c.16-.11.15-.61.25-.71s.38-.05.44-.33a.9.9,0,0,0-.05-.4,6,6,0,0,0-.63.1C44.05,57.63,43.57,57.66,43.57,57.66Z"/>
        <path class="cls-12" d="M45,56.48a1.74,1.74,0,0,0-.13-.26,5.57,5.57,0,0,0-.91.12,5.66,5.66,0,0,0-.18,1,.41.41,0,0,1-.18.29.39.39,0,0,0,.28.14c.51,0,.4-.78.64-1A2.23,2.23,0,0,1,45,56.48Z"/>
        <path class="cls-15" d="M44.13,49.67c0,1.33-.13,2.79-.13,2.79a2.82,2.82,0,0,0-1.5-.74,28.55,28.55,0,0,1,.07-2.9S44.08,49.3,44.13,49.67Z"/>
        <path class="cls-11" d="M44.13,49.67c-.2,1.44-.79,2.9-.87,3.57,0,.15.24.48.22.89A9.19,9.19,0,0,0,42.94,57c-.3.45-.82,0-.9,0a8.34,8.34,0,0,0,.17-3.1,2.54,2.54,0,0,1-.17-1c0-.42-.09-3.08-.09-3.08l.42-1.87,1.18,0,.46.74S44,49,44.13,49.67Z"/>
        <path class="cls-14" d="M43.26,48.1a3.17,3.17,0,0,1,.87,1.57,4.34,4.34,0,0,0,0-1.19.92.92,0,0,0-.49-.71S43.33,48.1,43.26,48.1Z"/>
        <path class="cls-14" d="M43.26,48.1a20.23,20.23,0,0,1-.74,4.95s-1.24-.32-1.46-1.06c0-.25-1-3.63-.38-4.76C40.67,47.05,43.23,47.72,43.26,48.1Z"/>
        <path class="cls-11" d="M43.75,42.81a1.79,1.79,0,0,0,.49.59c0,.1,0,1.36,0,1.36l-.3.44-.67-.07-1.49-1.6-.37-.79,0-.73.5-.59,1.34.11Z"/>
        <path class="cls-12" d="M41.94,42.5a.95.95,0,0,0,1.11-.67l-.29,0-.57.25Z"/>
        <path class="cls-15" d="M43.39,46.86a1.17,1.17,0,0,0,.16.67s-.74,1.71-2.87-.3c.06-.56.07-1,.07-1l.19-.16S43.3,46.74,43.39,46.86Z"/>
        <path class="cls-14" d="M41.82,42.31s1.5,2.51,2,2.57c.25,0,.51-.25.54-.12a12.19,12.19,0,0,1-1,2.1c-.84,1.11-2.64-.66-2.64-.66v-.84s-.53-.18-.57-.64.59-1.19.77-1.73C41,42.85,41.21,42.15,41.82,42.31Z"/>
        <path class="cls-11" d="M43.89,47.52a3.53,3.53,0,0,0-.89.09.28.28,0,0,0-.13.26s-.5.32-.42.57.85.24,1,.17a7.41,7.41,0,0,0,.74-.51l0-.33Z"/>
        <path class="cls-11" d="M43.55,43.67c.88-.88,1.56.59,1.56.59a16,16,0,0,1,1.81,2.48c0,.54-2.82,1.37-2.82,1.37s-.36-.25-.21-.59a8.51,8.51,0,0,0,1.72-1.07L44,44.87S43,44.21,43.55,43.67Z"/>
        <path class="cls-16" d="M41.2,40.18c-.11.34,0,1.18-.17,1.71a.24.24,0,0,0,.16-.13,1.82,1.82,0,0,1-.16.88.74.74,0,0,0,.5-.33l.13-1.1-.32-.71S41.33,40.22,41.2,40.18Z"/>
        <path class="cls-11" d="M41.2,40.81a7.37,7.37,0,0,0,.16,1.54.37.37,0,0,0,.36.18,1.51,1.51,0,0,0,1-.4l.24-.38.09-1.1L42.62,40l-.82-.09-.56.4A2.3,2.3,0,0,0,41.2,40.81Z"/>
        <polygon class="cls-13" points="42.88 59.14 42.79 59.09 42.73 58.09 42.81 57.98 42.98 58.03 42.88 59.14"/>
        <polygon class="cls-14" points="43.08 58 43 59.07 42.88 59.14 42.88 58.12 43.08 58"/>
        <path class="cls-14" d="M42.71,57.8l-.07,1.62a5.49,5.49,0,0,1-.87.42c-.19,0-.3-.05-.3-.2l-.06-1,1.07-.81Z"/>
        <path class="cls-14" d="M43.12,57.49s0,.46,0,.51-.25.11-.31.15a2,2,0,0,0-.1.5,1.23,1.23,0,0,1-.91.39.37.37,0,0,1-.33-.16l0-.27.45-.32.51-.72Z"/>
        <path class="cls-11" d="M43.07,57.19a2.3,2.3,0,0,0-.13-.24,4.5,4.5,0,0,0-.9,0,5.09,5.09,0,0,0-.19,1,.41.41,0,0,1-.14.26s.08.3.35.26c.45-.07.53-.85.53-.85Z"/>
        <path class="cls-14" d="M41.71,58.24a.34.34,0,0,1-.19.07c-.13,0-.11.3-.11.3s.28.42,1-.08c.17-.11.15-.61.25-.71s.38,0,.44-.33a.65.65,0,0,0,0-.3,1.76,1.76,0,0,0-.57.4c-.18.2-.07.62-.31.74A.37.37,0,0,1,41.71,58.24Z"/>
        <path class="cls-16" d="M41.87,40.38c.13,0,.58,0,.61.36.08.68.26.72.24,1.39a.64.64,0,0,0,.19-.14,1.71,1.71,0,0,1-.08,1.24,1.12,1.12,0,0,0,.91-.44l.19.35a1.83,1.83,0,0,0,.32-1.24c-.2-.83-.39-2.29-1-2.41a.87.87,0,0,0-1.16-.24,1.94,1.94,0,0,0-.94.93,2.09,2.09,0,0,0,0,.63S41.17,40,41.87,40.38Z"/>
        <path class="cls-17" d="M43.11,39.57A1.52,1.52,0,0,0,42,40.2,3.37,3.37,0,0,1,43.11,39.57Z"/>
        <path class="cls-15" d="M42.21,46.23c-.05.13-1.46-.87-1.46-.87S42.26,46.1,42.21,46.23Z"/>
        <path class="cls-11" d="M40.75,46.2s.14,1.14-.18,1.36c-.14.1-.36-.37-.31-.71s.24-.32.35-.61C40.64,46.15,40.75,46.17,40.75,46.2Z"/>
      </g>
      <line class="cls-5" x1="59.74" y1="31.48" x2="59.74" y2="36.92"/>
      <line class="cls-5" x1="46.81" y1="35.22" x2="76.34" y2="52.18"/>
      <line class="cls-5" x1="74.51" y1="45.8" x2="74.51" y2="51.24"/>
      <g>
        <path class="cls-8" d="M69.82,52.91,58.19,46.19a2,2,0,0,0-1.81,0l-6.75,3.9c-.5.29-.5.76,0,1l11.64,6.72a2,2,0,0,0,1.8,0L69.82,54C70.32,53.66,70.32,53.19,69.82,52.91Z"/>
        <g>
          <path class="cls-13" d="M66.65,40.62l-7.28-4.2a2.5,2.5,0,0,0-2.56-.23h0l-1.61.93.43.74.2,0a3.55,3.55,0,0,0-.06.67v3.3A7.94,7.94,0,0,0,59.37,48l7.27,4.19a3.23,3.23,0,0,0,.49.25l.36,1,1.77-1a2.59,2.59,0,0,0,1-2.27l0-3.28A8,8,0,0,0,66.65,40.62Z"/>
          <path class="cls-9" d="M65,41.58l-7.27-4.2c-2-1.14-3.6-.21-3.6,2.08v3.31A7.94,7.94,0,0,0,57.71,49L65,53.17c2,1.15,3.59.22,3.59-2.07V49l0-1.17A8,8,0,0,0,65,41.58Z"/>
        </g>
        <g>
          <path class="cls-13" d="M67.79,47.61a.54.54,0,0,0-.57,0l-3,1.72-6.54-3.78A4.54,4.54,0,0,1,55.66,42V41.5a1.74,1.74,0,0,0-.77-1.34.54.54,0,0,0-.54,0h0L49,43.21l1.58,6.23s8.17,5.16,8.34,5.23,3.24,1.86,3.24,1.86l5.36-3.1h0a2.53,2.53,0,0,0,1-2.31V49A1.74,1.74,0,0,0,67.79,47.61Z"/>
          <path class="cls-9" d="M62.38,50.73c-.42-.24-.77,0-.77.45v.46c0,1.3-.92,1.83-2,1.18L52.3,48.63a4.52,4.52,0,0,1-2-3.55v-.46a1.72,1.72,0,0,0-.78-1.34c-.42-.24-.77,0-.77.45v2.15A7.94,7.94,0,0,0,52.3,52.1l7.26,4.2c2,1.14,3.6.21,3.6-2.08V52.07A1.72,1.72,0,0,0,62.38,50.73Z"/>
        </g>
      </g>
      <g>
        <g>
          <path class="cls-8" d="M72.49,56.25a4.24,4.24,0,0,0-3.83,0,1.17,1.17,0,0,0,0,2.21,4.24,4.24,0,0,0,3.83,0A1.17,1.17,0,0,0,72.49,56.25Z"/>
          <path class="cls-18" d="M70.6,53.07a3.16,3.16,0,0,0-1.61.5,4.37,4.37,0,0,0-1,2.26,2.62,2.62,0,0,0,5.22,0,3.14,3.14,0,0,0-1-2.31A2.43,2.43,0,0,0,70.6,53.07Z"/>
          <path class="cls-19" d="M71.9,53.34a2.84,2.84,0,0,0-2.6,0,.78.78,0,0,0,0,1.49,2.84,2.84,0,0,0,2.6,0A.79.79,0,0,0,71.9,53.34Z"/>
          <path class="cls-17" d="M71.5,53.86a2,2,0,0,0-1.81,0,.86.86,0,0,0-.33.33.8.8,0,0,0,.33.33,2,2,0,0,0,1.81,0,.75.75,0,0,0,.33-.33A.74.74,0,0,0,71.5,53.86Z"/>
          <path class="cls-20" d="M71.5,53.47a2,2,0,0,0-1.81,0c-.33.2-.45.47-.33.72a.86.86,0,0,1,.33-.33,2,2,0,0,1,1.81,0,.74.74,0,0,1,.33.33C72,53.94,71.84,53.67,71.5,53.47Z"/>
        </g>
        <g>
          <g>
            <path class="cls-21" d="M64.47,46.88c2.72-.71,4,1.14,5.3-1S65.26,45.42,64.47,46.88Z"/>
            <path class="cls-22" d="M65.48,46.27a8.85,8.85,0,0,0-.8.42Z"/>
            <path class="cls-23" d="M65.48,46.27c2.24-1,4-.18,4.12-.36S68,45.1,65.48,46.27Z"/>
          </g>
          <g>
            <path class="cls-21" d="M69.07,42.83c.15,1.57-.75,3.05,1.77,2.84S71.31,42.91,69.07,42.83Z"/>
            <path class="cls-23" d="M69.74,43.13c1.41.95.83,2.46,1.06,2.45S71.4,44.16,69.74,43.13Z"/>
            <path class="cls-22" d="M69.74,43.13a4,4,0,0,0-.55-.29A4.68,4.68,0,0,1,69.74,43.13Z"/>
          </g>
          <g>
            <path class="cls-21" d="M71.87,46.77c-1,2.37,1.81-.66,5-1.26C75.89,45,72.85,44.41,71.87,46.77Z"/>
            <path class="cls-23" d="M72,47c-.1.23.91-1.37,4.71-1.44C73.08,45.34,72.05,46.72,72,47Z"/>
          </g>
          <path class="cls-16" d="M70.62,49.33a.33.33,0,0,0-.33.33v5.05a2,2,0,0,0,.65,0V49.66A.32.32,0,0,0,70.62,49.33Z"/>
          <path class="cls-24" d="M70.6,45.63c-.74,0-1.33,1-1.33,2.3s.59,2.29,1.33,2.29,1.33-1,1.33-2.29S71.34,45.63,70.6,45.63Z"/>
          <g>
            <path class="cls-21" d="M70.83,47.71c-2-1.06-1,2.27,0,3.78C71.58,50.84,72.8,48.77,70.83,47.71Z"/>
            <path class="cls-23" d="M70.64,47.74c-.2-.11.29,1,.27,3.59C71.31,49.23,70.83,47.84,70.64,47.74Z"/>
          </g>
          <g>
            <path class="cls-21" d="M71.17,47.26c-2.7,0,1,1.32,2.11,3.91C73.71,50.09,73.87,47.23,71.17,47.26Z"/>
            <path class="cls-23" d="M71,47.39c-.27,0,1.62.28,2.25,3.58C72.9,47.78,71.25,47.39,71,47.39Z"/>
          </g>
          <g>
            <path class="cls-21" d="M67.64,50.57c1.69-1.88,3.6-1.16,3.49-3.38S67.51,49.08,67.64,50.57Z"/>
            <path class="cls-22" d="M68.08,49.64a7.37,7.37,0,0,0-.38.69C67.83,50.08,68,49.85,68.08,49.64Z"/>
            <path class="cls-23" d="M68.08,49.64A7.29,7.29,0,0,1,71,47.29C71,47.09,69.4,47.48,68.08,49.64Z"/>
          </g>
          <g>
            <path class="cls-25" d="M65.19,43.92c2.64,1,2.16,3.94,4.85,2.4S67,42.81,65.19,43.92Z"/>
            <path class="cls-22" d="M66.41,43.9a6.42,6.42,0,0,0-.91-.06C65.82,43.85,66.13,43.87,66.41,43.9Z"/>
            <path class="cls-21" d="M66.41,43.9c2.53.38,3.24,2.46,3.48,2.33S69.31,44.25,66.41,43.9Z"/>
          </g>
          <g>
            <path class="cls-25" d="M70.39,46.84c2,1.33,2.46-2,5.6-2.72C73.4,42.48,68.11,44.91,70.39,46.84Z"/>
            <path class="cls-21" d="M70.54,46.75c.27.16,1.47-3.14,5.36-2.68C72.26,43.38,70.28,46.6,70.54,46.75Z"/>
          </g>
          <g>
            <path class="cls-25" d="M70.43,46.47c-3.89-1.5-5.2,2.14-5.19,4C67.3,47.82,73.65,47.72,70.43,46.47Z"/>
            <path class="cls-21" d="M66.05,48.82c1.6-2.1,4.45-2.11,4.21-2.25A4.87,4.87,0,0,0,66.05,48.82Z"/>
            <path class="cls-22" d="M66.05,48.82a5,5,0,0,0-.81,1.62A7,7,0,0,1,66.05,48.82Z"/>
          </g>
          <g>
            <path class="cls-25" d="M71.33,46.71c-2.92,1.68,1.88.83,4.67,2.95C75.8,48.22,74.24,45,71.33,46.71Z"/>
            <path class="cls-21" d="M71.21,47c-.29.17,1.93-.68,4.63,2.5C73.51,46.22,71.49,46.81,71.21,47Z"/>
          </g>
        </g>
      </g>
      <g>
        <g>
          <path class="cls-8" d="M30.62,52.79a3.3,3.3,0,0,0-3,0,.92.92,0,0,0,0,1.73,3.3,3.3,0,0,0,3,0A.92.92,0,0,0,30.62,52.79Z"/>
          <path class="cls-26" d="M27.61,53.44a.76.76,0,0,0,.45.62,2.39,2.39,0,0,0,2.15,0,.77.77,0,0,0,.44-.62L31,51.58h-3.7Z"/>
          <path class="cls-18" d="M30.66,50.49a3.37,3.37,0,0,0-3.06,0,1.19,1.19,0,0,0-.6.67h0v.4a1.07,1.07,0,0,0,.63.88,3.37,3.37,0,0,0,3.06,0,1.06,1.06,0,0,0,.64-.88v-.4h0A1.19,1.19,0,0,0,30.66,50.49Z"/>
          <path class="cls-19" d="M30.66,50.27a3.43,3.43,0,0,0-3.06,0,.93.93,0,0,0,0,1.77,3.37,3.37,0,0,0,3.06,0A.93.93,0,0,0,30.66,50.27Z"/>
          <path class="cls-20" d="M30.32,50.41a2.63,2.63,0,0,0-2.38,0c-.41.24-.57.56-.46.87a.94.94,0,0,1,.46-.5,2.63,2.63,0,0,1,2.38,0,1,1,0,0,1,.47.5C30.89,51,30.73,50.65,30.32,50.41Z"/>
          <path class="cls-27" d="M30.32,50.78a2.63,2.63,0,0,0-2.38,0,.94.94,0,0,0-.46.5h0a.93.93,0,0,0,.46.51,2.63,2.63,0,0,0,2.38,0,1,1,0,0,0,.47-.51h0A1,1,0,0,0,30.32,50.78Z"/>
          <path class="cls-28" d="M30,51.52a.19.19,0,0,0-.18,0c-.06,0-.06.08,0,.11a.19.19,0,0,0,.18,0A.06.06,0,0,0,30,51.52Z"/>
          <path class="cls-28" d="M29.67,50.79a.19.19,0,0,0-.18,0,.06.06,0,0,0,0,.11.19.19,0,0,0,.18,0C29.73,50.87,29.73,50.82,29.67,50.79Z"/>
          <path class="cls-28" d="M28.86,51.37a.19.19,0,0,0-.18,0c-.05,0-.05.07,0,.11a.28.28,0,0,0,.18,0C28.92,51.44,28.92,51.4,28.86,51.37Z"/>
          <path class="cls-28" d="M28.43,50.9a.19.19,0,0,0-.18,0c-.06,0-.06.07,0,.1a.19.19,0,0,0,.18,0C28.49,51,28.49,50.92,28.43,50.9Z"/>
          <path class="cls-28" d="M29.15,51.74a.19.19,0,0,0-.18,0c-.06,0-.06.08,0,.1a.19.19,0,0,0,.18,0C29.2,51.82,29.2,51.77,29.15,51.74Z"/>
          <path class="cls-28" d="M30.3,51.07a.21.21,0,0,0-.19,0,.06.06,0,0,0,0,.11.21.21,0,0,0,.19,0A.06.06,0,0,0,30.3,51.07Z"/>
          <path class="cls-28" d="M28.17,51.3a.21.21,0,0,0-.19,0,.06.06,0,0,0,0,.11.21.21,0,0,0,.19,0A.06.06,0,0,0,28.17,51.3Z"/>
        </g>
        <g>
          <g>
            <path class="cls-21" d="M22.64,49.47c2.86-.75,4.25,1.2,5.58-1S23.46,47.93,22.64,49.47Z"/>
            <path class="cls-22" d="M23.7,48.83a8.67,8.67,0,0,0-.85.44C23.15,49.1,23.43,49,23.7,48.83Z"/>
            <path class="cls-23" d="M23.7,48.83c2.36-1,4.23-.19,4.34-.39S26.36,47.59,23.7,48.83Z"/>
          </g>
          <g>
            <path class="cls-21" d="M27.49,45.2c.15,1.65-.8,3.21,1.87,3S29.84,45.29,27.49,45.2Z"/>
            <path class="cls-23" d="M28.19,45.52c1.49,1,.88,2.59,1.11,2.58S29.94,46.61,28.19,45.52Z"/>
            <path class="cls-22" d="M28.19,45.52a3.5,3.5,0,0,0-.58-.31A4.45,4.45,0,0,1,28.19,45.52Z"/>
          </g>
          <g>
            <path class="cls-21" d="M30.44,49.35c-1,2.5,1.9-.7,5.3-1.32C34.67,47.46,31.47,46.86,30.44,49.35Z"/>
            <path class="cls-23" d="M30.53,49.54c-.1.25,1-1.44,5-1.51C31.71,47.84,30.63,49.31,30.53,49.54Z"/>
          </g>
          <g>
            <path class="cls-21" d="M29.33,50.34c-2.09-1.11-1.09,2.4,0,4C30.14,53.65,31.42,51.46,29.33,50.34Z"/>
            <path class="cls-23" d="M29.14,50.37c-.21-.11.31,1,.28,3.79C29.85,51.94,29.33,50.48,29.14,50.37Z"/>
          </g>
          <g>
            <path class="cls-21" d="M29.7,49.86c-2.84,0,1,1.4,2.22,4.13C32.37,52.85,32.55,49.84,29.7,49.86Z"/>
            <path class="cls-23" d="M29.51,50c-.28,0,1.7.3,2.37,3.77C31.52,50.41,29.78,50,29.51,50Z"/>
          </g>
          <g>
            <path class="cls-21" d="M26,53.36c1.78-2,3.8-1.22,3.67-3.57S25.84,51.79,26,53.36Z"/>
            <path class="cls-22" d="M26.45,52.37a6.47,6.47,0,0,0-.41.74C26.17,52.84,26.31,52.6,26.45,52.37Z"/>
            <path class="cls-23" d="M26.45,52.37c1.25-2,3.09-2.27,3.08-2.48S27.83,50.1,26.45,52.37Z"/>
          </g>
          <g>
            <path class="cls-25" d="M23.4,46.35c2.78,1.06,2.27,4.16,5.11,2.52S25.28,45.18,23.4,46.35Z"/>
            <path class="cls-22" d="M24.69,46.33a5,5,0,0,0-1-.06A7.32,7.32,0,0,1,24.69,46.33Z"/>
            <path class="cls-21" d="M24.69,46.33c2.66.39,3.41,2.59,3.65,2.45S27.74,46.7,24.69,46.33Z"/>
          </g>
          <g>
            <path class="cls-25" d="M28.87,49.43c2.13,1.4,2.6-2.13,5.91-2.86C32.06,44.83,26.47,47.39,28.87,49.43Z"/>
            <path class="cls-21" d="M29,49.33c.29.17,1.56-3.31,5.66-2.82C30.85,45.78,28.76,49.17,29,49.33Z"/>
          </g>
          <g>
            <path class="cls-25" d="M28.92,49c-4.09-1.59-5.48,2.26-5.47,4.18C25.62,50.46,32.31,50.35,28.92,49Z"/>
            <path class="cls-21" d="M24.3,51.52C26,49.3,29,49.29,28.74,49.14A5.15,5.15,0,0,0,24.3,51.52Z"/>
            <path class="cls-22" d="M24.3,51.52a5,5,0,0,0-.85,1.7A6.75,6.75,0,0,1,24.3,51.52Z"/>
          </g>
          <g>
            <path class="cls-25" d="M29.87,49.29c-3.08,1.77,2,.87,4.92,3.11C34.58,50.88,32.94,47.52,29.87,49.29Z"/>
            <path class="cls-21" d="M29.74,49.56c-.3.18,2-.72,4.89,2.64C32.17,48.77,30,49.39,29.74,49.56Z"/>
          </g>
        </g>
      </g>
      <g>
        <path class="cls-2" d="M21.49,76.06c.83.36,3.42-.81,5.78-2.61s3.61-3.56,2.78-3.91-3.41.81-5.77,2.62S20.67,75.71,21.49,76.06Z"/>
        <path d="M22.43,73.57a.66.66,0,0,0-.14.66c.19.89.77.6.77.6l.34-.51.15-.76s-.61-.14-.62-.13Z"/>
        <path class="cls-26" d="M23.22,73.46a1.36,1.36,0,0,1-.61.13l-.13.48.35.56a1.69,1.69,0,0,1,.55-.31c.1,0,.06-.57.06-.57S23.27,73.42,23.22,73.46Z"/>
        <path d="M28.52,59.84c.09,2.9-.91,2.21-.91,2.21l.14.22s1,.53,1-2.34C28.7,59.83,28.55,59.76,28.52,59.84Z"/>
        <path class="cls-12" d="M27.67,59.29c-.15.2-1.49,1.25-1.49,1.25s-.32,1-.31,1,.5.37.65.29a5.81,5.81,0,0,0,1.85-2.19c.14-.16-.21-.47-.21-.47A2.92,2.92,0,0,0,27.67,59.29Z"/>
        <path class="cls-18" d="M24.06,61.16c-.55,0-1.08,1.56.35,1.44,1-.08,1.07-.1,1.64-.17.7-1.09-.32-1.32-.32-1.32A7.2,7.2,0,0,1,24.06,61.16Z"/>
        <path class="cls-29" d="M24.59,65.76c-1,1.51.78,3.15.78,3.15s-.1,1.74-.09,3.48c-1.07.15-1.72.82-2.85,1.18,1.13-.19.63,1.26.63,1.26,1-.51,2.84-1.12,3.27-1.42.84-.57,1.4-5.94,1.32-6.55,0,0-.26.27-1.38.24S24.59,65.76,24.59,65.76Z"/>
        <path class="cls-11" d="M25,61.36c-.11.32.37.52.74.56a4.66,4.66,0,0,0,.83,0,.9.9,0,0,1,.16-.78c.12-.19-.59-.25-.59-.25l-.86.06S25.1,61.32,25,61.36Z"/>
        <path class="cls-11" d="M29.37,62.67c-.25-.72-.17-1.21-.55-2.34.17-.21.64-.2.64-.2a16,16,0,0,1,1,2.18,2,2,0,0,1-.26,1.43,1.31,1.31,0,0,1-.65.15C29.28,63.9,29.34,62.88,29.37,62.67Z"/>
        <path d="M27.39,59.1c-1.53,2.47-2,1.34-2,1.34v.25s.57,1,2.1-1.41C27.55,59.19,27.46,59.05,27.39,59.1Z"/>
        <g>
          <g>
            <path class="cls-29" d="M29.86,58.33a.89.89,0,0,0-.39-.68.29.29,0,0,0-.28,0h0l-.85.49,0,0a.59.59,0,0,0,0,.14.86.86,0,0,0,.39.68.37.37,0,0,0,.16.05l0,0,.84-.48A.29.29,0,0,0,29.86,58.33Z"/>
            <path class="cls-27" d="M29,58.8c0,.25-.18.35-.4.23a.89.89,0,0,1-.39-.68c0-.25.18-.35.39-.23A.88.88,0,0,1,29,58.8Z"/>
          </g>
          <g>
            <path class="cls-29" d="M29,58.77a.74.74,0,0,0-.33-.58.27.27,0,0,0-.24,0h0l-.37.23,0,0a.36.36,0,0,0,0,.11.76.76,0,0,0,.33.58.27.27,0,0,0,.14,0v0l.37-.22A.25.25,0,0,0,29,58.77Z"/>
            <path class="cls-30" d="M28.6,59c0,.21-.15.3-.34.19a.73.73,0,0,1-.33-.58c0-.21.15-.29.33-.19A.74.74,0,0,1,28.6,59Z"/>
            <path class="cls-27" d="M28,58.64a.59.59,0,0,0,.26.46c.1.06.18,0,.23,0a.27.27,0,0,1-.14,0,.57.57,0,0,1-.27-.46.22.22,0,0,1,0-.13C28,58.47,28,58.53,28,58.64Z"/>
            <path class="cls-31" d="M28.07,58.59a.57.57,0,0,0,.27.46.27.27,0,0,0,.14,0,.21.21,0,0,0,0-.14.57.57,0,0,0-.27-.46.19.19,0,0,0-.14,0A.22.22,0,0,0,28.07,58.59Z"/>
          </g>
          <polygon class="cls-29" points="28.61 59.93 28.98 59.72 28.98 58.78 28.61 58.99 28.61 59.93"/>
          <polygon class="cls-27" points="27.25 59.14 28.61 59.93 28.61 58.99 27.25 58.2 27.25 59.14"/>
          <polygon class="cls-29" points="27.58 58.52 27.58 59.19 28.35 59.63 28.35 59.6 27.61 59.17 27.61 58.54 27.58 58.52"/>
          <polygon class="cls-32" points="27.61 58.54 27.61 59.17 28.35 59.6 28.35 58.96 27.61 58.54"/>
          <polygon class="cls-30" points="28.61 58.99 28.98 58.78 27.61 57.99 27.25 58.2 28.61 58.99"/>
          <g>
            <polygon class="cls-29" points="28.12 58.62 28.31 58.51 28.31 58.32 28.12 58.43 28.12 58.62"/>
            <polygon class="cls-27" points="27.82 58.44 28.12 58.62 28.12 58.43 27.82 58.25 27.82 58.44"/>
            <polygon class="cls-29" points="27.89 58.33 27.89 58.45 28.08 58.56 28.08 58.52 27.93 58.43 27.93 58.36 27.89 58.33"/>
            <polygon class="cls-32" points="27.93 58.36 27.93 58.43 28.08 58.52 28.08 58.44 27.93 58.36"/>
            <polygon class="cls-30" points="28.12 58.43 28.31 58.32 28 58.14 27.82 58.25 28.12 58.43"/>
          </g>
          <g>
            <path class="cls-27" d="M28.41,58.77a.22.22,0,0,0,.16,0s0,0,0-.05h0v-.1h0l0,0a.2.2,0,0,0-.15,0l0,0h0v.1S28.39,58.75,28.41,58.77Z"/>
            <path class="cls-29" d="M28.41,58.67c-.05,0-.05-.07,0-.09a.14.14,0,0,1,.15,0c.05,0,.05.06,0,.09A.2.2,0,0,1,28.41,58.67Z"/>
          </g>
          <g>
            <path class="cls-27" d="M28.59,58.83a.09.09,0,0,0,.1,0s0,0,0,0h0v-.07h0a.09.09,0,0,0-.1,0h0v.07Z"/>
            <path class="cls-29" d="M28.59,58.77s0,0,0-.06h.1s0,0,0,.06A.09.09,0,0,1,28.59,58.77Z"/>
          </g>
        </g>
        <path class="cls-12" d="M29,59c0-.21.52-.63.64-.53s0,.38-.06.59a3,3,0,0,1-.47.44l-.24-.44Z"/>
        <path class="cls-11" d="M28.82,60.33c-.16-.22-.5-.4-.56-.51s0-.74.09-.74.16.45.19.47a4,4,0,0,0,.08-.74s-.32-.23-.24-.32.44.13.49.21a1,1,0,0,1,.06.3c.53.07.5.34.5.34l0,.79-.34.28Z"/>
        <path class="cls-33" d="M27.87,69.83c0,.19-.12.94,0,1s.51,0,1-.45c.25-.28.81-.37.76-.68s-.55-.16-.55-.16Z"/>
        <path class="cls-27" d="M26.5,65.12c.83,0,1.63.1,2.87,0,.24,0,.4.29.43.37.14.33-.61,3-.72,4.11a1.06,1.06,0,0,1-1.29.28c.07-1.2.31-2.91.31-2.91l-2.43,1.23A21.93,21.93,0,0,1,26.5,65.12Z"/>
        <path d="M28.1,67s1.45-1,1.46-.82S28.1,67,28.1,67Z"/>
        <path class="cls-11" d="M27.25,59.17a2.9,2.9,0,0,1-.16,1.9,1.58,1.58,0,0,1-.93-.06,10.67,10.67,0,0,1,0-1.16c0-.05.64-.57.64-.57S27.22,59.12,27.25,59.17Z"/>
        <path class="cls-33" d="M26.56,62a4.37,4.37,0,0,0,1.14,1,3.5,3.5,0,0,1,.23,1.47,14,14,0,0,0-.18,3.48s-.25-.53-.5-.37-1.3,1.47-2.37,1-.82-1-.86-1.88a26,26,0,0,0-.24-3.37c-.18-1.25.27-1.87.49-1.86a4.8,4.8,0,0,0,.62,0S25,62.24,26.56,62Z"/>
        <path class="cls-29" d="M24.89,61.42s-.61.62-.07,1c.25.19,1.6.61,2.11-.14a1,1,0,0,1,.56-.29c.15,0,.32.27.32.27a1.18,1.18,0,0,0-.67.43,2.23,2.23,0,0,1-2.45.1.82.82,0,0,1-.27-1.37,1,1,0,0,1,.66-.22C25.07,61.29,24.89,61.42,24.89,61.42Z"/>
        <path class="cls-16" d="M26.32,61.22c.37-.31.13-.63.41-.87.1-.07.2-.07.25.12.1-.26,0-.54.23-.74s.13-.59,0-.7c.26-1.06-2.3-.65-2.36.4A4.43,4.43,0,0,0,25.2,61,1.26,1.26,0,0,0,26.32,61.22Z"/>
        <path class="cls-18" d="M27.26,63c-.55.08-.73,2,.63,1.5.94-.33,1.44-.3,2-.5.41-1.24-.54-1.44-.54-1.44S28,62.89,27.26,63Z"/>
        <path class="cls-17" d="M26,59.18c0,.13,1.17-.15,1.17-.15S26,59.06,26,59.18Z"/>
        <path class="cls-18" d="M24.89,61.42s.19-.14.22-.26c.43.74,1.56.37,1.56.37s0,.2.1.42C26.32,62.09,25.07,62.19,24.89,61.42Z"/>
        <path class="cls-33" d="M22,73.66a1,1,0,0,1,.6-.07c.41.31.21,1.06.21,1.06a1.23,1.23,0,0,0-.32.57c0,.26.13.22.18.37a.36.36,0,0,1-.07.3.62.62,0,0,1-.37,0l-.33-.19s-.16-.46-.16-.52S22,73.66,22,73.66Z"/>
        <path class="cls-34" d="M22.08,73.66c-.36-.06-.36.55-.36.55l0,.6s-.23.5-.14.72a1.11,1.11,0,0,0,.75.47.42.42,0,0,0,.32-.11s-.22,0-.29-.11c-.19-.29.05-1.16.05-1.16S22.45,73.73,22.08,73.66Z"/>
      </g>
      <g>
        <path class="cls-2" d="M32.13,83.38a1.19,1.19,0,0,1-1.07,0L25.73,80.3a.33.33,0,0,1,0-.62l1.47-.85a1.25,1.25,0,0,1,1.07,0l5.33,3.08a.33.33,0,0,1,0,.62Z"/>
        <path class="cls-35" d="M27.56,76.18,26.11,77a1,1,0,0,0-.45.78v2a.32.32,0,0,0,.13.29l5.65,3.28,2.09-4-5.64-3.26A.33.33,0,0,0,27.56,76.18Z"/>
        <polygon class="cls-36" points="27.22 79.88 29.44 81.16 29.44 80.75 27.22 79.46 27.22 79.88"/>
        <polygon points="32.41 79.84 26.81 76.62 26.93 76.55 32.52 79.78 32.41 79.84"/>
        <polygon class="cls-27" points="27.18 76.41 26.48 76.81 26.48 76.56 27.18 76.16 27.18 76.41"/>
        <path class="cls-37" d="M26.48,76.56c-.6,7.74,5.63,3.25,5.63,3.25l.7-.4s0-.09-.7.26c-2,1-6.34,2.75-4.93-3.51A2.69,2.69,0,0,0,26.48,76.56Z"/>
        <polygon class="cls-27" points="32.81 79.66 32.11 80.06 32.11 79.81 32.81 79.41 32.81 79.66"/>
        <path class="cls-37" d="M33.19,79.43l-1.45.84a1,1,0,0,0-.45.78v2c0,.29.2.4.45.26l1.45-.84a1,1,0,0,0,.45-.77v-2A.28.28,0,0,0,33.19,79.43Z"/>
        <path class="cls-38" d="M26.92,76.56s0,0,0,0Z"/>
        <path class="cls-38" d="M26.64,76.72h0S26.62,76.73,26.64,76.72Z"/>
      </g>
      <g>
        <g>
          <path class="cls-2" d="M19.75,50.39c1.87-1.08,1.87-2.82,0-3.9a7.46,7.46,0,0,0-6.76,0c-1.87,1.08-1.87,2.82,0,3.9A7.48,7.48,0,0,0,19.75,50.39Z"/>
          <g>
            <path class="cls-29" d="M13.59,50.26a.44.44,0,0,1-.39,0,.14.14,0,0,1-.08-.11V50h0l0,0a.45.45,0,0,1,.39,0l.06.06h0v.18S13.64,50.23,13.59,50.26Z"/>
            <path class="cls-30" d="M13.59,50.09c.11-.07.11-.17,0-.23a.45.45,0,0,0-.39,0c-.11.06-.11.16,0,.23A.44.44,0,0,0,13.59,50.09Z"/>
            <path d="M13.46,50s0,0,0-.07a.15.15,0,0,0-.13,0,0,0,0,0,0,0,.07A.15.15,0,0,0,13.46,50Z"/>
            <polygon points="15.85 39.41 13.49 49.97 13.3 49.97 15.33 39.37 15.85 39.41"/>
          </g>
          <g>
            <path class="cls-29" d="M19.53,50.26a.44.44,0,0,1-.39,0,.14.14,0,0,1-.08-.11V50h0l.05,0a.44.44,0,0,1,.39,0l.06.06h0v.18A.14.14,0,0,1,19.53,50.26Z"/>
            <path class="cls-30" d="M19.53,50.09c.11-.07.11-.17,0-.23a.45.45,0,0,0-.39,0c-.11.06-.11.16,0,.23A.44.44,0,0,0,19.53,50.09Z"/>
            <path d="M19.4,50s0,0,0-.07a.15.15,0,0,0-.13,0,0,0,0,0,0,0,.07A.15.15,0,0,0,19.4,50Z"/>
            <polygon points="17.45 39.26 19.43 49.97 19.25 49.97 16.93 39.3 17.45 39.26"/>
          </g>
          <g>
            <path class="cls-29" d="M16.55,46.12a.39.39,0,0,1-.39,0c-.06,0-.09-.07-.09-.11v-.17h0l0,0a.45.45,0,0,1,.39,0,.1.1,0,0,1,.06.05h0V46A.12.12,0,0,1,16.55,46.12Z"/>
            <path class="cls-30" d="M16.54,46c.11-.06.11-.16,0-.22a.39.39,0,0,0-.39,0c-.11.06-.1.16,0,.22A.45.45,0,0,0,16.54,46Z"/>
            <path d="M16.41,45.88a0,0,0,0,0,0-.08.15.15,0,0,0-.13,0,0,0,0,0,0,0,.08A.15.15,0,0,0,16.41,45.88Z"/>
            <polygon points="16.63 39.88 16.44 45.84 16.26 45.84 16.11 39.88 16.63 39.88"/>
          </g>
          <g>
            <path class="cls-30" d="M17.35,39.89a2.14,2.14,0,0,1-1.94,0,.72.72,0,0,1-.41-.54V39l.14,0a1,1,0,0,1,.26-.22,2.17,2.17,0,0,1,1.94,0,.8.8,0,0,1,.3.27h.1v.33A.7.7,0,0,1,17.35,39.89Z"/>
            <path class="cls-29" d="M17.34,39.6a.59.59,0,0,0,0-1.12,2.14,2.14,0,0,0-1.94,0,.59.59,0,0,0,0,1.12A2.14,2.14,0,0,0,17.34,39.6Z"/>
          </g>
          <g>
            <path class="cls-27" d="M16.59,39.21a.49.49,0,0,1-.44,0,.15.15,0,0,1-.09-.12V32.85h0a.1.1,0,0,1,.06-.05.49.49,0,0,1,.44,0l.07.06h0V39.1A.19.19,0,0,1,16.59,39.21Z"/>
            <path class="cls-30" d="M16.59,33a.13.13,0,0,0,0-.25.49.49,0,0,0-.44,0,.13.13,0,0,0,0,.25A.49.49,0,0,0,16.59,33Z"/>
          </g>
          <g>
            <path class="cls-30" d="M16.72,33.12a.73.73,0,0,1-.7,0,.25.25,0,0,1-.15-.2V32l.05,0,.1-.07a.73.73,0,0,1,.7,0,.25.25,0,0,1,.11.09h0v.94C16.86,33,16.81,33.07,16.72,33.12Z"/>
            <path class="cls-29" d="M16.72,32.2a.21.21,0,0,0,0-.4.73.73,0,0,0-.7,0c-.2.11-.2.29,0,.4A.78.78,0,0,0,16.72,32.2Z"/>
          </g>
          <g>
            <path class="cls-30" d="M15.91,30.87a1,1,0,0,0-.46.8.35.35,0,0,0,.12.31l1.06.61.05-.05a.47.47,0,0,0,.15-.06,1,1,0,0,0,.47-.81.53.53,0,0,0,0-.19l0,0-1.07-.61A.31.31,0,0,0,15.91,30.87Z"/>
            <path class="cls-29" d="M17,31.48c.25-.15.46,0,.46.27a1,1,0,0,1-.46.8c-.26.15-.47,0-.47-.27A1,1,0,0,1,17,31.48Z"/>
          </g>
        </g>
        <g>
          <path class="cls-29" d="M19.52,28.12l-3.34,1.93.44,1.35,3.95-1.76.63-1.71A2.72,2.72,0,0,0,19.52,28.12Z"/>
          <path class="cls-27" d="M15.16,31.12v3.05a10.54,10.54,0,0,0,2.69,4.36V29.86A2.29,2.29,0,0,0,15.16,31.12Z"/>
          <polygon points="21.2 36.6 17.85 38.53 17.85 29.86 21.2 27.93 21.2 36.6"/>
          <polygon class="cls-33" points="21 36.46 18.05 38.17 18.05 29.95 21 28.24 21 36.46"/>
          <path class="cls-33" d="M18.51,29.68v2.56A10.43,10.43,0,0,0,21,36.39V28.24Z"/>
        </g>
      </g>
      <g>
        <g>
          <path class="cls-2" d="M33.27,42.59c1.86-1.08,1.86-2.82,0-3.91a7.46,7.46,0,0,0-6.76,0c-1.86,1.07-1.86,2.82,0,3.9A7.51,7.51,0,0,0,33.27,42.59Z"/>
          <g>
            <path class="cls-29" d="M27.11,42.46a.44.44,0,0,1-.39,0,.17.17,0,0,1-.08-.12v-.17h0l.06,0a.45.45,0,0,1,.39,0s.05,0,.06.05h0v.18A.17.17,0,0,1,27.11,42.46Z"/>
            <path class="cls-30" d="M27.11,42.28a.12.12,0,0,0,0-.22.44.44,0,0,0-.39,0c-.11.06-.11.16,0,.22A.39.39,0,0,0,27.11,42.28Z"/>
            <path d="M27,42.21a0,0,0,0,0,0-.08.15.15,0,0,0-.13,0,0,0,0,0,0,0,.08A.15.15,0,0,0,27,42.21Z"/>
            <polygon points="29.37 31.6 27 42.17 26.82 42.17 28.85 31.57 29.37 31.6"/>
          </g>
          <g>
            <path class="cls-29" d="M33.05,42.45a.41.41,0,0,1-.39,0,.14.14,0,0,1-.08-.11v-.17h0l0,0a.45.45,0,0,1,.39,0,.1.1,0,0,1,.06.05h0v.18A.13.13,0,0,1,33.05,42.45Z"/>
            <path class="cls-30" d="M33.05,42.28c.11-.06.11-.16,0-.22a.41.41,0,0,0-.39,0c-.11.06-.11.16,0,.22A.45.45,0,0,0,33.05,42.28Z"/>
            <path d="M32.92,42.21a0,0,0,0,0,0-.08.15.15,0,0,0-.13,0,0,0,0,0,0,0,.08A.15.15,0,0,0,32.92,42.21Z"/>
            <polygon points="30.97 31.46 32.95 42.17 32.76 42.17 30.45 31.5 30.97 31.46"/>
          </g>
          <g>
            <path class="cls-29" d="M30.06,38.32a.44.44,0,0,1-.39,0,.14.14,0,0,1-.08-.11V38h0s0,0,.05-.05a.45.45,0,0,1,.39,0l.06.06h0v.18S30.11,38.29,30.06,38.32Z"/>
            <path class="cls-30" d="M30.06,38.15c.11-.06.11-.16,0-.23a.45.45,0,0,0-.39,0,.12.12,0,0,0,0,.23A.44.44,0,0,0,30.06,38.15Z"/>
            <path d="M29.93,38.07a0,0,0,0,0,0-.07.15.15,0,0,0-.13,0s0,0,0,.07A.15.15,0,0,0,29.93,38.07Z"/>
            <polygon points="30.15 32.08 29.96 38.03 29.77 38.03 29.62 32.08 30.15 32.08"/>
          </g>
          <g>
            <path class="cls-30" d="M30.87,32.09a2.14,2.14,0,0,1-1.94,0,.73.73,0,0,1-.42-.55v-.3l.14,0a1,1,0,0,1,.27-.22,2.12,2.12,0,0,1,1.93,0,.93.93,0,0,1,.31.27h.09v.34A.69.69,0,0,1,30.87,32.09Z"/>
            <path class="cls-29" d="M30.85,31.8a.59.59,0,0,0,0-1.12,2.12,2.12,0,0,0-1.93,0,.59.59,0,0,0,0,1.12A2.12,2.12,0,0,0,30.85,31.8Z"/>
          </g>
          <g>
            <path class="cls-27" d="M30.11,31.41a.49.49,0,0,1-.44,0,.2.2,0,0,1-.1-.13V25h0a.1.1,0,0,1,.06-.05.47.47,0,0,1,.43,0,.14.14,0,0,1,.07.06h0v6.24A.14.14,0,0,1,30.11,31.41Z"/>
            <path class="cls-30" d="M30.1,25.17a.13.13,0,0,0,0-.25.47.47,0,0,0-.43,0c-.13.07-.12.18,0,.25A.47.47,0,0,0,30.1,25.17Z"/>
          </g>
          <g>
            <path class="cls-30" d="M30.24,25.32a.78.78,0,0,1-.7,0c-.1-.06-.15-.13-.15-.2V24.2l.05,0a.24.24,0,0,1,.09-.08.81.81,0,0,1,.71,0,.36.36,0,0,1,.11.1h0v.94A.26.26,0,0,1,30.24,25.32Z"/>
            <path class="cls-29" d="M30.24,24.4a.22.22,0,0,0,0-.41.81.81,0,0,0-.71,0,.22.22,0,0,0,0,.41A.81.81,0,0,0,30.24,24.4Z"/>
          </g>
          <g>
            <path class="cls-30" d="M29.43,23.06a1,1,0,0,0-.47.81.34.34,0,0,0,.13.3l1.05.61.06-.05a.33.33,0,0,0,.15-.05,1,1,0,0,0,.46-.81.5.5,0,0,0,0-.19l0,0L29.73,23A.37.37,0,0,0,29.43,23.06Z"/>
            <path class="cls-29" d="M30.47,23.67c.26-.14.47,0,.47.27a1,1,0,0,1-.47.81c-.25.15-.46,0-.46-.27A1,1,0,0,1,30.47,23.67Z"/>
          </g>
        </g>
        <g>
          <path class="cls-29" d="M33,20.32,29.7,22.25l.44,1.35,4-1.76.63-1.72A2.77,2.77,0,0,0,33,20.32Z"/>
          <path class="cls-27" d="M28.67,23.32v3.05a10.54,10.54,0,0,0,2.69,4.36V22.06A2.28,2.28,0,0,0,28.67,23.32Z"/>
          <polygon points="34.72 28.8 31.36 30.73 31.36 22.06 34.72 20.12 34.72 28.8"/>
          <polygon class="cls-33" points="34.52 28.66 31.57 30.36 31.57 22.14 34.52 20.44 34.52 28.66"/>
          <path class="cls-33" d="M32,21.88v2.55a10.43,10.43,0,0,0,2.49,4.16V20.44Z"/>
        </g>
      </g>
      <g>
        <g>
          <path class="cls-30" d="M67.87,57.84a10.57,10.57,0,0,0-2.7-4.38l-3.36,1.95,2.7,5.13Z"/>
          <path d="M65.48,61.66,63.2,62.78l.41,1.06L67,61.9h0a2.13,2.13,0,0,0,.9-1V57.84Z"/>
          <path class="cls-29" d="M64.51,62.84l.13-1.6-.13-1.46a10.5,10.5,0,0,0-2.7-4.37V64.1A2.29,2.29,0,0,0,64.51,62.84Z"/>
          <polygon class="cls-27" points="67.87 60.9 64.51 62.84 64.51 59.78 67.87 57.84 67.87 60.9"/>
        </g>
        <g>
          <path class="cls-2" d="M70,79.4c1.87-1.08,1.87-2.83,0-3.92a7.5,7.5,0,0,0-6.78,0c-1.87,1.08-1.87,2.82,0,3.91A7.49,7.49,0,0,0,70,79.4Z"/>
          <g>
            <path class="cls-29" d="M63.82,79.27a.45.45,0,0,1-.39,0,.14.14,0,0,1-.08-.11V79h0l0,0a.44.44,0,0,1,.39,0s0,0,.06.06h0v.18A.14.14,0,0,1,63.82,79.27Z"/>
            <path class="cls-30" d="M63.82,79.09c.11-.06.11-.16,0-.22a.44.44,0,0,0-.39,0c-.11.06-.11.16,0,.22A.39.39,0,0,0,63.82,79.09Z"/>
            <path d="M63.69,79s0,0,0-.08a.15.15,0,0,0-.13,0s0,.06,0,.08A.15.15,0,0,0,63.69,79Z"/>
            <polygon points="66.09 68.38 63.72 78.98 63.53 78.98 65.56 68.35 66.09 68.38"/>
          </g>
          <g>
            <path class="cls-29" d="M69.78,79.27a.45.45,0,0,1-.39,0,.17.17,0,0,1-.08-.12V79h0s0,0,.06,0a.44.44,0,0,1,.39,0s0,0,.06,0h0v.18A.17.17,0,0,1,69.78,79.27Z"/>
            <path class="cls-30" d="M69.78,79.09c.11-.06.11-.16,0-.22a.41.41,0,0,0-.39,0c-.11.06-.11.16,0,.22A.41.41,0,0,0,69.78,79.09Z"/>
            <path d="M69.65,79a0,0,0,0,0,0-.08.15.15,0,0,0-.13,0,0,0,0,0,0,0,.08A.15.15,0,0,0,69.65,79Z"/>
            <polygon points="67.69 68.24 69.67 78.98 69.49 78.98 67.17 68.28 67.69 68.24"/>
          </g>
          <g>
            <path class="cls-29" d="M66.78,75.12a.45.45,0,0,1-.39,0,.14.14,0,0,1-.08-.11v-.18h0a.12.12,0,0,1,0,0,.45.45,0,0,1,.39,0,.17.17,0,0,1,.06.06h0V75A.14.14,0,0,1,66.78,75.12Z"/>
            <path class="cls-30" d="M66.78,75c.11-.07.11-.17,0-.23a.45.45,0,0,0-.39,0c-.11.06-.11.16,0,.23A.45.45,0,0,0,66.78,75Z"/>
            <path d="M66.65,74.87a0,0,0,0,0,0-.07.15.15,0,0,0-.13,0s0,0,0,.07A.15.15,0,0,0,66.65,74.87Z"/>
            <polygon points="66.87 68.86 66.68 74.83 66.49 74.83 66.34 68.86 66.87 68.86"/>
          </g>
          <g>
            <path class="cls-30" d="M67.59,68.87a2.14,2.14,0,0,1-1.94,0,.71.71,0,0,1-.42-.55V68l.14,0a1.13,1.13,0,0,1,.26-.21,2.16,2.16,0,0,1,2,0,.8.8,0,0,1,.3.27H68v.34A.7.7,0,0,1,67.59,68.87Z"/>
            <path class="cls-29" d="M67.58,68.58a.59.59,0,0,0,0-1.12,2.13,2.13,0,0,0-2,0,.59.59,0,0,0,0,1.12A2.16,2.16,0,0,0,67.58,68.58Z"/>
          </g>
          <g>
            <path class="cls-27" d="M66.83,68.19a.49.49,0,0,1-.44,0,.2.2,0,0,1-.1-.13V61.81h0l0,0a.49.49,0,0,1,.44,0,.22.22,0,0,1,.07.06h0v6.26A.14.14,0,0,1,66.83,68.19Z"/>
            <path class="cls-30" d="M66.82,61.93a.13.13,0,0,0,0-.25.49.49,0,0,0-.44,0,.13.13,0,0,0,0,.25A.49.49,0,0,0,66.82,61.93Z"/>
          </g>
          <g>
            <path class="cls-30" d="M67,62.08a.78.78,0,0,1-.7,0,.28.28,0,0,1-.16-.2V61h.06a.24.24,0,0,1,.09-.08.81.81,0,0,1,.71,0,.27.27,0,0,1,.11.1h0v.94C67.1,62,67.05,62,67,62.08Z"/>
            <path class="cls-29" d="M67,61.16a.22.22,0,0,0,0-.41.81.81,0,0,0-.71,0c-.19.11-.19.29,0,.41A.81.81,0,0,0,67,61.16Z"/>
          </g>
          <g>
            <path class="cls-30" d="M66.15,59.82a1,1,0,0,0-.47.81.34.34,0,0,0,.13.3l1.06.61,0,0a.33.33,0,0,0,.15-.05,1,1,0,0,0,.47-.81.59.59,0,0,0,0-.2l0,0-1.07-.62A.31.31,0,0,0,66.15,59.82Z"/>
            <path class="cls-29" d="M67.2,60.43c.25-.15.46,0,.46.27a1,1,0,0,1-.46.81c-.26.15-.47,0-.47-.27A1,1,0,0,1,67.2,60.43Z"/>
          </g>
        </g>
      </g>
      <g>
        <g>
          <path class="cls-30" d="M81.4,50a10.57,10.57,0,0,0-2.7-4.38l-3.36,1.94L78,52.73Z"/>
          <path d="M79,53.85,76.73,55,77.14,56l3.36-1.94h0a2.11,2.11,0,0,0,.9-1V50Z"/>
          <path class="cls-29" d="M78,55l.13-1.6L78,52a10.57,10.57,0,0,0-2.7-4.38v8.7A2.3,2.3,0,0,0,78,55Z"/>
          <polygon class="cls-27" points="81.4 53.09 78.04 55.03 78.04 51.97 81.4 50.02 81.4 53.09"/>
        </g>
        <g>
          <path class="cls-2" d="M83.53,71.58c1.87-1.08,1.87-2.82,0-3.91a7.5,7.5,0,0,0-6.78,0c-1.87,1.08-1.87,2.83,0,3.91A7.46,7.46,0,0,0,83.53,71.58Z"/>
          <g>
            <path class="cls-29" d="M77.36,71.45a.41.41,0,0,1-.39,0c-.06,0-.09-.07-.09-.11v-.17h0a.1.1,0,0,1,0,0,.39.39,0,0,1,.39,0,.18.18,0,0,1,.07,0h0v.18A.12.12,0,0,1,77.36,71.45Z"/>
            <path class="cls-30" d="M77.35,71.28c.11-.06.11-.16,0-.22a.39.39,0,0,0-.39,0c-.11.06-.11.16,0,.22A.44.44,0,0,0,77.35,71.28Z"/>
            <path d="M77.22,71.21a0,0,0,0,0,0-.08.15.15,0,0,0-.13,0,0,0,0,0,0,0,.08A.15.15,0,0,0,77.22,71.21Z"/>
            <polygon points="79.62 60.57 77.25 71.17 77.07 71.17 79.1 60.53 79.62 60.57"/>
          </g>
          <g>
            <path class="cls-29" d="M83.31,71.45a.44.44,0,0,1-.39,0,.14.14,0,0,1-.08-.11v-.17h0a.1.1,0,0,1,0,0,.39.39,0,0,1,.39,0,.1.1,0,0,1,.06,0h0v.18S83.36,71.42,83.31,71.45Z"/>
            <path class="cls-30" d="M83.31,71.28c.11-.06.11-.16,0-.23a.45.45,0,0,0-.39,0c-.11.07-.11.17,0,.23A.44.44,0,0,0,83.31,71.28Z"/>
            <path d="M83.18,71.2s0,0,0-.07a.15.15,0,0,0-.13,0s0,.05,0,.07A.1.1,0,0,0,83.18,71.2Z"/>
            <polygon points="81.23 60.43 83.21 71.17 83.02 71.17 80.7 60.46 81.23 60.43"/>
          </g>
          <g>
            <path class="cls-29" d="M80.32,67.31a.47.47,0,0,1-.4,0,.15.15,0,0,1-.08-.12V67h0l0,0a.44.44,0,0,1,.39,0,.1.1,0,0,1,.06,0h0v.18A.13.13,0,0,1,80.32,67.31Z"/>
            <path class="cls-30" d="M80.31,67.13c.11-.06.11-.16,0-.22a.45.45,0,0,0-.39,0c-.11.06-.11.16,0,.22A.39.39,0,0,0,80.31,67.13Z"/>
            <path d="M80.18,67.06a0,0,0,0,0,0-.08.15.15,0,0,0-.13,0,0,0,0,0,0,0,.08A.15.15,0,0,0,80.18,67.06Z"/>
            <polygon points="80.4 61.05 80.21 67.02 80.03 67.02 79.88 61.05 80.4 61.05"/>
          </g>
          <g>
            <path class="cls-30" d="M81.12,61.06a2.14,2.14,0,0,1-1.94,0,.73.73,0,0,1-.42-.55V60.2l.14,0a1,1,0,0,1,.27-.21,2.11,2.11,0,0,1,1.94,0,.83.83,0,0,1,.31.27h.09v.33A.68.68,0,0,1,81.12,61.06Z"/>
            <path class="cls-29" d="M81.11,60.76a.59.59,0,0,0,0-1.12,2.14,2.14,0,0,0-1.94,0,.59.59,0,0,0,0,1.12A2.11,2.11,0,0,0,81.11,60.76Z"/>
          </g>
          <g>
            <path class="cls-27" d="M80.36,60.37a.49.49,0,0,1-.44,0,.15.15,0,0,1-.09-.12V54h0l.06,0a.49.49,0,0,1,.44,0l.07.07h0v6.26A.19.19,0,0,1,80.36,60.37Z"/>
            <path class="cls-30" d="M80.36,54.12a.13.13,0,0,0,0-.25.49.49,0,0,0-.44,0,.13.13,0,0,0,0,.25A.49.49,0,0,0,80.36,54.12Z"/>
          </g>
          <g>
            <path class="cls-30" d="M80.5,54.27a.81.81,0,0,1-.71,0c-.1-.06-.15-.13-.15-.2v-.93l0,0a.35.35,0,0,1,.09-.07.75.75,0,0,1,.71,0,.25.25,0,0,1,.11.09h0v.94A.29.29,0,0,1,80.5,54.27Z"/>
            <path class="cls-29" d="M80.49,53.34c.2-.11.2-.29,0-.4a.75.75,0,0,0-.71,0,.21.21,0,0,0,0,.4A.75.75,0,0,0,80.49,53.34Z"/>
          </g>
          <g>
            <path class="cls-30" d="M79.68,52a1,1,0,0,0-.47.81.35.35,0,0,0,.13.31l1.06.61,0,0a.47.47,0,0,0,.15-.06,1,1,0,0,0,.47-.81.38.38,0,0,0,0-.19l0,0L80,52A.37.37,0,0,0,79.68,52Z"/>
            <path class="cls-29" d="M80.73,52.62c.26-.15.47,0,.47.27a1,1,0,0,1-.47.81c-.26.14-.47,0-.47-.27A1,1,0,0,1,80.73,52.62Z"/>
          </g>
        </g>
      </g>
      <g>
        <g>
          <path class="cls-39" d="M21.47,60.85l-7.09-3.57a8.33,8.33,0,0,0,5,3.76Z"/>
          <path class="cls-27" d="M22.69,59.12S14.4,57,14.38,57.28a11.1,11.1,0,0,0,7.09,3.57Z"/>
          <path class="cls-39" d="M22.69,56.32l-8.31,1s4.24,2.82,8.31,1.84Z"/>
          <path class="cls-27" d="M21.47,53.19l-7.09,4.09s5.17.83,8.31-1Z"/>
          <path class="cls-39" d="M19.37,50.57a13.29,13.29,0,0,0-5,6.71,22.37,22.37,0,0,0,7.09-4.09Z"/>
          <path class="cls-27" d="M13.62,51.08a11.26,11.26,0,0,0,.76,6.2l.45-7.93Z"/>
          <path class="cls-39" d="M14.83,49.35a13.72,13.72,0,0,0-.45,7.93l2.56-8.11Z"/>
          <path class="cls-27" d="M16.94,49.17a14.56,14.56,0,0,0-2.56,8.11,19.2,19.2,0,0,1,5-6.71Z"/>
        </g>
        <g>
          <path class="cls-2" d="M10.81,73.79C9,72.73,9,71,10.81,70a7.33,7.33,0,0,1,6.64,0c1.84,1.06,1.84,2.77,0,3.84A7.35,7.35,0,0,1,10.81,73.79Z"/>
          <g>
            <path class="cls-29" d="M16.86,73.66a.42.42,0,0,0,.38,0,.14.14,0,0,0,.08-.11v-.17h0a.1.1,0,0,0-.05,0,.42.42,0,0,0-.38,0,.1.1,0,0,0-.06,0h0v.18S16.81,73.63,16.86,73.66Z"/>
            <path class="cls-30" d="M16.86,73.49c-.11-.06-.11-.16,0-.22a.42.42,0,0,1,.38,0c.11.06.11.16,0,.22A.42.42,0,0,1,16.86,73.49Z"/>
            <path d="M17,73.42a0,0,0,0,1,0-.08.13.13,0,0,1,.12,0,0,0,0,0,1,0,.08A.13.13,0,0,1,17,73.42Z"/>
            <polygon points="14.63 62.99 16.96 73.38 17.14 73.38 15.15 62.96 14.63 62.99"/>
          </g>
          <g>
            <path class="cls-29" d="M11,73.66a.42.42,0,0,0,.38,0,.14.14,0,0,0,.08-.11v-.17h0a.1.1,0,0,0,0,0,.42.42,0,0,0-.38,0,.1.1,0,0,0-.06,0h0v.18A.14.14,0,0,0,11,73.66Z"/>
            <path class="cls-30" d="M11,73.49c-.11-.06-.11-.16,0-.22a.42.42,0,0,1,.38,0c.11.06.11.16,0,.22A.42.42,0,0,1,11,73.49Z"/>
            <path d="M11.15,73.41s0,0,0-.07a.15.15,0,0,1,.13,0,0,0,0,0,1,0,.07A.15.15,0,0,1,11.15,73.41Z"/>
            <polygon points="13.06 62.85 11.12 73.38 11.3 73.38 13.58 62.89 13.06 62.85"/>
          </g>
          <g>
            <path class="cls-29" d="M14,69.59a.42.42,0,0,0,.38,0,.14.14,0,0,0,.08-.1v-.18h0l-.05,0a.42.42,0,0,0-.38,0,.17.17,0,0,0-.06.06h0v.17A.11.11,0,0,0,14,69.59Z"/>
            <path class="cls-30" d="M14,69.43c-.11-.07-.11-.16,0-.23a.42.42,0,0,1,.38,0c.11.06.11.16,0,.23A.42.42,0,0,1,14,69.43Z"/>
            <path d="M14.09,69.35s0,0,0-.07a.13.13,0,0,1,.12,0s0,0,0,.07A.13.13,0,0,1,14.09,69.35Z"/>
            <polygon points="13.87 63.46 14.06 69.31 14.24 69.31 14.39 63.46 13.87 63.46"/>
          </g>
          <g>
            <path class="cls-30" d="M13.16,63.47a2.14,2.14,0,0,0,1.91,0,.7.7,0,0,0,.41-.54v-.3l-.14,0a1.13,1.13,0,0,0-.26-.21,2.12,2.12,0,0,0-1.9,0,.8.8,0,0,0-.3.27h-.09V63A.73.73,0,0,0,13.16,63.47Z"/>
            <path class="cls-29" d="M13.18,63.18c-.53-.3-.53-.79,0-1.1a2.12,2.12,0,0,1,1.9,0c.53.31.53.8,0,1.1A2.06,2.06,0,0,1,13.18,63.18Z"/>
          </g>
          <g>
            <path class="cls-27" d="M13.91,62.8a.47.47,0,0,0,.43,0,.15.15,0,0,0,.09-.12V58.6h0l-.06,0a.45.45,0,0,0-.42,0,.09.09,0,0,0-.07.06h0v4.08A.14.14,0,0,0,13.91,62.8Z"/>
            <path class="cls-30" d="M13.92,58.73a.13.13,0,0,1,0-.25.45.45,0,0,1,.42,0,.13.13,0,0,1,0,.25A.48.48,0,0,1,13.92,58.73Z"/>
          </g>
          <g>
            <path class="cls-30" d="M13.78,58.87a.76.76,0,0,0,.69,0,.25.25,0,0,0,.15-.19v-.91l0,0a.31.31,0,0,0-.09-.07.75.75,0,0,0-.7,0,.33.33,0,0,0-.11.09h0v.92A.24.24,0,0,0,13.78,58.87Z"/>
            <path class="cls-29" d="M13.78,58a.21.21,0,0,1,0-.4.78.78,0,0,1,.7,0,.21.21,0,0,1,0,.4A.78.78,0,0,1,13.78,58Z"/>
          </g>
          <g>
            <path class="cls-30" d="M14.58,56.65a1.06,1.06,0,0,1,.46.8.34.34,0,0,1-.13.3l-1,.59,0,0-.15-.06a1,1,0,0,1-.45-.79.5.5,0,0,1,0-.19l0,0,1-.61A.37.37,0,0,1,14.58,56.65Z"/>
            <path class="cls-29" d="M13.55,57.26c-.25-.15-.46,0-.46.26a1,1,0,0,0,.46.79c.25.15.46,0,.46-.26A1,1,0,0,0,13.55,57.26Z"/>
          </g>
        </g>
      </g>
      <g>
        <path class="cls-2" d="M72.48,85.87h0a1.36,1.36,0,0,1-.65-.16l-2.68-1.54a.65.65,0,0,1-.35-.54.63.63,0,0,1,.35-.53l11.47-6.62a1.46,1.46,0,0,1,1.32,0L84.61,78a.58.58,0,0,1,0,1.07L73.14,85.71A1.37,1.37,0,0,1,72.48,85.87Z"/>
        <path class="cls-27" d="M69.29,83.94,72,85.48a1.14,1.14,0,0,0,1.05,0l11.47-6.62a.32.32,0,0,0,0-.61L81.8,76.71a1.14,1.14,0,0,0-1,0L69.29,83.33A.32.32,0,0,0,69.29,83.94Z"/>
        <polygon class="cls-27" points="69.07 81.85 84.69 76.77 84.69 78.56 69.07 83.63 69.07 81.85"/>
        <path class="cls-29" d="M69.29,82.15,72,83.7a1.21,1.21,0,0,0,1.05,0l11.47-6.62a.32.32,0,0,0,0-.61L81.8,74.93a1.14,1.14,0,0,0-1,0L69.29,81.55A.32.32,0,0,0,69.29,82.15Z"/>
        <polygon points="83.28 75.77 70.76 83 70.56 82.89 83.08 75.66 83.28 75.77"/>
        <polygon points="82.81 75.51 83.58 75.95 83.58 75.68 82.81 75.23 82.81 75.51"/>
        <path d="M83.58,75.68c.94,9.92-12.52,7.23-12.52,7.23l-.77-.45s0-.24.66,0c2.2.64,13.55,1.77,11.86-7.18A2.81,2.81,0,0,1,83.58,75.68Z"/>
        <polygon points="70.29 82.73 71.06 83.18 71.06 82.91 70.29 82.46 70.29 82.73"/>
      </g>
      <g>
        <g>
          <path class="cls-27" d="M54.35,63.46a14.47,14.47,0,0,1-4.61,7.25s4.48-1.18,6.29-4.8Z"/>
          <path class="cls-27" d="M48.05,72.6c.72-.69,1.69-1.89,1.69-1.89a7.62,7.62,0,0,0,1.69,1.89Z"/>
          <path class="cls-39" d="M45.13,71.18a10.44,10.44,0,0,0,4.61-.47,3.61,3.61,0,0,1-1.69,1.89Z"/>
          <path class="cls-27" d="M43.45,68.74a13.48,13.48,0,0,0,6.29,2,6.44,6.44,0,0,1-4.61.47Z"/>
          <path class="cls-39" d="M43.45,65.91c1.87,3,6.29,4.8,6.29,4.8a9.53,9.53,0,0,1-6.29-2Z"/>
          <path class="cls-27" d="M45.13,63.46a14.4,14.4,0,0,0,4.61,7.25s-4.48-1.18-6.29-4.8Z"/>
          <path class="cls-39" d="M54.35,71.18a10.42,10.42,0,0,1-4.61-.47,3.61,3.61,0,0,0,1.69,1.89Z"/>
          <path class="cls-27" d="M56,68.74a13.48,13.48,0,0,1-6.29,2,6.44,6.44,0,0,0,4.61.47Z"/>
          <path class="cls-39" d="M56,65.91c-1.87,3-6.29,4.8-6.29,4.8a9.54,9.54,0,0,0,6.29-2Z"/>
          <path class="cls-27" d="M48.05,62.05a12.9,12.9,0,0,0,1.69,8.66c2.61-3.73,1.69-8.66,1.69-8.66Z"/>
          <path class="cls-39" d="M48.05,62.05a23.54,23.54,0,0,0,1.69,8.66,11.92,11.92,0,0,1-4.61-7.25Z"/>
          <path class="cls-39" d="M51.43,62.05a23.54,23.54,0,0,1-1.69,8.66,11.92,11.92,0,0,0,4.61-7.25Z"/>
          <path class="cls-27" d="M50.44,70.71a.71.71,0,0,1-1.4,0,.71.71,0,0,1,1.4,0Z"/>
        </g>
        <g>
          <path class="cls-2" d="M53.13,87.89C55,86.81,55,85.06,53.13,84a7.47,7.47,0,0,0-6.78,0c-1.87,1.08-1.87,2.82,0,3.91A7.52,7.52,0,0,0,53.13,87.89Z"/>
          <g>
            <path class="cls-29" d="M47,87.76a.44.44,0,0,1-.39,0q-.09-.06-.09-.12v-.17h0l.05,0a.44.44,0,0,1,.39,0l.07,0h0v.18A.17.17,0,0,1,47,87.76Z"/>
            <path class="cls-30" d="M47,87.58c.11-.06.11-.16,0-.22a.41.41,0,0,0-.39,0,.12.12,0,0,0,0,.22A.39.39,0,0,0,47,87.58Z"/>
            <path d="M46.82,87.51a0,0,0,0,0,0-.08.15.15,0,0,0-.13,0,0,0,0,0,0,0,.08A.15.15,0,0,0,46.82,87.51Z"/>
            <polygon points="49.22 76.87 46.85 87.47 46.67 87.47 48.7 76.83 49.22 76.87"/>
          </g>
          <g>
            <path class="cls-29" d="M52.92,87.75a.41.41,0,0,1-.4,0,.14.14,0,0,1-.08-.11v-.17h0a.1.1,0,0,1,.05,0,.41.41,0,0,1,.39,0,.1.1,0,0,1,.06,0h0v.18A.12.12,0,0,1,52.92,87.75Z"/>
            <path class="cls-30" d="M52.91,87.58c.11-.06.11-.16,0-.22a.39.39,0,0,0-.39,0c-.11.06-.11.16,0,.22A.44.44,0,0,0,52.91,87.58Z"/>
            <path d="M52.78,87.51a0,0,0,0,0,0-.08.15.15,0,0,0-.13,0,0,0,0,0,0,0,.08A.15.15,0,0,0,52.78,87.51Z"/>
            <polygon points="50.83 76.73 52.81 87.47 52.62 87.47 50.3 76.76 50.83 76.73"/>
          </g>
          <g>
            <path class="cls-29" d="M49.92,83.61a.44.44,0,0,1-.39,0c-.06,0-.09-.07-.09-.11v-.18h0l.05,0a.44.44,0,0,1,.39,0,.2.2,0,0,1,.07.06h0v.18A.18.18,0,0,1,49.92,83.61Z"/>
            <path class="cls-30" d="M49.91,83.44c.11-.07.11-.17,0-.23a.44.44,0,0,0-.39,0c-.11.06-.1.16,0,.23A.44.44,0,0,0,49.91,83.44Z"/>
            <path d="M49.78,83.36s0,0,0-.08a.12.12,0,0,0-.13,0,0,0,0,0,0,0,.07A.15.15,0,0,0,49.78,83.36Z"/>
            <polygon points="50 77.35 49.81 83.32 49.63 83.32 49.48 77.35 50 77.35"/>
          </g>
          <g>
            <path class="cls-30" d="M50.73,77.36a2.16,2.16,0,0,1-1.95,0,.73.73,0,0,1-.42-.55v-.3l.15-.05a1,1,0,0,1,.26-.21,2.14,2.14,0,0,1,1.94,0,.93.93,0,0,1,.31.27h.09v.34A.69.69,0,0,1,50.73,77.36Z"/>
            <path class="cls-29" d="M50.71,77.07c.54-.31.54-.81,0-1.13a2.14,2.14,0,0,0-1.94,0c-.54.3-.54.8,0,1.12A2.14,2.14,0,0,0,50.71,77.07Z"/>
          </g>
          <g>
            <path class="cls-27" d="M50,76.68a.49.49,0,0,1-.44,0c-.06,0-.09-.08-.09-.13v-4.2h0l.06,0a.49.49,0,0,1,.44,0l.07.06h0v4.21A.19.19,0,0,1,50,76.68Z"/>
            <path class="cls-30" d="M50,72.48a.14.14,0,0,0,0-.26.49.49,0,0,0-.44,0,.14.14,0,0,0,0,.26A.49.49,0,0,0,50,72.48Z"/>
          </g>
          <g>
            <path class="cls-30" d="M50.1,72.63a.81.81,0,0,1-.71,0c-.09-.06-.15-.13-.15-.2V71.5l0,0a.44.44,0,0,1,.1-.08.78.78,0,0,1,.7,0,.36.36,0,0,1,.11.1h0v.94A.27.27,0,0,1,50.1,72.63Z"/>
            <path class="cls-29" d="M50.09,71.7c.2-.11.2-.29,0-.41a.78.78,0,0,0-.7,0c-.2.12-.2.3,0,.41A.78.78,0,0,0,50.09,71.7Z"/>
          </g>
          <g>
            <path class="cls-30" d="M49.74,70.05a.63.63,0,0,0-.68.57v1h1.36v-1A.63.63,0,0,0,49.74,70.05Z"/>
            <path class="cls-29" d="M50.42,71.6a.69.69,0,1,1-.68-.57A.64.64,0,0,1,50.42,71.6Z"/>
          </g>
        </g>
      </g>
      <g>
        <path class="cls-27" d="M34.59,72.42a.1.1,0,0,1-.09-.07.09.09,0,0,1,.07-.1l1.9-.38a.08.08,0,0,1,.1.07.09.09,0,0,1-.07.1l-1.9.38Z"/>
        <path class="cls-2" d="M42,81.88,38.73,80c.49-.45.39-1.06-.29-1.45a3.18,3.18,0,0,0-2.5-.16L32.69,76.5l-.53.3,3.23,1.87c-.6.45-.54,1.11.18,1.53a3.18,3.18,0,0,0,2.65.1l3.26,1.88Z"/>
        <g>
          <path class="cls-29" d="M35.88,80.13a.15.15,0,0,1-.16,0s0,0,0,0V80h0l0,0a.22.22,0,0,1,.16,0l0,0h0v.07S35.9,80.12,35.88,80.13Z"/>
          <path class="cls-30" d="M35.88,80.06s0-.06,0-.09a.15.15,0,0,0-.16,0s0,.07,0,.09A.15.15,0,0,0,35.88,80.06Z"/>
          <path class="cls-18" d="M35.82,80s0,0,0,0a0,0,0,0,0,0,0s0,0,0,0A0,0,0,0,0,35.82,80Z"/>
          <polygon class="cls-18" points="36.86 73.15 35.83 80.02 35.76 80.02 36.65 73.14 36.86 73.15"/>
        </g>
        <g>
          <path class="cls-29" d="M38.3,80.13a.15.15,0,0,1-.16,0,.05.05,0,0,1,0,0V80h0l0,0a.22.22,0,0,1,.16,0l0,0h0v.07A.05.05,0,0,1,38.3,80.13Z"/>
          <path class="cls-30" d="M38.3,80.06a0,0,0,0,0,0-.09.15.15,0,0,0-.16,0,0,0,0,0,0,0,.09A.15.15,0,0,0,38.3,80.06Z"/>
          <path class="cls-18" d="M38.25,80a0,0,0,0,0,0,0,.06.06,0,0,0-.06,0,0,0,0,0,0,0,0A.06.06,0,0,0,38.25,80Z"/>
          <polygon class="cls-18" points="37.45 73.1 38.26 80.02 38.18 80.02 37.24 73.11 37.45 73.1"/>
        </g>
        <g>
          <path class="cls-29" d="M37.08,78.45a.22.22,0,0,1-.16,0s0,0,0,0v-.07h0a0,0,0,0,1,0,0,.15.15,0,0,1,.16,0,0,0,0,0,1,0,0h0v.07S37.1,78.43,37.08,78.45Z"/>
          <path class="cls-30" d="M37.08,78.37s0-.06,0-.09a.22.22,0,0,0-.16,0s0,.07,0,.09A.15.15,0,0,0,37.08,78.37Z"/>
          <path class="cls-18" d="M37,78.34s0,0,0,0H37s0,0,0,0Z"/>
          <polygon class="cls-18" points="37.12 72.3 37.04 78.33 36.96 78.33 36.9 72.3 37.12 72.3"/>
        </g>
        <g>
          <path class="cls-26" d="M37.59,73.43a1.29,1.29,0,0,1-1.15,0,.42.42,0,0,1-.24-.33h0v-.22h.09a.47.47,0,0,1,.15-.12,1.23,1.23,0,0,1,1.15,0,.44.44,0,0,1,.19.16h0v.21A.4.4,0,0,1,37.59,73.43Z"/>
          <path class="cls-18" d="M37.58,73.24a.35.35,0,0,0,0-.66,1.23,1.23,0,0,0-1.15,0,.35.35,0,0,0,0,.66A1.26,1.26,0,0,0,37.58,73.24Z"/>
          <path class="cls-2" d="M37.37,73.15c.21-.12.21-.3,0-.42a.79.79,0,0,0-.73,0c-.2.12-.2.3,0,.42A.79.79,0,0,0,37.37,73.15Z"/>
        </g>
        <g>
          <path class="cls-30" d="M37.34,73.11a.76.76,0,0,1-.66,0,.23.23,0,0,1-.14-.19v-.87h.05a.24.24,0,0,1,.09-.08.76.76,0,0,1,.66,0,.3.3,0,0,1,.1.09h0v.88A.25.25,0,0,1,37.34,73.11Z"/>
          <path class="cls-29" d="M37.34,72.24c.18-.1.18-.27,0-.38a.7.7,0,0,0-.66,0,.2.2,0,0,0,0,.38A.7.7,0,0,0,37.34,72.24Z"/>
        </g>
        <g>
          <path class="cls-40" d="M37.48,72.36a1,1,0,0,1-.93,0,.33.33,0,0,1-.2-.26v-.7l.07,0a.4.4,0,0,1,.12-.1,1,1,0,0,1,.93,0,.39.39,0,0,1,.15.13h0v.71A.31.31,0,0,1,37.48,72.36Z"/>
          <path class="cls-20" d="M37.47,71.67a.28.28,0,0,0,0-.54,1,1,0,0,0-.93,0,.29.29,0,0,0,0,.54A1,1,0,0,0,37.47,71.67Z"/>
        </g>
        <g>
          <path class="cls-26" d="M37.59,71.77a1.29,1.29,0,0,1-1.15,0,.42.42,0,0,1-.24-.33h0v-.22h.09a.49.49,0,0,1,.15-.13,1.23,1.23,0,0,1,1.15,0,.52.52,0,0,1,.19.16h0v.21A.39.39,0,0,1,37.59,71.77Z"/>
          <path class="cls-18" d="M37.58,71.58a.35.35,0,0,0,0-.66,1.23,1.23,0,0,0-1.15,0,.35.35,0,0,0,0,.66A1.23,1.23,0,0,0,37.58,71.58Z"/>
        </g>
        <g>
          <g>
            <polygon class="cls-30" points="42.01 73.83 41.48 74.13 32.16 68.5 32.69 68.2 42.01 73.58 42.01 73.83"/>
            <polygon class="cls-27" points="41.7 73.75 32.38 68.37 32.48 68.31 41.8 73.7 41.7 73.75"/>
            <polygon class="cls-27" points="41.48 74.13 32.16 68.75 32.16 68.5 41.48 73.88 41.48 74.13"/>
          </g>
          <g>
            <path class="cls-29" d="M40.37,73a.49.49,0,0,1-.47,0,.18.18,0,0,1-.1-.13v-.61h0s0,0,.06,0a.55.55,0,0,1,.47,0,.23.23,0,0,1,.07.07h0v.61A.14.14,0,0,1,40.37,73Z"/>
            <path class="cls-30" d="M40.37,72.36c.12-.08.12-.2,0-.27a.49.49,0,0,0-.47,0c-.13.07-.13.19,0,.27A.55.55,0,0,0,40.37,72.36Z"/>
          </g>
          <g>
            <polygon class="cls-30" points="40.15 72.2 39.71 71.95 40.14 71.7 40.58 71.95 40.15 72.2"/>
            <polygon class="cls-27" points="40.58 71.81 40.58 71.95 40.15 72.2 40.15 72.06 40.06 72.12 40.06 72.4 40.68 72.05 40.68 71.76 40.58 71.81"/>
            <polygon class="cls-29" points="40.06 72.4 39.61 72.15 39.61 71.86 40.06 72.12 40.06 72.4"/>
            <polygon class="cls-29" points="40.58 71.95 40.14 71.7 40.14 71.56 40.58 71.81 40.58 71.95"/>
            <polygon class="cls-30" points="40.06 72.12 39.61 71.86 39.71 71.81 40.15 72.06 40.06 72.12"/>
            <polygon class="cls-30" points="40.58 71.81 40.14 71.56 40.23 71.5 40.67 71.76 40.58 71.81"/>
          </g>
        </g>
        <path class="cls-27" d="M34.76,72.34a.17.17,0,0,1-.17.16.16.16,0,0,1-.17-.16.16.16,0,0,1,.17-.17A.17.17,0,0,1,34.76,72.34Z"/>
      </g>
      <line class="cls-5" x1="47.04" y1="12.94" x2="76.57" y2="29.91"/>
      <line class="cls-5" x1="47.04" y1="18.85" x2="76.57" y2="35.82"/>
      <line class="cls-5" x1="47.04" y1="24.3" x2="76.57" y2="41.27"/>
      <line class="cls-5" x1="56.56" y1="12.11" x2="56.57" y2="18.42"/>
      <line class="cls-5" x1="67.47" y1="18.28" x2="67.48" y2="24.69"/>
      <line class="cls-5" x1="51.78" y1="15.8" x2="51.8" y2="21.83"/>
      <line class="cls-5" x1="60.88" y1="20.9" x2="60.89" y2="26.93"/>
      <line class="cls-5" x1="71.38" y1="26.94" x2="71.4" y2="32.97"/>
      <line class="cls-5" x1="49.28" y1="20.12" x2="49.28" y2="25.56"/>
      <line class="cls-5" x1="57.47" y1="24.89" x2="57.47" y2="30.33"/>
      <line class="cls-5" x1="65.65" y1="29.66" x2="65.65" y2="35.11"/>
      <line class="cls-5" x1="74.51" y1="34.66" x2="74.51" y2="40.11"/>
      <line class="cls-5" x1="51.56" y1="27.16" x2="51.56" y2="32.61"/>
      <line class="cls-5" x1="68.6" y1="36.94" x2="68.6" y2="42.38"/>
      <line class="cls-5" x1="49.28" y1="31.25" x2="49.28" y2="36.7"/>
      <line class="cls-5" x1="50.58" y1="37.38" x2="50.58" y2="41.51"/>
    </g>
    <g class="cls-41">
      <g>
        <g>
          <path class="cls-42" d="M86.68,99.24,81.07,96l5.61-3.24L92.29,96ZM81.44,96l5.24,3,5.24-3-5.24-3Z"/>
          <g>
            <path class="cls-42" d="M81.3,96.15l-5.61-3.24,5.61-3.24,5.61,3.24Zm-5.24-3.24,5.24,3,5.24-3-5.24-3Z"/>
            <path class="cls-42" d="M75.87,99.28,70.26,96l5.61-3.24L81.49,96ZM70.64,96l5.23,3,5.24-3-5.24-3Z"/>
          </g>
        </g>
        <g>
          <path class="cls-43" d="M86.71,99.41,81.1,96.17l5.61-3.24,5.61,3.24Zm-5.23-3.24,5.23,3,5.24-3-5.24-3Z"/>
          <g>
            <path class="cls-43" d="M81.33,96.32l-5.61-3.24,5.61-3.24,5.61,3.24Zm-5.24-3.24,5.24,3,5.24-3-5.24-3Z"/>
            <path class="cls-43" d="M75.91,99.45,70.3,96.21,75.91,93l5.61,3.24Zm-5.24-3.24,5.24,3,5.23-3-5.23-3Z"/>
          </g>
        </g>
      </g>
    </g>
  </g>
</svg>
